<svg xmlns="http://www.w3.org/2000/svg" viewBox="0 0 100 97.53"><defs><style>.cls-1{fill:#3e3b3a;}</style></defs><g id="レイヤー_2" data-name="レイヤー 2"><g id="Layer_1" data-name="Layer 1"><path class="cls-1" d="M50,0A50,50,0,0,0,34.19,97.44c2.5.47,3.42-1.08,3.42-2.4s0-5.13-.07-9.31c-13.91,3-16.84-5.9-16.84-5.9-2.28-5.78-5.56-7.32-5.56-7.32-4.53-3.1.35-3,.35-3,5,.35,7.66,5.15,7.66,5.15,4.46,7.64,11.7,5.43,14.55,4.15a10.65,10.65,0,0,1,3.18-6.68C29.77,70.83,18.1,66.55,18.1,47.39A19.34,19.34,0,0,1,23.25,34c-.52-1.26-2.23-6.35.48-13.23,0,0,4.2-1.35,13.75,5.12a47.53,47.53,0,0,1,25.05,0c9.54-6.47,13.73-5.12,13.73-5.12,2.72,6.88,1,12,.49,13.23A19.29,19.29,0,0,1,81.9,47.39c0,19.2-11.7,23.43-22.83,24.67,1.79,1.55,3.39,4.59,3.39,9.26,0,6.69-.06,12.07-.06,13.72,0,1.33.9,2.89,3.44,2.4A50,50,0,0,0,50,0Z"/><path class="cls-1" d="M18.94,71.79c-.11.25-.5.32-.86.15s-.57-.5-.45-.75.5-.33.86-.16.57.51.45.76Z"/><path class="cls-1" d="M21,74.05c-.24.22-.7.12-1-.23s-.39-.82-.14-1,.69-.12,1,.23.39.81.14,1Z"/><path class="cls-1" d="M22.93,76.93c-.3.21-.8,0-1.11-.43s-.31-1,0-1.2.81,0,1.12.42.31,1,0,1.21Z"/><path class="cls-1" d="M25.64,79.71a1.15,1.15,0,0,1-1.57-1.47c.27-.3.86-.22,1.29.19s.57,1,.28,1.28Z"/><path class="cls-1" d="M29.36,81.33c-.12.39-.68.56-1.25.4s-.93-.63-.82-1,.68-.58,1.25-.4.94.63.82,1Z"/><path class="cls-1" d="M33.45,81.62c0,.42-.46.76-1.06.77s-1.08-.32-1.09-.73.47-.75,1.07-.77,1.08.33,1.08.73Z"/><path class="cls-1" d="M37.26,81c.07.4-.34.81-.93.92s-1.12-.14-1.19-.54.35-.82.93-.93,1.12.14,1.19.55Z"/></g></g></svg>