<svg xmlns="http://www.w3.org/2000/svg" viewBox="0 0 100 102.72"><defs><style>.cls-1{fill:#3e3b3a;}</style></defs><g id="レイヤー_2" data-name="レイヤー 2"><g id="Layer_1" data-name="Layer 1"><g id="フェイスブック"><g id="フェイスブック-2" data-name="フェイスブック"><g id="グループ_223" data-name="グループ 223"><path id="パス_1056" data-name="パス 1056" class="cls-1" d="M41.61,102.72a48.65,48.65,0,0,1-41-44.8,49.92,49.92,0,1,1,98.56-16,49.06,49.06,0,0,1,.64,8.3,49.28,49.28,0,0,1-41.6,52.48V68.79h9l2.57-1.28a131.5,131.5,0,0,1,2.57-14.08H58.25V42.55c0-3.2,3.2-5.12,7-5.76s5.76.65,7-.64.65-4.48.65-7,0-5.12-5.12-5.76H57A17.92,17.92,0,0,0,41.61,41.27V53.42H32c-1.93,0-3.2.65-3.2,2.57V66.23c0,3.84.64,2.57,2.57,2.57H41.62Z"/></g></g></g></g></g></svg>