<svg xmlns="http://www.w3.org/2000/svg" viewBox="0 0 110 109">
  <defs/>
  <g fill="#f2f2f2" data-name="グループ 498">
    <path d="M0 39a11 11 0 010 3v-3" data-name="パス 1047"/>
    <path d="M0 68a10 10 0 010 3z" data-name="パス 1048"/>
    <path d="M0 39v-2z" data-name="パス 1049"/>
    <path d="M0 71v2z" data-name="パス 1050"/>
    <path d="M0 37v-2z" data-name="パス 1051"/>
    <path d="M0 73v1z" data-name="パス 1052"/>
    <path d="M110 34a57 57 0 000-6 33 33 0 00-3-12A28 28 0 0088 1a48 48 0 00-13-1H30a33 33 0 00-13 3A28 28 0 002 22a48 48 0 00-1 13v4a21 21 0 010 3v25a21 21 0 010 4v9a32 32 0 002 13 29 29 0 0022 16h57a33 33 0 0011-4 29 29 0 0016-21 69 69 0 000-13m-10-1a52 52 0 01-1 14 19 19 0 01-16 14H39a52 52 0 01-15-1 19 19 0 01-14-16 83 83 0 010-14V35a45 45 0 011-13A19 19 0 0126 9h44a53 53 0 0114 1 19 19 0 0114 16 79 79 0 011 14v30" data-name="パス 1053"/>
    <path d="M84 33a7 7 0 117-7 7 7 0 01-7 7" data-name="パス 1054"/>
    <path d="M55 26a28 28 0 1029 29 28 28 0 00-29-29m0 47a18 18 0 1118-18 18 18 0 01-18 18" data-name="パス 1055"/>
  </g>
</svg>
