<svg xmlns="http://www.w3.org/2000/svg" width="123.408" height="121.121" viewBox="0 0 123.408 121.121">
  <g id="グループ_499" data-name="グループ 499" transform="translate(-19799.609 -2262.502)">
    <g id="グループ_495" data-name="グループ 495" transform="translate(19799.609 2262.502)">
      <path id="パス_17928" data-name="パス 17928" d="M70.6,8.5a62.121,62.121,0,0,0-19.669,121c3.112.622,4.233-1.369,4.233-2.988s0-6.349-.124-11.578c-17.3,3.735-20.914-7.345-20.914-7.345-2.863-7.22-6.847-9.088-6.847-9.088-5.6-3.859.373-3.735.373-3.735,6.225.5,9.461,6.349,9.461,6.349,5.478,9.461,14.565,6.722,18.051,5.1a13.2,13.2,0,0,1,3.984-8.341c-13.818-1.618-28.259-6.847-28.259-30.625a24.027,24.027,0,0,1,6.349-16.682c-.622-1.618-2.739-7.843.622-16.433,0,0,5.229-1.618,17.055,6.349a58.884,58.884,0,0,1,31.123,0c11.827-8.092,17.055-6.349,17.055-6.349,3.361,8.59,1.245,14.814.622,16.433a24.027,24.027,0,0,1,6.349,16.682c0,23.9-14.565,29.131-28.384,30.625,2.241,1.867,4.233,5.727,4.233,11.453,0,8.341-.124,14.939-.124,17.055s1.12,3.61,4.233,2.988A62.121,62.121,0,0,0,70.6,8.5" transform="translate(-8.592 -8.5)" fill="#f2f2f2"/>
      <path id="パス_17929" data-name="パス 17929" d="M27.738,80.281c-.124.249-.622.373-1.12.249s-.747-.622-.5-.871a1.117,1.117,0,0,1,1.12-.249.675.675,0,0,1,.5,1" transform="translate(-4.323 8.854)" fill="#f2f2f2"/>
      <path id="パス_17930" data-name="パス 17930" d="M29.7,82.719c-.249.249-.871.124-1.245-.249a1,1,0,0,1-.124-1.245c.249-.249.871-.124,1.245.249s.5,1,.124,1.245" transform="translate(-3.797 9.279)" fill="#f2f2f2"/>
      <path id="パス_17931" data-name="パス 17931" d="M31.724,85.611c-.373.249-1,0-1.369-.5s-.373-1.245,0-1.494,1,0,1.369.5.373,1.245,0,1.494" transform="translate(-3.331 9.873)" fill="#f2f2f2"/>
      <path id="パス_17932" data-name="パス 17932" d="M34.522,88.41a1.208,1.208,0,0,1-1.618-.249,1.245,1.245,0,0,1-.373-1.618,1.208,1.208,0,0,1,1.618.249c.5.5.747,1.245.373,1.618" transform="translate(-2.767 10.56)" fill="#f2f2f2"/>
      <path id="パス_17933" data-name="パス 17933" d="M38.294,89.864c-.124.5-.871.747-1.494.5s-1.12-.747-1-1.245.871-.747,1.494-.5,1.12.747,1,1.245" transform="translate(-1.932 11.097)" fill="#f2f2f2"/>
      <path id="パス_17934" data-name="パス 17934" d="M42.439,90.071c0,.5-.622,1-1.369,1S39.7,90.694,39.7,90.2s.622-1,1.369-1,1.369.373,1.369.871" transform="translate(-0.973 11.264)" fill="#f2f2f2"/>
      <path id="パス_17935" data-name="パス 17935" d="M46.218,89.429c.124.5-.373,1-1.12,1.12s-1.369-.124-1.494-.622.373-1,1.12-1.12,1.369.124,1.494.622" transform="translate(-0.022 11.159)" fill="#f2f2f2"/>
    </g>
  </g>
</svg>
