<svg xmlns="http://www.w3.org/2000/svg" viewBox="0 0 100 98.69"><defs><style>.cls-1{fill:#3e3b3a;}</style></defs><g id="レイヤー_2" data-name="レイヤー 2"><g id="Layer_1" data-name="Layer 1"><g id="インスタグラム"><g id="インスタグラム-2" data-name="インスタグラム"><g id="グループ_222" data-name="グループ 222"><path id="パス_1047" data-name="パス 1047" class="cls-1" d="M0,35.22a10.33,10.33,0,0,1,0,3.14V35.22H0"/><path id="パス_1048" data-name="パス 1048" class="cls-1" d="M0,61.62a9.2,9.2,0,0,1,0,3.14H0Z"/><path id="パス_1049" data-name="パス 1049" class="cls-1" d="M0,35.23H0v-1.9H0Z"/><path id="パス_1050" data-name="パス 1050" class="cls-1" d="M0,64.76H0V66H0Z"/><path id="パス_1051" data-name="パス 1051" class="cls-1" d="M0,33.34H0V32.08H0Z"/><path id="パス_1052" data-name="パス 1052" class="cls-1" d="M0,66H0v1.27H0Z"/><path id="パス_1053" data-name="パス 1053" class="cls-1" d="M99.92,30.82a48.58,48.58,0,0,0,0-5.66,30.12,30.12,0,0,0-3.14-10.68,25.77,25.77,0,0,0-17-13.2A44,44,0,0,0,67.87,0H27.65A29.71,29.71,0,0,0,15.08,3.16a25.75,25.75,0,0,0-13.19,17A44.07,44.07,0,0,0,.62,32.07v3.15a18.29,18.29,0,0,1,0,3.14V61a18.29,18.29,0,0,1,0,3.14V72.3A28.93,28.93,0,0,0,3.15,84.87,26.35,26.35,0,0,0,22.63,98.69H74.16a30.12,30.12,0,0,0,10.68-3.14A26.41,26.41,0,0,0,98.67,76.07a62.76,62.76,0,0,0,.63-11.94V29.56M89.87,63.5a47.28,47.28,0,0,1-1.26,13.2A17,17,0,0,1,74.15,89.27h-39A47.21,47.21,0,0,1,22,88,17,17,0,0,1,9.43,73.55,75.44,75.44,0,0,1,8.8,61V48.41h0V32.08a40.7,40.7,0,0,1,1.26-11.94A16.94,16.94,0,0,1,23.88,8.2H63.47a47.66,47.66,0,0,1,13.2,1.26A17,17,0,0,1,89.24,23.91a71.44,71.44,0,0,1,.63,12.57v27"/><path id="パス_1054" data-name="パス 1054" class="cls-1" d="M76.67,29.56A6.29,6.29,0,1,1,83,23.31q0,.3,0,.6a6.29,6.29,0,0,1-6.29,5.65"/><path id="パス_1055" data-name="パス 1055" class="cls-1" d="M50.28,23.91A25.77,25.77,0,1,0,76,49.68h0A25.76,25.76,0,0,0,50.28,23.91m0,42.1A16.34,16.34,0,1,1,66.62,49.67h0A16.34,16.34,0,0,1,50.28,66h0"/></g></g></g></g></g></svg>