<svg xmlns="http://www.w3.org/2000/svg" viewBox="0 0 100 102.72">
  <defs/>
  <g data-name="レイヤー 2">
    <g data-name="Layer 1">
      <g data-name="フェイスブック">
        <g data-name="グループ 223">
          <path fill="#3e3b3a" d="M41.61 102.72a48.65 48.65 0 01-41-44.8 49.92 49.92 0 1198.56-16 49.06 49.06 0 01.64 8.3 49.28 49.28 0 01-41.6 52.48V68.79h9l2.57-1.28a131.5 131.5 0 012.57-14.08h-14.1V42.55c0-3.2 3.2-5.12 7-5.76s5.76.65 7-.64.65-4.48.65-7 0-5.12-5.12-5.76H57a17.92 17.92 0 00-15.39 17.88v12.15H32c-1.93 0-3.2.65-3.2 2.57v10.24c0 3.84.64 2.57 2.57 2.57h10.25z" data-name="パス 1056"/>
        </g>
      </g>
    </g>
  </g>
</svg>
