<svg xmlns="http://www.w3.org/2000/svg" width="46.712" height="47.971" viewBox="0 0 46.712 47.971">
  <g id="フェイスブック" transform="translate(23.322 24.949)">
    <g id="グループ_223" data-name="グループ 223" transform="translate(-48.736 -48.437)">
      <path id="パス_1056" data-name="パス 1056" d="M27.935,55.827A22.724,22.724,0,0,1,8.8,34.9,23.322,23.322,0,1,1,55.143,31.31,23.023,23.023,0,0,1,35.709,55.827V39.98h4.186l1.2-.6a61.859,61.859,0,0,1,1.2-6.578H35.709V27.722c0-1.495,1.495-2.392,3.289-2.691s2.691.3,3.289-.3.3-2.093.3-3.289,0-2.392-2.392-2.691H35.111a8.372,8.372,0,0,0-7.176,8.372V32.8H23.45c-.9,0-1.495.3-1.495,1.2v4.784c0,1.794.3,1.2,1.2,1.2h4.784Z" transform="translate(16.914 15.632)" fill="#3f3b3a"/>
    </g>
  </g>
</svg>
