<svg xmlns="http://www.w3.org/2000/svg" viewBox="0 0 116.9 116.9">
  <defs/>
  <defs>
    <clipPath id="a">
      <path fill="none" d="M0 0h116.9v116.9H0z" data-name="長方形 251"/>
    </clipPath>
  </defs>
  <g data-name="グループ 496">
    <g data-name="アートワーク 6">
      <g clip-path="url(#a)" data-name="グループ 220">
        <path fill="#f2f2f2" d="M58.4 116.7A58.4 58.4 0 0135.6 4.6 58.4 58.4 0 0181.1 112a58 58 0 01-22.7 4.6zM26.2 83a39.3 39.3 0 0021.5 6.5V89A40.5 40.5 0 0065 85.5a38 38 0 0012.6-9.4 41.4 41.4 0 007.7-13 40.6 40.6 0 002.6-14v-1.9a29 29 0 007-7.4 28.7 28.7 0 01-8.2 2.3 14 14 0 006.3-7.8 28.3 28.3 0 01-9 3.4 14.1 14.1 0 00-15.5-3.3 14 14 0 00-8.9 13 13 13 0 00.5 3.3A40.1 40.1 0 0131 36a14.1 14.1 0 004.4 18.8 14 14 0 01-6.5-1.9 14.2 14.2 0 0011.4 13.9l-3.7.5h-2.8A14.1 14.1 0 0047 76.9a28.3 28.3 0 01-17.4 6h-3.4z" data-name="前面オブジェクトで型抜き 1"/>
      </g>
    </g>
  </g>
</svg>
