<svg xmlns="http://www.w3.org/2000/svg" xmlns:xlink="http://www.w3.org/1999/xlink" width="116.945" height="116.853" viewBox="0 0 116.945 116.853">
  <defs>
    <clipPath id="clip-path">
      <rect id="長方形_251" data-name="長方形 251" width="116.945" height="116.853" fill="none"/>
    </clipPath>
  </defs>
  <g id="グループ_496" data-name="グループ 496" transform="translate(-19856.205 -2018.002)">
    <g id="アートワーク_6" data-name="アートワーク 6" transform="translate(19856.205 2018.002)">
      <g id="グループ_220" data-name="グループ 220" transform="translate(0 0)" clip-path="url(#clip-path)">
        <path id="前面オブジェクトで型抜き_1" data-name="前面オブジェクトで型抜き 1" d="M58.361,116.713A58.372,58.372,0,0,1,35.645,4.586a58.372,58.372,0,0,1,45.43,107.542A57.993,57.993,0,0,1,58.361,116.713ZM26.166,82.9h0a39.263,39.263,0,0,0,21.541,6.482v-.231l.021,0A40.478,40.478,0,0,0,64.912,85.5a37.938,37.938,0,0,0,12.553-9.428,41.367,41.367,0,0,0,7.691-12.9A40.592,40.592,0,0,0,87.77,49.1V47.247a28.991,28.991,0,0,0,6.949-7.411,28.713,28.713,0,0,1-8.1,2.312,14.052,14.052,0,0,0,6.246-7.872,28.267,28.267,0,0,1-9.025,3.472,14.142,14.142,0,0,0-15.441-3.333,14.066,14.066,0,0,0-8.873,13.063,13.065,13.065,0,0,0,.461,3.241A40.144,40.144,0,0,1,31.035,35.9a14.122,14.122,0,0,0,4.4,18.755A13.927,13.927,0,0,1,28.947,52.8,14.155,14.155,0,0,0,40.3,66.693l-3.709.468H33.811a14.127,14.127,0,0,0,13.2,9.723,28.334,28.334,0,0,1-17.418,6.022H26.166Z" transform="translate(-0.002 -0.002)" fill="#f2f2f2"/>
      </g>
    </g>
  </g>
</svg>
