<svg xmlns="http://www.w3.org/2000/svg" xmlns:xlink="http://www.w3.org/1999/xlink" viewBox="0 0 99.8 99.8"><defs><style>.cls-1{fill:none;}.cls-2{clip-path:url(#clip-path);}.cls-3{fill:#3e3b3a;}</style><clipPath id="clip-path" transform="translate(0 -0.01)"><rect class="cls-1" width="100" height="99.92"/></clipPath></defs><g id="レイヤー_2" data-name="レイヤー 2"><g id="Layer_1" data-name="Layer 1"><g id="ツイッター"><g id="アートワーク_6" data-name="アートワーク 6"><g class="cls-2"><g id="グループ_220" data-name="グループ 220"><path id="前面オブジェクトで型抜き_1" data-name="前面オブジェクトで型抜き 1" class="cls-3" d="M49.9,99.81A49.91,49.91,0,0,1,30.48,3.93,49.89,49.89,0,0,1,85.19,14.62,49.89,49.89,0,0,1,49.9,99.81ZM22.38,70.9h0a33.54,33.54,0,0,0,18.41,5.54v-.2h0A34.6,34.6,0,0,0,55.5,73.12a32.59,32.59,0,0,0,10.74-8.06,35.54,35.54,0,0,0,6.57-11,34.8,34.8,0,0,0,2.24-12V40.4A24.85,24.85,0,0,0,81,34.07a25,25,0,0,1-6.93,2,12,12,0,0,0,5.34-6.74,24,24,0,0,1-7.72,3A12.15,12.15,0,0,0,63,28.57a12.08,12.08,0,0,0-12.07,12,10.89,10.89,0,0,0,.39,2.77A34.33,34.33,0,0,1,26.54,30.7a12.07,12.07,0,0,0,3.76,16,11.87,11.87,0,0,1-5.54-1.58A12.1,12.1,0,0,0,34.46,57l-3.17.4H28.92A12.07,12.07,0,0,0,40.2,65.75,24.21,24.21,0,0,1,25.31,70.9Z" transform="translate(0 -0.01)"/></g></g></g></g></g></g></svg>