<svg xmlns="http://www.w3.org/2000/svg" viewBox="0 0 123.4 121.1">
  <defs/>
  <g data-name="グループ 499">
    <g fill="#f2f2f2" data-name="グループ 495">
      <path d="M62 0a62.1 62.1 0 00-19.7 121c3.2.6 4.3-1.4 4.3-3l-.2-11.6c-17.3 3.8-20.9-7.3-20.9-7.3-2.8-7.2-6.8-9.1-6.8-9.1-5.6-3.9.4-3.7.4-3.7 6.2.5 9.4 6.3 9.4 6.3 5.5 9.5 14.6 6.7 18 5.1a13.2 13.2 0 014-8.3c-13.8-1.6-28.2-6.9-28.2-30.7a24 24 0 016.3-16.6c-.6-1.7-2.7-7.9.7-16.5 0 0 5.2-1.6 17 6.4a58.9 58.9 0 0131.1 0c11.9-8.1 17.1-6.4 17.1-6.4 3.4 8.6 1.2 14.8.6 16.5a24 24 0 016.4 16.6c0 24-14.6 29.2-28.4 30.7 2.2 1.8 4.2 5.7 4.2 11.4l-.1 17c0 2 1.1 3.7 4.2 3A62.1 62.1 0 0062 0" data-name="パス 17928"/>
      <path d="M23.4 89.1c-.1.3-.6.4-1.1.3s-.8-.6-.5-.9a1.1 1.1 0 011.1-.2.7.7 0 01.5 1" data-name="パス 17929"/>
      <path d="M25.9 92c-.2.2-.9.1-1.2-.3a1 1 0 01-.2-1.2c.3-.2.9-.1 1.3.3s.5 1 .1 1.2" data-name="パス 17930"/>
      <path d="M28.4 95.5c-.4.2-1 0-1.4-.5s-.3-1.3 0-1.5 1 0 1.4.5.4 1.2 0 1.5" data-name="パス 17931"/>
      <path d="M31.8 99a1.2 1.2 0 01-1.7-.3 1.2 1.2 0 01-.3-1.6 1.2 1.2 0 011.6.3c.5.5.7 1.2.4 1.6" data-name="パス 17932"/>
      <path d="M36.4 101c-.2.5-1 .7-1.5.5s-1.2-.8-1-1.3.8-.7 1.5-.5 1 .8 1 1.3" data-name="パス 17933"/>
      <path d="M41.5 101.3c0 .5-.7 1-1.4 1s-1.4-.3-1.4-.8.6-1 1.4-1 1.4.3 1.4.8" data-name="パス 17934"/>
      <path d="M46.2 100.6c.1.5-.4 1-1.1 1.1s-1.4-.1-1.5-.6.4-1 1.1-1.1 1.4 0 1.5.6" data-name="パス 17935"/>
    </g>
  </g>
</svg>
