<svg xmlns="http://www.w3.org/2000/svg" width="80.948" height="21.895" viewBox="0 0 80.948 21.895">
  <g id="グループ_221" data-name="グループ 221" transform="translate(-11164.496 -1247.502)">
    <path id="パス_3977" data-name="パス 3977" d="M24.1,17.874H17.289a.315.315,0,0,0-.315.315v3.327a.315.315,0,0,0,.315.315h2.653v4.136a8.189,8.189,0,0,1-2.248.2c-1.641,0-4.653-.7-4.653-6.676s2.832-6.766,5.485-6.766a10.509,10.509,0,0,1,3.911.607.315.315,0,0,0,.382-.315L23.584,9.8a.292.292,0,0,0-.112-.247C23.224,9.377,21.65,8.5,17.716,8.5,13.153,8.5,8.5,10.433,8.5,19.717s5.328,10.678,9.823,10.678A11,11,0,0,0,24.3,28.8a.27.27,0,0,0,.112-.247V18.189a.315.315,0,0,0-.315-.315" transform="translate(11155.996 1239.002)" fill="#3f3b3a"/>
    <path id="パス_3978" data-name="パス 3978" d="M182.5,12.337a.315.315,0,0,0-.315-.315h-3.821a.315.315,0,0,0-.315.315v7.4h-6v-7.4a.315.315,0,0,0-.315-.337h-3.821a.315.315,0,0,0-.315.315V32.366a.315.315,0,0,0,.315.315h3.821a.315.315,0,0,0,.315-.315V23.8h5.979v8.565a.315.315,0,0,0,.315.315h3.844a.315.315,0,0,0,.315-.315Z" transform="translate(11032.661 1236.289)" fill="#3f3b3a"/>
    <path id="パス_3979" data-name="パス 3979" d="M92.946,16.75a2.473,2.473,0,1,0-.716,1.763,2.473,2.473,0,0,0,.716-1.763" transform="translate(11094.367 1234.506)" fill="#3f3b3a"/>
    <path id="パス_3980" data-name="パス 3980" d="M93.373,50.854V41.615a.315.315,0,0,0-.315-.315H89.237a.36.36,0,0,0-.337.36V54.922c0,.382.247.495.562.495H92.9c.382,0,.472-.18.472-.517Z" transform="translate(11093.669 1213.575)" fill="#3f3b3a"/>
    <path id="パス_3981" data-name="パス 3981" d="M254.878,41.4h-3.8a.315.315,0,0,0-.315.315v9.823a4.294,4.294,0,0,1-2.338.7c-1.371,0-1.731-.629-1.731-1.956V41.715a.315.315,0,0,0-.315-.315h-3.866a.315.315,0,0,0-.315.315v9.216c0,3.979,2.225,4.968,5.283,4.968A8.766,8.766,0,0,0,252,54.505a7.957,7.957,0,0,0,.135.809.337.337,0,0,0,.27.18h2.45a.315.315,0,0,0,.315-.315V41.715a.315.315,0,0,0-.315-.315" transform="translate(10974.829 1213.498)" fill="#3f3b3a"/>
    <path id="パス_3982" data-name="パス 3982" d="M316.893,18.237a7.148,7.148,0,0,0-3.619.967V12.415a.315.315,0,0,0-.315-.315h-3.844a.315.315,0,0,0-.315.315V32.466a.315.315,0,0,0,.315.315h2.675a.315.315,0,0,0,.27-.18,6.222,6.222,0,0,0,.157-.922,6.89,6.89,0,0,0,4.541,1.484c3.484,0,5.485-1.776,5.485-7.958s-3.192-6.991-5.35-6.991M315.386,29.5a4.563,4.563,0,0,1-2.2-.629V22.53a5.058,5.058,0,0,1,1.956-.629c1.371-.112,2.7.292,2.7,3.552s-.584,4.114-2.45,4.069" transform="translate(10923.201 1236.211)" fill="#3f3b3a"/>
    <path id="パス_3983" data-name="パス 3983" d="M124.775,27.324H121.9v-3.8c0-.135-.067-.225-.247-.225h-3.911c-.157,0-.225.067-.225.225v3.934l-2.091.517a.315.315,0,0,0-.225.315v2.473a.315.315,0,0,0,.315.315h2V36.99c0,4.406,3.08,4.833,5.17,4.833a8.744,8.744,0,0,0,2.27-.382.292.292,0,0,0,.18-.292v-2.7a.315.315,0,0,0-.315-.315c-.157,0-.607.067-1.034.067-1.416,0-1.888-.652-1.888-1.506V31.055h2.877a.315.315,0,0,0,.315-.315v-3.1a.315.315,0,0,0-.315-.315" transform="translate(11073.282 1227.529)" fill="#3f3b3a"/>
  </g>
</svg>
