<svg xmlns="http://www.w3.org/2000/svg" viewBox="0 0 100 97.5">
  <defs/>
  <defs/>
  <g id="レイヤー_2" data-name="レイヤー 2">
    <g id="Layer_1" data-name="Layer 1">
      <path d="M50 0a50 50 0 00-15.8 97.4c2.5.5 3.4-1 3.4-2.4v-9.3c-14 3-16.9-5.9-16.9-5.9-2.3-5.8-5.6-7.3-5.6-7.3-4.5-3 .4-3 .4-3 5 .4 7.7 5.2 7.7 5.2 4.4 7.6 11.6 5.4 14.5 4.1a10.7 10.7 0 013.2-6.7C29.8 70.8 18 66.6 18 47.4A19.3 19.3 0 0123.2 34a18 18 0 01.5-13.2s4.2-1.4 13.8 5a47.5 47.5 0 0125 0c9.6-6.4 13.8-5 13.8-5a18 18 0 01.5 13.2 19.3 19.3 0 015.1 13.4c0 19.2-11.7 23.4-22.8 24.7 1.8 1.5 3.4 4.6 3.4 9.2L62.4 95c0 1.4.9 3 3.4 2.4A50 50 0 0050 0z" class="cls-1"/>
      <path d="M19 71.8c-.2.2-.6.3-1 .1s-.5-.5-.4-.7.5-.3.9-.2.6.5.4.8zM21 74c-.2.3-.7.2-1-.2s-.4-.8-.1-1 .7-.1 1 .2.4.9.1 1zM23 77c-.4.1-.9 0-1.2-.5s-.3-1 0-1.2.8 0 1.1.4.4 1 0 1.2zM25.6 79.7a1.1 1.1 0 01-1.5-1.5c.2-.3.8-.2 1.3.2s.5 1 .2 1.3zM29.4 81.3c-.2.4-.7.6-1.3.4s-1-.6-.8-1 .7-.5 1.2-.4 1 .7.9 1zM33.5 81.6c0 .4-.5.8-1.1.8s-1-.3-1.1-.7.5-.8 1-.8 1.2.3 1.2.7zM37.3 81c0 .4-.4.8-1 1s-1-.2-1.2-.6.4-.8 1-1 1 .2 1.2.6z" class="cls-1"/>
    </g>
  </g>
</svg>
