<svg xmlns="http://www.w3.org/2000/svg" width="108.174" height="111.09" viewBox="0 0 108.174 111.09">
  <g id="グループ_497" data-name="グループ 497" transform="translate(-19710.193 -2023.76)">
    <g id="グループ_223" data-name="グループ 223" transform="translate(19710.193 2023.76)">
      <path id="パス_1056" data-name="パス 1056" d="M53.506,118.945A52.622,52.622,0,0,1,9.193,70.478a54.007,54.007,0,1,1,107.321-8.309,53.314,53.314,0,0,1-45.006,56.776v-36.7H81.2l2.77-1.385a143.249,143.249,0,0,1,2.77-15.233H71.508V53.86c0-3.462,3.462-5.539,7.616-6.232s6.232.692,7.616-.692.692-4.847.692-7.616,0-5.539-5.539-6.232H70.124A19.387,19.387,0,0,0,53.506,52.475V65.631H43.12c-2.077,0-3.462.692-3.462,2.77V79.479c0,4.154.692,2.77,2.77,2.77H53.506Z" transform="translate(-8.5 -7.856)" fill="#f2f2f2"/>
    </g>
  </g>
</svg>
