<svg xmlns="http://www.w3.org/2000/svg" width="110.174" height="108.731" viewBox="0 0 110.174 108.731">
  <g id="グループ_498" data-name="グループ 498" transform="translate(-19562.105 -2023.564)">
    <path id="パス_1047" data-name="パス 1047" d="M8.5,14.1a11.079,11.079,0,0,1,0,3.462V14.1h0" transform="translate(19553.605 2048.263)" fill="#f2f2f2"/>
    <path id="パス_1048" data-name="パス 1048" d="M8.5,18.3a10.386,10.386,0,0,1,0,3.462h0Z" transform="translate(19553.605 2073.144)" fill="#f2f2f2"/>
    <path id="パス_1049" data-name="パス 1049" d="M8.5,15.877h0V13.8h0Z" transform="translate(19553.605 2046.486)" fill="#f2f2f2"/>
    <path id="パス_1050" data-name="パス 1050" d="M8.5,18.8h0v1.385h0Z" transform="translate(19553.605 2076.106)" fill="#f2f2f2"/>
    <path id="パス_1051" data-name="パス 1051" d="M8.5,14.985h0V13.6h0Z" transform="translate(19553.605 2045.301)" fill="#f2f2f2"/>
    <path id="パス_1052" data-name="パス 1052" d="M8.5,19h0v1.385h0Z" transform="translate(19553.605 2077.291)" fill="#f2f2f2"/>
    <path id="パス_1053" data-name="パス 1053" d="M118.019,42.449a57.469,57.469,0,0,0,0-6.232,33.235,33.235,0,0,0-3.462-11.771A28.388,28.388,0,0,0,95.863,9.906,48.468,48.468,0,0,0,82.707,8.521H38.394a32.542,32.542,0,0,0-13.848,3.462,28.388,28.388,0,0,0-14.54,18.695A48.468,48.468,0,0,0,8.621,43.833V47.3a21.462,21.462,0,0,1,0,3.462V75.683a21.462,21.462,0,0,1,0,3.462v9a31.85,31.85,0,0,0,2.77,13.848,29.081,29.081,0,0,0,21.464,15.233H89.631a33.235,33.235,0,0,0,11.771-3.462A29.081,29.081,0,0,0,116.635,92.3a68.548,68.548,0,0,0,.692-13.155m-10.386-.692a51.93,51.93,0,0,1-1.385,14.54,18.7,18.7,0,0,1-15.925,13.848H46.7a51.93,51.93,0,0,1-14.54-1.385A18.7,18.7,0,0,1,18.315,89.531a83.089,83.089,0,0,1-.692-13.848c0-4.847,0-9,0-13.848h0v-18a45.006,45.006,0,0,1,1.385-13.155A18.7,18.7,0,0,1,34.24,17.522H77.861A52.623,52.623,0,0,1,92.4,18.907a18.7,18.7,0,0,1,13.848,15.925,78.934,78.934,0,0,1,.692,13.848c0,9.694,0,20.079,0,29.773" transform="translate(19554.176 2015.068)" fill="#f2f2f2"/>
    <path id="パス_1054" data-name="パス 1054" d="M26.594,25.048a6.924,6.924,0,1,1,6.924-6.232,6.924,6.924,0,0,1-6.924,6.232" transform="translate(19619.982 2031.084)" fill="#f2f2f2"/>
    <path id="パス_1055" data-name="パス 1055" d="M40.788,12.3A28.388,28.388,0,1,0,69.176,40.688,28.388,28.388,0,0,0,40.788,12.3m0,46.39a18,18,0,1,1,18-18,18,18,0,0,1-18,18" transform="translate(19576.705 2037.6)" fill="#f2f2f2"/>
  </g>
</svg>
