<svg xmlns="http://www.w3.org/2000/svg" xmlns:xlink="http://www.w3.org/1999/xlink" width="50.5" height="50.46" viewBox="0 0 50.5 50.46">
  <defs>
    <clipPath id="clip-path">
      <rect id="長方形_251" data-name="長方形 251" width="50.5" height="50.46" fill="none"/>
    </clipPath>
  </defs>
  <g id="アートワーク_6" data-name="アートワーク 6" transform="translate(25.25 25.23)">
    <g id="グループ_220" data-name="グループ 220" transform="translate(-25.25 -25.23)" clip-path="url(#clip-path)">
      <path id="前面オブジェクトで型抜き_1" data-name="前面オブジェクトで型抜き 1" d="M-11309.781-1143.6a25.051,25.051,0,0,1-9.81-1.98,25.121,25.121,0,0,1-8.011-5.4,25.1,25.1,0,0,1-5.4-8.01,25.025,25.025,0,0,1-1.98-9.808,25.033,25.033,0,0,1,1.98-9.81,25.1,25.1,0,0,1,5.4-8.01,25.116,25.116,0,0,1,8.011-5.4,25.051,25.051,0,0,1,9.81-1.98,25.039,25.039,0,0,1,9.809,1.98,25.11,25.11,0,0,1,8.01,5.4,25.1,25.1,0,0,1,5.4,8.01,25.033,25.033,0,0,1,1.98,9.81,25.026,25.026,0,0,1-1.98,9.808,25.1,25.1,0,0,1-5.4,8.01,25.117,25.117,0,0,1-8.01,5.4A25.046,25.046,0,0,1-11309.781-1143.6Zm-13.9-14.6h0a16.953,16.953,0,0,0,9.3,2.8v-.1h.009a17.482,17.482,0,0,0,7.42-1.577,16.388,16.388,0,0,0,5.421-4.072,17.868,17.868,0,0,0,3.321-5.571,17.541,17.541,0,0,0,1.128-6.078v-.8a12.512,12.512,0,0,0,3-3.2,12.4,12.4,0,0,1-3.5,1,6.067,6.067,0,0,0,2.7-3.4,12.211,12.211,0,0,1-3.9,1.5,6.141,6.141,0,0,0-4.4-1.875,6.084,6.084,0,0,0-2.264.436,6.075,6.075,0,0,0-3.832,5.641,5.625,5.625,0,0,0,.2,1.4,17.334,17.334,0,0,1-12.5-6.4,6.072,6.072,0,0,0-.646,4.424,6.082,6.082,0,0,0,2.546,3.675,6.011,6.011,0,0,1-2.8-.8,6.112,6.112,0,0,0,4.9,6l-1.6.2h-1.2a6.1,6.1,0,0,0,5.7,4.2,12.237,12.237,0,0,1-7.521,2.6h-1.479Z" transform="translate(11334.981 1194.002)" fill="#3f3b3a"/>
    </g>
  </g>
</svg>
