<svg xmlns="http://www.w3.org/2000/svg" viewBox="0 0 150.16 148.34"><defs><style>.cls-1{fill:#4a0a24;}.cls-2{fill:#561230;}.cls-3{fill:#711f4b;}.cls-4{fill:#782252;}.cls-5{fill:#651a3f;}.cls-6{fill:#832660;}.cls-7{fill:#5b1738;}.cls-8{fill:#772257;}.cls-9{fill:#d2c3cf;}.cls-10{fill:#36081e;}.cls-11{fill:#c8b6c4;}.cls-12{fill:#c0adba;}.cls-13{fill:#b296a8;}.cls-14{fill:#ab849b;}.cls-15{fill:#b898ac;}.cls-16{fill:#a58498;}.cls-17{fill:#9f7a8f;}.cls-18{fill:#b694ab;}.cls-19{fill:#a9849b;}.cls-20{fill:#d5acca;}.cls-21{fill:#c2a0b7;}.cls-22{fill:#dab0cd;}.cls-23{fill:#c4a5ba;}.cls-24{fill:#a26c8d;}.cls-25{fill:#cabcc7;}.cls-26{fill:#daccd7;}.cls-27{fill:#c6acbf;}.cls-28{fill:#705467;}.cls-29{fill:#623e54;}.cls-30{fill:#ae9daa;}.cls-31{fill:#684c5c;}.cls-32{fill:#b29aa9;}.cls-33{fill:#dac6d4;}.cls-34{fill:#735366;}.cls-35{fill:#8e7987;}.cls-36{fill:#ad9ca8;}.cls-37{fill:#be99b0;}.cls-38{fill:#7d5b71;}.cls-39{fill:#cebbc9;}.cls-40{fill:#9d7f92;}.cls-41{fill:#957388;}.cls-42{fill:#dec7d7;}.cls-43{fill:#d6c9d3;}.cls-44{fill:#836676;}.cls-45{fill:#755d6f;}.cls-46{fill:#947c8c;}.cls-47{fill:#63465a;}.cls-48{fill:#cec1cc;}.cls-49{fill:#ded1dc;}.cls-50{fill:#e7d3e2;}.cls-51{fill:#663755;}.cls-52{fill:#643c56;}.cls-53{fill:#653f58;}.cls-54{fill:#c9abc0;}.cls-55{fill:#cbb7c5;}.cls-56{fill:#d4c3d0;}.cls-57{fill:#785e72;}.cls-58{fill:#c7b1c1;}.cls-59{fill:#bb9bb3;}.cls-60{fill:#b597ab;}.cls-61{fill:#926a85;}.cls-62{fill:#95758b;}.cls-63{fill:#a5839a;}.cls-64{fill:#dfcfdc;}.cls-65{fill:#876e7d;}.cls-66{fill:#7a5f6f;}.cls-67{fill:#c4a9ba;}.cls-68{fill:#ae96a5;}.cls-69{fill:#896b7c;}.cls-70{fill:#684c5d;}.cls-71{fill:#8a7284;}.cls-72{fill:#7e5c72;}.cls-73{fill:#cfb7c8;}.cls-74{fill:#c6afbf;}.cls-75{fill:#c7b1be;}.cls-76{fill:#bfa6b7;}.cls-77{fill:#988292;}.cls-78{fill:#7a566e;}.cls-79{fill:#9a7c8e;}.cls-80{fill:#9a7e92;}.cls-81{fill:#816b7c;}.cls-82{fill:#86657e;}.cls-83{fill:#9a8493;}.cls-84{fill:#d0bac9;}.cls-85{fill:#dcd0da;}.cls-86{fill:#e4d3e1;}.cls-87{fill:#d3c1d0;}.cls-88{fill:#b89baf;}.cls-89{fill:#baa5b4;}.cls-90{fill:#bba9b7;}.cls-91{fill:#967d8f;}.cls-92{fill:#947a89;}.cls-93{fill:#9f889b;}.cls-94{fill:#987d91;}.cls-95{fill:#7d586f;}.cls-96{fill:#795e6e;}.cls-97{fill:#988293;}.cls-98{fill:#7e6273;}.cls-99{fill:#7a5f73;}.cls-100{fill:#917288;}.cls-101{fill:#907288;}.cls-102{fill:#a18798;}.cls-103{fill:#64485a;}.cls-104{fill:#76596b;}</style></defs><g id="レイヤー_2" data-name="レイヤー 2"><g id="レイヤー_1-2" data-name="レイヤー 1"><g id="アートワーク_3" data-name="アートワーク 3"><path class="cls-1" d="M88.52.08c43,12.58,78.73,60.58,52.32,106.36-2.51,4.34-10.13,25-14.15,17.47,4.52-9.78,12.4-17.79,14.32-28.78,1.11-5.28,1.48-10.95,4.2-15.81,7.22-1.28-1.88-19.72-1.79-24.9C138.57,37,117.22,12.26,97.64,15.1c-4.89.71-8.43-4.1-13.39-3.86-9.19-2.8-17.84,4.16-27,2.24C48,3.74,83.31,3,88.52.08Z"/><path class="cls-2" d="M88.52.08C85,6.12,51.46,4.38,57.85,12.5,58.66,17.11,41.3,21,37,25.22,32.45,27.88,27,35,21.57,33.59,29.13,15.52,66.87-1.3,88.52.08Z"/><path class="cls-3" d="M92.76,146.74c-12.1,5.32-59.58-3.21-61.2-17.25,2.09-2.06,4.4-1,6,.27,8.66,7.09,19.33,9.29,29.6,12.36,4,1.19,8.46-.44,12.5,1.31C82,145,98,140.61,92.76,146.74Z"/><path class="cls-4" d="M7.43,105.74C3.11,95.24-3.56,75.07,2.3,64.8c1,.75,2.76.34,3.3,1.94A121.16,121.16,0,0,0,8.8,94.35C10.47,97.71,15.23,107.22,7.43,105.74Z"/><path class="cls-5" d="M4.75,65.87C3.55,66.38,2,67.62,2.3,64.8c-.16-14.71,7.8-25,18.35-34,4.51,3.65-5.68,10.69-6.92,14.82C6,52.1,10.22,66.51,4.75,65.87Z"/><path class="cls-6" d="M7.43,105.74c5.88-6.91,8.06,6.13,13.23,9.61.87,3.09,5,4.21,4.81,7.93C19.9,131.41,8.32,111,7.43,105.74Z"/><path class="cls-7" d="M92.76,146.74c1.36-7.87,17.08-7.61,22.86-15.62,5.18-2.72,9.2-11.47,14-5.79C119.61,135.74,107.57,145,92.76,146.74Z"/><path class="cls-8" d="M21.86,125.38c5-5.33,11.48,1.35,10.15,7.2C27.45,131.84,24.33,129.07,21.86,125.38Z"/><path class="cls-9" d="M92.89,12.25c10.16,1.33,19,4.39,25.83,12.26,3.23,6.77,11.52,13.24.86,16.45,1.12,6.63.48,7.3-5.65,6.69-5.15-3.25-9.56-7.58-15.15-10.18-2-1.25-4.58-1.79-5.13-4.61-.39-3.59.16-10.76,5.74-8.27-4.8-1.18-13.37-4-9.34-10.35C90.53,12.9,91.12,11.74,92.89,12.25Z"/><path class="cls-10" d="M117.31,25.62c-5.65-5.43-12.69-8.66-19.52-12.21,21.52-4.05,46.76,25.06,48.62,45.25.9,5.07,6.52,20.21,2,23.37-1.66.32-1.25-2.14-2.35-2.91-3.91-3.28-1.88-8.08-3.1-12C140.86,52.34,126.72,37.08,117.31,25.62Z"/><path class="cls-11" d="M124.43,126.2A19.53,19.53,0,0,1,112.31,134c-6.26-2.81,4.07-8.34,3.71-12.59,8.87-10.11,14.07-22.62,19.62-34.53,6.91-.73,9.54,7,4.83,11.17C139.16,109.63,129.68,116.77,124.43,126.2Z"/><path class="cls-12" d="M143,93.73c-12.09-12.13-7.9-3.56-7.85-20.83-.6-7.24-8-16.61,5.39-14.21C147.94,68.3,147.06,82.25,143,93.73Z"/><path class="cls-13" d="M124.43,126.2c-1.37-9.21,10.77-11.68,10.86-20.39,0-1.07.3-1.55,1.41-1.53,7.62-1.66-5.83-8.9,6.13-8.75A62.18,62.18,0,0,1,124.43,126.2Z"/><path class="cls-14" d="M50.37,16.39c6-4,12.75-5,19.72-5.9,8.21,4.31-5.62,5.94-6.55,10.28C60.69,24.42,51.43,20.33,50.37,16.39Z"/><path class="cls-15" d="M72.05,13.44l-2-2.95C96.2,4.43,91.25,24.23,72.05,13.44Z"/><path class="cls-16" d="M87.41,14.54l-3-5a19.19,19.19,0,0,1,8.48,2.76,4,4,0,0,0-1.35,3.13C90,15.75,88.23,17.55,87.41,14.54Z"/><path class="cls-17" d="M83.46,9.3c-3,5.37-5,0-12.54,1C75,9,79.15,8,83.46,9.3Z"/><path class="cls-18" d="M21.68,33.71c9.45-5.66,9.38-10.5,22.2-10.12,9.27-1.44.54,13.35-8.59,10.86C31.8,32.82,17.88,42.08,21.68,33.71Z"/><path class="cls-19" d="M46.47,27.91c-1.19-.78,1.14-2.48-.76-3-1-.26-2.34-.26-2.75.74-3.52,8.17-3.71-.3-6.88-2C56.05,5.47,59.15,32.51,46.47,27.91Z"/><path class="cls-20" d="M32.15,129.45c-4.23-4.31-10.16-7.51-12.49-13.29,4.07-4.82,15.94,13.86,29.11,16,8.82,3.54,17.86,6.47,27.4,7.76,2.78.37,7.32,0,7,5.23C64.63,145.81,47.75,137.67,32.15,129.45Z"/><path class="cls-21" d="M79.26,145c5.14.92,5.2-5.48,10.12-5.16,8.55.45,14.09-8.53,22.75-6.3,1.51-1.32,3.35-1,5.13-1C106.61,140.83,92.92,147,79.26,145Z"/><path class="cls-22" d="M19.66,116.16C5,102,1.94,78.11,6.25,59.81,6.64,55.3,9,44.23,14.17,44.49c1.63,2.3.79,4.63-.11,6.82A60.89,60.89,0,0,0,9.7,76.72c.27,9.42,3.35,18.33,6.17,27.19C17.06,107.59,23.74,112,19.66,116.16Z"/><path class="cls-23" d="M13.64,44.32l-.91-.1c.19-3.31,5.86-7.59,9.07-7.14,3.26-5.08,8.56-3.73,13.28-4.2C38.1,36.33,16.06,51.76,13.64,44.32Z"/><path class="cls-24" d="M21.8,37.08c-1.2,2.1-3.26,2-5.25,2.05a9.29,9.29,0,0,1,5.13-5.42Z"/><path class="cls-25" d="M140.86,59.65c-14.56,3.7-7.64-2.44-12.91-7.51,1.42,5.72,9.85,15.7,7,22.07-8.71-.54-4,9.41-7.57,14.15-3.6,6.47-5.56-1.6-3.79-5.25,1.47-11.25-1.76-21.34-7.54-30.83-1.09-1.8-2.83-3.47-2-6,10.37,1.09,1.3-7.62-.44-11.54,3.69-.89,5.43,6.87,8.38,4,4.22-4.67-4-8.52-4.74-13.15C125.28,31.09,142.69,50,140.86,59.65Z"/><path class="cls-26" d="M96.71,24.94C95,27.37,96.5,30.58,94.8,33c-8.64,1.55-16.94-2.57-25.6-1.53-4.33.31-13.3,3.61-13.6-3.3,1.48-8.24,13.65-4,19.1-8.64,1.06-.61,2.32-.17,3.43.33,3.66,1.23,7.5-2.66,10,2.13C90.42,24.31,94.83,20.12,96.71,24.94Z"/><path class="cls-27" d="M86.47,23.69c-.25-1.12-2.13-3.51.06-3.5-4-.58-19.41,1-14.48-6.75,6.21.51,13,1.1,19.49,1.94-3.35,4.41,2,3.89,4.19,7.16-1.22,1.61-3.28-.5-4.52,1C89.66,24.49,88.09,24.83,86.47,23.69Z"/><path class="cls-28" d="M114.11,46.32c8.08,11,13.29,22.78,11.17,36.82-1.89.25-2-1.38-2.7-2.48C121.25,69.06,118.52,58,110.42,49c-1.52-3.63-16.26-9.44-10.65-12.87C105.23,38.56,109.81,42.25,114.11,46.32Z"/><path class="cls-29" d="M99.77,36.12c-3.54,4.07-8-.12-11.77-.56-3.15-.88-7.13.3-9-3.68C82,28.28,96.1,32.82,99.77,36.12Z"/><path class="cls-30" d="M98.77,23.74a7.78,7.78,0,0,1,6.08,4.47C102.79,27.16,97.64,25.66,98.77,23.74Z"/><path class="cls-31" d="M98.77,23.74v1.07a10.69,10.69,0,0,1-7.17-2.09C92.81,20.76,97,23.34,98.77,23.74Z"/><path class="cls-32" d="M140.86,59.65c0-1.39,0-2.78,0-4.18,2.47,3,3.09,6.73,3.94,10.36C140.44,65.74,140.87,62.56,140.86,59.65Z"/><path class="cls-33" d="M112.13,133.52c-24.1,14.69-40.92,10-65.92.24-3.1-1.33-22.49-10-14.21-13.29,32.84,9.87,51.75,24.53,85.5,1.82C119.18,126.27,110.13,128.65,112.13,133.52Z"/><path class="cls-34" d="M117.5,122.29c-8,6.58-19.8,15.88-30.29,11.87.58-3.73,9.51-.51,18.2-8C121.51,120,125.66,101.26,134,89.1,138.19,94.37,122,117.28,117.5,122.29Z"/><path class="cls-35" d="M134.79,91.53c-3.21-5.88-2.45-14.42,1.88-19.38A61.25,61.25,0,0,1,134.79,91.53Z"/><path class="cls-36" d="M136.67,72.15c-1.77,2.07,0,5.06-1.86,7.1a3.19,3.19,0,0,1-.17-5.23c-.71-10.4-7.27-19.46-11.34-28.91C130.55,52,134.9,62.5,136.67,72.15Z"/><path class="cls-15" d="M72.05,13.45c-.78,5.92,5.55,2.8,8.55,5.22-1.15,1.55-2.75,1.23-4.31,1-4.37-.32-9.79,3.15-13.49-.08C62.36,15.54,69.06,14.08,72.05,13.45Z"/><path class="cls-37" d="M52.66,22.87c-3-1.27-1.94-3.83-1.89-6.06,2.31,2.15,7,.45,7.94,4.83C57.41,23.24,54.72,24.28,52.66,22.87Z"/><path class="cls-38" d="M62.8,19.6c4.57-.39,9.09-1.44,13.72-1C76.64,21.67,47.55,27,62.8,19.6Z"/><path class="cls-39" d="M58.76,22.66C62,22,89.75,14.24,81.33,22c-7.36-1.84-13.69,3.2-20.78,3-3.89-.18-5,5.73-.72,5.95,3,1.13,3.14,4.22-.18,4.66-7.92.09-13.14,6.9-20.46,8.36-2.23-1.9-2.58-5.32-5.41-6.74,0-2.41,2-3.1,3.52-4.24C44.87,30.5,51.35,23.72,58.76,22.66Z"/><path class="cls-40" d="M37.3,33c-5.19,5.41-6.74,13.15-14.54,15.9-6.89-3.46,10.62-12.06,12.32-16Z"/><path class="cls-41" d="M58.76,22.66c-8.82,5.5-7.83-2.3,0-.94A7.39,7.39,0,0,0,58.76,22.66Z"/><path class="cls-42" d="M25.81,41.18c-6,7.56-5.56,17.71-9,26.33-5.53,11,4.25,21.36,3.1,32.5-3.68,6,19.32,19.31,10,22.26-4.06-1-5.8-5.64-10-6.45-12.6-21.9-16.74-47.57-6.31-71.5C18.37,45.87,21.78,42.34,25.81,41.18Z"/><path class="cls-43" d="M134.64,74c-1.36,16.53-6.87,31.84-17.52,45.05-8.35,3.3-13.13,12.52-22.72,13-3-2.68-5.07.34-7.47,1.28-6.14.13-12.6,2-17.3-3.45.72-3.22,3.22-3.24,5.6-2.78,9.9,3.27,14.46-5.49,23-5.22,6.26,1.15,4.08-3.87,5.21-7.46,6.41-6,13.47-11.83,17.14-20,.91-1.56.82-4.27,3.75-4C129.58,86.18,124.41,63.06,134.64,74Z"/><path class="cls-44" d="M124.38,90.41c-3,6.09-5.42,12.5-10.58,17.25-4.34-4.73,4.17-8.11,4.72-12.73,1.55-3.69,1.64-14.33,5.72-15C125.91,83.29,124.71,86.85,124.38,90.41Z"/><path class="cls-45" d="M81.55,30.75c-2.87,2.48-13.8,5.07-12.44-.63C73.29,29.71,77.47,29.15,81.55,30.75Z"/><path class="cls-46" d="M69.11,30.12c.34,5.46-7.7,4.7-9.28.83Z"/><path class="cls-47" d="M83.39,20.69c-.57-.57-1.2-1.11-1-2.05,2.41,1,5.26.58,7.57,2.32C87.72,22.13,85.68,20.38,83.39,20.69Z"/><path class="cls-9" d="M91.61,22.72l1.37.81c-2.13,1.43-4.26,3-6.51.16Z"/><path class="cls-48" d="M124.24,79.91a116,116,0,0,1-4.14,16.54c-3.83,1.55-5.93,7.48-6.29,11.2-3.66,2.1-6.12,5.6-9.94,7.46l.08,0c-11.66,7.6-29.45,12.16-41.34,3.62,5.18-9.08,15.74,4.87,37-9C121,79.45,115.41,57.31,82.36,40.58c1.12-8.73,11-6.57,16.31-3.44C115.68,46.33,123.41,61.06,124.24,79.91Z"/><path class="cls-49" d="M103.86,103.47c.8,5.4-.93,8.89-6.86,9.59-10.53,9.2-22.73,3.62-34.79,5.08C42.63,109.4,26.84,90.93,28.07,69.19c8.16-10.61-1.31-13.22,13.62-22C47.6,30,73.61,29.26,88.51,34.07c.34,3.82-4,3.78-5.2,6.32C6.28,46.46,42.48,135.08,103.86,103.47Z"/><path class="cls-50" d="M32,121.22c-4.93-2.76-25.06-30-7.49-19.06,3.59,8.64,12.9,13,16.73,21.14C36.61,129.68,34.82,123.26,32,121.22Z"/><path class="cls-51" d="M87.27,134.38l3.27,1.05c-11.78,2.4-22.82-1-33.86-4.32-2.28-8.3,21.91,5.22,27.34,2A4.41,4.41,0,0,1,87.27,134.38Z"/><path class="cls-52" d="M56.78,129.12c0,.66-.07,1.33-.1,2-4.64-2.83-10.47-3.5-14.27-7.86C47.13,120.33,53.6,125.31,56.78,129.12Z"/><path class="cls-53" d="M43.48,123.21c-2.68,0-7-1.4-7.25-5C40.67,117.23,42.7,118.63,43.48,123.21Z"/><path class="cls-54" d="M43.48,123.21c-1.72-5-8.29-3.44-10-8-2.12-2.66-5.07-4.64-6.5-7.87,0-2.61-3.21-6.18-.77-8.25a3.38,3.38,0,0,1,4,1.38c1.77,2.34.59,6.45,4.51,7.51,2.93,1.85,1.28,6.94,6.14,6.65,8.52,3.26,15.48,9.79,24.84,11.06,2,.38,3.86,1.4,4.29,3.79,13.62,6.23,8.91-.73,17.46,3,2.45-.46,4.09-3.89,7.19-2,2.77,2.26,5-3.44,9.53-1.93C86.07,141.21,61.64,131.21,43.48,123.21Z"/><path class="cls-55" d="M126.6,105c-.75-1.56-1.77-3.36-.38-4.79,3.76-3.84,3.12-9.42,5.74-13.68,1.24-3.89-2.46-9,2.71-11.48C134.79,85.35,134.14,97.06,126.6,105Z"/><path class="cls-55" d="M106,127.51c-.34-5.34,6.32-10.41,11.09-8.44C114.66,123.51,111.32,126.8,106,127.51Z"/><path class="cls-55" d="M117.17,119c0-3.65,6.09-12.42,9.14-13.19C125.13,111.52,121.06,115.21,117.17,119Z"/><path class="cls-56" d="M29,100.71c-20.64-15.26-1.71-28-8.88-39.57a2.63,2.63,0,0,1,.05-2.94c2.63-8.69,5.41-16,13.63-21.3,12.91.9,3.06,1.66,6,7.24,4.65-6.35,8.95-1.6,5.38,2.63-3.63,3-6.32,7.56-11.8,7.78C18.77,83.59,33.7,86.05,29,100.71Z"/><path class="cls-57" d="M44.94,41c-3.4,1.87-5.5,5.15-8.55,8.32-.44-3,6-10.89,8.83-9A2.15,2.15,0,0,0,44.94,41Z"/><path class="cls-58" d="M22.7,48.2c4.05,5.85.12,6.68-1.21,11.43,8.07,12-7.4,16.21,3.29,35.11a14.69,14.69,0,0,1,1.13,4.9c-3.85,5.64-4.34-3.3-7.22-4.68-1.22-2.82-.29-6.18-3.11-8.43,1-3.15-1.22-6-.84-9.09,1.47-1.94,2.79-3.3,1.36-6.53-.83-1.08.45-11.7,2.58-11.72A25.29,25.29,0,0,1,21.8,47.34Z"/><path class="cls-59" d="M19.75,94.51c6.62.51.44,7.23,6.11,5.25,1.28,2.28,2.42,4.59,1.93,7.33-2.68-.21-3.17-2.5-4.12-4.36C19.2,102.94,17.65,97.57,19.75,94.51Z"/><path class="cls-60" d="M17.1,60.7c.7,2.77,3.7,5.41.08,8.41-1.16,1.35,6.29,7.39-1.47,8-2.07-3.49-1.16-7-.1-10.54C15.93,64.59,14.55,62.15,17.1,60.7Z"/><path class="cls-61" d="M15.61,66.6c0,3.51.06,7,.1,10.54-.65,3.12,2.39,6.29-.13,9.39C13.93,79.88,11.6,73.23,15.61,66.6Z"/><path class="cls-62" d="M20.71,49.23c.53,3.57-.93,6.72-2,10C16.66,55.32,19,52.33,20.71,49.23Z"/><path class="cls-63" d="M19.75,94.51c0,1.39.26,2.86-.93,4-1.48-3.39-1.66-7-2.21-10.63C19.65,89.14,17.85,92.7,19.75,94.51Z"/><path class="cls-64" d="M29,100.71c1.31-4.74-4.29-9.87-2.06-13.34,3.82,1.82,5.31,5.54,7.18,8.91,15.32,26.55,44.42,31.05,70.05,19.86,4.08,3.14-.17,6-.78,8.62-.57,2.48-3-.11-4.47-.71-8.64-2-10.45,9.29-23,5.3-2-.41-3.94-1.18-5.89.11-4.3-1.25-8.29-3.43-13.12-3-2.3.21-3.18-3.22-5.52-4.16-10.33-3.65-18-12-22.42-21.6Z"/><path class="cls-65" d="M104.12,116.15C92,121,77.6,127.25,64.72,121.34c1.65-3.36,3.56-1,5.39-.23,12.17,2.83,22.79-3.59,33.84-6Z"/><path class="cls-55" d="M94.66,130.47c-2.28,1.07-4.44,2.59-7.19,2C89.5,130.5,90.85,126.05,94.66,130.47Z"/><path class="cls-66" d="M103.87,115.11c1.51-2.6,4.14-3.79,6.59-5.23C109.72,113.46,106.81,114.3,103.87,115.11Z"/><path class="cls-67" d="M115.27,102.87c-.44-5.77,1.24-8,4.83-6.42Z"/><path class="cls-68" d="M70.11,121.11c-20,2.52-49.32-28.31-44.36-48.24A3.34,3.34,0,0,1,29,76c.23,19.6,17.88,33.89,33.91,42.1C64.79,120.38,68.75,117.64,70.11,121.11Z"/><path class="cls-69" d="M103.86,103.47c-9.69,7.55-20.68,10.1-32.75,8.45-.36-3.91,10.57-2.13,13.48-3.67,14.27-2.17,17.84-8.32,25.73-19.15C115,91.29,105.67,100.37,103.86,103.47Z"/><path class="cls-70" d="M83.43,41.14c13.51,2.5,32.16,19.24,29.21,32.12-1.87-.15-2.67-1.6-3.09-3C105.82,57.47,96.24,50.48,85,45.08,83.06,45,80.1,40.92,83.43,41.14Z"/><path class="cls-71" d="M83.43,41.14c-1.15.59-1.37,2.44-2.67,2.59-5.28-.3-14.87,5.3-18-.54,6.68-2.2,13.35-4.35,20.54-2.8Q83.36,40.77,83.43,41.14Z"/><path class="cls-72" d="M112.21,73l1.11-2.32A33.76,33.76,0,0,1,112,90.4C109.07,88.8,108.64,74.11,112.21,73Z"/><path class="cls-73" d="M50.07,100.67C47,95.24,39.82,91.69,39.36,85c1.06-7-3.51-24.82,6.25-26.58,3.56,23.89-3.87,28.6,19.27,46.1C74.37,115.58,52.42,104.08,50.07,100.67Z"/><path class="cls-74" d="M38.14,99.69C33,95.38,21,71.94,29.16,69.07c3.42,22.71-1.27,9.77,10.11,30.61A.75.75,0,0,1,38.14,99.69Z"/><path class="cls-48" d="M38.14,99.69c8.42,4.87,16.25,12.78,24.73,18.35-7-2.25-13.33-5.61-18.48-11C42.72,104.32,36.42,103.62,38.14,99.69Z"/><path class="cls-75" d="M28.93,61.87c4.5-18.24,9,3,.22,7.2A6.14,6.14,0,0,1,28.93,61.87Z"/><path class="cls-76" d="M45.33,58.56c-1.07-.18-2,.93-3,.07,3.41-6.44,8.36-11.1,15.45-13.27C59.15,48.69,48.37,58.12,45.33,58.56Z"/><path class="cls-77" d="M50.07,100.67c5.84,2.31,10.32,7.41,16.9,8.18,2.28-2.12,7.66.64,4.14,3.07C63.31,109.63,55.05,108.23,50.07,100.67Z"/><path class="cls-78" d="M40.72,65.71C37.67,72,42.56,79.19,39.36,85,38.94,81.42,35,65.07,40.72,65.71Z"/><path class="cls-79" d="M40.72,65.71l-2.48,1.13c1.28-2.52,2.34-9.62,6.16-8.21C42.33,60.56,42.41,63.6,40.72,65.71Z"/><path class="cls-80" d="M41.05,90.43c4.67.84,5.35,5.45,7.89,8.3C44.43,97.76,43.76,93.12,41.05,90.43Z"/><path class="cls-81" d="M56.72,47.49c-1-2.55,4.41-3.1,6.05-4.3C65.43,46.89,60.89,50.24,56.72,47.49Z"/><path class="cls-82" d="M23.67,102.73c3.47,4,7.56,7.62,9.8,12.46C29.11,111.9,24.64,108.69,23.67,102.73Z"/><path class="cls-56" d="M35.11,110c4,.11,3.68,3.85,5.15,6.09C36.18,116,35.46,113.14,35.11,110Z"/><path class="cls-56" d="M29,100.71c2.62,2.18,4,5.13,5.12,8.24C29.45,110.08,30.16,103.49,29,100.71Z"/><path class="cls-83" d="M28.93,61.87c.2,4.27-.07,8.32-2,12.22l-1.22-1.22C27.74,69.47,25.32,64.8,28.93,61.87Z"/><path class="cls-84" d="M72.25,110.81c8.08-10.3,25.72-3,33.31-21.59.94-2,2.45-5.16,5.58-1.83C106.71,105.76,88.92,111.25,72.25,110.81Z"/><path class="cls-85" d="M111.14,87.39c-2-.89-2.83.23-3.29,1.93-4.8,15.17-22.19,18-35.89,20.69-11.23-3.25-23-13.68-26.41-25-1.47-9.08-4.59-23,3-30.21,5.61-3.08,8.82,1.45,5.14,6.49-.65.82-1.21,1.79.51,2.12,5-1.63,6.94-8.52,12.94-9.29C79,53.69,69.8,64.55,68.4,70.6,58.17,90.14,89,88.71,85.7,98.4c-2.81,4.7-12.88,3.22-17.08,1.62C98.57,109.24,119.49,57.5,75,52.57c-1.71-.42-3.87-.19-5-2.13.78-6.42,10-1.69,13.49-7.38C103.32,48.05,116.48,67.08,111.14,87.39Z"/><path class="cls-86" d="M54.72,64.86c-2.79,2.43-6.82,1.87-4.5-2.58,3.62-6,3.61-6-1.69-7.51,2.26-1,3.73-6.64,6.4-3.11-.5-.39-.93-.86-1.39-1.29,6.25-5.3,22.5-10.85,29.9-7.31,1,10.71-7.83,2.58-13.38,7.37-.92,2.13-4.17,1.14-5.15,3.49C61.05,57.28,57.28,60.73,54.72,64.86Z"/><path class="cls-87" d="M70,61.67c2.7-5.42,2.69-5.46-3-6.1,11.17-13.87,50.15,16.66,27.59,37l.06-.07c-3.26,2.36-5.71,6-10.22,6.41.71-4.84-3.61-4.82-6.23-6.44C103.43,86.41,91.48,59,70,61.67Z"/><path class="cls-88" d="M70.76,88.55c-7.38-4.64-10.34-12.49-2-22.9,6.74-7.1,15-1.45,19.58,4.44C98.85,84,85.4,97,70.76,88.55Z"/><path class="cls-89" d="M71,65.25l-2.27.4c.63-1.27-1-3.27,1.32-4C83.48,51.34,105,81.26,88.55,89.43c3-10.83,4.29-17.27-6.42-24.11C78.57,62.93,74.72,61.9,71,65.25Z"/><path class="cls-87" d="M58.6,58.6C67.49,41.11,104,55,101.92,73.83c-1.19.81-1.36-.12-1.61-.93C96.62,60.4,84.59,52.82,72,53.51l.12,0C67.74,51.57,58.69,62.15,58.6,58.6Z"/><path class="cls-90" d="M53.17,69.91c-.58,9.14,3.81,16.81,7.56,24.66C53.08,87,51.79,82.8,53.17,69.91Z"/><path class="cls-91" d="M80.29,53.5c10.92,2,24.27,13.79,20.32,24.83C99.25,65.78,91.24,59,80.27,54.65,79.59,54.25,79.59,53.87,80.29,53.5Z"/><path class="cls-92" d="M84.49,98.88c4-1.22,6-5.51,10.22-6.41-4.38,5.82-9.43,10.39-17.48,9.34C76.52,99.15,83.15,101.3,84.49,98.88Z"/><path class="cls-93" d="M77.27,100.81c-3.33,5-10.31-1.52-13.74-3.73C68.12,98.32,72.29,101.06,77.27,100.81Z"/><path class="cls-94" d="M70.76,88.55c4.46-1.2,6.47,4.07,13.62.85.53.77,1.75.19,2.19,1.13C81.22,94.35,75.67,91.48,70.76,88.55Z"/><path class="cls-95" d="M58.69,59.5c3.87-3.38,7.31-7.71,13.45-6-1,2.37-3.73.57-5.08,2.1-2.16.79-8.47,8.47-9.68,5.36A1.67,1.67,0,0,1,58.69,59.5Z"/><path class="cls-96" d="M100.61,78.33c.39-.73.78-1.46,1.18-2.19C103.44,84.64,95.87,95.41,100.61,78.33Z"/><path class="cls-92" d="M98.64,86.21c2.79,2.16-1.85,5.37-4,6.33C94.92,89.76,97.28,88.3,98.64,86.21Z"/><path class="cls-97" d="M57.76,60.76l1.05,1c-.84,1-3.55,6.58-4.09,3.07h0C55.8,63.54,54.59,60.52,57.76,60.76Z"/><path class="cls-85" d="M53.54,50.37c10.31-.89.37,8.71,0,0Z"/><path class="cls-85" d="M57.76,60.76c-1,1.36-2,2.72-3.07,4.09-.08-2.95-.51-6.12,3.92-6.25C58.9,59.5,58.26,60.08,57.76,60.76Z"/><path class="cls-85" d="M70,50.45c-1.37,2.83-4.16,1.27-6.2,2C65.12,49.36,67.87,50.82,70,50.45Z"/><path class="cls-98" d="M86.57,90.53,84.38,89.4C99,82.11,84.56,60.54,71,65.25,77.38,53.59,103.1,78,86.57,90.53Z"/><path class="cls-99" d="M80.29,53.5c0,.38,0,.76,0,1.15-2.78-.12-5.61.06-8.25-1.14C74.77,51.2,77.54,53.79,80.29,53.5Z"/><path class="cls-100" d="M76.14,87.53c-14-9.48-.6-25.65,3.74-15.56-1.55,3.39-.14,10.79-6.35,6.87C74.33,81.87,79.12,84.57,76.14,87.53Z"/><path class="cls-101" d="M76.14,87.53c.48-3.53,1.51-6.23,4.15-8.72C85.85,67,89.37,94.05,76.14,87.53Z"/><path class="cls-102" d="M84.38,77.12c-7.23-2.25-3.58-3.26-7.19-8.18C82.92,68.74,83.2,73.32,84.38,77.12Z"/><path class="cls-88" d="M78.28,82.21c2.56,10.52-10.5-2-5.34-10.09,1.67,2.6.51,5.79,3.17,7.08C77.8,79.51,78.94,80.21,78.28,82.21Z"/><path class="cls-103" d="M79.23,72c2.32,2.44,3.77,4.8,3.16,8.25a3,3,0,0,1-4-2.16C74.07,74.4,74.07,74.4,79.23,72Z"/><path class="cls-104" d="M78.38,78.12c1.85-.23,2.88,1.07,4,2.16-1.94,3.39-5,1.8-6.28-1.08Z"/></g></g></g></svg>