<svg xmlns="http://www.w3.org/2000/svg" viewBox="0 0 150 149">
  <defs/>
  <defs>
    <style>
      .cls-9{fill:#c0cbcf}.cls-15{fill:#94a5b2}.cls-48{fill:#bfc9cb}.cls-55{fill:#b3c0c7}.cls-56{fill:#c0ccd0}.cls-85{fill:#cdd7d8}.cls-87{fill:#bfcccf}.cls-88{fill:#98a8b3}.cls-92{fill:#788490}
    </style>
  </defs>
        <path fill="#171f47" d="M89 1c56 18 81 75 41 125-8 1 2-10 3-12a60 60 0 008-18c4-28 12-6 3-41-5-17-27-42-46-39-5 1-9-4-14-4-9-3-18 4-27 2C48 4 83 4 89 1z"/>
        <path fill="#282f53" d="M89 1c-4 6-37 4-31 12 0 5-4 4-7 5-9 4-16 10-24 15C0 41 67-6 89 1z"/>
        <path fill="#2f456c" d="M93 148c-9 6-64-6-61-18 2-2 4-1 6 1 8 7 19 9 29 12l13 1c2 2 18-3 13 4z"/>
        <path fill="#304a71" d="M7 107C3 94-3 78 2 66c1 0 3 0 4 2a123 123 0 003 27c1 4 6 13-2 12z"/>
        <path fill="#2d3a61" d="M5 67c-1 0-3 1-3-1 0-15 8-26 19-34 3 4-2 5-3 9l-4 5c-8 6-4 21-9 21z"/>
        <path fill="#30577c" d="M7 107c4-3 6-3 7 1 3 6 10 10 12 16-7 8-17-12-19-17z"/>
        <path fill="#2a3458" d="M93 148c1-4 2-6 5-6 7-2 13-5 18-10 4-2 8-9 12-8a2 2 0 002 2 63 63 0 01-37 22z"/>
        <path fill="#2f4e71" d="M22 126c5-5 11 2 10 7-5 0-8-3-10-7z"/>
        <path d="M93 13c10 1 19 4 26 12 2 5 12 14 1 16v1c1 6 0 7-6 6L99 38c-2-1-5-2-5-4-1-4 0-11 6-9-5-1-14-4-10-10 1-1 1-3 3-2z" class="cls-9"/>
        <path fill="#171e34" d="M117 26c-5-5-12-8-19-12 20-4 36 19 46 33 1 5 9 34 5 36-2 0-2-2-3-3-4-3-2-8-3-12-3-16-16-29-26-42z"/>
        <path fill="#b2bfc5" d="M125 127c-2 4-18 13-14 3 6-8 12-16 17-26 3-5 4-11 8-16 5 0 6 1 7 6 1 3-2 3-2 5-2 11-11 19-16 28z"/>
        <path fill="#abb6bd" d="M143 95c-11-12-8-5-8-21 0-8-8-17 6-15 3 2 1 6 4 8 2 9 1 19-2 28z"/>
        <path fill="#93a2ad" d="M125 127c-2-9 10-12 10-20l2-2c7-2-6-9 6-9a62 62 0 01-18 31z"/>
        <path fill="#8094a5" d="M50 17c4-2 24-10 22-2-2 3-7 3-8 7-4 3-12-1-14-5z"/>
        <path d="M72 14l-2-3c27-6 20 14 2 3z" class="cls-15"/>
        <path fill="#7f91a0" d="M88 15l-3-5a19 19 0 018 3 4 4 0 00-1 3c-2 0-4 2-4-1z"/>
        <path fill="#778898" d="M84 10c-3 5-7 0-13 1 4-1 8-2 13-1z"/>
        <path fill="#8fa3b0" d="M22 34c9-5 10-10 22-10 10 0-2 14-9 11-3-1-17 8-13-1z"/>
        <path fill="#7f93a2" d="M47 29c-2-1 1-3-1-3h-3c-4 9-4 0-7-2a38 38 0 0114-7c5 5 6 15-3 12z"/>
        <path fill="#a8c1cd" d="M32 130c-3-4-12-8-12-14 5-2 16 15 29 17 9 4 18 7 27 8 3 0 8 0 7 5-18 1-35-7-51-16z"/>
        <path fill="#9cb0bb" d="M79 146c5 1 6-6 10-5 12-1 14-8 28-8-10 9-24 15-38 13z"/>
        <path fill="#aac3d2" d="M20 117C5 103 2 79 6 61c1-5 3-15 8-16 2 3 1 5 0 7a61 61 0 00-4 25c1 12 3 25 10 34v6z"/>
        <path fill="#a2b3bf" d="M14 45h-1c0-4 5-7 9-7 3-5 8-4 13-4 3 4-19 18-21 11z"/>
        <path fill="#688499" d="M22 38c-1 2-3 2-5 2a9 9 0 015-6z"/>
        <path fill="#b9c4c8" d="M141 60c-14 4-8-1-13-7 2 6 10 15 7 22-4 0-6 2-6 6 0 3-1 12-5 10-1-15 1-24-8-38-1-2-3-3-2-6 5 1 6-2 4-6-1-2-4-3-4-6 4 0 5 7 8 4 4-4-4-8-5-13 10 7 25 23 24 34z"/>
        <path fill="#c9d4d7" d="M97 26c-2 2 0 5-2 8-5 1-9 0-14-1-7-4-24 5-25-4 1-8 13-4 19-9 3-1 5 2 8 0 2 0 4 1 5 3 3 2 7-2 9 3z"/>
        <path fill="#a9b9c2" d="M87 24c-1-1-3-3 0-3-5-1-20 1-15-7l20 2c-4 4 2 4 4 7-1 2-3 0-5 1-1 1-3 2-4 0z"/>
        <path fill="#53626d" d="M114 47c8 11 14 23 11 37-1 0-2-1-2-3-2-11-4-22-12-31-21-16-12-17 3-3z"/>
        <path fill="#3d4f5f" d="M100 37c-4 4-8 0-12-1-3-1-7 1-9-3 1-4 19 1 21 4z"/>
        <path fill="#9aa7ab" d="M99 24a8 8 0 016 5c-2-1-7-2-6-5z"/>
        <path fill="#495865" d="M99 24v2c-9-1-10-6 0-2z"/>
        <path fill="#97a4ae" d="M141 60v-4l4 11c-4 0-4-4-4-7z"/>
        <path fill="#c3cfd6" d="M112 134c-17 9-26 13-46 7-11-4-30-7-36-18 3-5 7 4 11 0 29 14 49 18 77 0 1 5-8 6-6 11z"/>
        <path fill="#506170" d="M118 123c-8 7-20 16-31 12 1-3 3-2 5-2 9-2 18-8 25-14 7-7 11-16 14-25 1-2 1-4 3-4 4 5-12 28-16 33z"/>
        <path fill="#77828b" d="M135 92c-3-5-2-14 2-19a61 61 0 01-2 19z"/>
        <path fill="#99a4aa" d="M137 73c-2 2 0 5-2 7-2-1-2-2-1-4 3-8-7-22-11-30 8 7 12 17 14 27z"/>
        <path d="M72 14c-1 6 6 3 9 5-4 3-9 1-14 3-10 0 0-8 5-8z" class="cls-15"/>
        <path fill="#94a8b7" d="M53 24c-3-2-2-4-2-6 2 2 7 0 8 4-2 2-4 3-6 2z"/>
        <path fill="#586c79" d="M63 20l14-1c0 3-20 8-18 3z"/>
        <path fill="#b7c4ca" d="M59 23c3 0 31-8 22 0-7-2-13 3-20 3a3 3 0 00-4 2c-1 4 5 3 5 6a3 3 0 01-2 2c-6 0-9 4-14 6-10 5-5 2-12-4 1-6 9-5 13-9 4-1 7-6 12-6z"/>
        <path fill="#7c8b98" d="M37 34c-3 3-10 19-16 14-1-2 15-15 16-14z"/>
        <path fill="#708290" d="M59 23c-2 1-7 5-6 1 1-1 6-4 6-1z"/>
        <path fill="#c3d1da" d="M26 42c-6 6-4 14-8 21l-1 5c-6 11 4 22 3 33-3 7 20 20 10 22-4-1-6-6-10-6C7 93 3 71 14 45c4 2 8-2 12-3z"/>
        <path fill="#c7d0d3" d="M135 75l-2 5c1 15-8 28-16 40-8 3-13 12-22 13-4-4-15 8-25-2 0-4 3-4 5-3 9 3 15-5 23-5 5 0 6-2 5-6 4-8 15-12 18-22 1-1 1-4 4-4 5-4 0-27 10-16z"/>
        <path fill="#657180" d="M125 91c-3 6-6 13-11 17-4-4 4-8 5-12 2-5 1-13 5-15 2 3 1 7 1 10z"/>
        <path fill="#5b6b72" d="M82 31c-4 3-8 4-13 2-2-4 10-2 13-2z"/>
        <path fill="#7a8791" d="M69 31c1 5-8 5-9 1z"/>
        <path fill="#435761" d="M83 21l-1-2c3 1 6 1 8 3-2 1-4-1-7-1z"/>
        <path d="M92 23l1 1c-2 2-4 3-6 0z" class="cls-9"/>
        <path d="M124 81a114 114 0 01-4 16c-3 1-4 4-5 7 0 1-2 2-1 4l-10 8c-20 16-58 2-34 0 8 4 34-2 33-12 15-18 12-44-10-56-7-4-17-8-4-13 22 3 35 24 35 46z" class="cls-48"/>
        <path fill="#ced9da" d="M104 104c1 6-1 9-7 10-12 10-22 3-35 5-15-7-28-20-33-36 1-4-1-9-1-13 9-11-2-13 14-22 7-18 31-18 47-13-2 12-35 4-45 25-13 21 6 48 28 51 12 3 22-4 32-7z"/>
        <path fill="#cfdde3" d="M32 122c-5-3-25-30-7-19 3 9 12 13 16 21-4 7-6 0-9-2z"/>
        <path fill="#354f62" d="M87 135l4 1c-5 2-37-1-34-6 9-2 17 6 27 4a4 4 0 013 1z"/>
        <path fill="#395061" d="M57 130v2c-5-3-11-3-15-8 5-3 12 2 15 6z"/>
        <path fill="#3d5262" d="M44 124c-3 0-8-2-8-5 5-1 7 0 8 5z"/>
        <path fill="#a7b9c4" d="M44 124c-2-5-9-3-10-8-4-2-14-19-5-16 3 2 1 7 6 9 3 2 1 7 6 6 8 4 15 10 25 11 2 1 4 2 4 4 14 7 9-1 18 3 2 0 4-4 7-2s5-3 9-2c-18 13-42 3-60-5z"/>
        <path d="M127 106c-1-2-2-4-1-5 4-4 4-9 6-14 1-4-2-9 3-11 0 10-1 22-8 30zM106 128c0-5 6-10 11-8-2 4-6 8-11 8zM117 120c0-4 6-13 9-13-1 5-5 9-9 13z" class="cls-55"/>
        <path d="M29 102c-20-14-2-31-9-40-1-4 4-8 3-13 5-6 9-14 18-11 0 3-3 4-2 6 1 3 3-4 6-2 6 4-7 13-12 13-15 32 1 31-4 47z" class="cls-56"/>
        <path fill="#5c6e76" d="M45 42l-9 8c0-3 7-11 9-9a2 2 0 000 1z"/>
        <path fill="#aebcc3" d="M23 49c4 5 0 7-1 11 7 15-8 13 4 40-4 6-4-3-7-4-2-2 0-5-2-7-2-3-2-7-2-11 1-2 3-3 1-6-1-2 0-11 3-12a26 26 0 013-12z"/>
        <path fill="#97abb5" d="M20 95c6 1 0 8 6 6l2 7c-3 0-3-3-4-4-5 0-6-6-4-9z"/>
        <path fill="#94a4b0" d="M17 61c1 3 4 6 0 9 0 2 6 7-1 8-2-4-1-7 0-11 0-2-1-4 1-6z"/>
        <path fill="#677d8d" d="M16 67v11c-1 3 2 6 0 9-2-6-4-13 0-20z"/>
        <path fill="#728591" d="M21 50l-2 10c-2-4 0-7 2-10z"/>
        <path fill="#7e93a0" d="M20 95l-1 4c-2-3-2-7-2-10 3 1 1 4 3 6z"/>
        <path fill="#ccd8db" d="M29 102c1-5-4-10-2-14 4 2 5 6 7 9 6 11 15 18 26 22 16 9 29 2 44-2 4 3 0 6-1 9 0 2-2-1-4-1-9-2-11 9-23 5h-6c-4-1-8-3-13-3-2 1-3-3-6-4a35 35 0 01-17-13c-3-2-3-6-5-8z"/>
        <path fill="#6c7884" d="M104 117c-12 5-26 11-39 5 1-3 3-1 5 0 11 2 20-1 30-5 1-1 4-3 4 0z"/>
        <path d="M95 131c-3 1-5 3-7 2 2-2 3-6 7-2z" class="cls-55"/>
        <path fill="#5d6a77" d="M104 116c2-3 4-4 7-5-1 3-4 4-7 5z"/>
        <path fill="#a6b5c0" d="M115 104c0-6 2-8 5-7z"/>
        <path fill="#93a0aa" d="M70 122c-20 2-49-28-44-48a3 3 0 013 3c0 23 23 37 41 45z"/>
        <path fill="#687786" d="M104 104c-10 8-21 10-33 9 2-6 27-1 34-16 12-18 5 2-1 7z"/>
        <path fill="#4a5865" d="M84 42c13 2 32 19 29 32-2 0-3-2-3-3-4-13-14-20-25-25-2 0-5-4-1-4z"/>
        <path fill="#707f87" d="M84 42c-2 3-21 7-21 2 7-2 13-4 20-3l1 1z"/>
        <path fill="#596d7a" d="M112 74l1-3a34 34 0 01-1 20c-3-2-3-15 0-17z"/>
        <path fill="#b3c2cb" d="M50 101c-3-5-10-9-11-15V67c2-2 3-9 7-8 3 23-3 31 19 46 1 1 3 3 2 5-7 0-12-5-17-9z"/>
        <path fill="#acbac2" d="M38 100c-7-8-14-20-10-30 3 1 2 8 3 12-2 5 11 17 7 18z"/>
        <path d="M38 100c9 5 16 13 25 19-4-1-27-14-25-19z" class="cls-48"/>
        <path fill="#aeb8c3" d="M29 63c1-3 0-7 4-8 3 4 0 13-4 15a6 6 0 010-7z"/>
        <path fill="#a3b2bb" d="M45 59h-3c4-6 9-11 16-13 2 3-10 13-13 13z"/>
        <path fill="#808e95" d="M50 101c6 3 10 8 17 9a4 4 0 015 0c1 7-21-4-22-9z"/>
        <path fill="#536976" d="M41 66c-3 7 2 14-2 20 0-4-4-20 2-20z"/>
        <path fill="#798795" d="M41 66l-3 2c2-3 3-10 6-9-2 2-2 5-3 7z"/>
        <path fill="#7b8d96" d="M41 91c5 1 5 6 8 9-5-1-5-6-8-9z"/>
        <path fill="#6a797f" d="M57 48c-1-2 4-3 6-4l1 1c-2 5-3 5-7 3z"/>
        <path fill="#637883" d="M24 104l10 12c-5-3-9-6-10-12z"/>
        <path d="M35 111c4 0 4 4 5 6-4 0-4-3-5-6zM29 102c3 2 4 5 5 8-5 1-4-6-5-8z" class="cls-56"/>
        <path fill="#828f97" d="M29 63c0 4 0 8-2 12l-1-1c2-4-1-8 3-11z"/>
        <path fill="#b6c4cc" d="M72 112c5-10 26-3 34-22 12-14 4 25-34 22z"/>
        <path d="M111 88c-2-1-3 0-3 2-5 15-22 18-36 21-11-3-23-14-26-25-2-9-5-23 3-30 2 0 4-3 5 0 2 2 1 4 0 6v2c5-2 7-8 13-9 7 0 8 2 5 7-6 16-10 22 8 30 3 1 7 2 6 7-2 5-14 3-17 2 27 9 48-37 14-46-4-2-10 0-13-4 1-6 10-2 14-7 19 5 33 24 27 44z" class="cls-85"/>
        <path fill="#cfdde0" d="M55 66c-3 2-7 2-5-3 4-6 4-6-1-8 2-1 3-6 6-3l-1-1c2-4 7-2 10-6a63 63 0 0119-2c2 3 0 9-6 6-7-1-18 11-22 17z"/>
        <path d="M70 62c3-5 3-5-3-6 0-5 10-2 14-2 17 4 28 26 14 39-3 3-6 6-10 7 0-5-4-5-7-7l10-4c14-10-4-30-18-27z" class="cls-87"/>
        <path d="M71 89c-8-4-11-12-2-23 7-7 15-1 19 5 11 13-3 27-17 18z" class="cls-88"/>
        <path fill="#a2afb6" d="M71 66h-2c0-1-1-3 1-4 14-10 35 20 19 28 3-10 4-17-7-24-3-2-7-3-11 0z"/>
        <path d="M59 59c7-17 46-3 43 16l-2-1c-3-13-15-20-28-20-5 0-9 4-13 7a1 1 0 010-2z" class="cls-87"/>
        <path fill="#a6b2b8" d="M53 71c0 9 4 17 8 24-8-7-9-11-8-24z"/>
        <path fill="#7b8b92" d="M80 54c10 2 25 15 21 25-2-12-10-19-21-24v-1z"/>
        <path d="M85 100c4-2 6-6 10-7-4 5-13 13-18 9 3-1 6 0 8-2z" class="cls-92"/>
        <path fill="#85979c" d="M77 102v1c-6 2-9-2-13-5 4 1 8 4 13 4z"/>
        <path fill="#7b8c95" d="M71 89c4-1 7 4 13 1l3 1c-6 4-11 1-16-2z"/>
        <path fill="#566979" d="M59 60c4-3 7-7 13-6-1 3-4 1-5 2-1 2-13 11-8 4z"/>
        <path fill="#5c6876" d="M101 79l1-2c1 9-6 19-1 2z"/>
        <path d="M99 87l1 1a9 9 0 01-5 5c0-2 2-4 4-6z" class="cls-92"/>
        <path fill="#808f95" d="M58 62l1 1c-1 1-4 6-4 3 1-2 0-5 3-4z"/>
        <path d="M54 51c1 0 4-1 4 2-1 4-5 1-4-2zM58 62l-3 4c0-3-1-7 4-7l-1 3zM70 51c-1 3-4 1-6 2 1-3 4-1 6-2z" class="cls-85"/>
        <path fill="#5f6f7c" d="M87 91l-3-1c15-7 0-29-13-24 8-12 32 14 16 25z"/>
        <path fill="#5d6f78" d="M80 54v1l-8-1c3-2 6 1 8 0z"/>
        <path fill="#6f828d" d="M76 88c-14-10 1-25 4-15-1 3 0 11-6 7 0 3 5 5 2 8z"/>
        <path fill="#6f838c" d="M76 88a14 14 0 014-8c6-12 9 15-4 8z"/>
        <path fill="#84939c" d="M84 78c-7-2-3-3-7-8 6 0 6 4 7 8z"/>
        <path d="M78 83c3 10-10-1-5-10 2 3 1 6 3 7 2 0 3 1 2 3z" class="cls-88"/>
        <path fill="#465662" d="M79 73c3 2 4 5 3 8a3 3 0 01-4-2c-4-4-4-4 1-6z"/>
        <path fill="#576773" d="M78 79l4 2c-1 3-5 2-6-1z"/>
</svg>
