<svg xmlns="http://www.w3.org/2000/svg" viewBox="0 0 149.9 149.14"><defs><style>.cls-1{fill:#45183e;}.cls-2{fill:#511f48;}.cls-3{fill:#632d68;}.cls-4{fill:#652f6d;}.cls-5{fill:#5f2b5d;}.cls-6{fill:#662e76;}.cls-7{fill:#562952;}.cls-8{fill:#612e6c;}.cls-9{fill:#c7bfcd;}.cls-10{fill:#321632;}.cls-11{fill:#bbb0c3;}.cls-12{fill:#b6aabb;}.cls-13{fill:#a391aa;}.cls-14{fill:#977da0;}.cls-15{fill:#a692ae;}.cls-16{fill:#937c9b;}.cls-17{fill:#8c7493;}.cls-18{fill:#a28cac;}.cls-19{fill:#947c9d;}.cls-20{fill:#bba5c8;}.cls-21{fill:#ac99b7;}.cls-22{fill:#c0a7cd;}.cls-23{fill:#b3a0bb;}.cls-24{fill:#866593;}.cls-25{fill:#c0b8c6;}.cls-26{fill:#cfc8d5;}.cls-27{fill:#b7a7bf;}.cls-28{fill:#63526b;}.cls-29{fill:#543c5d;}.cls-30{fill:#a298a9;}.cls-31{fill:#5c4763;}.cls-32{fill:#a595ab;}.cls-33{fill:#cec1d4;}.cls-34{fill:#654e6d;}.cls-35{fill:#837589;}.cls-36{fill:#a297a8;}.cls-37{fill:#a991b2;}.cls-38{fill:#6c5676;}.cls-39{fill:#c1b5c8;}.cls-40{fill:#8e7a94;}.cls-41{fill:#846d8c;}.cls-42{fill:#d1c1d7;}.cls-43{fill:#cdc6d2;}.cls-44{fill:#79637d;}.cls-45{fill:#675970;}.cls-46{fill:#88788e;}.cls-47{fill:#53425f;}.cls-48{fill:#c4beca;}.cls-49{fill:#d3cdd9;}.cls-50{fill:#d9cde1;}.cls-51{fill:#52335f;}.cls-52{fill:#53385e;}.cls-53{fill:#553b60;}.cls-54{fill:#b7a5c0;}.cls-55{fill:#beb1c5;}.cls-56{fill:#c8bfce;}.cls-57{fill:#6a5a73;}.cls-58{fill:#b9acc1;}.cls-59{fill:#a694b1;}.cls-60{fill:#a592ac;}.cls-61{fill:#7e6589;}.cls-62{fill:#84708d;}.cls-63{fill:#907b9b;}.cls-64{fill:#d3cbd9;}.cls-65{fill:#7c6a81;}.cls-66{fill:#6f5b75;}.cls-67{fill:#b6a4bd;}.cls-68{fill:#a191a7;}.cls-69{fill:#7c6682;}.cls-70{fill:#5c4963;}.cls-71{fill:#7d6e85;}.cls-72{fill:#6d5777;}.cls-73{fill:#c1b1c8;}.cls-74{fill:#b8aac0;}.cls-75{fill:#bcacc1;}.cls-76{fill:#b0a0b7;}.cls-77{fill:#8b7e93;}.cls-78{fill:#685173;}.cls-79{fill:#8b7691;}.cls-80{fill:#897992;}.cls-81{fill:#74687c;}.cls-82{fill:#74617f;}.cls-83{fill:#8e8094;}.cls-84{fill:#c2b4c9;}.cls-85{fill:#d2ccd6;}.cls-86{fill:#d6cdde;}.cls-87{fill:#c6becd;}.cls-88{fill:#a896af;}.cls-89{fill:#aca0b3;}.cls-90{fill:#afa4b6;}.cls-91{fill:#86798f;}.cls-92{fill:#88768d;}.cls-93{fill:#8f8399;}.cls-94{fill:#897991;}.cls-95{fill:#6d5476;}.cls-96{fill:#6f5b74;}.cls-97{fill:#8a7e93;}.cls-98{fill:#725d79;}.cls-99{fill:#6c5b75;}.cls-100{fill:#806d89;}.cls-101{fill:#7e6d89;}.cls-102{fill:#928199;}.cls-103{fill:#584560;}.cls-104{fill:#685670;}</style></defs><g id="レイヤー_2" data-name="レイヤー 2"><g id="レイヤー_1-2" data-name="レイヤー 1"><g id="アートワーク_6" data-name="アートワーク 6"><path class="cls-1" d="M87.82.79C144.13,18,170,75.88,130,125.64c-9.72,3.51,12.73-24.34,11.17-30.3,3.86-27.18,11.45-7.49,2.05-40.72C138,36.78,123.13,23,106.42,15.87c-3.23-.94-6.2-1.68-9.35-.15-4.89.75-8.47-4-13.42-3.73-9.21-2.72-17.8,4.31-26.93,2.47C48.25,4.11,82.08,4.15,87.82.79Z"/><path class="cls-2" d="M87.82.79c-8.19,6-20.22,4.7-29.52,8.32-2.3,1-2.67,2.45-1,4.37-.06,4.55-4.2,3.92-6.74,5.3C41.75,22.69,34,28.19,26.34,33.86-.5,41,68-6.63,87.82.79Z"/><path class="cls-3" d="M93.36,147.36c-9.35,6-62.58-4-61.33-16.71,2.07-2.07,4.39-1.05,6,.23,8.72,7,19.41,9.12,29.7,12.09,4,1.16,8.45-.51,12.51,1.2C83,145.92,97.83,140.84,93.36,147.36Z"/><path class="cls-4" d="M7.7,107.14C3,94.92-3.45,78.73,2.21,66.25c1,.74,2.75.32,3.31,1.92A122.14,122.14,0,0,0,9,95.74C10.66,99.07,15.51,108.55,7.7,107.14Z"/><path class="cls-5" d="M4.66,67.3c-1.19.52-2.69,1.78-2.45-1-.29-14.7,7.57-25.1,18-34.12,3.83,3.91-1.6,5.44-2.68,9.08-1.11,2.11-3.36,3.42-4.11,5.8C6.26,52.13,10.32,66.91,4.66,67.3Z"/><path class="cls-6" d="M7.7,107.14c3.16-3.06,5.36-2.74,6.83,1.34,3.14,5.86,9.51,9.68,11.36,16C19,131.85,9.45,113.09,7.7,107.14Z"/><path class="cls-7" d="M93.36,147.36c.73-3.41,2.21-5.34,5.52-5.67,6.3-2.44,12.34-5.29,17.19-10.15,4-1.71,7.61-9.11,11.9-7.73a2.24,2.24,0,0,0,2,1.83C120.11,136.13,108.16,145.47,93.36,147.36Z"/><path class="cls-8" d="M22.29,126.64c5-5.37,11.49,1.25,10.22,7.11C28,133,24.8,130.31,22.29,126.64Z"/><path class="cls-9" d="M92.3,12.92C105.91,14,116.62,20.46,123,32.45c3.24,3.5,1.33,7.84-3.36,8.53-.51.08-.63-.75-.42.4,1.17,6.61.53,7.29-5.6,6.74-5.17-3.2-9.62-7.5-15.23-10-2-1.24-4.59-1.75-5.17-4.57-.42-3.58.06-10.76,5.67-8.32C94.1,24.06,85.5,21.3,89.48,14.93,89.94,13.59,90.53,12.42,92.3,12.92Z"/><path class="cls-10" d="M116.83,26.07c-5.7-5.39-12.76-8.55-19.62-12,20.53-4.27,35.49,17.84,46.23,32.19,1.28,6.05,9.8,33.12,5,36-1.66.33-1.27-2.13-2.38-2.89-3.93-3.24-1.95-8.06-3.2-12C140,51.42,126.92,38.32,116.83,26.07Z"/><path class="cls-11" d="M124.84,126.55c-1.69,4.07-17.13,13.25-13.17,3.37,5.25-8.71,11.48-16.82,16.61-25.9,3.18-5.33,3.81-11.94,7.41-16.84,5.31.2,6.37,1.16,7.47,6.74.46,2.28-2.1,2.64-2.53,4.37C139.42,109.85,130,117.07,124.84,126.55Z"/><path class="cls-12" d="M143.16,93.92c-11.46-10.84-8.19-5.07-8-20.75-.49-7.31-8.56-16.36,5.26-14.26C147.85,68.48,147.06,82.41,143.16,93.92Z"/><path class="cls-13" d="M124.84,126.55c-1.46-9.2,10.66-11.78,10.67-20.48-.1-2.83,5.5-.57,3.52-5.14-3.48-5.59,1-4.74,3.93-5.21A62.1,62.1,0,0,1,124.84,126.55Z"/><path class="cls-14" d="M49.83,17.43C53.4,15.07,73,6.69,71.62,15.11c-2.44,2.74-7.07,2.62-8.58,6.58C59.45,25.28,51.6,21.65,49.83,17.43Z"/><path class="cls-15" d="M71.48,14.29l-2-2.93C96,5.15,90.35,24.91,71.48,14.29Z"/><path class="cls-16" d="M86.84,15.25l-3-5a19.13,19.13,0,0,1,8.51,2.69A4,4,0,0,0,91,16.06C89.47,16.44,87.69,18.25,86.84,15.25Z"/><path class="cls-17" d="M82.85,10.05C80.4,15.28,75.9,10,70.32,11.17,74.41,9.85,78.53,8.8,82.85,10.05Z"/><path class="cls-18" d="M21.3,35c8.07-5.37,11.4-11,22.11-10.31,10.37-.61-1.88,14-8.5,10.93C31.28,34,17.87,43.43,21.3,35Z"/><path class="cls-19" d="M46,29c-1.19-.76,1.12-2.49-.79-3-1-.26-2.34-.24-2.73.76-3.45,8.2-3.72-.27-6.9-1.91C56,6.28,58.24,33.86,46,29Z"/><path class="cls-20" d="M32.61,130.62c-3.58-4.24-12.36-8.08-12.08-13.76,5.7-1.92,16.12,14.47,28.72,16.35a115.36,115.36,0,0,0,27.47,7.51c2.77.35,7.32-.05,7.06,5.17C65.24,146.69,48.3,138.7,32.61,130.62Z"/><path class="cls-21" d="M79.85,145.72c5.15.88,5.15-5.52,10.07-5.24,4.57.2,8.18-2.06,11.69-4.25,5.09-3.12,10.66-2.48,16.12-3.33C107.15,141.33,93.52,147.64,79.85,145.72Z"/><path class="cls-22" d="M20,117.44C5.24,103.46,1.94,79.58,6.11,61.23c.58-5,2.22-15,7.78-15.39,1.65,2.29.84,4.62-.05,6.83-7.2,17.08-4.09,35.8,2.27,52.56C17.34,108.89,24.06,113.25,20,117.44Z"/><path class="cls-23" d="M13.36,45.68l-.92-.09c.68-3.82,5.22-7.26,9-7.22,3.22-5.11,8.52-3.81,13.24-4.32C37.11,38.32,15.74,52.87,13.36,45.68Z"/><path class="cls-24" d="M21.45,38.37c-1.18,2.1-3.24,2-5.23,2.1A9.29,9.29,0,0,1,21.3,35Z"/><path class="cls-25" d="M140.68,59.88c-13.19,3.69-7.94-1.38-13-7.4,1.63,6.3,9.74,14.68,7.25,22-4.49-.12-5.95,2.3-5.71,6.46-.07,3.08-.86,11.55-5.47,9.57-.22-13.15.7-26.33-7.91-37.79-1.11-1.79-2.87-3.44-2-5.93,4.87,1.08,5.86-2,3.51-6-1-2-3.71-2.89-4-5.57,4-.87,5,6.62,8.41,3.9,4.18-4.69-4-8.48-4.85-13.09C126.78,34,140.49,47,140.68,59.88Z"/><path class="cls-26" d="M96.23,25.56C94.72,38.32,90.8,33.64,80.35,33c-7-3.92-23.33,5.71-25.19-3.83,1.41-8.25,13.61-4.15,19-8.81,2.7-.9,5.59,1.89,8.32-.15,2.15-.63,4,.83,5.13,2.49C90.31,24.81,94.76,21.08,96.23,25.56Z"/><path class="cls-27" d="M86,24.41c-.26-1.12-2.16-3.49,0-3.5-4.34-.68-18.85,1.53-14.53-6.62,6.2.45,13.06,1,19.5,1.77-3.34,4.12,2.17,4.09,4.25,7.11-1.21,1.63-3.28-.47-4.51,1C89.17,25.18,87.61,25.53,86,24.41Z"/><path class="cls-28" d="M113.81,46.79c8.18,10.87,13.49,22.65,11.5,36.7-1.89.27-2.06-1.36-2.73-2.45-1.42-11.58-4.25-22.61-12.43-31.55C89.66,34.36,98.8,32.73,113.81,46.79Z"/><path class="cls-29" d="M99.39,36.71c-3.51,4.11-8,0-11.77-.45-3.16-.85-7.13.36-9.05-3.6C80.25,28.93,96.54,33.71,99.39,36.71Z"/><path class="cls-30" d="M98.28,24.35a7.78,7.78,0,0,1,6.12,4.41C102.18,27.62,97.36,26.47,98.28,24.35Z"/><path class="cls-31" d="M98.28,24.35l0,1.07C89.46,25.41,88.6,20.16,98.28,24.35Z"/><path class="cls-32" d="M140.68,59.88c0-1.4,0-2.79,0-4.18,2.5,3,3.15,6.7,4,10.32C140.31,66,140.71,62.78,140.68,59.88Z"/><path class="cls-33" d="M112.6,134c-24.11,14.87-40.58,10.39-65.88.82-3.43-1.68-22.17-9.2-14.34-13.16,7.07,1.91,1.44,3.53,10.82,1.87,24.89,14.42,50.57,16.21,74.67-.8C119.13,127.55,110.74,128.58,112.6,134Z"/><path class="cls-34" d="M117.87,122.71c-15.17,16.68-40.78,13.93-25.67,9.87,13.75-3.06,28.16-13.36,33-27.1,4.92-4.68,4.51-13.17,8.89-16.1C136.71,98.92,123.81,114.5,117.87,122.71Z"/><path class="cls-35" d="M134.88,91.8c-3.23-5.82-2.59-14.37,1.72-19.39A61,61,0,0,1,134.88,91.8Z"/><path class="cls-36" d="M136.6,72.41c-1.76,2.08.05,5.06-1.8,7.11-1.55-.9-1.61-2.3-1.27-3.84,3-9.91-7.16-20.7-10.54-30.19C130.29,52.34,134.74,62.77,136.6,72.41Z"/><path class="cls-15" d="M71.47,14.3c-.73,5.92,5.58,2.75,8.6,5.15-3.62,2.32-8.92.91-13.21,2.29C56.29,21.93,66.52,14.09,71.47,14.3Z"/><path class="cls-37" d="M52.17,23.89c-3-1.25-2-3.81-1.94-6.05,2.33,2.14,7,.39,8,4.76C56.93,24.21,54.25,25.28,52.17,23.89Z"/><path class="cls-38" d="M62.28,20.53C66.84,20.1,71.36,19,76,19.43,74.76,23.37,48.5,27.06,62.28,20.53Z"/><path class="cls-39" d="M58.27,23.63c3.27-.71,30.89-8.66,22.56-.86C73.46,21,67.17,26.09,60.08,26c-3.89-.14-5,5.77-.66,5.95,2.9.91,3.12,4.37-.14,4.66-7.92.17-13.08,7-20.38,8.54-2.25-1.88-2.62-5.29-5.47-6.69,1.32-5.47,9-5.51,12.6-9.43C50.83,28.21,53.72,23.33,58.27,23.63Z"/><path class="cls-40" d="M36.91,34.14c-4.77,4.06-8.7,18.61-16.07,14.65C20.21,45.77,34.38,33.63,36.91,34.14Z"/><path class="cls-41" d="M58.27,23.63c-1.62.59-7.25,4.41-6.1.26C53.74,23.46,58,20.69,58.27,23.63Z"/><path class="cls-42" d="M25.5,42.43c-3.94,5.19-5.58,11.19-5.79,17.7-1.09,3-2.65,5.49-2.94,8.71-5.44,11,4.44,21.32,3.38,32.45-.78,6.3,8.26,12.86,12,18,2,1.64.24,3.62-1.76,4.2-4.06-1-5.85-5.59-10-6.36-12.87-22.24-17.17-46.93-7-71.42C18.1,47.19,21.48,43.63,25.5,42.43Z"/><path class="cls-43" d="M134.58,74.3c0,1.75-1.84,3.41-1.25,5.24,1.31,9.88-4.07,17.8-6.79,26.63-3,4.47-6.43,8.62-9.07,13.32-8.32,3.37-13,12.63-22.6,13.19-4-3.46-15.15,7.76-24.78-2,.69-3.22,3.19-3.26,5.57-2.83,9,3.25,14.65-5.52,23-5.41,4.53.72,5.16-1.85,4.74-5.4,3.73-8.11,14.34-12.89,17.36-22.27.91-1.57.79-4.27,3.72-4C129.56,86.23,124.36,64,134.58,74.3Z"/><path class="cls-44" d="M124.47,90.77c-2.92,6.11-5.31,12.54-10.42,17.33-4.38-4.69,4.1-8.14,4.6-12.76,2-4.6.77-12.81,5.58-15.06C125.94,83.64,124.77,87.21,124.47,90.77Z"/><path class="cls-45" d="M81.12,31.51c-2.5,2.45-14.33,5-12.44-.52C72.86,30.54,77,29.94,81.12,31.51Z"/><path class="cls-46" d="M68.68,31c.39,5.48-7.66,4.75-9.26.91Z"/><path class="cls-47" d="M82.88,21.43c-.58-.56-1.21-1.09-1-2,2.42,1,5.26.54,7.59,2.25C87.21,22.84,85.16,21.11,82.88,21.43Z"/><path class="cls-9" d="M91.11,23.39l1.38.8c-2.12,1.45-4.24,3-6.51.22Z"/><path class="cls-48" d="M124.23,80.28a113.89,113.89,0,0,1-4,16.57c-3.8,1.58-5.86,7.53-6.18,11.25-3.64,2.13-6.07,5.65-9.88,7.55l.08,0c-18.39,16-57.89,3.47-33.73.69,10.7,3,20.27-1.17,29.32-6.08,2.66-1,2.78-3.61,2.85-6C118,86,114.62,58.74,92.77,47.58c-7.3-3.6-17.28-7-4.66-12.81C110.25,38.21,123.55,58.91,124.23,80.28Z"/><path class="cls-49" d="M104.07,104c.86,5.39-.84,8.89-6.77,9.65-7.14,5-14.92,7.41-23.53,5.39C53.53,120.47,38.12,104,29.7,86.65c-.55-.88-1.39-1.84-1.05-2.77,1.68-4.61-.83-9-.65-13.46,8.07-10.69-1.43-13.21,13.42-22.12,2.29-1.89,2.29-4.52,3.47-6.87,11-10.64,29.28-10.58,43.22-6.66-2.5,12.66-35.43,5.1-44.6,25.74-12.56,21,6.37,47.69,28.62,50.62C84,113.61,93.71,107.13,104.07,104Z"/><path class="cls-50" d="M32.43,122.39c-5.14-2.79-25.06-29.68-7.66-19,3.67,8.6,13,12.85,16.93,21C37.08,130.81,35.23,124.4,32.43,122.39Z"/><path class="cls-51" d="M87.76,135.05l3.28,1C85.2,138,56.09,136,57.43,129.72c2.58-1.41,5,.06,7.38.62,6.5,1.55,12.66,4.77,19.7,3.43A4.41,4.41,0,0,1,87.76,135.05Z"/><path class="cls-52" d="M57.23,130.07c0,.66,0,1.33-.08,2-4.66-2.79-10.49-3.41-14.33-7.73C47.51,121.36,54,126.29,57.23,130.07Z"/><path class="cls-53" d="M43.89,124.28c-2.67,0-7-1.34-7.29-4.94C41,118.33,43.07,119.71,43.89,124.28Z"/><path class="cls-54" d="M43.89,124.28c-1.76-5-8.32-3.36-10.07-7.93-3.84-3.87-10.23-10.49-7.42-16,6.45-1.72,3.49,7.55,8.62,8.81a4.66,4.66,0,0,1,1.5,1.56c.56,6.41,8.86,5.16,12.81,9.13,5.67,5.35,18.21,4.35,21.14,10.49,13.65,6.1,8.91-.81,17.48,2.85,2.45-.48,4-3.92,7.17-2.06,3.23,2,5.38-3.63,9.51-2C86.62,141.9,62.11,132.11,43.89,124.28Z"/><path class="cls-55" d="M126.82,105.32c-.76-1.56-1.8-3.35-.42-4.79,3.72-3.87,3-9.44,5.62-13.72,1.2-3.91-2.54-8.93,2.6-11.51C134.83,85.62,134.28,97.33,126.82,105.32Z"/><path class="cls-55" d="M106.45,128c-.38-5.34,6.23-10.46,11-8.53C115.05,124,111.74,127.26,106.45,128Z"/><path class="cls-55" d="M117.52,119.43c0-3.65,6-12.47,9-13.26C125.4,111.86,121.38,115.59,117.52,119.43Z"/><path class="cls-56" d="M29.16,101.92c-8.08-4.07-12-15.66-9.1-25.4,1.34-3.92,3.57-9.43-.12-14.08-.85-4.12,3.4-8.32,2.51-13,4.88-5.56,9.3-13.62,17.7-10.67.66,2.44-3.06,3.85-.66,6.46,4.58-6.39,8.93-1.7,5.4,2.58-3.61,3-6.25,7.61-11.72,7.88-2.1,6.32-5.55,12.14-6,18.92C23.56,82.64,34,95.87,29.16,101.92Z"/><path class="cls-57" d="M44.62,42.07c-3.39,1.9-5.46,5.19-8.47,8.4-.47-3,5.88-10.94,8.75-9A1.92,1.92,0,0,0,44.62,42.07Z"/><path class="cls-58" d="M22.45,49.48c3.87,4.51.25,7.32-1.1,11.43,7.8,11.9-7,18.17,3.6,35.07a14.93,14.93,0,0,1,1.16,4.89c-3.8,5.67-4.37-3.25-7.25-4.62-1.41-2.14,0-5.15-2.14-7.06-1.43-2.87-1.42-7-2-10.41,1.45-2,2.76-3.33,1.3-6.54-.61-2.42-.1-10.16,2.48-11.74a25.36,25.36,0,0,1,3-11.88Z"/><path class="cls-59" d="M19.91,95.8c6.39.25.68,7.24,6.16,5.19,1.3,2.27,2.45,4.57,2,7.31-2.69-.18-3.2-2.47-4.17-4.32C19.46,104.23,17.83,98.89,19.91,95.8Z"/><path class="cls-60" d="M17,62c5.13,9.17-2.82,6.47,1.47,11.4,1.41,3,1,4.89-2.72,5-2.1-3.47-1.22-7-.19-10.54C15.82,65.92,14.43,63.49,17,62Z"/><path class="cls-61" d="M15.53,67.93q.09,5.28.19,10.54c-.62,3.13,2.44,6.27-.05,9.38C14,81.23,11.58,74.6,15.53,67.93Z"/><path class="cls-62" d="M20.47,50.53c.56,3.56-.87,6.72-1.94,10C16.47,56.65,18.76,53.64,20.47,50.53Z"/><path class="cls-63" d="M19.91,95.8c0,1.39.28,2.86-.89,4-1.51-3.37-1.72-7-2.3-10.6C19.76,90.43,18,94,19.91,95.8Z"/><path class="cls-64" d="M29.16,101.92c1.32-4.86-4.21-9-2.17-13.33,12.06,12,13.75,23.77,33.13,30.87,15.05,8.19,29.82,1.29,44.33-2.78,4.1,3.09-.12,6-.71,8.62-.54,2.48-2.95-.09-4.47-.67-8.69-1.47-12,9.57-22.91,5.5-2-.39-4-1.15-5.89.16-4.31-1.21-8.32-3.36-13.15-2.87-2.29.23-3.2-3.19-5.55-4.11a47,47,0,0,1-11.16-6.16c-3-1.53-3.63-5.12-6.25-7-3.33-1.73-2.94-5.79-5.19-8.2Z"/><path class="cls-65" d="M104.45,116.68C92.37,121.66,78,128,65.1,122.22c1.63-3.37,3.55-1,5.39-.28,10.48,1.85,20-1.5,29.5-5.25C101.25,116.15,104.33,114.05,104.45,116.68Z"/><path class="cls-55" d="M95.12,131.08c-2.28,1.09-4.42,2.63-7.17,2.06C90,131.15,91.27,126.69,95.12,131.08Z"/><path class="cls-66" d="M104.18,115.65c1.49-2.62,4.11-3.84,6.54-5.3C110,113.94,107.11,114.81,104.18,115.65Z"/><path class="cls-67" d="M115.47,103.3c-.49-5.76,1.17-8,4.77-6.45Z"/><path class="cls-68" d="M70.49,121.94c-16.2.66-30-10.41-37.89-24.44-4-2-12.6-26.06-4.68-22.54C30,95.06,45.18,110.7,63.28,119,65.17,121.26,69.1,118.49,70.49,121.94Z"/><path class="cls-69" d="M104.07,104c-2.4,5.44-36.18,13.92-31.81,6.72,12.14-1.53,26.15-2.4,33.21-14.16C116.5,79.19,110.26,99.07,104.07,104Z"/><path class="cls-70" d="M83.1,41.88c13.53,2.38,32.31,18.95,29.48,31.85-1.87-.13-2.68-1.58-3.11-3C105.63,58,96,51.1,84.7,45.81,82.76,45.82,79.81,41.71,83.1,41.88Z"/><path class="cls-71" d="M83.1,41.88c-1.5,3.38-19.89,7.4-20.63,2.24,6.65-2.27,13.3-4.47,20.5-3A6.18,6.18,0,0,0,83.1,41.88Z"/><path class="cls-72" d="M112.15,73.43c.36-.77.72-1.55,1.09-2.32a33.75,33.75,0,0,1-1.11,19.76C109.07,88.23,108.44,75.77,112.15,73.43Z"/><path class="cls-73" d="M50.28,101.69C47.14,96.28,40,92.8,39.43,86.15c1.21-8.15-4.19-23.53,6-26.63C48.19,73.6,44,90,58,99.56,78.24,114.71,60.61,111.2,50.28,101.69Z"/><path class="cls-74" d="M38.34,100.81C33.14,96.54,21,73.23,29.09,70.28c.95,4.08,1.88,8,1.46,12.41C28.92,87.93,41.71,98.45,38.34,100.81Z"/><path class="cls-48" d="M38.34,100.81c8.46,4.79,16.36,12.63,24.88,18.12C57.93,118,37.24,105.92,38.34,100.81Z"/><path class="cls-75" d="M28.8,63.09c4.34-18.28,9.07,2.9.29,7.19A6.11,6.11,0,0,1,28.8,63.09Z"/><path class="cls-76" d="M45.16,59.63c-1.06-.17-2,.95-3,.1,3.36-6.47,8.27-11.17,15.33-13.41C58.91,49.58,48.19,59.24,45.16,59.63Z"/><path class="cls-77" d="M50.28,101.69c5.85,2.25,10.38,7.31,17,8a3.76,3.76,0,0,1,5.08.43C72.08,116.77,52.46,106.66,50.28,101.69Z"/><path class="cls-78" d="M40.62,66.83c-3,6.27,2,13.45-1.19,19.32C39.07,81.89,34.67,67.16,40.62,66.83Z"/><path class="cls-79" d="M40.62,66.83,38.15,68c1.26-2.53,2.25-9.63,6.08-8.26C42.18,61.66,42.29,64.69,40.62,66.83Z"/><path class="cls-80" d="M41.17,91.53c4.67.8,5.4,5.4,8,8.23C44.61,98.83,43.9,94.2,41.17,91.53Z"/><path class="cls-81" d="M56.45,48.47c-1-2.55,4.39-3.14,6-4.35C65.16,47.79,60.64,51.18,56.45,48.47Z"/><path class="cls-82" d="M23.9,104c3.51,3.92,7.63,7.55,9.91,12.37C29.43,113.1,24.93,109.93,23.9,104Z"/><path class="cls-56" d="M35.4,111.11c4,.07,3.72,3.81,5.21,6C36.53,117.15,35.79,114.28,35.4,111.11Z"/><path class="cls-56" d="M29.17,101.91c2.63,2.16,4,5.1,5.19,8.19C29.74,111.28,30.4,104.69,29.17,101.91Z"/><path class="cls-83" d="M28.8,63.09c.23,4.26,0,8.32-1.86,12.23l-1.22-1.21C27.68,70.69,25.22,66.05,28.8,63.09Z"/><path class="cls-84" d="M72.54,111.63c5.4-9.39,26.34-3.54,33.11-21.89C117.7,75.45,109.58,114.72,72.54,111.63Z"/><path class="cls-85" d="M111.21,87.87c-2-.87-2.83.26-3.27,1.95-4.66,15.22-22,18.22-35.7,21-11.15-3.1-23.08-13.45-26.62-24.78-1.55-9.07-4.79-23,2.71-30.23,5.59-3.13,8.83,1.37,5.2,6.43-.64.84-1.2,1.81.52,2.12,5-1.68,6.86-8.57,12.86-9.4,6.61.31,7.73,2.16,4.6,7.58-6,15-9.29,21.94,8.37,29.33,3.07,1.52,7.14,2.21,6,7.22-2.77,4.72-12.84,3.34-17.06,1.77C81.24,106.55,92,96,98.48,86.6c7.29-18.29-3.54-30.36-23.76-33.22-6.72.26-5.94-6.33.06-5.86C96.73,37.23,117.47,66.36,111.21,87.87Z"/><path class="cls-86" d="M54.61,65.85c-2.77,2.46-6.8,1.93-4.52-2.54,3.56-6,3.56-6-1.76-7.49,2.25-1,3.67-6.67,6.37-3.17a17,17,0,0,1-1.4-1.28c6.14-5.2,22.11-11.09,29.83-7.58.23,4.42-.66,7.31-6.23,5.72C69,48.43,58.6,60,54.61,65.85Z"/><path class="cls-87" d="M69.89,62.52c2.66-5.44,2.64-5.48-3-6.07.43-5.44,9.88-2.61,13.42-2.19,17.29,3.66,28.85,25.05,14.49,38.9l.06-.06c-3.24,2.39-5.66,6.07-10.16,6.49.67-4.85-3.65-4.79-6.29-6.38C103.85,86.06,91.55,60.22,69.89,62.52Z"/><path class="cls-88" d="M70.85,89.39C63.44,84.81,60.4,77,68.61,66.51c6.67-7.16,15-1.58,19.61,4.27C99.17,84.11,84.88,97.89,70.85,89.39Z"/><path class="cls-89" d="M70.88,66.09l-2.27.42c.61-1.27-1-3.26,1.28-4,13.45-10.46,35,19.35,18.76,27.59,3-10.5,3.93-17.7-6.64-24C78.43,63.71,74.58,62.72,70.88,66.09Z"/><path class="cls-87" d="M58.44,59.55c7.82-17.72,46.11-3.5,43.43,14.85-1.18.82-1.36-.11-1.62-.92C96.46,61,84.36,53.54,71.8,54.35l.12-.05C67.5,52.45,58.55,63.1,58.44,59.55Z"/><path class="cls-90" d="M53.11,70.91c-.51,9.14,4,16.77,7.77,24.59C53.16,87.94,51.83,83.81,53.11,70.91Z"/><path class="cls-91" d="M80.07,54.26c10.29,1.42,25,14.4,20.53,24.64-1.47-12.53-9.54-19.28-20.54-23.49C79.37,55,79.37,54.64,80.07,54.26Z"/><path class="cls-92" d="M84.67,99.59c4-1.25,6-5.56,10.16-6.49-3.28,5-12.57,12.9-17.36,8.49C79.78,100.59,82.66,101.68,84.67,99.59Z"/><path class="cls-93" d="M77.47,101.59c-3.29,5-10.32-1.43-13.77-3.61C68.3,99.18,72.5,101.88,77.47,101.59Z"/><path class="cls-94" d="M70.85,89.39c4.7-.87,7.75,3.87,13.62.73.54.76,1.76.17,2.21,1.1C81.36,95.09,75.79,92.27,70.85,89.39Z"/><path class="cls-95" d="M58.53,60.46c3.83-3.42,7.24-7.78,13.39-6.16-1,2.38-3.72.61-5.06,2.15C65.54,57.82,53.69,66.75,58.53,60.46Z"/><path class="cls-96" d="M100.6,78.9l1.16-2.19C103.38,85.71,96.13,95.34,100.6,78.9Z"/><path class="cls-92" d="M98.7,86.8c2.81,2.14-1.8,5.39-3.93,6.36C95,90.38,97.36,88.9,98.7,86.8Z"/><path class="cls-97" d="M57.61,61.72l1.06,1c-.84,1-3.5,6.62-4.06,3.11l0,0C55.67,64.52,54.44,61.51,57.61,61.72Z"/><path class="cls-85" d="M53.3,51.37c1.65.3,4.33-.78,4.7,1.7C57.08,56.74,52.72,54.48,53.3,51.37Z"/><path class="cls-85" d="M57.61,61.72l-3,4.11c-.11-2.94-.57-6.11,3.86-6.27C58.74,60.45,58.1,61,57.61,61.72Z"/><path class="cls-85" d="M69.79,51.3c-1.34,2.85-4.14,1.31-6.18,2.07C64.86,50.26,67.63,51.7,69.79,51.3Z"/><path class="cls-98" d="M86.68,91.22l-2.21-1.1c14.62-7.43-.37-29-13.59-24C79.82,54.17,102.19,80.94,86.68,91.22Z"/><path class="cls-99" d="M80.07,54.26c0,.38,0,.77,0,1.15-2.78-.09-5.61.11-8.26-1.06C74.53,52,77.32,54.58,80.07,54.26Z"/><path class="cls-100" d="M76.23,88.32c-14.3-9.68-.6-25.43,3.59-15.59-1.37,3.38-.32,10.79-6.29,6.93C74.36,82.68,79.18,85.34,76.23,88.32Z"/><path class="cls-101" d="M76.23,88.32a13.43,13.43,0,0,1,4.06-8.76C86.08,67.75,89,95.17,76.23,88.32Z"/><path class="cls-102" d="M84.37,77.84c-6.51-1.69-4-3.61-7.26-8.11C82.83,69.48,83.16,74.05,84.37,77.84Z"/><path class="cls-88" d="M78.31,83c2.66,10.49-10.51-1.9-5.43-10,1.7,2.59.57,5.79,3.24,7C77.8,80.29,79,81,78.31,83Z"/><path class="cls-103" d="M79.18,72.8C81.51,75.21,83,77.56,82.41,81a2.94,2.94,0,0,1-4-2.11C74,75.21,74,75.21,79.18,72.8Z"/><path class="cls-104" d="M78.38,78.9c1.84-.26,2.88,1,4,2.11-1.91,3.42-5,1.85-6.29-1Z"/></g></g></g></svg>