<svg xmlns="http://www.w3.org/2000/svg" viewBox="0 0 149.91 149.18"><defs><style>.cls-1{fill:#441d17;}.cls-2{fill:#502822;}.cls-3{fill:#662e2c;}.cls-4{fill:#6b2f2e;}.cls-5{fill:#5e2e2a;}.cls-6{fill:#732d31;}.cls-7{fill:#552d28;}.cls-8{fill:#6a2d2e;}.cls-9{fill:#ccbec2;}.cls-10{fill:#311715;}.cls-11{fill:#c1afb3;}.cls-12{fill:#b9a9ab;}.cls-13{fill:#a88f92;}.cls-14{fill:#9d7b7e;}.cls-15{fill:#ac9094;}.cls-16{fill:#997a7d;}.cls-17{fill:#917374;}.cls-18{fill:#a98a8f;}.cls-19{fill:#9b7a7e;}.cls-20{fill:#c4a3aa;}.cls-21{fill:#b4979d;}.cls-22{fill:#c9a4ab;}.cls-23{fill:#b89ea2;}.cls-24{fill:#906369;}.cls-25{fill:#c5b7ba;}.cls-26{fill:#d4c7cb;}.cls-27{fill:#bda5a9;}.cls-28{fill:#6a5155;}.cls-29{fill:#5c3b3f;}.cls-30{fill:#a8979b;}.cls-31{fill:#624649;}.cls-32{fill:#a99396;}.cls-33{fill:#d2c0c2;}.cls-34{fill:#6c4d50;}.cls-35{fill:#887477;}.cls-36{fill:#a79699;}.cls-37{fill:#af8f92;}.cls-38{fill:#74555a;}.cls-39{fill:#c6b4b7;}.cls-40{fill:#92797a;}.cls-41{fill:#8a6c6e;}.cls-42{fill:#d5bfc2;}.cls-43{fill:#d1c5c8;}.cls-44{fill:#7c6262;}.cls-45{fill:#6f585e;}.cls-46{fill:#8c7779;}.cls-47{fill:#5d4148;}.cls-48{fill:#cabdc2;}.cls-49{fill:#d8ccd0;}.cls-50{fill:#dfccd0;}.cls-51{fill:#5e3238;}.cls-52{fill:#5d373c;}.cls-53{fill:#5f3a3f;}.cls-54{fill:#bda3a7;}.cls-55{fill:#c3afb3;}.cls-56{fill:#cdbec1;}.cls-57{fill:#72595e;}.cls-58{fill:#bfaaaf;}.cls-59{fill:#ae9298;}.cls-60{fill:#aa9093;}.cls-61{fill:#876469;}.cls-62{fill:#8b6f73;}.cls-63{fill:#98797f;}.cls-64{fill:#d8cacd;}.cls-65{fill:#7f696a;}.cls-66{fill:#745a5c;}.cls-67{fill:#bba2a5;}.cls-68{fill:#a58f92;}.cls-69{fill:#806566;}.cls-70{fill:#62484b;}.cls-71{fill:#846d71;}.cls-72{fill:#75565b;}.cls-73{fill:#c6afb3;}.cls-74{fill:#bea8ac;}.cls-75{fill:#bfabac;}.cls-76{fill:#b59ea2;}.cls-77{fill:#917d81;}.cls-78{fill:#715055;}.cls-79{fill:#8f7576;}.cls-80{fill:#90787d;}.cls-81{fill:#7b676c;}.cls-82{fill:#7d6066;}.cls-83{fill:#937f82;}.cls-84{fill:#c7b2b6;}.cls-85{fill:#d5cbcd;}.cls-86{fill:#ddccd1;}.cls-87{fill:#ccbdc1;}.cls-88{fill:#ad9497;}.cls-89{fill:#b19fa3;}.cls-90{fill:#b4a3a7;}.cls-91{fill:#8d787d;}.cls-92{fill:#8b7576;}.cls-93{fill:#988289;}.cls-94{fill:#8f787c;}.cls-95{fill:#745356;}.cls-96{fill:#735a5b;}.cls-97{fill:#917d82;}.cls-98{fill:#775c5e;}.cls-99{fill:#745a5f;}.cls-100{fill:#876c70;}.cls-101{fill:#876c72;}.cls-102{fill:#978083;}.cls-103{fill:#5f4448;}.cls-104{fill:#6f5559;}</style></defs><g id="レイヤー_2" data-name="レイヤー 2"><g id="レイヤー_1-2" data-name="レイヤー 1"><g id="アートワーク_5" data-name="アートワーク 5"><path class="cls-1" d="M88,.82c56.28,17.39,82,75.3,41.85,125-9.69,3.31,12.82-24.3,11.25-30.27,1.07-5.29,1.41-11,4.09-15.83,2.5-.39,3-1.82,2.72-4.23-2.85-15.32-5.79-32.49-18.11-42.78-13.28-14-19-17.32-37.74-18-11.31-7.43-23.4.92-35.2-.26C48.43,4.05,82.27,4.17,88,.82Z"/><path class="cls-2" d="M88,.82c-8.2,6-20.23,4.66-29.54,8.25-2.3,1-2.67,2.45-1,4.37-.07,4.55-4.21,3.91-6.75,5.29-8.79,3.89-16.54,9.36-24.23,15C-.5,40.68,68.73-6.76,88,.82Z"/><path class="cls-3" d="M93.2,147.42c-9.37,6-62.57-4.11-61.3-16.86,2.07-2.07,4.39-1.05,6,.24,8.71,7,19.39,9.17,29.68,12.17,4,1.16,8.45-.49,12.5,1.22C82.84,146,97.68,140.91,93.2,147.42Z"/><path class="cls-4" d="M7.63,107C3,94.75-3.45,78.55,2.24,66.08c6,.09,3.17,22.82,6.68,29.51C10.61,98.93,15.43,108.41,7.63,107Z"/><path class="cls-5" d="M4.69,67.13c-1.2.53-2.7,1.78-2.45-1C2,51.37,9.87,41,20.36,32c3.83,3.92-1.61,5.44-2.7,9.08-1.12,2.11-3.37,3.41-4.12,5.79C6.33,51.91,10.39,66.61,4.69,67.13Z"/><path class="cls-6" d="M7.63,107c3.17-3,5.36-2.72,6.82,1.36,3.13,5.88,9.49,9.71,11.32,16.06C18.86,131.73,9.36,112.94,7.63,107Z"/><path class="cls-7" d="M93.2,147.42c.73-3.41,2.22-5.33,5.53-5.66,6.3-2.42,12.35-5.25,17.22-10.1,4.11-1.76,7.41-9,11.91-7.7a2.24,2.24,0,0,0,2,1.82C120,136.25,108,145.57,93.2,147.42Z"/><path class="cls-8" d="M22.17,126.53c5-5.37,11.49,1.27,10.2,7.13C27.81,132.94,24.67,130.2,22.17,126.53Z"/><path class="cls-9" d="M92.47,13c13.61,1.09,24.29,7.59,30.67,19.61,3.23,3.5,1.31,7.83-3.38,8.52-.51.07-.63-.76-.43.4,1.16,6.61.52,7.29-5.61,6.72-5.16-3.21-9.6-7.52-15.21-10.08-2-1.24-4.59-1.76-5.15-4.58C93,30,93.44,22.8,99,25.26c-4.81-1.15-13.39-3.93-9.4-10.29C90.1,13.63,90.69,12.46,92.47,13Z"/><path class="cls-10" d="M117,26.17c-5.68-5.39-12.74-8.57-19.59-12.08,20.54-4.22,35.45,17.93,46.16,32.3,1.27,6.27,9.71,32.84,4.91,36-1.65.33-1.25-2.14-2.36-2.89-3.93-3.26-1.93-8.07-3.18-12C140,51.58,127,38.46,117,26.17Z"/><path class="cls-11" d="M124.73,126.69c-1.71,4.06-17.17,13.21-13.18,3.34,9.3-13.31,18-27.57,24.13-42.7,6.9-.8,9.57,6.94,4.91,11.14C139.35,110,129.91,117.22,124.73,126.69Z"/><path class="cls-12" d="M143.13,94.1c-11.44-10.87-8.18-5.1-8-20.78-.48-7.31-8.52-16.38,5.3-14.24C147.88,68.66,147.06,82.6,143.13,94.1Z"/><path class="cls-13" d="M124.73,126.69c-1.44-9.21,10.69-11.76,10.72-20.46,0-1.07.3-1.56,1.41-1.54,7.43-1.83-5.7-9.06,6.07-8.79A62.22,62.22,0,0,1,124.73,126.69Z"/><path class="cls-14" d="M50,17.38C53.56,15,73.17,6.69,71.78,15.11c-2.45,2.73-7.08,2.6-8.6,6.56C59.58,25.25,51.74,21.6,50,17.38Z"/><path class="cls-15" d="M71.64,14.29l-2-2.94C95.93,5.17,90.71,25,71.64,14.29Z"/><path class="cls-16" d="M87,15.29q-1.52-2.52-3-5A19.3,19.3,0,0,1,92.47,13a4,4,0,0,0-1.34,3.13C89.63,16.48,87.84,18.29,87,15.29Z"/><path class="cls-17" d="M83,10.08c-2.4,5.19-7.15-.12-12.53,1.09C74.58,9.85,78.7,8.82,83,10.08Z"/><path class="cls-18" d="M21.41,34.88c7.72-5.2,11.82-11.12,22.13-10.26,10.37-.59-1.91,14-8.52,10.9C31.39,33.9,18,43.3,21.41,34.88Z"/><path class="cls-19" d="M46.15,28.91c-1.19-.76,1.12-2.48-.78-3-1-.26-2.34-.24-2.74.76-3.47,8.19-3.71-.28-6.89-1.93C55.78,6.35,58.68,33.59,46.15,28.91Z"/><path class="cls-20" d="M32.49,130.53c-3.58-4.25-12.35-8.12-12-13.8,5.9-1.76,16.14,14.57,28.68,16.43,8.85,3.48,17.9,6.35,27.45,7.58,2.77.35,7.32,0,7.05,5.18C65.08,146.68,48.15,138.65,32.49,130.53Z"/><path class="cls-21" d="M79.68,145.75c5.16.89,5.17-5.51,10.09-5.22,4.57.21,8.19-2,11.71-4.22,5.09-3.11,10.66-2.45,16.12-3.29C107,141.43,93.36,147.7,79.68,145.75Z"/><path class="cls-22" d="M19.92,117.32c-14.74-14-18-37.91-13.77-56.25.59-5,2.26-15,7.82-15.37,1.64,2.29.82,4.62-.07,6.82C6.66,69.6,9.73,88.32,16.05,105.1,17.26,108.77,24,113.14,19.92,117.32Z"/><path class="cls-23" d="M13.43,45.53l-.91-.09c.69-3.81,5.24-7.24,9-7.19,3.22-5.1,8.53-3.79,13.25-4.29C37.21,38.24,15.8,52.73,13.43,45.53Z"/><path class="cls-24" d="M21.55,38.25c-1.19,2.1-3.25,2-5.24,2.08a9.26,9.26,0,0,1,5.1-5.45C21.46,36,21.5,37.12,21.55,38.25Z"/><path class="cls-25" d="M140.73,60.05c-13.2,3.65-7.93-1.41-13-7.44,1.62,6.31,9.71,14.71,7.19,22-4.48-.14-6,2.28-5.72,6.44-.08,3.08-.88,11.55-5.49,9.56-.19-13.15.76-26.33-7.83-37.81-1.1-1.79-2.85-3.45-2-5.94,4.86,1.1,5.86-2,3.51-6-1-2-3.7-2.9-4-5.58,4-.86,5,6.63,8.4,3.92,4.2-4.68-4-8.49-4.82-13.11C127.09,34.35,140.38,46.79,140.73,60.05Z"/><path class="cls-26" d="M96.36,25.62C95,38.18,90.57,33.76,80.47,33c-7-3.94-23.35,5.65-25.19-3.89,1.43-8.25,13.62-4.12,19-8.76,2.7-.9,5.58,1.9,8.32-.14,2.15-.62,4,.84,5.12,2.51C90.44,24.85,94.91,21.13,96.36,25.62Z"/><path class="cls-27" d="M86.12,24.45c-.26-1.13-2.16-3.5,0-3.51-4.34-.69-18.86,1.49-14.52-6.65,6.19.46,13.06,1,19.49,1.82-3.34,4.1,2.17,4.09,4.24,7.12-1.21,1.62-3.28-.48-4.52,1C89.31,25.22,87.74,25.57,86.12,24.45Z"/><path class="cls-28" d="M113.9,46.89c8.15,10.9,13.43,22.68,11.4,36.73-1.89.27-2.06-1.36-2.72-2.45-1.4-11.59-4.2-22.62-12.35-31.59C89.94,34.61,99,32.8,113.9,46.89Z"/><path class="cls-29" d="M99.5,36.78c-3.52,4.1-8-.07-11.78-.48-3.15-.86-7.13.34-9-3.62C80.82,29,96.35,33.7,99.5,36.78Z"/><path class="cls-30" d="M98.42,24.41a7.79,7.79,0,0,1,6.1,4.43C102.31,27.69,97.49,26.53,98.42,24.41Z"/><path class="cls-31" d="M98.42,24.41v1.07C89.59,25.45,88.75,20.2,98.42,24.41Z"/><path class="cls-32" d="M140.73,60.05c0-1.4,0-2.79,0-4.18,2.49,3,3.13,6.7,4,10.33C140.35,66.14,140.75,63,140.73,60.05Z"/><path class="cls-33" d="M112.47,134.08c-23.79,14.75-40.95,10.28-65.89.66-3.42-1.68-22.14-9.25-14.3-13.19,7,2,1.53,3.53,10.81,1.89,24.43,14.45,51,16.26,74.68-.62C119,127.67,110.62,128.68,112.47,134.08Z"/><path class="cls-34" d="M117.77,122.82c-8,6.63-19.69,16-30.2,12.06.6-2.57,2.78-1.9,4.51-2.24,8.87-1.53,17.44-7,23.8-13.32,7.28-6.93,11.59-16.36,15.26-25.54C131,90.85,136,87,134.86,92,131.91,103.77,125.28,113.54,117.77,122.82Z"/><path class="cls-35" d="M134.86,92c-3.22-5.83-2.56-14.38,1.76-19.39A61.31,61.31,0,0,1,134.86,92Z"/><path class="cls-36" d="M136.62,72.57c-1.76,2.08,0,5.06-1.81,7.11-1.56-.91-1.61-2.31-1.27-3.85,3-9.9-7.11-20.72-10.47-30.21C130.37,52.48,134.79,62.93,136.62,72.57Z"/><path class="cls-15" d="M71.63,14.29c-.74,5.93,5.57,2.77,8.59,5.17-3.63,2.32-8.92.89-13.22,2.27C56.43,21.89,66.68,14.07,71.63,14.29Z"/><path class="cls-37" d="M52.31,23.84c-3-1.25-2-3.82-1.93-6.05,2.33,2.14,7,.4,8,4.78C57.06,24.17,54.38,25.23,52.31,23.84Z"/><path class="cls-38" d="M62.42,20.51C67,20.09,71.5,19,76.14,19.44,74.9,23.37,48.63,27,62.42,20.51Z"/><path class="cls-39" d="M58.4,23.59c3.28-.7,30.92-8.58,22.57-.8C73.6,21,67.3,26.08,60.21,25.92c-3.89-.15-5,5.76-.68,5.95,2.84.75,3,4.52-.15,4.66-7.92.14-13.09,7-20.4,8.49-2.25-1.89-2.61-5.3-5.45-6.71,1.33-5.47,9-5.48,12.62-9.4C51,28.15,53.85,23.29,58.4,23.59Z"/><path class="cls-40" d="M37,34.06c-4.78,4-8.75,18.58-16.11,14.61C20.45,45.47,34.32,33.68,37,34.06Z"/><path class="cls-41" d="M58.4,23.59c-1.62.59-7.26,4.4-6.09.25C53.88,23.41,58.18,20.65,58.4,23.59Z"/><path class="cls-42" d="M25.59,42.32C21.63,47.5,20,53.5,19.75,60c-1.1,3-2.66,5.49-3,8.7-5.47,11,4.39,21.33,3.31,32.47-.63,6.59,8.09,12.68,11.91,18,2,1.65.23,3.61-1.77,4.2-4.06-1-5.83-5.61-10-6.39-12.74-21.86-17-47.43-6.77-71.45C18.17,47.05,21.57,43.51,25.59,42.32Z"/><path class="cls-43" d="M134.6,74.45c0,1.75-1.85,3.42-1.27,5.24,1.29,9.89-4.11,17.8-6.86,26.62-3,4.46-6.45,8.6-9.1,13.29-8.32,3.36-13,12.61-22.63,13.14-4.19-3.41-15.22,7.7-24.78-2,.7-3.22,3.21-3.25,5.58-2.81,9,3.27,14.67-5.49,23-5.36,5,.86,5.13-2.48,4.71-6.13,5.1-7.39,14.1-12.48,17.46-21.49.91-1.56.79-4.27,3.72-4C129.55,86.37,124.41,64.12,134.6,74.45Z"/><path class="cls-44" d="M124.44,90.9c-2.93,6.11-5.33,12.53-10.46,17.31-4.37-4.7,4.12-8.13,4.63-12.75,2-4.6.81-12.81,5.63-15C125.93,83.77,124.75,87.34,124.44,90.9Z"/><path class="cls-45" d="M81.24,31.53c-4,2.61-8.06,3.8-12.51,1.71C67.39,28.59,78.26,30.68,81.24,31.53Z"/><path class="cls-46" d="M68.8,31c.38,5.48-7.67,4.72-9.27.88Z"/><path class="cls-47" d="M83,21.46c-.58-.56-1.21-1.1-1-2,2.41,1,5.26.54,7.58,2.26C87.35,22.87,85.3,21.14,83,21.46Z"/><path class="cls-9" d="M91.25,23.44l1.38.8c-2.13,1.44-4.25,3-6.51.21Z"/><path class="cls-48" d="M124.24,80.41a116.21,116.21,0,0,1-4,16.56c-3.91,1.69-5.82,7.41-6.22,11.24-3.65,2.12-6.08,5.63-9.89,7.52l.08,0c-18,15.78-58,3.46-33.74.61,10.69,3.08,20.28-1.12,29.34-6,2.66-1,2.78-3.6,2.86-6,15.31-18.11,12-45.41-9.79-56.63C57.56,32.42,120.59,22.35,124.24,80.41Z"/><path class="cls-49" d="M104,104.09c.83,5.4-.87,8.89-6.8,9.64-7.16,4.93-14.94,7.37-23.55,5.33-20.24,1.37-35.62-15.17-44-32.51-.55-.88-1.38-1.84-1-2.77,1.69-4.61-.81-9-.62-13.47C36.11,59.64,26.63,57.1,41.5,48.22c2.29-1.88,2.29-4.51,3.49-6.86,11-10.61,29.3-10.51,43.23-6.55-2.63,12.69-35.49,5-44.66,25.63-12.62,21,6.25,47.71,28.5,50.7C83.89,113.65,93.65,107.19,104,104.09Z"/><path class="cls-50" d="M32.33,122.3c-3-2.25-19.49-20-13.3-21.56,7.75.42,8.48,11,15.36,14,2.15,3.43,5.61,5.93,7.19,9.58C37,130.73,35.12,124.32,32.33,122.3Z"/><path class="cls-51" d="M87.63,135.1l3.27,1C85.05,138,56,136,57.31,129.69c2.58-1.4,5,.07,7.37.64,6.5,1.57,12.65,4.8,19.7,3.48A4.45,4.45,0,0,1,87.63,135.1Z"/><path class="cls-52" d="M57.11,130,57,132c-4.66-2.8-10.49-3.44-14.31-7.77C47.41,121.31,53.91,126.25,57.11,130Z"/><path class="cls-53" d="M43.78,124.22c-2.68,0-7.05-1.36-7.28-5C40.93,118.25,43,119.64,43.78,124.22Z"/><path class="cls-54" d="M43.78,124.22c-1.75-5-8.31-3.39-10.06-8-3.82-3.88-10.2-10.51-7.38-16.07,6.45-1.26,3,6.36,10.1,10.39.55,6.42,8.85,5.19,12.79,9.17C55,125.2,67,123.94,70.35,130.29c13.51,6.11,8.94-.76,17.46,2.9,2.46-.48,4.07-3.91,7.18-2.05,3.28,2,5.48-3.64,9.52-2C86.47,141.94,62,132.09,43.78,124.22Z"/><path class="cls-55" d="M126.76,105.45c-.76-1.55-1.79-3.35-.41-4.78,3.73-3.87,3.06-9.44,5.65-13.71,1.22-3.9-2.51-8.94,2.63-11.51C134.82,85.78,134.24,97.48,126.76,105.45Z"/><path class="cls-55" d="M106.34,128.11c-.37-5.34,6.25-10.44,11-8.51C114.94,124.06,111.63,127.36,106.34,128.11Z"/><path class="cls-55" d="M117.43,119.55c0-3.65,6-12.46,9-13.24C125.33,112,121.29,115.71,117.43,119.55Z"/><path class="cls-56" d="M29.11,101.82C9.11,88.76,27,70.86,20,62.31c-.83-4.12,3.43-8.31,2.55-13,4.89-5.55,9.33-13.59,17.72-10.63.67,2.44-3.06,3.84-.66,6.46,4.48-6.27,9-1.84,5.39,2.59-3.62,3-6.28,7.6-11.75,7.85-2.11,6.33-5.57,12.13-6,18.91C23.55,82.52,33.9,95.78,29.11,101.82Z"/><path class="cls-57" d="M44.71,42c-3.39,1.89-5.47,5.18-8.49,8.38-.46-3,5.9-10.92,8.77-9A1.92,1.92,0,0,0,44.71,42Z"/><path class="cls-58" d="M22.52,49.36c3.86,4.52.23,7.32-1.13,11.43,7.77,11.92-7,18.15,3.51,35.08a14.68,14.68,0,0,1,1.16,4.89c-3.82,5.67-4.36-3.26-7.25-4.63-1.4-2.15,0-5.15-2.12-7.07-1.42-2.88-1.4-7-1.94-10.42,1.46-2,2.77-3.32,1.32-6.53-.58-2.61-.14-10,2.5-11.75a25.43,25.43,0,0,1,3-11.86Z"/><path class="cls-59" d="M19.87,95.67c6.23.15.77,7.26,6.14,5.21,1.3,2.27,2.45,4.58,2,7.32-2.69-.19-3.19-2.48-4.15-4.33C19.39,104.11,17.78,98.76,19.87,95.67Z"/><path class="cls-60" d="M17,61.89c5.09,9-2.8,6.52,1.44,11.4,1.41,3,1,4.89-2.74,5-2.09-3.49-1.19-7-.16-10.54C15.85,65.78,14.46,63.35,17,61.89Z"/><path class="cls-61" d="M15.55,67.8q.09,5.27.16,10.54c-.62,3.12,2.43,6.27-.07,9.38C14,81.09,11.59,74.46,15.55,67.8Z"/><path class="cls-62" d="M20.54,50.4c.55,3.56-.89,6.73-2,10C16.52,56.51,18.81,53.51,20.54,50.4Z"/><path class="cls-63" d="M19.87,95.67c0,1.4.27,2.86-.9,4-1.51-3.37-1.71-7-2.28-10.6C19.73,90.31,18,93.88,19.87,95.67Z"/><path class="cls-64" d="M29.11,101.82c1.32-4.86-4.19-9-2.15-13.33,11.8,11.9,14.29,24.22,33.07,31,15,8.22,29.81,1.36,44.33-2.68,4.09,3.11-.14,6-.73,8.62-.55,2.48-2.95-.09-4.47-.68-8.69-1.49-12,9.54-22.93,5.44-2-.39-4-1.15-5.89.15-4.31-1.22-8.31-3.38-13.14-2.9-2.29.22-3.19-3.2-5.54-4.12a47.24,47.24,0,0,1-11.15-6.2c-3-1.53-3.62-5.12-6.23-7-3.32-1.73-2.93-5.8-5.17-8.21Z"/><path class="cls-65" d="M104.36,116.76C92.27,121.71,77.91,128,65,122.21c1.63-3.37,3.55-1,5.39-.27,10.47,1.88,20-1.45,29.51-5.18C101.17,116.23,104.25,114.14,104.36,116.76Z"/><path class="cls-55" d="M95,131.14c-2.27,1.09-4.42,2.62-7.18,2.05C89.84,131.2,91.16,126.75,95,131.14Z"/><path class="cls-66" d="M104.1,115.73c1.49-2.61,4.12-3.82,6.55-5.28C109.94,114,107,114.9,104.1,115.73Z"/><path class="cls-67" d="M115.42,103.41c-.48-5.76,1.19-8,4.79-6.44Z"/><path class="cls-68" d="M70.39,121.94c-16.2.62-29.94-10.48-37.83-24.53C28.6,95.28,20,71.6,27.92,74.85,30,95,45.1,110.64,63.19,119,65.06,121.24,69,118.48,70.39,121.94Z"/><path class="cls-69" d="M104,104.09c-2.67,5.39-35.46,13.91-31.84,6.65,12.15-1.51,26.16-2.34,33.25-14.08C116.51,79.3,110.21,99.17,104,104.09Z"/><path class="cls-70" d="M83.19,41.91c13.53,2.41,32.27,19,29.41,31.92-1.87-.13-2.68-1.58-3.1-3-3.82-12.73-13.44-19.66-24.72-25C82.84,45.85,79.9,41.73,83.19,41.91Z"/><path class="cls-71" d="M83.19,41.91c-1.72,3.41-19.63,7.36-20.64,2.18,6.66-2.24,13.32-4.43,20.51-2.93C83.09,41.41,83.14,41.66,83.19,41.91Z"/><path class="cls-72" d="M112.17,73.53l1.09-2.32A33.83,33.83,0,0,1,112.11,91C109,88.06,108.42,76.14,112.17,73.53Z"/><path class="cls-73" d="M50.22,101.64c-3.12-5.41-10.3-8.91-10.81-15.57,1.24-8.14-4.14-23.54,6.08-26.61C48.09,73.29,44.14,90.28,58,99.53,78.15,114.73,60.53,111.18,50.22,101.64Z"/><path class="cls-74" d="M38.28,100.73C33,96.19,21,73.48,29.11,70.18c.94,4.08,1.86,8,1.43,12.41C29,88.12,41.48,97.89,38.28,100.73Z"/><path class="cls-48" d="M38.28,100.73c8.45,4.82,16.34,12.67,24.85,18.19C57.64,117.81,37.41,106,38.28,100.73Z"/><path class="cls-75" d="M28.84,63c4.38-18.26,9.06,2.92.27,7.2A6.12,6.12,0,0,1,28.84,63Z"/><path class="cls-76" d="M45.21,59.57c-1.07-.18-2,.94-3,.09,3.37-6.47,8.29-11.15,15.36-13.37C59,49.55,48.23,59.18,45.21,59.57Z"/><path class="cls-77" d="M50.22,101.64c5.85,2.26,10.36,7.34,17,8.07a3.75,3.75,0,0,1,5.07.44C72,116.77,52.39,106.62,50.22,101.64Z"/><path class="cls-78" d="M40.65,66.75c-3,6.27,1.93,13.46-1.24,19.32C39.06,81.81,34.7,67.07,40.65,66.75Z"/><path class="cls-79" d="M40.65,66.75l-2.47,1.14c1.26-2.53,2.27-9.63,6.1-8.24C42.22,61.58,42.32,64.62,40.65,66.75Z"/><path class="cls-80" d="M41.14,91.46c4.67.8,5.38,5.41,7.94,8.24C44.56,98.76,43.87,94.13,41.14,91.46Z"/><path class="cls-81" d="M56.53,48.43c-1.11-1.43.75-1.4,1-2.14C65.87,40.21,64.5,52.9,56.53,48.43Z"/><path class="cls-82" d="M23.84,103.87c3.5,3.93,7.61,7.57,9.88,12.39C29.34,113,24.85,109.82,23.84,103.87Z"/><path class="cls-56" d="M35.32,111c4,.09,3.71,3.82,5.19,6C36.43,117.07,35.7,114.2,35.32,111Z"/><path class="cls-56" d="M29.11,101.81c2.63,2.17,4,5.1,5.17,8.21C29.66,111.18,30.34,104.59,29.11,101.81Z"/><path class="cls-83" d="M28.84,63c.22,4.27,0,8.32-1.89,12.23L25.72,74C27.69,70.59,25.25,65.93,28.84,63Z"/><path class="cls-84" d="M72.46,111.64c5.6-9.42,26.42-3.55,33.17-21.81C117.72,75.56,109.49,114.82,72.46,111.64Z"/><path class="cls-85" d="M111.19,88c-2-.88-2.83.25-3.27,2-4.7,15.2-22.08,18.16-35.76,20.92C61,107.71,49.12,97.33,45.6,86c-1.53-9.06-4.74-23,2.78-30.22,5.45-3.13,8.9,1.47,5.19,6.45-.64.83-1.2,1.8.52,2.12C59.12,62.66,61,55.77,67,55c6.61.33,7.73,2.18,4.58,7.59-6,14.69-9.11,22.27,8.3,29.35,3.07,1.53,7.13,2.23,6,7.23C83,103.85,73,102.44,68.76,100.87,81.17,106.58,92,96,98.46,86.67,105.8,68.4,95,56.29,74.79,53.38c-6.73.26-5.93-6.34.07-5.85C96.83,37.29,117.51,66.47,111.19,88Z"/><path class="cls-86" d="M54.64,65.81c-2.77,2.45-6.81,1.91-4.51-2.55,3.57-6,3.57-6-1.74-7.5,2.25-1,3.68-6.66,6.38-3.16a18.79,18.79,0,0,1-1.41-1.27C60,46,75,40.37,83.22,43.82c.22,4.41-.68,7.31-6.25,5.7C68.91,48.54,58.8,59.81,54.64,65.81Z"/><path class="cls-87" d="M69.93,62.51c2.67-5.43,2.66-5.46-3-6.07.45-5.45,9.9-2.58,13.43-2.16C97.63,58,109.13,79.4,94.74,93.22l.06-.07c-3.25,2.39-5.68,6.06-10.18,6.48.68-4.85-3.64-4.8-6.27-6.4C103.57,86.58,91.66,60,69.93,62.51Z"/><path class="cls-88" d="M70.83,89.39C63.42,84.79,60.41,77,68.64,66.5c6.69-7.14,15-1.54,19.6,4.32C99.16,84.18,84.83,97.92,70.83,89.39Z"/><path class="cls-89" d="M70.91,66.09l-2.26.42c.61-1.27-1-3.27,1.28-4C83.4,52.08,104.91,82,88.62,90.16c3-10.5,4-17.69-6.57-24.07C78.47,63.72,74.62,62.72,70.91,66.09Z"/><path class="cls-87" d="M58.48,59.52c7.88-17.7,46.13-3.39,43.4,14.95-1.18.82-1.36-.11-1.61-.92-3.77-12.47-15.85-20-28.41-19.2L72,54.3C67.43,52.45,59,62.92,58.48,59.52Z"/><path class="cls-90" d="M53.13,70.86C52.6,80,57,87.64,60.84,95.47,53.14,87.9,51.82,83.76,53.13,70.86Z"/><path class="cls-91" d="M80.13,54.28C90.68,56,104.83,68.36,100.6,79,98.87,62.55,88.27,61.27,80.13,54.28Z"/><path class="cls-92" d="M84.62,99.63c4-1.25,6-5.55,10.18-6.48-3.29,5-12.61,12.88-17.39,8.45C79.73,100.62,82.61,101.71,84.62,99.63Z"/><path class="cls-93" d="M77.42,101.6c-3.3,5-10.33-1.45-13.77-3.64C68.25,99.17,72.44,101.88,77.42,101.6Z"/><path class="cls-94" d="M70.83,89.39c4.72-.81,7.93,3.86,13.62.76.53.76,1.75.18,2.2,1.11C81.32,95.12,75.76,92.29,70.83,89.39Z"/><path class="cls-95" d="M58.57,60.42C62.42,57,65.83,52.66,72,54.3c-1,2.38-3.72.6-5.07,2.14C65.59,57.8,53.72,66.7,58.57,60.42Z"/><path class="cls-96" d="M100.6,79l1.17-2.2C103.37,85.78,96.09,95.41,100.6,79Z"/><path class="cls-92" d="M98.69,86.87c2.8,2.14-1.82,5.38-4,6.35C95,90.44,97.34,89,98.69,86.87Z"/><path class="cls-97" d="M57.65,61.68l1.06,1c-.84,1-3.51,6.6-4.07,3.09h0C55.71,64.48,54.48,61.46,57.65,61.68Z"/><path class="cls-85" d="M53.36,51.33c1.66.3,4.34-.77,4.71,1.71C57.13,56.7,52.78,54.43,53.36,51.33Z"/><path class="cls-85" d="M57.65,61.68l-3,4.11c-.1-3-.55-6.11,3.87-6.27C58.79,60.42,58.15,61,57.65,61.68Z"/><path class="cls-85" d="M69.86,51.3c-1.34,2.84-4.14,1.3-6.18,2.05C64.93,50.24,67.7,51.69,69.86,51.3Z"/><path class="cls-98" d="M86.65,91.26l-2.2-1.11c14.63-7.39-.3-29-13.54-24.06C80.19,54.16,102.06,81.3,86.65,91.26Z"/><path class="cls-99" d="M80.13,54.28c0,.39,0,.77,0,1.15-2.79-.1-5.61.1-8.26-1.08C74.6,52,77.38,54.6,80.13,54.28Z"/><path class="cls-100" d="M76.2,88.33C62,78.75,75.55,62.86,79.84,72.75c-1.38,3.37-.35,10.79-6.31,6.92C74.36,82.69,79.16,85.36,76.2,88.33Z"/><path class="cls-101" d="M76.2,88.33a13.58,13.58,0,0,1,4.09-8.75C86.11,67.78,89,95.21,76.2,88.33Z"/><path class="cls-102" d="M84.37,77.87c-6.5-1.71-4-3.62-7.24-8.13C82.85,69.51,83.17,74.08,84.37,77.87Z"/><path class="cls-88" d="M78.3,83c2.57,10.59-10.51-2.13-5.4-10C75.35,84.1,79,77.89,78.3,83Z"/><path class="cls-103" d="M79.19,72.82C81.52,75.24,83,77.59,82.4,81a2.94,2.94,0,0,1-4-2.13C74.05,75.22,74.05,75.22,79.19,72.82Z"/><path class="cls-104" d="M78.38,78.91c1.85-.24,2.88,1,4,2.13-1.91,3.41-5,1.83-6.28-1Z"/></g></g></g></svg>