<svg xmlns="http://www.w3.org/2000/svg" viewBox="0 0 108.5 104.2">
  <defs/>
  <path fill="#3f3b3a" d="M51.5 104c-5.5-.4-10-1-14.6-3.5l-.1-.1C32 99 27.4 97.2 24 92.8c-1.8-2.4-4.8-3.8-7-6C12.5 82.1 9.3 76.4 5.8 71a3.2 3.2 0 01-.4-3.1 11 11 0 01-3.2-8.3 24 24 0 01-1-17.8 52 52 0 014.2-14.3 40.8 40.8 0 015.2-9.7c1-1.2 1.9-2.5 3.6-2.7l.1-.2C20 5.8 28.9 2.6 38.8 1.5v.2a90.6 90.6 0 0140.3 1.2 46 46 0 0113 6.7c7.4 4.4 17.3 35 16.3 46a48.8 48.8 0 01-7.5 21.9l-2 4c-.5.8-1.2 2-2.3 1.7a56.3 56.3 0 01-14.7 11.7c-4.4 2.5-10.6 7.1-14.4 7a1.7 1.7 0 00.1.1c-4.7.7-9.3 2.2-14.1 2.2l-2-.1zm-13-13.4zm-.2 0h.1-.1zm57.8-10.2v-.2l-.1.1zm-74.2-5zm0 0zM61 33h-.2a1.8 1.8 0 00.2 0zm12.8-7.6l-.1-.2zm-29.3-15zm-7.6-4.6z" data-name="合体 1"/>
</svg>
