<svg xmlns="http://www.w3.org/2000/svg" width="108.468" height="104.171" viewBox="0 0 108.468 104.171">
  <path id="合体_1" data-name="合体 1" d="M51.506,104.081c-5.46-.509-10.032-1.143-14.6-3.556l-.127-.127h0c-4.826-1.4-9.4-3.174-12.7-7.619-1.778-2.413-4.825-3.81-6.984-5.968-4.571-4.7-7.746-10.413-11.3-15.873a3.177,3.177,0,0,1-.381-3.174,10.921,10.921,0,0,1-3.174-8.255C-.686,53.668-.432,47.7,1.219,41.731a51.95,51.95,0,0,1,4.19-14.35,40.777,40.777,0,0,1,5.207-9.651c1-1.244,1.87-2.489,3.577-2.778q.05-.069.107-.144C20.013,5.794,28.9,2.619,38.807,1.476v.211C52.558-.683,65.936-.786,79.061,2.873A45.97,45.97,0,0,1,92.139,9.6h0c7.365,4.445,17.27,34.922,16.254,45.969a48.843,48.843,0,0,1-7.506,21.922q-.936,2.026-2.018,3.983c-.476.833-1.175,2-2.307,1.725A56.282,56.282,0,0,1,81.855,94.938c-4.317,2.413-10.54,7.111-14.35,6.984h-.015a1.656,1.656,0,0,0,.142.127c-4.684.669-9.368,2.122-14.138,2.122C52.834,104.171,52.171,104.143,51.506,104.081ZM38.427,90.62h0Zm-.127,0h.127l-.144-.08Q38.291,90.58,38.3,90.62ZM96.051,80.366q-.022-.083-.041-.165l-.059.133,0,.011Zm-74.16-4.951.019,0v-.019l.008-.01-.01-.015,0,.025Zm.026-.006.021,0-.021-.023Zm39.1-42.44v-.012q-.112,0-.225.01l-.007,0A1.751,1.751,0,0,0,61.022,32.969Zm12.793-7.521c0-.028,0-.056,0-.084l-.148-.118h-.045ZM44.454,10.394l.012-.018-.031,0ZM36.881,5.806c0-.022,0-.046,0-.071l-.063.027Z" transform="translate(0 0)" fill="#3f3b3a"/>
</svg>
