<svg xmlns="http://www.w3.org/2000/svg" viewBox="0 0 150 149">
  <defs/>
  <defs>
    <style>
      .cls-9{fill:#ccbec2}.cls-15{fill:#ac9094}.cls-48{fill:#cabdc2}.cls-55{fill:#c3afb3}.cls-56{fill:#cdbec1}.cls-85{fill:#d5cbcd}.cls-87{fill:#ccbdc1}.cls-88{fill:#ad9497}.cls-92{fill:#8b7576}
    </style>
  </defs>
        <path fill="#441d17" d="M88 1c56 17 82 75 42 125-10 3 13-24 11-30l4-16c3-1 3-2 3-5-3-15-6-32-18-42-13-14-19-18-38-18-11-8-23 1-35-1C48 4 82 4 88 1z"/>
        <path fill="#502822" d="M88 1c-8 6-20 4-30 8-2 1-2 3-1 4 0 5-4 4-6 6-9 4-17 9-25 15C0 41 69-7 88 1z"/>
        <path fill="#662e2c" d="M93 147c-9 6-62-4-61-16 2-3 4-1 6 0 9 7 19 9 30 12 4 1 8-1 12 1 3 2 18-3 13 3z"/>
        <path fill="#6b2f2e" d="M8 107C3 95-3 79 2 66c6 0 3 23 7 30 2 3 6 12-1 11z"/>
        <path fill="#5e2e2a" d="M5 67c-2 1-3 2-3-1 0-15 8-25 18-34 4 4-1 5-2 9-1 2-4 3-4 6-8 5-4 20-9 20z"/>
        <path fill="#732d31" d="M8 107c3-3 5-3 6 1 4 6 10 10 12 16-7 8-17-11-18-17z"/>
        <path fill="#552d28" d="M93 147c1-3 2-5 6-5 6-3 12-5 17-10 4-2 7-9 12-8a2 2 0 002 2 63 63 0 01-37 21z"/>
        <path fill="#6a2d2e" d="M22 127c5-6 12 1 10 7-4-1-7-4-10-7z"/>
        <path d="M92 13c14 1 25 8 31 20 3 3 1 7-3 8-1 0-1-1-1 1 1 6 1 7-5 6L99 38c-2-1-5-2-6-4 0-4 0-11 6-9-5-1-13-4-9-10 0-1 1-3 2-2z" class="cls-9"/>
        <path fill="#311715" d="M117 26c-6-5-13-8-20-12 21-4 36 18 47 32 1 7 9 33 4 36-1 1-1-2-2-2-4-4-2-9-3-12-3-16-16-30-26-42z"/>
        <path fill="#c1afb3" d="M125 127c-2 4-17 13-13 3 9-13 18-28 24-43 7 0 9 7 5 11-2 12-11 19-16 29z"/>
        <path fill="#b9a9ab" d="M143 94c-11-11-8-5-8-21 0-7-8-16 5-14 8 10 7 24 3 35z"/>
        <path fill="#a88f92" d="M125 127c-2-10 10-12 10-21l2-1c7-2-6-9 6-9a62 62 0 01-18 31z"/>
        <path fill="#9d7b7e" d="M50 17c4-2 23-10 22-2-3 3-7 3-9 7-3 3-11 0-13-5z"/>
        <path d="M72 14l-2-3c26-6 21 14 2 3z" class="cls-15"/>
        <path fill="#997a7d" d="M87 15l-3-5a19 19 0 018 3 4 4 0 00-1 3c-1 0-3 2-4-1z"/>
        <path fill="#917374" d="M83 10c-2 5-7 0-13 1 5-1 9-2 13-1z"/>
        <path fill="#a98a8f" d="M21 35c8-5 12-11 23-10 10-1-2 14-9 11-4-2-17 7-14-1z"/>
        <path fill="#9b7a7e" d="M46 29c-1-1 1-3-1-3l-2 1c-4 8-4-1-7-2 20-19 23 9 10 4z"/>
        <path fill="#c4a3aa" d="M32 131c-3-5-12-9-12-14 6-2 17 14 29 16 9 4 18 7 28 8 2 0 7 0 7 5-19 1-36-7-52-15z"/>
        <path fill="#b4979d" d="M80 146c5 1 5-6 10-5 4 0 8-2 11-5 6-3 11-2 17-3-11 8-25 15-38 13z"/>
        <path fill="#c9a4ab" d="M20 117C5 103 2 79 6 61c1-5 2-15 8-15 2 2 1 4 0 7-7 17-4 35 2 52 1 4 8 8 4 12z"/>
        <path fill="#b89ea2" d="M13 46v-1c0-3 5-7 9-7 3-5 8-4 13-4 2 4-19 19-22 12z"/>
        <path fill="#906369" d="M22 38c-2 2-4 2-6 2a9 9 0 015-5l1 3z"/>
        <path fill="#c5b7ba" d="M141 60c-13 4-8-1-13-7 1 6 9 14 7 22-5-1-6 2-6 6 0 3-1 12-5 10 0-14 0-27-8-38-1-2-3-4-2-6 5 1 6-2 3-6l-4-6c4-1 5 7 9 4 4-4-4-8-5-13 10 8 23 21 24 34z"/>
        <path fill="#d4c7cb" d="M96 26c-1 12-5 8-16 7-7-4-23 6-25-4 2-8 14-4 19-9 3-1 6 2 9 0 2 0 4 1 5 3 2 2 7-2 8 3z"/>
        <path fill="#bda5a9" d="M86 24c0-1-2-3 0-3-4-1-19 1-14-7l19 2c-3 4 2 4 4 7-1 2-3 0-4 1-2 1-3 2-5 0z"/>
        <path fill="#6a5155" d="M114 47c8 11 13 23 11 37-2 0-2-2-2-3-2-11-5-22-13-31-20-15-11-17 4-3z"/>
        <path fill="#5c3b3f" d="M100 37c-4 4-8 0-12-1-3-1-7 1-9-3 2-4 17 1 21 4z"/>
        <path fill="#a8979b" d="M98 24a8 8 0 017 5c-3-1-8-2-7-5z"/>
        <path fill="#624649" d="M98 24v1c-8 0-9-5 0-1z"/>
        <path fill="#a99396" d="M141 60v-4l4 10c-5 0-4-3-4-6z"/>
        <path fill="#d2c0c2" d="M112 134c-23 15-40 10-65 1-4-2-23-10-15-13 7 2 2 3 11 1 25 15 51 17 75 0 1 5-7 6-6 11z"/>
        <path fill="#6c4d50" d="M118 123c-8 6-20 16-30 12 0-3 2-2 4-2 9-2 18-7 24-14 7-7 11-16 15-25 0-3 5-7 4-2-3 12-10 22-17 31z"/>
        <path fill="#887477" d="M135 92c-3-6-3-14 2-19a61 61 0 01-2 19z"/>
        <path fill="#a79699" d="M137 73c-2 2 0 5-2 7-2-1-2-3-1-4 3-10-8-21-11-30 7 6 12 17 14 27z"/>
        <path d="M72 14c-1 6 5 3 8 5-3 3-9 1-13 3-11 0 0-8 5-8z" class="cls-15"/>
        <path fill="#af8f92" d="M52 24c-3-1-2-4-2-6 3 2 7 0 8 5-1 1-4 2-6 1z"/>
        <path fill="#74555a" d="M62 21l14-2c-1 4-27 8-14 2z"/>
        <path fill="#c6b4b7" d="M58 24c4-1 31-9 23-1-7-2-14 3-21 3-4 0-5 6 0 6 2 1 3 4-1 5-8 0-13 7-20 8l-5-7c1-5 9-5 12-9 5-1 8-6 12-5z"/>
        <path fill="#92797a" d="M37 34c-5 4-9 19-16 15-1-4 13-15 16-15z"/>
        <path fill="#8a6c6e" d="M58 24c-1 0-7 4-6 0 2-1 6-3 6 0z"/>
        <path fill="#d5bfc2" d="M26 42c-4 6-6 12-6 18-1 3-3 5-3 9-6 11 4 21 3 32-1 7 8 13 12 18 2 2 0 4-2 4-4-1-6-5-10-6a79 79 0 01-7-71c5 1 9-2 13-4z"/>
        <path fill="#d1c5c8" d="M135 74l-2 6c2 10-4 17-7 26l-9 14c-8 3-13 12-22 13-4-4-15 7-25-2 1-3 3-4 6-3 9 3 14-6 23-5 5 0 5-3 4-7 5-7 14-12 18-21 1-2 0-4 3-4 6-5 0-27 11-17z"/>
        <path fill="#7c6262" d="M124 91c-2 6-5 12-10 17-4-4 4-8 5-13 2-4 0-12 5-15 2 4 1 7 0 11z"/>
        <path fill="#6f585e" d="M81 32c-4 2-8 3-12 1-2-4 9-2 12-1z"/>
        <path fill="#8c7779" d="M69 31c0 5-8 5-9 1z"/>
        <path fill="#5d4148" d="M83 21l-1-2 8 3c-3 1-5-1-7-1z"/>
        <path d="M91 23l2 1c-3 2-5 3-7 0z" class="cls-9"/>
        <path d="M124 80a116 116 0 01-4 17c-4 2-6 7-6 11l-10 8c-18 16-58 3-34 0 11 3 21-1 30-6 2-1 3-3 3-6 15-18 12-45-10-56-35-16 28-26 31 32z" class="cls-48"/>
        <path fill="#d8ccd0" d="M104 104c1 5-1 9-7 10-7 5-15 7-23 5-21 1-36-15-44-32-1-1-2-2-1-3 1-5-1-9-1-14 8-10-1-13 14-22 2-2 2-4 3-7 11-10 29-10 43-6-2 13-35 5-44 25-13 21 6 48 28 51 12 3 22-4 32-7z"/>
        <path fill="#dfccd0" d="M32 122c-3-2-19-20-13-21 8 0 9 11 15 14l8 9c-5 7-7 0-10-2z"/>
        <path fill="#5e3238" d="M88 135l3 1c-6 2-35 0-34-6 3-2 5 0 8 0 6 2 12 5 19 4a4 4 0 014 1z"/>
        <path fill="#5d373c" d="M57 130v2c-5-3-10-3-14-8 4-3 11 2 14 6z"/>
        <path fill="#5f3a3f" d="M44 124c-3 0-7-1-7-5 4-1 6 1 7 5z"/>
        <path fill="#bda3a7" d="M44 124c-2-5-9-3-10-8-4-4-10-10-8-16 7-1 3 7 10 11 1 6 9 5 13 9 6 5 18 4 21 10 14 6 9 0 18 3 2 0 4-4 7-2s5-4 10-2c-19 13-43 3-61-5z"/>
        <path d="M127 105c-1-1-2-3-1-4 4-4 3-10 6-14 1-4-3-9 3-12 0 11-1 22-8 30zM106 128c0-5 7-10 11-8-2 4-5 7-11 8zM117 120c0-4 6-13 9-14-1 6-5 10-9 14z" class="cls-55"/>
        <path d="M29 102c-20-13-2-31-9-40-1-4 3-8 3-13 4-5 9-13 17-10 1 2-3 4 0 6 4-6 9-2 5 3-4 3-6 7-12 8l-6 18c-3 9 7 22 2 28z" class="cls-56"/>
        <path fill="#72595e" d="M45 42c-4 2-6 5-9 8 0-3 6-11 9-9a2 2 0 000 1z"/>
        <path fill="#bfaaaf" d="M23 49c3 5 0 8-2 12 8 12-7 18 4 35a15 15 0 011 5c-4 5-4-3-7-5-2-2 0-5-2-7-2-3-2-7-2-10 1-2 3-4 1-7-1-3 0-10 3-12a25 25 0 013-11z"/>
        <path fill="#ae9298" d="M20 96c6 0 1 7 6 5l2 7c-3 0-3-2-4-4-5 0-6-5-4-8z"/>
        <path fill="#aa9093" d="M17 62c5 9-3 6 1 11 2 3 1 5-2 5-2-3-1-7 0-10 0-2-2-5 1-6z"/>
        <path fill="#876469" d="M16 68v10c-1 3 2 7 0 10-2-7-4-14 0-20z"/>
        <path fill="#8b6f73" d="M21 50l-2 10c-2-3 0-6 2-10z"/>
        <path fill="#98797f" d="M20 96l-1 4c-2-4-2-7-2-11 3 1 1 5 3 7z"/>
        <path fill="#d8cacd" d="M29 102c1-5-4-9-2-14 12 12 14 25 33 31 15 9 30 2 44-2 4 3 0 6 0 8-1 3-3 0-5 0-9-2-12 9-23 5h-6c-4-1-8-3-13-3-2 1-3-3-5-4a47 47 0 01-11-6c-3-1-4-5-7-7s-3-6-5-8z"/>
        <path fill="#7f696a" d="M104 117c-12 5-26 11-39 5 2-3 4-1 5 0 11 2 20-2 30-5 1-1 4-3 4 0z"/>
        <path d="M95 131c-2 1-4 3-7 2 2-2 3-6 7-2z" class="cls-55"/>
        <path fill="#745a5c" d="M104 116l7-6c-1 4-4 5-7 6z"/>
        <path fill="#bba2a5" d="M115 103c0-5 2-8 5-6z"/>
        <path fill="#a58f92" d="M70 122c-16 1-30-11-37-25-4-2-13-25-5-22 2 20 17 36 35 44 2 2 6-1 7 3z"/>
        <path fill="#806566" d="M104 104c-3 5-35 14-32 7 12-2 26-3 33-14 12-18 5 2-1 7z"/>
        <path fill="#62484b" d="M83 42c14 2 32 19 30 32-2 0-3-2-4-3-3-13-13-20-24-25-2 0-5-4-2-4z"/>
        <path fill="#846d71" d="M83 42c-2 3-19 7-20 2 6-2 13-4 20-3v1z"/>
        <path fill="#75565b" d="M112 74l1-3a34 34 0 01-1 20c-3-3-4-15 0-17z"/>
        <path fill="#c6afb3" d="M50 102c-3-6-10-9-11-16 2-8-4-23 6-27 3 14-1 31 13 41 20 15 3 11-8 2z"/>
        <path fill="#bea8ac" d="M38 101c-5-5-17-28-9-31l2 13c-2 5 10 15 7 18z"/>
        <path d="M38 101c9 5 17 12 25 18-5-1-26-13-25-18z" class="cls-48"/>
        <path fill="#bfabac" d="M29 63c4-18 9 3 0 7a6 6 0 010-7z"/>
        <path fill="#b59ea2" d="M45 60h-3c4-7 9-11 16-14 1 4-10 13-13 14z"/>
        <path fill="#917d81" d="M50 102c6 2 11 7 17 8a4 4 0 015 0c0 7-20-3-22-8z"/>
        <path fill="#715055" d="M41 67c-3 6 2 13-2 19 0-4-4-19 2-19z"/>
        <path fill="#8f7576" d="M41 67l-3 1c1-3 2-10 6-8-2 2-2 5-3 7z"/>
        <path fill="#90787d" d="M41 91c5 1 6 6 8 9-4-1-5-6-8-9z"/>
        <path fill="#7b676c" d="M57 48c-2-1 0-1 1-2 8-6 7 7-1 2z"/>
        <path fill="#7d6066" d="M24 104l10 12c-5-3-9-6-10-12z"/>
        <path d="M35 111c4 0 4 4 6 6-5 0-5-3-6-6zM29 102c3 2 4 5 5 8-4 1-4-5-5-8z" class="cls-56"/>
        <path fill="#937f82" d="M29 63c0 4 0 8-2 12l-1-1c2-3-1-8 3-11z"/>
        <path fill="#c7b2b6" d="M72 112c6-10 27-4 34-22 12-14 3 25-34 22z"/>
        <path d="M111 88c-2-1-3 0-3 2-5 15-22 18-36 21-11-3-23-14-26-25-2-9-5-23 2-30 6-3 9 1 6 6-1 1-2 2 0 2 5-1 7-8 13-9 7 0 8 2 5 8-6 14-10 22 8 29 3 1 7 2 6 7-3 5-13 3-17 2 12 6 23-5 29-14 8-19-3-31-23-34-7 1-6-6 0-5 22-11 43 18 36 40z" class="cls-85"/>
        <path fill="#ddccd1" d="M55 66c-3 2-7 2-5-3 4-6 4-6-2-7 3-1 4-7 7-3a19 19 0 01-2-2c7-5 22-11 30-7 0 4 0 7-6 6-8-1-18 10-22 16z"/>
        <path d="M70 63c3-6 3-6-3-7 0-5 10-2 13-2 18 4 29 25 15 39-3 3-6 6-10 7 0-5-4-5-7-7 26-6 14-33-8-30z" class="cls-87"/>
        <path d="M71 89c-8-4-11-12-2-22 6-8 15-2 19 4 11 13-3 27-17 18z" class="cls-88"/>
        <path fill="#b19fa3" d="M71 66l-2 1c0-2-1-4 1-4 13-11 35 19 19 27 3-10 4-18-7-24-4-2-7-3-11 0z"/>
        <path d="M58 60c8-18 47-4 44 14h-2c-4-13-16-20-28-20-5-2-13 9-14 6z" class="cls-87"/>
        <path fill="#b4a3a7" d="M53 71c0 9 4 17 8 24-8-7-9-11-8-24z"/>
        <path fill="#8d787d" d="M80 54c11 2 25 14 21 25-2-16-13-18-21-25z"/>
        <path d="M85 100c4-2 6-6 10-7-3 5-13 13-18 9 3-1 6 0 8-2z" class="cls-92"/>
        <path fill="#988289" d="M77 102c-3 5-10-2-13-4 4 1 8 4 13 4z"/>
        <path fill="#8f787c" d="M71 89c5 0 8 4 13 1l3 1c-6 4-11 1-16-2z"/>
        <path fill="#745356" d="M59 60c3-3 7-7 13-6-1 3-4 1-5 2-1 2-13 11-8 4z"/>
        <path fill="#735a5b" d="M101 79l1-2c1 9-6 18-1 2z"/>
        <path d="M99 87c2 2-2 5-4 6 0-3 2-4 4-6z" class="cls-92"/>
        <path fill="#917d82" d="M58 62l1 1c-1 1-4 6-4 3 1-2-1-5 3-4z"/>
        <path d="M53 51c2 1 5 0 5 2-1 4-5 1-5-2zM58 62l-3 4c0-3-1-6 4-6l-1 2zM70 51c-1 3-4 2-6 2 1-3 4-1 6-2z" class="cls-85"/>
        <path fill="#775c5e" d="M87 91l-3-1c15-7 0-29-13-24 9-12 31 15 16 25z"/>
        <path fill="#745a5f" d="M80 54v1c-3 0-5 1-8-1 3-2 5 1 8 0z"/>
        <path fill="#876c70" d="M76 88c-14-9 0-25 4-15-2 3-1 11-6 7 0 3 5 5 2 8z"/>
        <path fill="#876c72" d="M76 88a14 14 0 014-8c6-12 9 15-4 8z"/>
        <path fill="#978083" d="M84 78c-6-2-4-4-7-8 6 0 6 4 7 8z"/>
        <path d="M78 83c3 11-10-2-5-10 2 11 6 5 5 10z" class="cls-88"/>
        <path fill="#5f4448" d="M79 73c3 2 4 5 3 8a3 3 0 01-4-2c-4-4-4-4 1-6z"/>
        <path fill="#6f5559" d="M78 79l4 2c-2 3-5 2-6-1z"/>
</svg>
