<svg xmlns="http://www.w3.org/2000/svg" viewBox="0 0 150 148">
  <defs/>
  <defs>
    <style>
      .cls-9{fill:#cfd1c2}.cls-15{fill:#adb596}.cls-48{fill:#cccdc0}.cls-55{fill:#c5c9b5}.cls-56{fill:#d0d2c2}.cls-85{fill:#dadace}.cls-87{fill:#d0d1c0}.cls-88{fill:#afb69a}.cls-92{fill:#8a9279}
    </style>
  </defs>
        <path fill="#2f4925" d="M89 0c43 13 78 61 52 106-3 5-10 25-14 18 4-10 12-18 14-29 1-5 1-11 4-16 7-1-2-19-2-25-4-17-26-42-45-39-5 1-9-4-14-4-9-3-18 4-27 3C48 4 83 3 89 0z"/>
        <path fill="#37552a" d="M89 0c-4 6-38 5-31 13 0 4-4 3-7 5l-14 7c-5 3-10 10-15 9C29 16 67-2 89 0z"/>
        <path fill="#536f32" d="M93 147c-12 5-60-4-61-17 2-3 4-1 6 0 8 7 19 9 29 12l13 1c2 2 18-2 13 4z"/>
        <path fill="#597532" d="M7 106C3 95-4 75 2 65c1 1 3 0 4 2a121 121 0 003 27c1 4 6 13-2 12z"/>
        <path fill="#47632f" d="M5 66c-1 0-3 2-3-1 0-15 8-25 19-34 4 3-6 11-7 15-8 6-4 21-9 20z"/>
        <path fill="#678032" d="M7 106c6-7 8 6 14 9 1 3 5 5 4 8-5 8-17-12-18-17z"/>
        <path fill="#3e5a2c" d="M93 147c1-8 17-8 23-16 5-3 9-11 14-6a63 63 0 01-37 22z"/>
        <path fill="#5d7531" d="M22 125c5-5 11 2 10 8-5-1-8-4-10-8z"/>
        <path d="M93 12c10 2 19 5 26 13 2 5 12 13 1 16-1 0-1-1 0 0 1 7 0 7-6 7-5-4-10-8-15-10-2-2-5-2-5-5-1-4 0-11 5-8-4-2-13-4-9-11 1-1 1-2 3-2z" class="cls-9"/>
        <path fill="#243519" d="M117 26c-5-6-12-9-19-13 21-4 47 25 48 46 1 5 7 20 2 23l-2-3c-4-3-2-8-3-12-2-15-16-30-26-41z"/>
        <path fill="#c4c7b4" d="M124 126a20 20 0 01-12 8c-6-3 4-8 4-13 9-10 14-22 20-34 7-1 9 7 4 11-1 12-10 19-16 28z"/>
        <path fill="#babeac" d="M143 94c-12-12-8-4-8-21 0-7-8-17 6-14 7 9 6 23 2 35z"/>
        <path fill="#a9b095" d="M124 126c-1-9 11-11 11-20l2-2c7-1-6-9 6-8a62 62 0 01-19 30z"/>
        <path fill="#9da883" d="M50 16c6-4 13-5 20-5 8 4-6 5-6 10-3 3-13-1-14-5z"/>
        <path d="M72 13l-2-3c27-5 21 14 2 3z" class="cls-15"/>
        <path fill="#99a382" d="M87 15l-3-5a19 19 0 019 2 4 4 0 00-1 3c-2 1-4 3-5 0z"/>
        <path fill="#919c79" d="M83 9c-3 6-5 0-12 1 4-1 8-2 12-1z"/>
        <path fill="#acb492" d="M22 34c9-6 9-11 22-10 9-2 0 13-9 10-3-1-17 8-13 0z"/>
        <path fill="#9ca682" d="M46 28c-1-1 2-3 0-3l-3 1c-4 8-4-1-7-2a37 37 0 0114-8c5 5 5 15-4 12z"/>
        <path fill="#cad1aa" d="M32 129c-4-4-10-7-12-13 4-5 15 14 29 16a114 114 0 0027 8c3 0 7 0 7 5-18 1-35-7-51-16z"/>
        <path fill="#b8bf9e" d="M79 145c5 1 5-5 10-5 9 0 14-9 23-6 2-2 3-1 5-1-10 8-24 14-38 12z"/>
        <path fill="#cdd6ad" d="M20 116C5 102 2 78 6 60c1-5 3-16 8-15 2 2 1 4 0 6a61 61 0 00-4 26c0 9 3 18 6 27 1 4 8 8 4 12z"/>
        <path fill="#bbc2a4" d="M14 44h-1c0-3 6-7 9-7 3-5 8-4 13-4a2 2 0 01-1 3c-4 4-16 15-20 8z"/>
        <path fill="#909e6a" d="M22 37c-1 2-3 2-5 2a9 9 0 015-5z"/>
        <path fill="#c7c9bb" d="M141 60c-15 3-8-3-13-8 1 6 10 16 7 22-9 0-4 10-8 14-3 7-5-1-3-5 1-11-2-21-8-31-1-2-3-3-2-6 5 1 6-1 4-6-1-2-4-3-4-5 3-1 5 7 8 4 4-5-4-9-5-13 8 5 26 24 24 34z"/>
        <path fill="#d7d8ca" d="M97 25c-2 2 0 6-2 8-9 2-17-3-26-1-4 0-13 3-13-4 1-8 13-4 19-8h3c4 1 8-3 10 2 2 2 7-2 9 3z"/>
        <path fill="#bfc4ab" d="M86 24c0-1-2-4 1-4-4 0-20 1-15-7l20 2c-4 5 2 4 4 8-1 1-4-1-5 1h-5z"/>
        <path fill="#686f54" d="M114 46c8 11 13 23 11 37-2 0-2-1-2-2-2-12-4-23-13-32-1-4-16-9-10-13l14 10z"/>
        <path fill="#56613e" d="M100 36c-4 4-8 0-12 0-3-1-7 0-9-4 2-4 18 1 21 4z"/>
        <path fill="#abad9c" d="M99 24a8 8 0 016 4c-2-1-7-2-6-4z"/>
        <path fill="#5e674b" d="M99 24v1a11 11 0 01-7-2c1-2 5 0 7 1z"/>
        <path fill="#aab099" d="M141 60v-4l4 10c-5 0-4-3-4-6z"/>
        <path fill="#d4d8c4" d="M112 134c-25 14-40 10-66 0-3-2-22-10-14-13 33 9 51 24 86 1 1 4-8 7-6 12z"/>
        <path fill="#687252" d="M118 122c-8 7-20 16-31 12 1-4 10 0 18-8 14-6 21-20 26-33l3-4c4 5-12 28-16 33z"/>
        <path fill="#878d78" d="M135 92c-3-6-3-15 2-20a61 61 0 01-2 20z"/>
        <path fill="#a8ac9b" d="M137 72c-2 2 0 5-2 7a3 3 0 010-5c-1-10-8-19-12-29 8 7 12 18 14 27z"/>
        <path d="M72 13c-1 6 6 3 9 6l-5 1c-4-1-10 3-13 0-1-4 6-6 9-7z" class="cls-15"/>
        <path fill="#b1bb97" d="M53 23c-3-1-2-4-2-6 2 2 7 0 8 5-2 1-4 2-6 1z"/>
        <path fill="#737b5a" d="M63 20c4-1 9-2 14-1 0 2-20 7-18 3z"/>
        <path fill="#c9ccb9" d="M59 23c3-1 31-9 22-1-7-2-13 3-20 3-4 0-5 6-1 6 3 1 3 4 0 5-8 0-13 7-21 8-2-2-2-5-5-7 1-5 15-10 20-12 1-2 3-3 5-2z"/>
        <path fill="#939b7e" d="M37 33c-5 5-6 13-14 16-7-4 10-12 12-16z"/>
        <path fill="#8a9372" d="M59 23c-9 5-8-3 0-1a7 7 0 000 1z"/>
        <path fill="#d7dcc5" d="M26 41c-6 8-6 18-9 27-6 11 4 21 3 32-1 6 8 13 12 18 2 2 0 4-2 4-4-1-6-5-10-6a79 79 0 01-6-72c4 2 8-2 12-3z"/>
        <path fill="#d3d4c8" d="M135 74c-2 17-7 32-18 45-8 3-13 13-23 13-3-3-5 0-7 1-6 1-13 2-17-3 0-3 3-3 5-3 10 3 15-5 23-5 6 1 4-4 5-8 7-6 14-11 18-20 0-1 0-4 3-4 6-4 0-27 11-16z"/>
        <path fill="#788266" d="M124 90c-3 7-5 13-10 18-5-5 4-8 5-13 1-4 1-14 5-15 2 3 1 7 0 10z"/>
        <path fill="#70745c" d="M82 31c-3 2-14 5-13-1 4 0 8-1 13 1z"/>
        <path fill="#8d937b" d="M69 30c0 6-8 5-9 1z"/>
        <path fill="#5c6245" d="M83 21l-1-2c3 1 6 0 8 2h-7z"/>
        <path d="M92 23l1 1c-2 1-4 3-7 0z" class="cls-9"/>
        <path d="M124 80a116 116 0 01-4 16c-3 2-6 8-6 12l-10 7c-12 8-30 12-41 4 5-9 15 5 37-9 21-31 16-52-18-69 1-9 11-7 17-4 17 9 24 24 25 43z" class="cls-48"/>
        <path fill="#dcdccf" d="M104 103c3 11-23 18-31 15-21 1-37-17-44-35 1-5-1-9-1-14 8-11-1-13 14-22 6-17 32-18 47-13-5 14-37 5-45 25-13 21 6 48 28 51 12 3 21-3 32-7z"/>
        <path fill="#e2e5d1" d="M32 121c-5-3-25-30-7-19 3 9 12 13 16 21-4 7-6 0-9-2z"/>
        <path fill="#586436" d="M87 134l4 1c-12 3-23-1-34-4-3-8 22 5 27 2a4 4 0 013 1z"/>
        <path fill="#58633b" d="M57 129v2c-5-3-11-3-15-8 5-3 12 2 15 6z"/>
        <path fill="#5a643e" d="M43 123c-2 0-7-1-7-5 5-1 7 1 7 5z"/>
        <path fill="#c0c7a9" d="M43 123c-1-5-8-3-10-8-2-2-5-4-6-8 0-2-3-6-1-8a3 3 0 014 2c2 2 1 6 5 7 3 2 1 7 6 7 8 3 15 9 25 11 2 0 4 1 4 3 14 7 9 0 17 3 3 0 5-3 8-2 2 3 5-3 9-1-18 12-42 2-61-6z"/>
        <path d="M127 105c-1-2-2-3-1-5 4-4 3-9 6-13 1-4-2-9 3-12 0 10-1 22-8 30zM106 128c0-6 6-11 11-9-2 5-6 8-11 9zM117 119c0-4 6-12 9-13-1 6-5 9-9 13z" class="cls-55"/>
        <path d="M29 101c-21-16-2-28-9-40-1-4 4-8 3-13 5-5 9-13 18-10 0 2-4 3-1 6 5-6 9-1 5 3-3 3-6 7-12 8-14 29 1 31-4 46z" class="cls-56"/>
        <path fill="#73775d" d="M45 41l-9 8c0-3 6-11 9-9a2 2 0 000 1z"/>
        <path fill="#c1c5b0" d="M23 48c4 6 0 7-2 12 9 12-7 16 4 35a15 15 0 011 5c-4 5-4-4-7-5-2-3-1-6-3-8 1-4-2-6-1-10 1-1 3-3 1-6-1-1 1-12 3-12a25 25 0 013-12z"/>
        <path fill="#b3b899" d="M20 95c6 0 0 7 6 5l2 7c-3 0-3-2-4-4-3 0-5-2-5-4 1-2-1-3 1-4z"/>
        <path fill="#acb396" d="M17 61c1 2 4 5 0 8-1 1 6 8-1 8-2-3-1-7 0-10 0-2-1-5 1-6z"/>
        <path fill="#869069" d="M16 67v10c-1 3 2 6 0 10-2-7-4-14 0-20z"/>
        <path fill="#8c9374" d="M21 49l-2 10c-2-4 0-7 2-10z"/>
        <path fill="#9ba381" d="M20 95l-1 4c-2-4-2-7-2-11 3 1 1 5 3 7z"/>
        <path fill="#dcddcd" d="M29 101c1-5-4-10-2-14 4 2 5 6 7 9 16 27 44 31 70 20 4 3 0 6-1 9 0 2-3 0-4-1-9-2-11 9-23 5h-6c-4-1-8-3-13-3-2 1-3-3-6-4-10-3-18-12-22-21z"/>
        <path fill="#7e866d" d="M104 116c-12 5-26 11-39 5 1-3 3-1 5 0 12 3 23-3 34-6z"/>
        <path d="M95 130c-3 2-5 3-8 2 3-1 4-6 8-2z" class="cls-55"/>
        <path fill="#70795e" d="M104 115l6-5c0 3-3 4-6 5z"/>
        <path fill="#bbc2a8" d="M115 103c0-6 2-8 5-7z"/>
        <path fill="#a6ac95" d="M70 121c-20 3-49-28-44-48a3 3 0 013 3c0 20 18 34 34 42 2 2 6 0 7 3z"/>
        <path fill="#7e886a" d="M104 103c-10 8-21 11-33 9 0-4 11-2 14-4 14-2 17-8 25-19 5 2-4 11-6 14z"/>
        <path fill="#5e674c" d="M83 41c14 3 33 19 30 32-2 0-3-1-3-3-4-12-14-19-25-25-2 0-5-4-2-4z"/>
        <path fill="#848971" d="M83 41l-2 3c-6-1-15 5-18-1 6-2 13-4 20-3v1z"/>
        <path fill="#747c5b" d="M112 73l1-2a34 34 0 01-1 19c-3-1-3-16 0-17z"/>
        <path fill="#c8cdb5" d="M50 101c-3-6-10-9-11-16V66c2-2 3-8 7-8 3 24-4 29 19 47 10 11-13-1-15-4z"/>
        <path fill="#bfc4ae" d="M38 100c-7-8-14-20-10-31a1 1 0 011 0c4 23-1 10 10 31a1 1 0 01-1 0z"/>
        <path d="M38 100c9 5 16 12 25 18-7-2-13-6-19-11-1-3-8-3-6-7z" class="cls-48"/>
        <path fill="#bec5af" d="M29 62c4-18 9 3 0 7a6 6 0 010-7z"/>
        <path fill="#b8bda5" d="M45 59h-3c4-7 9-11 16-14 1 3-10 13-13 14z"/>
        <path fill="#939781" d="M50 101c6 2 10 7 17 8 2-2 8 1 4 3-8-2-16-4-21-11z"/>
        <path fill="#707855" d="M41 66c-3 6 2 13-2 19 0-4-4-20 2-19z"/>
        <path fill="#8f987b" d="M41 66l-3 1c2-3 3-10 6-8-2 2-2 5-3 7z"/>
        <path fill="#93987d" d="M41 90c5 1 5 6 8 9-5-1-5-6-8-9z"/>
        <path fill="#7d806b" d="M57 48c-1-3 4-4 6-5 2 4-2 7-6 5z"/>
        <path fill="#7f8564" d="M24 103c3 4 7 7 9 12-4-3-8-6-9-12z"/>
        <path d="M35 110c4 0 4 4 5 6-4 0-5-3-5-6zM29 101c3 2 4 5 5 8-5 1-4-5-5-8z" class="cls-56"/>
        <path fill="#949983" d="M29 62c0 4 0 8-2 12l-1-1c2-4-1-8 3-11z"/>
        <path fill="#c9ceb8" d="M72 111a6 6 0 010-1c11-9 25-3 34-21 1-2 2-5 5-2-4 19-22 24-39 24z"/>
        <path d="M111 87c-2 0-3 1-3 2-5 16-22 18-36 21-11-3-23-14-26-25-2-9-5-23 3-30 5-3 8 1 5 6-1 1-2 2 0 2 5-1 7-8 13-9 12 0 3 11 1 17-10 19 21 18 18 27-3 5-13 4-17 2 29 9 51-42 6-47-2-1-4-1-5-3 1-6 10-1 13-7 20 5 33 24 28 44z" class="cls-85"/>
        <path fill="#e1e2d1" d="M55 65c-3 2-7 2-5-3 4-6 4-6-1-7 2-1 3-7 6-3a19 19 0 01-1-2c5-5 23-11 29-7 1 11-7 3-13 7-1 3-4 2-5 4-4 3-8 7-10 11z"/>
        <path d="M70 62c3-6 3-6-3-6 11-14 50 16 28 37-4 2-6 6-11 6 1-5-3-5-6-7 25-6 13-33-8-30z" class="cls-87"/>
        <path d="M71 89c-8-5-11-13-2-23 7-7 15-2 19 4 11 14-3 27-17 19z" class="cls-88"/>
        <path fill="#b4b8a4" d="M71 65l-2 1c0-2-1-4 1-4 13-11 35 19 19 27 3-10 4-17-7-24-3-2-7-3-11 0z"/>
        <path d="M59 59c8-18 45-4 43 15-1 1-1 0-2-1-3-13-15-20-28-19-5-1-9 3-13 6a1 1 0 010-1z" class="cls-87"/>
        <path fill="#b7baa7" d="M53 70c0 9 4 17 8 25-8-8-9-12-8-25z"/>
        <path fill="#90947c" d="M80 54c11 2 25 13 21 24-2-12-10-19-21-23v-1z"/>
        <path d="M84 99c4-1 6-6 11-6-5 5-10 10-18 9 0-3 6-1 7-3z" class="cls-92"/>
        <path fill="#9c9e87" d="M77 101v1c-6 2-9-2-13-5 4 1 8 4 13 4z"/>
        <path fill="#92977d" d="M71 89c4-2 6 4 13 0l3 2c-6 3-11 1-16-2z"/>
        <path fill="#717b57" d="M59 60c4-4 7-8 13-6-1 2-4 0-5 2-2 0-8 8-10 5a2 2 0 012-1z"/>
        <path fill="#6f785d" d="M101 78l1-2c1 9-6 20-1 2z"/>
        <path d="M99 86l1 1a9 9 0 01-5 6c0-3 2-5 4-7z" class="cls-92"/>
        <path fill="#949781" d="M58 61l1 1c-1 1-4 6-4 3 1-1 0-4 3-4z"/>
        <path d="M54 50c10-1 0 9 0 0zM58 61l-3 4c0-3-1-6 4-6l-1 2zM70 50c-1 3-4 2-6 2 1-3 4-1 6-2z" class="cls-85"/>
        <path fill="#757d61" d="M87 91l-3-2c15-7 1-28-13-24 6-11 32 13 16 26z"/>
        <path fill="#74795e" d="M80 54v1l-8-1c3-3 6 0 8 0z"/>
        <path fill="#898f71" d="M76 88c-14-10 0-26 4-16-2 3 0 11-6 7 0 3 5 6 2 9z"/>
        <path fill="#898e71" d="M76 88a52 52 0 012-6l2-3c6-12 10 15-4 9z"/>
        <path fill="#999f86" d="M84 77c-7-2-3-3-7-8 6 0 6 4 7 8z"/>
        <path d="M78 82c3 11-10-2-5-10 2 3 0 6 3 7 2 1 3 1 2 3z" class="cls-88"/>
        <path fill="#5c6348" d="M79 72c3 2 4 5 3 8a3 3 0 01-4-2c-4-4-4-4 1-6z"/>
        <path fill="#6d7558" d="M78 78l4 2c-2 4-5 2-6-1z"/>
</svg>
