<svg xmlns="http://www.w3.org/2000/svg" viewBox="0 0 150 149">
  <defs/>
  <defs>
    <style>
      .cls-9{fill:#c7bfcd}.cls-15{fill:#a692ae}.cls-48{fill:#c4beca}.cls-55{fill:#beb1c5}.cls-56{fill:#c8bfce}.cls-85{fill:#d2ccd6}.cls-87{fill:#c6becd}.cls-88{fill:#a896af}.cls-92{fill:#88768d}
    </style>
  </defs>
        <path fill="#45183e" d="M88 1c56 17 82 75 42 125-10 3 13-25 11-31 4-27 12-7 2-40-5-18-20-32-37-39-3-1-6-2-9 0-5 0-8-4-13-4-10-3-18 4-27 2C48 4 82 4 88 1z"/>
        <path fill="#511f48" d="M88 1c-8 6-20 4-30 8-2 1-2 3-1 4 0 5-4 4-6 6-9 4-17 9-25 15C0 41 68-7 88 1z"/>
        <path fill="#632d68" d="M93 147c-9 6-62-4-61-16 2-2 4-1 6 0 9 7 19 9 30 12 4 1 8-1 12 1 3 2 18-3 13 3z"/>
        <path fill="#652f6d" d="M8 107C3 95-3 79 2 66l4 2a122 122 0 003 28c2 3 7 13-1 11z"/>
        <path fill="#5f2b5d" d="M5 67c-2 1-3 2-3-1 0-14 8-25 18-34 4 4-1 6-2 9l-5 6c-7 5-3 20-8 20z"/>
        <path fill="#662e76" d="M8 107c3-3 5-3 7 1 3 6 9 10 11 16-7 8-17-11-18-17z"/>
        <path fill="#562952" d="M93 147c1-3 3-5 6-5l17-10c4-2 8-10 12-8a2 2 0 002 2 63 63 0 01-37 21z"/>
        <path fill="#612e6c" d="M22 127c5-6 12 1 11 7-5-1-8-4-11-7z"/>
        <path d="M92 13c14 1 25 7 31 19 3 4 1 8-3 9h-1c1 7 1 8-5 7L98 38l-5-4c0-4 0-11 6-9-5-1-13-4-10-10 1-1 2-3 3-2z" class="cls-9"/>
        <path fill="#321632" d="M117 26c-6-5-13-8-20-12 21-4 36 18 46 32 2 6 10 33 5 36-1 1-1-2-2-3-4-3-2-8-3-12-3-16-16-29-26-41z"/>
        <path fill="#bbb0c3" d="M125 127c-2 4-17 13-13 3l16-26c3-5 4-12 8-17 5 0 6 1 7 7 1 2-2 3-2 4-2 12-11 19-16 29z"/>
        <path fill="#b6aabb" d="M143 94c-11-11-8-5-8-21 0-7-8-16 5-14 8 9 7 23 3 35z"/>
        <path fill="#a391aa" d="M125 127c-2-10 11-12 11-21-1-3 5-1 3-5-3-6 1-5 4-5a62 62 0 01-18 31z"/>
        <path fill="#977da0" d="M50 17c3-2 23-10 22-2-3 3-7 3-9 7-4 3-11 0-13-5z"/>
        <path d="M71 14l-2-3c27-6 21 14 2 3z" class="cls-15"/>
        <path fill="#937c9b" d="M87 15l-3-5a19 19 0 018 3 4 4 0 00-1 3c-2 0-3 2-4-1z"/>
        <path fill="#8c7493" d="M83 10c-3 5-7 0-13 1 4-1 9-2 13-1z"/>
        <path fill="#a28cac" d="M21 35c8-5 12-11 22-10 11-1-1 14-8 11-4-2-17 7-14-1z"/>
        <path fill="#947c9d" d="M46 29c-1-1 1-2-1-3l-3 1c-3 8-3-1-6-2 20-19 22 9 10 4z"/>
        <path fill="#bba5c8" d="M33 131c-4-5-13-8-12-14 5-2 16 14 28 16a115 115 0 0028 8c2 0 7 0 7 5-19 1-36-7-51-15z"/>
        <path fill="#ac99b7" d="M80 146c5 1 5-6 10-6 4 1 8-2 12-4 5-3 10-2 16-3-11 8-24 15-38 13z"/>
        <path fill="#c0a7cd" d="M20 117C5 103 2 80 6 61c1-5 2-15 8-15 2 2 1 4 0 7-7 17-4 35 2 52 1 4 8 8 4 12z"/>
        <path fill="#b3a0bb" d="M13 46h-1c1-4 6-8 9-8 4-5 9-3 14-4 2 4-19 19-22 12z"/>
        <path fill="#866593" d="M21 38c-1 2-3 2-5 2a9 9 0 015-5z"/>
        <path fill="#c0b8c6" d="M141 60c-14 4-8-1-13-8 1 7 9 15 7 22-5 0-6 3-6 7 0 3-1 11-5 10 0-14 0-27-8-38-1-2-3-4-2-6 5 1 6-2 3-6l-4-6c4-1 5 7 9 4 4-5-4-8-5-13 10 8 23 21 24 34z"/>
        <path fill="#cfc8d5" d="M96 26c-1 12-5 8-16 7-7-4-23 6-25-4 2-8 14-4 19-9 3-1 6 2 8 0 3 0 4 1 6 3s7-2 8 3z"/>
        <path fill="#b7a7bf" d="M86 24c0-1-2-3 0-3-4-1-19 1-15-7l20 2c-3 4 2 4 4 7-1 2-3 0-4 1-2 1-3 2-5 0z"/>
        <path fill="#63526b" d="M114 47c8 11 13 22 11 36-2 1-2-1-2-2-2-12-5-23-13-32-20-15-11-16 4-2z"/>
        <path fill="#543c5d" d="M99 37c-3 4-8 0-11-1-4-1-8 1-9-3 1-4 18 1 20 4z"/>
        <path fill="#a298a9" d="M98 24a8 8 0 016 5c-2-1-7-3-6-5z"/>
        <path fill="#5c4763" d="M98 24v1c-9 0-9-5 0-1z"/>
        <path fill="#a595ab" d="M141 60v-4l4 10c-5 0-4-3-4-6z"/>
        <path fill="#cec1d4" d="M113 134c-25 15-41 10-66 1-4-2-22-9-15-13 7 2 2 3 11 2 25 14 51 16 75-1 1 5-7 6-5 11z"/>
        <path fill="#654e6d" d="M118 123c-15 16-41 14-26 10 14-3 28-14 33-28 5-4 5-13 9-16 3 10-10 26-16 34z"/>
        <path fill="#837589" d="M135 92c-3-6-3-15 2-20a61 61 0 01-2 20z"/>
        <path fill="#a297a8" d="M137 72c-2 2 0 5-2 8-2-1-2-3-1-4 3-10-8-21-11-31 7 7 12 18 14 27z"/>
        <path d="M71 14c0 6 6 3 9 5-4 3-9 1-13 3-11 0 0-8 4-8z" class="cls-15"/>
        <path fill="#a991b2" d="M52 24c-3-1-2-4-2-6 3 2 7 0 8 5-1 1-4 2-6 1z"/>
        <path fill="#6c5676" d="M62 21l14-2c-1 4-27 8-14 2z"/>
        <path fill="#c1b5c8" d="M58 24c4-1 31-9 23-1-8-2-14 3-21 3-4 0-5 6-1 6 3 1 4 4 0 5-8 0-13 7-20 8l-6-7c2-5 9-5 13-9 5-1 8-6 12-5z"/>
        <path fill="#8e7a94" d="M37 34c-5 4-9 19-16 15-1-3 13-15 16-15z"/>
        <path fill="#846d8c" d="M58 24c-1 0-7 4-6 0 2-1 6-3 6 0z"/>
        <path fill="#d1c1d7" d="M26 42c-4 6-6 12-6 18l-3 9c-6 11 4 21 3 32-1 7 8 13 12 18 2 2 0 4-2 4-4-1-5-5-10-6a78 78 0 01-7-71c5 1 8-2 13-4z"/>
        <path fill="#cdc6d2" d="M135 74l-2 6c2 9-4 17-6 26l-10 13c-8 4-13 13-22 14-4-4-15 7-25-2 1-4 3-4 6-3 9 3 14-6 23-6 4 1 5-1 4-5 4-8 15-13 18-22 1-2 1-5 3-4 6-5 0-27 11-17z"/>
        <path fill="#79637d" d="M124 91c-2 6-5 12-10 17-4-5 4-8 5-13 2-4 0-12 5-15 2 4 1 7 0 11z"/>
        <path fill="#675970" d="M81 32c-2 2-14 5-12-1 4 0 8-1 12 1z"/>
        <path fill="#88788e" d="M69 31c0 5-8 5-10 1z"/>
        <path fill="#53425f" d="M83 21l-1-2c2 1 5 1 7 3-2 1-4-1-6-1z"/>
        <path d="M91 23l1 1c-2 2-4 3-6 0z" class="cls-9"/>
        <path d="M124 80a114 114 0 01-4 17c-4 1-6 7-6 11l-10 8c-18 16-58 3-33 0 10 3 20-1 29-6 3-1 3-3 3-6 15-18 12-45-10-56-8-4-18-7-5-13 22 3 36 24 36 45z" class="cls-48"/>
        <path fill="#d3cdd9" d="M104 104c1 5-1 9-7 10-7 5-15 7-23 5-20 1-36-15-44-32-1-1-2-2-1-3 1-5-1-9-1-14 8-10-1-13 13-22 3-2 3-4 4-7 11-10 29-10 43-6-2 12-35 5-44 26-13 21 6 47 28 50 12 3 22-4 32-7z"/>
        <path fill="#d9cde1" d="M32 122c-5-2-25-29-7-19 3 9 13 13 17 21-5 7-7 0-10-2z"/>
        <path fill="#52335f" d="M88 135l3 1c-6 2-35 0-34-6 3-2 5 0 8 0 6 2 12 5 20 4a4 4 0 013 1z"/>
        <path fill="#53385e" d="M57 130v2c-5-3-10-3-14-8 5-3 11 2 14 6z"/>
        <path fill="#553b60" d="M44 124c-3 0-7-1-7-5 4-1 6 1 7 5z"/>
        <path fill="#b7a5c0" d="M44 124c-2-5-8-3-10-8-4-4-10-10-8-16 7-1 4 8 9 9a5 5 0 012 2c0 6 8 5 12 9 6 5 19 4 21 10 14 6 9 0 18 3 2 0 4-4 7-2s6-4 10-2c-18 13-43 3-61-5z"/>
        <path d="M127 105c-1-1-2-3-1-4 4-4 3-10 6-14 1-4-3-9 3-12 0 11-1 22-8 30zM106 128c0-5 7-10 11-9-2 5-5 8-11 9zM118 119c0-3 6-12 9-13-2 6-6 10-9 13z" class="cls-55"/>
        <path d="M29 102c-8-4-12-16-9-25 1-4 4-10 0-15-1-4 3-8 2-13 5-5 10-13 18-10 1 2-3 4-1 6 5-6 9-1 6 3-4 3-6 7-12 8-2 6-5 12-6 19-3 8 7 21 2 27z" class="cls-56"/>
        <path fill="#6a5a73" d="M45 42c-4 2-6 5-9 8 0-3 6-10 9-9a2 2 0 000 1z"/>
        <path fill="#b9acc1" d="M22 49c4 5 1 8-1 12 8 12-7 18 4 35a15 15 0 011 5c-4 6-4-3-7-5-2-2 0-5-2-7-2-3-2-7-2-10 1-2 2-4 1-7-1-2 0-10 2-12a25 25 0 014-11z"/>
        <path fill="#a694b1" d="M20 96c6 0 1 7 6 5 1 2 3 5 2 7-3 0-3-2-4-4-5 0-6-5-4-8z"/>
        <path fill="#a592ac" d="M17 62c5 9-3 6 1 11 2 3 1 5-2 5-2-3-1-7 0-10 0-2-2-5 1-6z"/>
        <path fill="#7e6589" d="M16 68v10c-1 4 2 7 0 10-2-7-4-13 0-20z"/>
        <path fill="#84708d" d="M20 51c1 3 0 6-1 10-3-4 0-7 1-10z"/>
        <path fill="#907b9b" d="M20 96l-1 4-2-11c3 1 1 5 3 7z"/>
        <path fill="#d3cbd9" d="M29 102c1-5-4-9-2-13 12 12 14 23 33 30 15 9 30 2 44-2 5 3 0 6 0 8-1 3-3 0-5 0-8-2-12 9-23 5h-6c-4-1-8-3-13-3-2 1-3-3-5-4a47 47 0 01-11-6c-3-1-4-5-7-7s-3-6-5-8z"/>
        <path fill="#7c6a81" d="M104 117c-12 5-26 11-39 5 2-3 4-1 5 0 11 2 20-2 30-5 1-1 4-3 4 0z"/>
        <path d="M95 131c-2 1-4 3-7 2 2-2 3-6 7-2z" class="cls-55"/>
        <path fill="#6f5b75" d="M104 116l7-6c-1 4-4 5-7 6z"/>
        <path fill="#b6a4bd" d="M115 103c0-5 2-8 5-6z"/>
        <path fill="#a191a7" d="M70 122c-16 1-30-10-37-25-4-1-13-26-5-22 2 20 17 36 35 44 2 2 6-1 7 3z"/>
        <path fill="#7c6682" d="M104 104c-2 5-36 14-32 7 12-2 26-3 33-14 12-18 5 2-1 7z"/>
        <path fill="#5c4963" d="M83 42c14 2 32 19 30 32-2 0-3-2-4-3-3-13-13-20-24-25-2 0-5-4-2-4z"/>
        <path fill="#7d6e85" d="M83 42c-1 3-20 7-21 2 7-2 14-4 21-3a6 6 0 000 1z"/>
        <path fill="#6d5777" d="M112 73l1-2a34 34 0 01-1 20c-3-3-4-15 0-18z"/>
        <path fill="#c1b1c8" d="M50 102c-3-6-10-9-11-16 2-8-4-23 6-26 3 14-1 30 13 40 20 15 3 11-8 2z"/>
        <path fill="#b8aac0" d="M38 101c-5-4-17-28-9-31l2 13c-2 5 11 15 7 18z"/>
        <path d="M38 101c9 5 17 12 25 18-5-1-26-13-25-18z" class="cls-48"/>
        <path fill="#bcacc1" d="M29 63c4-18 9 3 0 7a6 6 0 010-7z"/>
        <path fill="#b0a0b7" d="M45 60h-3c4-7 8-11 15-14 2 4-9 13-12 14z"/>
        <path fill="#8b7e93" d="M50 102c6 2 11 7 17 8a4 4 0 015 0c0 7-20-3-22-8z"/>
        <path fill="#685173" d="M41 67c-3 6 2 13-2 19 0-4-4-19 2-19z"/>
        <path fill="#8b7691" d="M41 67l-3 1c1-3 2-10 6-8-2 2-2 5-3 7z"/>
        <path fill="#897992" d="M41 92c5 0 6 5 8 8-4-1-5-6-8-8z"/>
        <path fill="#74687c" d="M56 48c-1-2 5-3 6-4 3 4-1 7-6 4z"/>
        <path fill="#74617f" d="M24 104c3 4 8 8 10 12-5-3-9-6-10-12z"/>
        <path d="M35 111c4 0 4 4 6 6-4 0-5-3-6-6zM29 102c3 2 4 5 5 8-4 1-4-5-5-8z" class="cls-56"/>
        <path fill="#8e8094" d="M29 63c0 4 0 8-2 12l-1-1c2-3-1-8 3-11z"/>
        <path fill="#c2b4c9" d="M73 112c5-10 26-4 33-22 12-15 4 25-33 22z"/>
        <path d="M111 88c-2-1-3 0-3 2-5 15-22 18-36 21-11-3-23-14-26-25-2-9-5-23 2-30 6-3 9 1 6 6-1 1-2 2 0 2 5-1 7-8 13-9 7 0 8 2 5 8-6 15-10 21 8 29 3 1 7 2 6 7-3 5-13 3-17 2 12 6 23-5 29-14 8-19-3-31-23-34-7 1-6-6 0-5 22-11 42 18 36 40z" class="cls-85"/>
        <path fill="#d6cdde" d="M55 66c-3 2-7 2-5-3 4-6 4-6-2-7 3-1 4-7 7-3a17 17 0 01-2-2c6-5 22-11 30-7 0 4-1 7-6 6-8-2-18 10-22 16z"/>
        <path d="M70 63c3-6 3-6-3-7 0-5 10-2 13-2 18 4 29 25 15 39-3 2-6 6-10 7 0-5-4-5-7-7 26-7 14-33-8-30z" class="cls-87"/>
        <path d="M71 89c-8-4-11-12-2-22 6-8 15-2 19 4 11 13-3 27-17 18z" class="cls-88"/>
        <path fill="#aca0b3" d="M71 66l-2 1c0-2-1-4 1-4 13-11 35 19 19 27 3-10 4-18-7-24-4-2-7-3-11 0z"/>
        <path d="M58 60c8-18 47-4 44 14-1 1-1 0-2-1-4-12-16-19-28-19-4-2-13 9-14 6z" class="cls-87"/>
        <path fill="#afa4b6" d="M53 71c0 9 4 17 8 24-8-7-9-11-8-24z"/>
        <path fill="#86798f" d="M80 54c10 2 25 15 21 25-2-13-10-19-21-24v-1z"/>
        <path d="M85 100c4-2 6-6 10-7-3 5-13 13-18 9 3-1 6 0 8-2z" class="cls-92"/>
        <path fill="#8f8399" d="M77 102c-3 5-10-2-13-4 4 1 9 4 13 4z"/>
        <path fill="#897991" d="M71 89c5 0 8 4 13 1l3 1c-6 4-11 1-16-2z"/>
        <path fill="#6d5476" d="M59 60c3-3 7-7 13-6-1 3-4 1-5 2-1 2-13 11-8 4z"/>
        <path fill="#6f5b74" d="M101 79l1-2c1 9-6 18-1 2z"/>
        <path d="M99 87c3 2-2 5-4 6 0-3 2-4 4-6z" class="cls-92"/>
        <path fill="#8a7e93" d="M58 62l1 1c-1 1-4 6-4 3 1-1-1-4 3-4z"/>
        <path d="M53 51c2 1 5 0 5 2-1 4-5 1-5-2zM58 62l-3 4c-1-3-1-6 3-6v2zM70 51c-2 3-4 2-6 2 1-3 4-1 6-2z" class="cls-85"/>
        <path fill="#725d79" d="M87 91l-3-1c15-7 0-29-13-24 9-12 31 15 16 25z"/>
        <path fill="#6c5b75" d="M80 54v1c-3 0-6 1-8-1 3-2 5 1 8 0z"/>
        <path fill="#806d89" d="M76 88c-14-9 0-25 4-15-2 3 0 11-6 7 0 3 5 5 2 8z"/>
        <path fill="#7e6d89" d="M76 88a13 13 0 014-8c6-12 9 15-4 8z"/>
        <path fill="#928199" d="M84 78c-6-2-4-4-7-8 6-1 6 4 7 8z"/>
        <path d="M78 83c3 10-10-2-5-10 2 3 0 6 3 7 2 0 3 1 2 3z" class="cls-88"/>
        <path fill="#584560" d="M79 73c3 2 4 5 3 8a3 3 0 01-4-2c-4-4-4-4 1-6z"/>
        <path fill="#685670" d="M78 79l4 2c-2 3-5 2-6-1z"/>

</svg>
