<svg xmlns="http://www.w3.org/2000/svg" viewBox="0 0 150.11 149.34"><defs><style>.cls-1{fill:#171f47;}.cls-2{fill:#282f53;}.cls-3{fill:#2f456c;}.cls-4{fill:#304a71;}.cls-5{fill:#2d3a61;}.cls-6{fill:#30577c;}.cls-7{fill:#2a3458;}.cls-8{fill:#2f4e71;}.cls-9{fill:#c0cbcf;}.cls-10{fill:#171e34;}.cls-11{fill:#b2bfc5;}.cls-12{fill:#abb6bd;}.cls-13{fill:#93a2ad;}.cls-14{fill:#8094a5;}.cls-15{fill:#94a5b2;}.cls-16{fill:#7f91a0;}.cls-17{fill:#778898;}.cls-18{fill:#8fa3b0;}.cls-19{fill:#7f93a2;}.cls-20{fill:#a8c1cd;}.cls-21{fill:#9cb0bb;}.cls-22{fill:#aac3d2;}.cls-23{fill:#a2b3bf;}.cls-24{fill:#688499;}.cls-25{fill:#b9c4c8;}.cls-26{fill:#c9d4d7;}.cls-27{fill:#a9b9c2;}.cls-28{fill:#53626d;}.cls-29{fill:#3d4f5f;}.cls-30{fill:#9aa7ab;}.cls-31{fill:#495865;}.cls-32{fill:#97a4ae;}.cls-33{fill:#c3cfd6;}.cls-34{fill:#506170;}.cls-35{fill:#77828b;}.cls-36{fill:#99a4aa;}.cls-37{fill:#94a8b7;}.cls-38{fill:#586c79;}.cls-39{fill:#b7c4ca;}.cls-40{fill:#7c8b98;}.cls-41{fill:#708290;}.cls-42{fill:#c3d1da;}.cls-43{fill:#c7d0d3;}.cls-44{fill:#657180;}.cls-45{fill:#5b6b72;}.cls-46{fill:#7a8791;}.cls-47{fill:#435761;}.cls-48{fill:#bfc9cb;}.cls-49{fill:#ced9da;}.cls-50{fill:#cfdde3;}.cls-51{fill:#354f62;}.cls-52{fill:#395061;}.cls-53{fill:#3d5262;}.cls-54{fill:#a7b9c4;}.cls-55{fill:#b3c0c7;}.cls-56{fill:#c0ccd0;}.cls-57{fill:#5c6e76;}.cls-58{fill:#aebcc3;}.cls-59{fill:#97abb5;}.cls-60{fill:#94a4b0;}.cls-61{fill:#677d8d;}.cls-62{fill:#728591;}.cls-63{fill:#7e93a0;}.cls-64{fill:#ccd8db;}.cls-65{fill:#6c7884;}.cls-66{fill:#5d6a77;}.cls-67{fill:#a6b5c0;}.cls-68{fill:#93a0aa;}.cls-69{fill:#687786;}.cls-70{fill:#4a5865;}.cls-71{fill:#707f87;}.cls-72{fill:#596d7a;}.cls-73{fill:#b3c2cb;}.cls-74{fill:#acbac2;}.cls-75{fill:#aeb8c3;}.cls-76{fill:#a3b2bb;}.cls-77{fill:#808e95;}.cls-78{fill:#536976;}.cls-79{fill:#798795;}.cls-80{fill:#7b8d96;}.cls-81{fill:#6a797f;}.cls-82{fill:#637883;}.cls-83{fill:#828f97;}.cls-84{fill:#b6c4cc;}.cls-85{fill:#cdd7d8;}.cls-86{fill:#cfdde0;}.cls-87{fill:#bfcccf;}.cls-88{fill:#98a8b3;}.cls-89{fill:#a2afb6;}.cls-90{fill:#a6b2b8;}.cls-91{fill:#7b8b92;}.cls-92{fill:#788490;}.cls-93{fill:#85979c;}.cls-94{fill:#7b8c95;}.cls-95{fill:#566979;}.cls-96{fill:#5c6876;}.cls-97{fill:#808f95;}.cls-98{fill:#5f6f7c;}.cls-99{fill:#5d6f78;}.cls-100{fill:#6f828d;}.cls-101{fill:#6f838c;}.cls-102{fill:#84939c;}.cls-103{fill:#465662;}.cls-104{fill:#576773;}</style></defs><g id="レイヤー_2" data-name="レイヤー 2"><g id="レイヤー_1-2" data-name="レイヤー 1"><g id="アートワーク_8" data-name="アートワーク 8"><path class="cls-1" d="M88.62.76c56.62,18.46,81.6,75.09,41.11,125.4-7.29.92,2-9.7,3.57-12.15a60.43,60.43,0,0,0,7.88-18.09c4.08-27.86,11.66-6.24,2.41-40.76C138.65,37.61,117.21,13,97.76,15.8c-4.9.71-8.45-4.11-13.41-3.86-9.19-2.8-17.86,4.16-27,2.24C48.43,4.12,83.18,3.86,88.62.76Z"/><path class="cls-2" d="M88.62.76c-4.07,6.06-37,4.44-30.7,12.44-.1,4.56-4.24,3.88-6.8,5.25C42.3,22.29,34.5,27.72,26.76,33.33.12,40.51,67.25-6.48,88.62.76Z"/><path class="cls-3" d="M92.87,147.59c-8.41,6.23-64.14-5.28-61.27-17.28,2.09-2.06,4.4-1,6,.28,8.67,7.09,19.35,9.3,29.64,12.37,4,1.2,8.46-.43,12.51,1.31C82.3,146,97.74,141.24,92.87,147.59Z"/><path class="cls-4" d="M7.45,106.55C2.86,94.27-3.47,78,2.31,65.55c1,.76,2.76.34,3.3,2a122.56,122.56,0,0,0,3.2,27.64C10.48,98.5,15.25,108,7.45,106.55Z"/><path class="cls-5" d="M4.76,66.62c-1.2.52-2.71,1.76-2.45-1.07-.16-14.72,7.81-25.06,18.37-34C24.49,35.5,19,37,17.92,40.62c-1.13,2.1-3.4,3.39-4.17,5.77C6.41,51.79,10.25,66.85,4.76,66.62Z"/><path class="cls-6" d="M7.45,106.55c3.19-3,5.39-2.7,6.82,1.4,3.09,5.9,9.44,9.78,11.23,16.15C19.11,131.76,8.81,112.2,7.45,106.55Z"/><path class="cls-7" d="M92.87,147.59c.87-3.57,2.09-5.22,5.58-5.63,6.32-2.39,12.4-5.19,17.3-10,3.78-1.58,8.12-9.28,12-7.63a2.23,2.23,0,0,0,2,1.84C119.75,136.58,107.7,145.83,92.87,147.59Z"/><path class="cls-8" d="M21.88,126.21c5-5.34,11.5,1.35,10.17,7.21C27.49,132.67,24.36,129.9,21.88,126.21Z"/><path class="cls-9" d="M93,13c10.17,1.33,19.08,4.39,25.86,12.27,2.24,5.22,11.87,13.8,1.3,16.07-.51.07-.63-.76-.44.4,1.12,6.63.48,7.31-5.66,6.7-5.15-3.25-9.57-7.6-15.16-10.19-2-1.26-4.59-1.79-5.14-4.62-.38-3.59.16-10.77,5.75-8.28-4.81-1.18-13.39-4-9.35-10.36C90.64,13.6,91.23,12.43,93,13Z"/><path class="cls-10" d="M117.45,26.33c-5.66-5.44-12.71-8.67-19.54-12.23,19.66-4.58,36,18.68,46,32.65,1.2,5.33,9.53,34.35,4.69,36.06-1.66.31-1.24-2.15-2.35-2.92-3.91-3.28-1.88-8.08-3.1-12C140.38,51.92,127.44,38.7,117.45,26.33Z"/><path class="cls-11" d="M124.58,127c-1.73,4.06-17.28,13.12-13.22,3.26,5.33-8.67,11.65-16.74,16.86-25.79,3.24-5.31,3.93-11.93,7.58-16.8,5.31.25,6.36,1.22,7.41,6.82.44,2.28-2.12,2.62-2.57,4.35C139.33,110.44,129.83,117.58,124.58,127Z"/><path class="cls-12" d="M143.21,94.52c-11.67-11.42-8.05-4.56-7.86-20.86-.32-7.41-8.68-16.31,5.39-14.22,2.84,1.53.94,5.9,4.27,7.15C147.34,75.83,146.28,85.6,143.21,94.52Z"/><path class="cls-13" d="M124.58,127c-1.38-9.23,10.78-11.7,10.87-20.42,0-1.07.3-1.55,1.42-1.53,7.55-1.71-5.77-9,6.13-8.76A62.21,62.21,0,0,1,124.58,127Z"/><path class="cls-14" d="M50.43,17.09C53.67,14.78,74.27,6.6,72.28,15c-2.47,2.72-7.11,2.56-8.66,6.51C60.26,25.07,52,21.23,50.43,17.09Z"/><path class="cls-15" d="M72.14,14.14c-.65-1-1.31-2-2-3C97.36,5.31,90.35,25,72.14,14.14Z"/><path class="cls-16" d="M87.52,15.24l-3-5.06A19.11,19.11,0,0,1,93,13a4,4,0,0,0-1.35,3.13C90.14,16.45,88.34,18.25,87.52,15.24Z"/><path class="cls-17" d="M83.56,10c-2.68,5.28-6.28-.11-12.55,1C75.12,9.71,79.25,8.71,83.56,10Z"/><path class="cls-18" d="M21.71,34.43C31,28.6,32,23.77,43.94,24.3c10.28-.68-1.5,13.81-8.6,10.87C31.71,33.51,18.2,42.84,21.71,34.43Z"/><path class="cls-19" d="M46.52,28.62c-1.18-.77,1.15-2.48-.75-3-1-.27-2.35-.26-2.75.74-3.53,8.18-3.72-.3-6.89-2a37.52,37.52,0,0,1,14.3-7.3C55.39,21.89,55.68,31.73,46.52,28.62Z"/><path class="cls-20" d="M32.19,130.28c-3.55-4.27-12.31-8.2-12-13.89,5-2.36,15.63,14.38,28.62,16.63,8.83,3.55,17.88,6.48,27.43,7.77,2.78.37,7.33,0,7,5.24C64.72,146.66,47.82,138.52,32.19,130.28Z"/><path class="cls-21" d="M79.35,145.83c5.15.92,5.21-5.49,10.13-5.16,11.18-1,13.38-7.87,27.92-7.35C106.73,141.67,93,147.86,79.35,145.83Z"/><path class="cls-22" d="M19.69,117C5.11,102.85,1.9,79.31,6.26,60.56c.63-5,2.36-15,7.93-15.34,1.63,2.3.8,4.63-.11,6.83A61.19,61.19,0,0,0,9.71,77.49c1,11.91,3.48,24.16,10.51,34C21.23,113.49,21.41,115.31,19.69,117Z"/><path class="cls-23" d="M13.66,45.05l-.92-.1c.57-3.67,5.46-7.33,9.09-7.14,3.26-5.09,8.57-3.74,13.29-4.21C37.73,37.73,15.76,52.36,13.66,45.05Z"/><path class="cls-24" d="M21.83,37.81c-1.2,2.09-3.26,2-5.26,2a9.32,9.32,0,0,1,5.14-5.43Z"/><path class="cls-25" d="M141,60.4c-13.65,3.57-7.79-1.57-12.93-7.52,1.58,6.32,9.63,14.78,7.06,22.1-4.49-.17-6,2.25-5.77,6.41,0,2.9-1.18,11.81-5.56,9.54-.36-14.68,1.57-24.28-7.59-37.91-1.1-1.8-2.84-3.47-2-6,4.86,1.13,5.88-2,3.56-5.94-.94-2-3.69-2.93-4-5.61,3.8-.88,5.22,6.79,8.38,4,4.23-4.66-4-8.53-4.74-13.16C126.61,33.38,141.68,48.67,141,60.4Z"/><path class="cls-26" d="M96.83,25.65c-1.76,2.43-.21,5.65-1.92,8.09-4.75,1-9.39-.15-14-.78-6.81-3.9-23.78,5.4-25.19-4.06,1.48-8.25,13.66-4,19.12-8.65,2.7-.88,5.58,1.94,8.32-.08,2.16-.61,4,.87,5.12,2.55C90.81,24.91,95.24,21,96.83,25.65Z"/><path class="cls-27" d="M86.58,24.4c-.26-1.12-2.14-3.52.06-3.51-4.15-.67-19.17,1.24-14.5-6.75,6.2.5,13.07,1.1,19.51,1.94-3.37,4.27,2.09,4,4.2,7.16-1.23,1.62-3.28-.5-4.53,1C89.76,25.2,88.19,25.54,86.58,24.4Z"/><path class="cls-28" d="M114.25,47.06c8.09,11,13.3,22.8,11.18,36.85-1.9.26-2.05-1.38-2.71-2.47-1.32-11.62-4.06-22.68-12.17-31.71C90.05,34.24,99.29,32.85,114.25,47.06Z"/><path class="cls-29" d="M99.89,36.84c-3.55,4.08-8-.12-11.79-.56-3.15-.87-7.14.3-9-3.68C80,28.83,97.55,33.9,99.89,36.84Z"/><path class="cls-30" d="M98.89,24.45A7.78,7.78,0,0,1,105,28.92C102.76,27.75,98,26.56,98.89,24.45Z"/><path class="cls-31" d="M98.89,24.45v1.07C90,25.41,89.14,20.16,98.89,24.45Z"/><path class="cls-32" d="M141,60.4l0-4.18c2.48,3,3.1,6.73,3.95,10.37C140.61,66.5,141,63.31,141,60.4Z"/><path class="cls-33" d="M112.26,134.36c-17.48,8.81-26.45,12.87-45.84,6.91-11.58-3.79-30-7.5-36.44-18.17,2.79-5.58,6.91,3.86,11.41,0,28.44,13.8,48.2,18.34,76.25.05C119,127.71,110.37,129.12,112.26,134.36Z"/><path class="cls-34" d="M117.64,123.12c-8,6.58-19.82,15.89-30.32,11.88.61-2.58,2.79-1.89,4.52-2.22,9.4-1.57,18.31-7.37,24.92-14.18,6.77-6.73,10.87-15.77,14.45-24.48.66-1.66.66-3.71,2.93-4.23C138.36,95.16,122.09,118.1,117.64,123.12Z"/><path class="cls-35" d="M135,92.32c-3.18-5.5-2.41-14.77,1.88-19.4A61.08,61.08,0,0,1,135,92.32Z"/><path class="cls-36" d="M136.83,72.92C135.06,75,136.84,78,135,80c-1.55-.92-1.59-2.32-1.24-3.85,3.48-8.45-7.24-21.73-10.29-30.33C130.7,52.76,135.06,63.25,136.83,72.92Z"/><path class="cls-15" d="M72.13,14.14c-.78,5.93,5.56,2.82,8.57,5.24-3.65,2.29-8.94.83-13.25,2.18C56.66,21.6,67.22,14,72.13,14.14Z"/><path class="cls-37" d="M52.72,23.58c-3-1.28-1.93-3.84-1.89-6.07,2.32,2.16,7,.45,8,4.83C57.48,23.94,54.79,25,52.72,23.58Z"/><path class="cls-38" d="M62.87,20.31c4.58-.4,9.11-1.45,13.74-1,.25,2.2-19.49,7.27-17.77,3.11l-.06-.09Z"/><path class="cls-39" d="M58.83,23.37c2.88-.7,31.66-8.3,22.6-.65-7.37-1.85-13.71,3.2-20.81,3a3.35,3.35,0,0,0-3.41,2.55c-1.26,4,4.72,2.55,5.07,5.89a2.64,2.64,0,0,1-2.56,2.18c-5.39-.22-9.12,3.47-13.53,5.52-10.34,5.34-5.46,2-12.37-3.9,1.38-5.47,9.1-5.43,12.7-9.33C51.34,27.89,54.28,23,58.83,23.37Z"/><path class="cls-40" d="M37.35,33.71c-3.73,3.13-10.47,19.56-16.22,14.53C19.82,46,35.56,32.55,37.35,33.71Z"/><path class="cls-41" d="M58.83,23.37c-1.63.58-7.3,4.36-6.11.21C54.3,23.16,58.63,20.42,58.83,23.37Z"/><path class="cls-42" d="M25.85,41.91c-5.67,5.9-4.28,14.21-7.47,20.93-1.46,1.54-.58,3.74-1.52,5.43-5.54,11,4.27,21.39,3.11,32.53-2.73,7.21,19.54,19.85,10,22.3-4.05-1-5.8-5.66-10-6.46C7,92.81,3.17,71,13.66,45.05,18.39,46.6,21.81,43.07,25.85,41.91Z"/><path class="cls-43" d="M134.8,74.79c0,1.75-1.88,3.41-1.31,5.24.79,15.29-8.14,27.94-16.23,39.86-8.36,3.31-13.14,12.53-22.75,13-3.38-3.7-15,7.72-24.8-2.17.72-3.22,3.23-3.24,5.61-2.78,9,3.33,14.72-5.4,23.07-5.23,4.53.77,5.18-1.8,4.8-5.36,3.8-8.08,14.47-12.78,17.58-22.14.92-1.57.82-4.27,3.75-4C129.73,86.86,124.55,64,134.8,74.79Z"/><path class="cls-44" d="M124.52,91.2c-3,6.09-5.42,12.5-10.58,17.26-4.35-4.74,4.17-8.11,4.72-12.74,1.93-4.43,1-13.09,5.72-15C126.06,84.07,124.86,87.63,124.52,91.2Z"/><path class="cls-45" d="M81.65,31.47c-4.07,2.58-8.1,3.74-12.55,1.63C67.23,28.57,79.05,30.55,81.65,31.47Z"/><path class="cls-46" d="M69.19,30.84c.34,5.49-7.71,4.69-9.28.82Z"/><path class="cls-47" d="M83.49,21.39c-.58-.56-1.2-1.11-1-2.05,2.41,1,5.26.58,7.58,2.32C87.82,22.84,85.78,21.08,83.49,21.39Z"/><path class="cls-9" d="M91.72,23.43l1.38.81c-2.14,1.43-4.28,3-6.52.16Z"/><path class="cls-48" d="M124.38,80.69a113.93,113.93,0,0,1-4.14,16.56c-2.95,1.13-4.08,3.63-4.83,6.41-.27,1.67-2.22,2.82-1.47,4.8-3.66,2.1-6.12,5.6-10,7.47l.08,0c-20.06,16.23-57.53,2.5-33.79.39,7.47,3.33,33.44-2.16,32.33-11.85,15.46-18.64,12.57-44.81-9.44-56.77-7.28-3.67-17.24-7.2-4.56-12.87C110.75,38.43,123.89,59.28,124.38,80.69Z"/><path class="cls-49" d="M104,104.27c.81,5.41-.92,8.9-6.86,9.61-12.36,9.79-21.79,3.32-34.83,5.08-15.36-6.81-28-20-33.65-35.51,1.72-4.61-.76-9-.53-13.49,8.56-11.06-2-12.5,13.63-22,7.15-17.69,30.82-17.79,46.87-13.14-1.79,12.37-35,4.58-44.89,25.38-12.81,21,6,47.82,28.22,51C83.77,113.71,93.58,107.31,104,104.27Z"/><path class="cls-50" d="M32.08,122c-4.91-2.72-25.2-30.29-7.5-19.08,3.6,8.64,12.9,13,16.76,21.16C36.66,130.51,34.86,124.08,32.08,122Z"/><path class="cls-51" d="M87.37,135.21l3.28,1.06c-5,2-36.2-.79-33.6-6.67,9.19-1.63,17.37,6.54,27.08,4.3A4.39,4.39,0,0,1,87.37,135.21Z"/><path class="cls-52" d="M56.85,130c0,.66-.07,1.33-.1,2-4.65-2.83-10.48-3.5-14.29-7.87C47.19,121.15,53.67,126.14,56.85,130Z"/><path class="cls-53" d="M43.54,124c-2.42.17-7.31-1.65-7.26-5C40.72,118.05,42.75,119.45,43.54,124Z"/><path class="cls-54" d="M43.54,124c-1.73-5-8.3-3.45-10-8-3.29-1.86-14-18.83-4.31-15.81,3.25,2.07,1.06,7.31,5.58,8.57,2.93,1.85,1.28,7,6.14,6.67,8.53,3.26,15.5,9.79,24.87,11.07,2,.38,3.87,1.39,4.3,3.79,14.35,6.39,8.69-.89,17.47,3,2.46-.46,4.1-3.89,7.21-2,3,2.15,5.29-3.53,9.54-1.93C86.17,142.06,61.72,132,43.54,124Z"/><path class="cls-55" d="M126.75,105.78c-.75-1.56-1.77-3.37-.38-4.79,3.76-3.85,3.13-9.43,5.75-13.7,1.24-3.89-2.46-9,2.71-11.5C134.94,86.13,134.29,97.85,126.75,105.78Z"/><path class="cls-55" d="M106.15,128.33c-.33-5.34,6.34-10.41,11.11-8.44C114.8,124.33,111.46,127.62,106.15,128.33Z"/><path class="cls-55" d="M117.31,119.83c0-3.65,6.09-12.43,9.15-13.19C125.27,112.33,121.21,116,117.31,119.83Z"/><path class="cls-56" d="M29,101.51c-20.42-14-1.59-30.4-8.89-39.61-.87-4,3.48-8.27,2.63-13,4.94-5.53,9.43-13.55,17.82-10.53.74,2.21-2.58,3.37-1.17,5.58C40,47,42.2,40.35,45,41.72c5.5,4.45-7,13.43-11.59,13.57C18.33,86.78,34.19,86.4,29,101.51Z"/><path class="cls-57" d="M45,41.72c-3.41,1.87-5.51,5.15-8.56,8.33-.58-2.83,6.17-11,8.84-9A1.84,1.84,0,0,0,45,41.72Z"/><path class="cls-58" d="M22.73,48.94c3.91,5,.18,7.08-1.21,11.44,7.76,14.94-7.47,12.69,4.42,40.06-3.85,5.64-4.35-3.3-7.22-4.69-1.4-2.16.07-5.16-2.08-7.1-1.41-2.88-1.36-7-1.88-10.44,1.47-1.95,2.8-3.3,1.36-6.53-.68-2,.16-10.76,2.58-11.74a25.53,25.53,0,0,1,3.13-11.87Z"/><path class="cls-59" d="M19.78,95.3c6.39.31.61,7.26,6.12,5.26,1.28,2.28,2.41,4.59,1.93,7.34-2.69-.22-3.18-2.51-4.13-4.37C19.2,103.73,17.69,98.37,19.78,95.3Z"/><path class="cls-60" d="M17.13,61.45c.7,2.78,3.7,5.42.07,8.42-.69,2.13,6.06,7.35-1.47,8-2.07-3.5-1.15-7-.1-10.55C16,65.34,14.57,62.9,17.13,61.45Z"/><path class="cls-61" d="M15.63,67.36c0,3.52.07,7,.1,10.55-.64,3.13,2.39,6.3-.13,9.4C14,80.65,11.62,74,15.63,67.36Z"/><path class="cls-62" d="M20.74,50c.53,3.57-.93,6.73-2,10C16.68,56.06,19,53.08,20.74,50Z"/><path class="cls-63" d="M19.78,95.3c0,1.39.25,2.86-.93,4-1.48-3.39-1.66-7.05-2.21-10.64C19.68,89.93,17.88,93.49,19.78,95.3Z"/><path class="cls-64" d="M29,101.51c1.35-4.85-4.14-9.09-2.06-13.36,3.82,1.83,5.32,5.55,7.18,8.93C40,107.66,49,114.6,59.83,119.36c15.83,8.41,29.27,1.58,44.42-2.4,4.08,3.14-.18,6-.79,8.63-.57,2.48-2.95-.11-4.47-.71-8.68-1.74-11.37,9.4-23,5.3-2-.41-3.95-1.18-5.89.11-4.31-1.25-8.3-3.44-13.14-3-2.3.21-3.18-3.23-5.53-4.17a35.39,35.39,0,0,1-17.31-13.37c-3.32-1.76-2.9-5.83-5.13-8.25Z"/><path class="cls-65" d="M104.25,117c-12.15,4.88-26.56,11.12-39.45,5.2,1.66-3.36,3.56-1,5.4-.23,10.47,1.95,20.06-1.33,29.58-5C101.05,116.41,104.15,114.33,104.25,117Z"/><path class="cls-55" d="M94.78,131.3c-2.29,1.07-4.46,2.6-7.21,2C89.61,131.33,91,126.87,94.78,131.3Z"/><path class="cls-66" d="M104,115.93c1.51-2.61,4.15-3.81,6.6-5.25C109.85,114.27,106.93,115.11,104,115.93Z"/><path class="cls-67" d="M115.41,103.66c-.45-5.77,1.24-8,4.83-6.41Z"/><path class="cls-68" d="M70.2,121.93c-20.7,2-48.9-27.57-44.42-48.3a3.35,3.35,0,0,1,3.28,3.14C29.4,99.6,52.22,114.44,70.2,121.93Z"/><path class="cls-69" d="M104,104.27c-9.7,7.56-20.7,10.11-32.79,8.46,2-5.58,26.56-.43,34.26-15.89C116.73,79.36,110.2,99.35,104,104.27Z"/><path class="cls-70" d="M83.53,41.87c13.53,2.5,32.19,19.26,29.25,32.15-1.88-.14-2.68-1.6-3.1-3C106,58.22,96.36,51.22,85.1,45.82,83.15,45.81,80.24,41.67,83.53,41.87Z"/><path class="cls-71" d="M83.53,41.87c-1.22,3.33-20.39,7.2-20.68,2.06,6.68-2.21,13.37-4.36,20.56-2.81Q83.46,41.5,83.53,41.87Z"/><path class="cls-72" d="M112.35,73.72c.36-.77.73-1.54,1.1-2.32a33.82,33.82,0,0,1-1.28,19.78C109.14,88.75,108.64,75.78,112.35,73.72Z"/><path class="cls-73" d="M50.13,101.47C47,96,39.88,92.48,39.41,85.81c1.09-6.24-1.39-12.51,0-18.76,1.9-2.3,2.15-8.77,6.27-7.85,3,22.56-2.56,30.58,19.3,46.15,1.41,1.12,3.16,2.3,2.07,4.64C60.08,110.13,55.38,105.11,50.13,101.47Z"/><path class="cls-74" d="M38.18,100.48c-6.86-8.23-14.28-20-10.25-30.87,3.37,1.33,2.44,8.85,2.61,12.66C28.74,86.94,41.91,99.08,38.18,100.48Z"/><path class="cls-48" d="M38.18,100.48c8.43,4.88,16.28,12.8,24.76,18.37C58.52,118.47,36,104.61,38.18,100.48Z"/><path class="cls-75" d="M29,62.62c1.27-2.57-.11-6.74,4.43-7.33,2.55,3.46-.07,12.49-4.21,14.54A6.14,6.14,0,0,1,29,62.62Z"/><path class="cls-76" d="M45.38,59.31c-1.06-.18-2,.93-3,.07,3.41-6.45,8.38-11.11,15.47-13.29C59.54,48.94,48.08,59.29,45.38,59.31Z"/><path class="cls-77" d="M50.13,101.47c5.85,2.3,10.33,7.42,16.92,8.19a3.76,3.76,0,0,1,5.08.47C73.17,117,51.44,106.16,50.13,101.47Z"/><path class="cls-78" d="M40.77,66.47C37.72,72.73,42.62,80,39.41,85.81,39,81.89,34.93,66.26,40.77,66.47Z"/><path class="cls-79" d="M40.77,66.47,38.29,67.6c1.28-2.53,2.34-9.63,6.16-8.22C42.38,61.31,42.46,64.35,40.77,66.47Z"/><path class="cls-80" d="M41.1,91.22c4.67.83,5.36,5.45,7.91,8.3C44.48,98.55,43.82,93.91,41.1,91.22Z"/><path class="cls-81" d="M56.79,48.23c-1.16-2.41,4.52-3.2,6.06-4.3.39.4.78.81,1.16,1.22C62.45,49.67,61.39,50.12,56.79,48.23Z"/><path class="cls-82" d="M23.7,103.53c3.48,4,7.57,7.63,9.82,12.47C29.15,112.71,24.68,109.5,23.7,103.53Z"/><path class="cls-56" d="M35.15,110.77c4,.11,3.69,3.85,5.16,6.09C36.23,116.83,35.51,114,35.15,110.77Z"/><path class="cls-56" d="M29,101.51c2.62,2.18,4,5.13,5.13,8.25C29.48,110.89,30.2,104.29,29,101.51Z"/><path class="cls-83" d="M29,62.62c.19,4.28-.07,8.33-2,12.24l-1.22-1.23C27.78,70.23,25.36,65.55,29,62.62Z"/><path class="cls-84" d="M72.33,111.62c4.64-9.14,26.15-3,33.36-21.62C117.5,75.69,110.2,114.75,72.33,111.62Z"/><path class="cls-85" d="M111.27,88.17c-2-.89-2.83.24-3.29,1.93-4.8,15.2-22.22,18.05-35.93,20.72-11.15-3.2-23-13.68-26.44-25.06-1.48-9.09-4.6-23,3-30.24,2,0,4-2.73,5.84,0C56,57.75,55.35,60,53.74,62c-.65.83-1.22,1.79.5,2.12,5.06-1.63,6.95-8.52,13-9.29,6.62.37,7.73,2.23,4.54,7.62-6.07,15.28-9.7,21.6,8.12,29.45,3.07,1.55,7.13,2.27,5.94,7.28-2.19,4.56-13.4,3.26-17.1,1.62C95.79,110.39,117.23,63.5,83,55.16c-4-2.14-9.7-.52-12.95-4,.78-6.43,10-1.7,13.5-7.39C103.45,48.79,116.62,67.84,111.27,88.17Z"/><path class="cls-86" d="M54.79,65.62C51.9,68.05,48,67.56,50.28,63c3.62-6,3.62-6-1.69-7.51,2.26-1,3.73-6.65,6.41-3.12-.5-.39-.93-.86-1.4-1.29,2.6-4.22,7.66-2.2,10.41-6A62.84,62.84,0,0,1,82.55,42.7c2.66,3.58.35,9-5.29,6.75C69.76,48.17,58.69,59.76,54.79,65.62Z"/><path class="cls-87" d="M70.12,62.42c2.71-5.43,2.7-5.46-3-6.11.12-5.31,10.19-2.57,13.45-2.07,17.29,3.82,28.67,25.34,14.17,39.08l.07-.06c-3.27,2.36-5.73,6-10.24,6.41.71-4.84-3.61-4.82-6.24-6.44,2.83-2.42,6.74-2.43,9.75-4.63C101.67,78.52,83.69,58.64,70.12,62.42Z"/><path class="cls-88" d="M70.85,89.33c-7.39-4.65-10.36-12.5-2-22.92C75.55,59.29,83.87,65,88.4,70.86,99.25,84.31,84.82,98,70.85,89.33Z"/><path class="cls-89" d="M71.08,66l-2.27.4c.62-1.27-1-3.28,1.31-4C83.68,52.06,105,82.11,88.66,90.22c3.06-10.49,4.1-17.69-6.43-24.14C78.66,63.68,74.81,62.66,71.08,66Z"/><path class="cls-87" d="M58.68,59.35c7.69-17.69,46.44-3,43.36,15.25-1.19.81-1.36-.12-1.61-.93C96.74,61.15,84.69,53.56,72.11,54.26l.12,0C66.67,54,63.12,57.88,59,60.65A.91.91,0,0,1,58.68,59.35Z"/><path class="cls-90" d="M53.24,70.67c-.59,9.15,3.8,16.83,7.57,24.69C53.14,87.73,51.85,83.58,53.24,70.67Z"/><path class="cls-91" d="M80.39,54.24c10.06,1.28,25,15,20.34,24.86-1.36-12.56-9.38-19.4-20.36-23.71C79.68,55,79.69,54.61,80.39,54.24Z"/><path class="cls-92" d="M84.59,99.67c4-1.22,6-5.51,10.24-6.41-3.33,5-12.71,12.81-17.47,8.35C79.68,100.64,82.56,101.75,84.59,99.67Z"/><path class="cls-93" d="M77.36,101.61c0,.33,0,.67,0,1-5.89,2.3-9.51-2-13.72-4.74C68.21,99.11,72.38,101.86,77.36,101.61Z"/><path class="cls-94" d="M70.85,89.33c4.65-1,7.27,4,13.63.85.53.77,1.75.19,2.2,1.13C81.32,95.14,75.76,92.27,70.85,89.33Z"/><path class="cls-95" d="M58.76,60.25c3.87-3.38,7.32-7.72,13.47-6-1,2.37-3.74.58-5.09,2.1C65.87,57.61,53.68,66.64,58.76,60.25Z"/><path class="cls-96" d="M100.73,79.1c.39-.73.78-1.46,1.18-2.19C103.46,85.86,96.05,95.77,100.73,79.1Z"/><path class="cls-92" d="M98.76,87l1.13,1.13a8.68,8.68,0,0,1-5.13,5.2C95,90.54,97.39,89.08,98.76,87Z"/><path class="cls-97" d="M57.83,61.51l1.05,1c-.84,1.05-3.56,6.59-4.09,3.07h0C55.86,64.3,54.66,61.27,57.83,61.51Z"/><path class="cls-85" d="M53.6,51.11c1.66.32,4.35-.74,4.7,1.74C57.26,56.53,53.09,54.29,53.6,51.11Z"/><path class="cls-85" d="M57.83,61.51,54.76,65.6c-.08-2.95-.51-6.12,3.92-6.25C59,60.25,58.33,60.83,57.83,61.51Z"/><path class="cls-85" d="M70.12,51.18c-1.36,2.84-4.16,1.28-6.2,2C65.2,50.1,68,51.56,70.12,51.18Z"/><path class="cls-98" d="M86.68,91.31c-.74-.37-1.47-.75-2.2-1.13,14.7-7.31-.11-29-13.4-24.18C79.29,54.27,102.64,80.31,86.68,91.31Z"/><path class="cls-99" d="M80.39,54.24c0,.38,0,.77,0,1.15-2.79-.11-5.62.06-8.26-1.13C74.86,51.94,77.63,54.54,80.39,54.24Z"/><path class="cls-100" d="M76.24,88.31C61.6,77.75,76.52,63.08,80,72.74c-1.4,3.36-.41,10.8-6.35,6.88C74.42,82.65,79.22,85.35,76.24,88.31Z"/><path class="cls-101" d="M76.24,88.31a13.52,13.52,0,0,1,4.15-8.73C85.94,67.69,89.41,95,76.24,88.31Z"/><path class="cls-102" d="M84.48,77.89c-7-2-3.7-3.38-7.2-8.19C83,69.5,83.3,74.09,84.48,77.89Z"/><path class="cls-88" d="M78.37,83c2.75,10.29-10.49-1.43-5.35-10.1,1.68,2.61.52,5.8,3.19,7.09C77.89,80.28,79,81,78.37,83Z"/><path class="cls-103" d="M79.33,72.79c2.31,2.44,3.77,4.8,3.16,8.26a3,3,0,0,1-4-2.16C74.16,75.17,74.16,75.17,79.33,72.79Z"/><path class="cls-104" d="M78.47,78.89c1.86-.23,2.88,1.07,4,2.16-1.94,3.4-5,1.8-6.28-1.08Z"/></g></g></g></svg>