<svg xmlns="http://www.w3.org/2000/svg" viewBox="0 0 150.16 148.36"><defs><style>.cls-1{fill:#433417;}.cls-2{fill:#4f4021;}.cls-3{fill:#654e2b;}.cls-4{fill:#69502d;}.cls-5{fill:#5d4a2a;}.cls-6{fill:#71522c;}.cls-7{fill:#544527;}.cls-8{fill:#694e2c;}.cls-9{fill:#cbc4bd;}.cls-10{fill:#312514;}.cls-11{fill:#c0b6ae;}.cls-12{fill:#b8b0a8;}.cls-13{fill:#a79b8e;}.cls-14{fill:#9c8c7a;}.cls-15{fill:#ab9d8f;}.cls-16{fill:#988979;}.cls-17{fill:#908272;}.cls-18{fill:#a89889;}.cls-19{fill:#9a8a79;}.cls-20{fill:#c2b1a2;}.cls-21{fill:#b2a396;}.cls-22{fill:#c7b4a3;}.cls-23{fill:#b7aa9d;}.cls-24{fill:#8f7962;}.cls-25{fill:#c4bdb6;}.cls-26{fill:#d3ccc6;}.cls-27{fill:#bcafa4;}.cls-28{fill:#695d50;}.cls-29{fill:#5b4b3b;}.cls-30{fill:#a89e96;}.cls-31{fill:#615446;}.cls-32{fill:#a89e92;}.cls-33{fill:#d1c8bf;}.cls-34{fill:#6b5c4d;}.cls-35{fill:#877d74;}.cls-36{fill:#a69e95;}.cls-37{fill:#ad9e8e;}.cls-38{fill:#736455;}.cls-39{fill:#c5bcb3;}.cls-40{fill:#918678;}.cls-41{fill:#897b6c;}.cls-42{fill:#d4c9be;}.cls-43{fill:#d0cac4;}.cls-44{fill:#7b7061;}.cls-45{fill:#6e6258;}.cls-46{fill:#8b8177;}.cls-47{fill:#5c4d41;}.cls-48{fill:#cac1bc;}.cls-49{fill:#d7d1cb;}.cls-50{fill:#ded4cb;}.cls-51{fill:#5d4831;}.cls-52{fill:#5c4a37;}.cls-53{fill:#5e4c3a;}.cls-54{fill:#bcafa2;}.cls-55{fill:#c2b7ae;}.cls-56{fill:#ccc5bd;}.cls-57{fill:#716559;}.cls-58{fill:#beb2a9;}.cls-59{fill:#ad9e91;}.cls-60{fill:#a99c8f;}.cls-61{fill:#867564;}.cls-62{fill:#8a7c6e;}.cls-63{fill:#978778;}.cls-64{fill:#d7d0c9;}.cls-65{fill:#7e7468;}.cls-66{fill:#73675a;}.cls-67{fill:#baaea1;}.cls-68{fill:#a49a8e;}.cls-69{fill:#7f7365;}.cls-70{fill:#615548;}.cls-71{fill:#83786d;}.cls-72{fill:#746556;}.cls-73{fill:#c5b9ae;}.cls-74{fill:#bdb1a7;}.cls-75{fill:#beb5aa;}.cls-76{fill:#b4a89d;}.cls-77{fill:#91867d;}.cls-78{fill:#706050;}.cls-79{fill:#8f8274;}.cls-80{fill:#908377;}.cls-81{fill:#7a7067;}.cls-82{fill:#7c6d5f;}.cls-83{fill:#93887f;}.cls-84{fill:#c6bbb1;}.cls-85{fill:#d4cfca;}.cls-86{fill:#dcd3cb;}.cls-87{fill:#cbc3bc;}.cls-88{fill:#aca093;}.cls-89{fill:#b0a79e;}.cls-90{fill:#b3aaa2;}.cls-91{fill:#8c8178;}.cls-92{fill:#8a8074;}.cls-93{fill:#978b81;}.cls-94{fill:#8f8378;}.cls-95{fill:#736453;}.cls-96{fill:#72675a;}.cls-97{fill:#766a5b;}.cls-98{fill:#73665a;}.cls-99{fill:#86796c;}.cls-100{fill:#86786c;}.cls-101{fill:#968b7f;}.cls-102{fill:#5e5144;}.cls-103{fill:#6e6155;}</style></defs><g id="レイヤー_2" data-name="レイヤー 2"><g id="レイヤー_1-2" data-name="レイヤー 1"><g id="アートワーク_4" data-name="アートワーク 4"><path class="cls-1" d="M88.52.1c43,12.59,78.73,60.58,52.32,106.36-2.51,4.34-10.13,25-14.15,17.47,4.52-9.78,12.4-17.78,14.32-28.78,1.11-5.28,1.48-10.94,4.2-15.8,7.22-1.29-1.88-19.73-1.79-24.91-4.85-17.39-26.2-42.15-45.78-39.32-4.89.71-8.43-4.1-13.39-3.85-9.19-2.8-17.84,4.16-27,2.24C48,3.76,83.31,3,88.52.1Z"/><path class="cls-2" d="M88.52.1C85,6.15,51.46,4.4,57.85,12.53c-.1,4.55-4.23,3.88-6.79,5.24C46.29,20.14,41.5,22.45,37,25.24S27,35,21.57,33.62C28.52,15.91,67.45-1.51,88.52.1Z"/><path class="cls-3" d="M92.76,146.76c-12.1,5.33-59.58-3.2-61.2-17.25,2.09-2.06,4.4-1,6,.27,8.66,7.09,19.33,9.3,29.6,12.37,4,1.18,8.46-.44,12.5,1.3C82,145,98,140.63,92.76,146.76Z"/><path class="cls-4" d="M7.43,105.77C3.11,95.26-3.56,75.09,2.3,64.82c1,.76,2.76.34,3.3,2A121.29,121.29,0,0,0,8.8,94.38C10.47,97.73,15.23,107.25,7.43,105.77Z"/><path class="cls-5" d="M4.75,65.89c-1.2.52-2.71,1.76-2.45-1.07-.16-14.71,7.8-25,18.35-34,4.54,3.49-5.69,10.76-6.92,14.82C6,52.13,10.22,66.53,4.75,65.89Z"/><path class="cls-6" d="M7.43,105.77c5.88-6.92,8.06,6.12,13.23,9.61.87,3.08,5,4.2,4.81,7.93C19.9,131.44,8.32,111,7.43,105.77Z"/><path class="cls-7" d="M92.76,146.76c1.18-7.73,17-7.6,22.86-15.62,5.18-2.71,9.2-11.46,14-5.78C119.61,135.77,107.57,145,92.76,146.76Z"/><path class="cls-8" d="M21.86,125.41c5-5.33,11.48,1.35,10.15,7.2C27.45,131.86,24.33,129.1,21.86,125.41Z"/><path class="cls-9" d="M92.89,12.28c10.16,1.33,19,4.38,25.83,12.25,3.23,6.85,11.56,13.15.86,16.46,1.12,6.62.48,7.3-5.65,6.69-5.15-3.25-9.56-7.59-15.15-10.18-2-1.26-4.58-1.79-5.13-4.62-.39-3.58.16-10.76,5.74-8.26-4.8-1.19-13.37-4-9.34-10.36C90.53,12.93,91.12,11.76,92.89,12.28Z"/><path class="cls-10" d="M117.31,25.65c-5.65-5.44-12.69-8.66-19.52-12.22,21.52-4,46.76,25.06,48.62,45.25.9,5.08,6.52,20.21,2,23.38-1.66.31-1.25-2.15-2.35-2.91-3.91-3.28-1.88-8.08-3.1-12C140.86,52.36,126.72,37.1,117.31,25.65Z"/><path class="cls-11" d="M124.43,126.23a19.57,19.57,0,0,1-12.12,7.83c-6.26-2.81,4.07-8.35,3.71-12.59,8.87-10.12,14.07-22.62,19.62-34.53,6.91-.74,9.54,7,4.83,11.16C139.16,109.66,129.68,116.79,124.43,126.23Z"/><path class="cls-12" d="M143,93.75c-12.09-12.13-7.9-3.56-7.85-20.83-.6-7.24-8-16.6,5.39-14.21C147.94,68.32,147.06,82.28,143,93.75Z"/><path class="cls-13" d="M124.43,126.23c-1.37-9.22,10.77-11.69,10.86-20.4,0-1.07.3-1.55,1.41-1.53,7.62-1.65-5.83-8.89,6.13-8.75A62.16,62.16,0,0,1,124.43,126.23Z"/><path class="cls-14" d="M50.37,16.42c6-4,12.75-5,19.72-5.91,8.21,4.31-5.62,5.94-6.55,10.28C60.69,24.45,51.43,20.35,50.37,16.42Z"/><path class="cls-15" d="M72.05,13.47l-2-3C96.45,4.5,91,24.26,72.05,13.47Z"/><path class="cls-16" d="M87.41,14.56l-3-5.05a19.2,19.2,0,0,1,8.48,2.77,4,4,0,0,0-1.35,3.13C90,15.77,88.23,17.57,87.41,14.56Z"/><path class="cls-17" d="M83.46,9.33c-3,5.37-5,0-12.54,1C75,9.05,79.15,8,83.46,9.33Z"/><path class="cls-18" d="M21.68,33.74c9.45-5.66,9.38-10.51,22.2-10.12,9.27-1.44.54,13.35-8.59,10.85C31.8,32.85,17.88,42.11,21.68,33.74Z"/><path class="cls-19" d="M46.47,27.93c-1.19-.77,1.14-2.48-.76-3-1-.27-2.34-.26-2.75.73-3.52,8.17-3.71-.3-6.88-2a37.39,37.39,0,0,1,14.29-7.29C55.44,20.69,55.06,31.4,46.47,27.93Z"/><path class="cls-20" d="M32.15,129.48C27.92,125.17,22,122,19.66,116.19c4.12-4.83,15.63,13.68,29.11,16A114.47,114.47,0,0,0,76.17,140c2.78.38,7.32,0,7,5.23C64.63,145.84,47.75,137.69,32.15,129.48Z"/><path class="cls-21" d="M79.26,145c5.14.92,5.2-5.48,10.12-5.16,8.55.44,14.09-8.54,22.75-6.3,1.51-1.32,3.35-1,5.13-1C106.61,140.86,92.92,147,79.26,145Z"/><path class="cls-22" d="M19.66,116.19C5,102.06,1.94,78.14,6.25,59.84,6.64,55.32,9,44.25,14.17,44.52c1.63,2.29.79,4.62-.11,6.82A60.86,60.86,0,0,0,9.7,76.75c.27,9.41,3.35,18.32,6.17,27.19C17.06,107.61,23.74,112,19.66,116.19Z"/><path class="cls-23" d="M13.64,44.34c-.31,0-.61-.06-.91-.09.19-3.32,5.86-7.59,9.07-7.14,3.26-5.08,8.56-3.74,13.28-4.2a2.39,2.39,0,0,1-.88,3.5C30,39.52,18.14,51.2,13.64,44.34Z"/><path class="cls-24" d="M21.8,37.11c-1.2,2.09-3.26,2-5.25,2a9.26,9.26,0,0,1,5.13-5.42Z"/><path class="cls-25" d="M140.86,59.68c-14.56,3.7-7.64-2.44-12.91-7.52,1.42,5.72,9.85,15.71,7,22.08-8.71-.54-4,9.41-7.57,14.15-3.6,6.46-5.56-1.61-3.79-5.25,1.47-11.26-1.76-21.35-7.54-30.84-1.09-1.8-2.83-3.47-2-5.95,5.08,1,5.81-1.75,3.56-5.93-.94-2-3.68-2.93-4-5.61,3.69-.89,5.43,6.87,8.38,4,4.22-4.66-4-8.52-4.74-13.14C125.28,31.11,142.69,50,140.86,59.68Z"/><path class="cls-26" d="M96.71,25C95,27.39,96.5,30.6,94.8,33.05c-8.64,1.54-16.94-2.58-25.6-1.54-4.33.31-13.3,3.62-13.6-3.3,1.48-8.24,13.65-4,19.1-8.64,1.06-.6,2.32-.17,3.43.33,3.66,1.24,7.5-2.66,10,2.13C90.42,24.33,94.83,20.15,96.71,25Z"/><path class="cls-27" d="M86.47,23.72c-.25-1.12-2.13-3.52.06-3.51-4-.58-19.41,1-14.48-6.74,6.21.51,13,1.1,19.49,1.94-3.35,4.4,2,3.88,4.19,7.15-1.22,1.61-3.28-.5-4.52,1C89.66,24.52,88.09,24.85,86.47,23.72Z"/><path class="cls-28" d="M114.11,46.35c8.08,10.95,13.29,22.77,11.17,36.81-1.89.25-2-1.38-2.7-2.47C121.25,69.09,118.52,58,110.42,49c-1.52-3.63-16.26-9.45-10.65-12.88C105.23,38.58,109.81,42.27,114.11,46.35Z"/><path class="cls-29" d="M99.77,36.14c-3.54,4.08-8-.12-11.77-.56-3.15-.87-7.13.3-9-3.67C81.62,28.27,96.36,32.91,99.77,36.14Z"/><path class="cls-30" d="M98.77,23.76a7.82,7.82,0,0,1,6.08,4.47C102.79,27.19,97.64,25.68,98.77,23.76Z"/><path class="cls-31" d="M98.77,23.76v1.08a10.75,10.75,0,0,1-7.17-2.1C92.81,20.78,97,23.36,98.77,23.76Z"/><path class="cls-32" d="M140.86,59.68c0-1.4,0-2.79,0-4.18,2.47,3,3.09,6.73,3.94,10.35C140.44,65.77,140.87,62.58,140.86,59.68Z"/><path class="cls-33" d="M112.13,133.55c-24.75,14.8-40.28,10-65.92.23-3.1-1.33-22.49-10-14.21-13.28,33.06,9.88,51.45,24.57,85.5,1.82C119.18,126.29,110.13,128.68,112.13,133.55Z"/><path class="cls-34" d="M117.5,122.32c-8,6.57-19.8,15.87-30.29,11.86.58-3.73,9.51-.51,18.2-8,16.21-6.31,20.21-24.86,28.57-37.05C138.19,94.39,122,117.31,117.5,122.32Z"/><path class="cls-35" d="M134.79,91.56c-3.21-5.89-2.45-14.43,1.88-19.38A61.28,61.28,0,0,1,134.79,91.56Z"/><path class="cls-36" d="M136.67,72.18c-1.77,2.06,0,5.06-1.86,7.1a3.19,3.19,0,0,1-.17-5.23c-.71-10.41-7.27-19.46-11.34-28.92C130.55,52,134.9,62.52,136.67,72.18Z"/><path class="cls-15" d="M72.05,13.47c-.78,5.92,5.55,2.81,8.55,5.23-1.15,1.54-2.75,1.22-4.31,1-4.37-.33-9.79,3.14-13.49-.08C62.36,15.56,69.06,14.1,72.05,13.47Z"/><path class="cls-37" d="M52.66,22.9c-3-1.28-1.94-3.84-1.89-6.07,2.31,2.16,7,.45,7.94,4.83C57.41,23.26,54.72,24.3,52.66,22.9Z"/><path class="cls-38" d="M62.8,19.63c4.57-.4,9.09-1.45,13.72-1,.58,2.09-20,7.34-17.81,3Z"/><path class="cls-39" d="M58.76,22.69c3.27-.64,31-8.43,22.57-.66-7.36-1.84-13.69,3.2-20.78,3-3.89-.18-5,5.72-.72,5.94,3,1.14,3.14,4.22-.18,4.67-7.92.09-13.14,6.89-20.46,8.35-2.23-1.9-2.58-5.31-5.41-6.74,1.36-5.11,14.92-9.77,20-12.3C54.82,22.85,56.54,22.22,58.76,22.69Z"/><path class="cls-40" d="M37.3,33c-5.19,5.4-6.74,13.15-14.54,15.89-6.89-3.46,10.62-12,12.32-16Z"/><path class="cls-41" d="M58.76,22.69c-8.82,5.49-7.83-2.3,0-.94A7.35,7.35,0,0,0,58.76,22.69Z"/><path class="cls-42" d="M25.81,41.2c-6,7.57-5.56,17.71-9,26.34-5.53,11,4.25,21.36,3.1,32.49-3.73,5.83,19.42,19.62,10,22.27-4.06-1-5.8-5.65-10-6.45C7.35,93.94,3.21,68.28,13.64,44.34,18.37,45.89,21.78,42.37,25.81,41.2Z"/><path class="cls-43" d="M134.64,74.05c-1.36,16.53-6.87,31.84-17.52,45.05-8.35,3.3-13.13,12.52-22.72,13-3-2.68-5.07.35-7.47,1.29-6.14.13-12.6,2-17.3-3.46.72-3.21,3.22-3.23,5.6-2.78,9.9,3.27,14.46-5.48,23-5.21,6.26,1.14,4.08-3.88,5.21-7.46,6.41-6,13.47-11.83,17.14-20,.91-1.57.82-4.28,3.75-4C129.58,86.2,124.41,63.09,134.64,74.05Z"/><path class="cls-44" d="M124.38,90.44c-3,6.08-5.42,12.49-10.58,17.24C109.46,103,118,99.58,118.52,95c1.55-3.69,1.64-14.33,5.72-15C125.91,83.31,124.71,86.87,124.38,90.44Z"/><path class="cls-45" d="M81.55,30.77c-2.87,2.48-13.8,5.07-12.44-.62C73.29,29.73,77.47,29.17,81.55,30.77Z"/><path class="cls-46" d="M69.11,30.15c.34,5.46-7.7,4.7-9.28.82Z"/><path class="cls-47" d="M83.39,20.71c-.57-.56-1.2-1.11-1-2.05,2.41,1,5.26.58,7.57,2.32C87.72,22.16,85.68,20.4,83.39,20.71Z"/><path class="cls-9" d="M91.61,22.74l1.37.82c-2.13,1.42-4.26,3-6.51.16Z"/><path class="cls-48" d="M124.24,79.94a116.3,116.3,0,0,1-4.14,16.54c-3.66,1.34-6,7.68-6.29,11.2-3.66,2.09-6.12,5.59-9.94,7.46l.08,0c-11.66,7.59-29.45,12.15-41.34,3.62,5.21-9.15,15.39,5,37-9C121,79.48,115.41,57.34,82.36,40.6c1.12-8.72,11-6.57,16.31-3.44C115.68,46.35,123.41,61.08,124.24,79.94Z"/><path class="cls-49" d="M103.86,103.49c.8,5.41-.93,8.89-6.86,9.6-10.53,9.2-22.73,3.61-34.79,5.07C42.63,109.43,26.84,91,28.07,69.22c8.3-10.77-1.55-13,13.62-22C47.6,30.06,73.61,29.28,88.51,34.1c.34,3.81-4,3.77-5.2,6.32C6.17,46.68,42.45,135,103.86,103.49Z"/><path class="cls-50" d="M32,121.25c-4.93-2.77-25.06-30-7.49-19.07,3.59,8.64,12.9,13,16.73,21.15C36.61,129.7,34.82,123.28,32,121.25Z"/><path class="cls-51" d="M87.27,134.4l3.27,1.06c-11.78,2.39-22.82-1-33.86-4.32-2.28-8.3,21.91,5.22,27.34,2A4.45,4.45,0,0,1,87.27,134.4Z"/><path class="cls-52" d="M56.78,129.14c0,.67-.07,1.33-.1,2-4.64-2.83-10.47-3.51-14.27-7.87C47.13,120.35,53.6,125.34,56.78,129.14Z"/><path class="cls-53" d="M43.48,123.24c-2.68,0-7-1.41-7.25-5C40.67,117.26,42.7,118.66,43.48,123.24Z"/><path class="cls-54" d="M43.48,123.24c-1.72-5-8.29-3.44-10-8-4.34-2-14-21.82-3.23-14.74,1.76,2.35.58,6.45,4.5,7.51,2.93,1.85,1.28,7,6.14,6.66,8.52,3.26,15.48,9.78,24.84,11,2,.39,3.86,1.4,4.29,3.8,13.82,6.27,8.82-.78,17.46,3,2.45-.45,4.09-3.88,7.19-2,2.77,2.27,5-3.44,9.53-1.93C86.07,141.24,61.64,131.23,43.48,123.24Z"/><path class="cls-55" d="M126.6,105c-.75-1.56-1.77-3.37-.38-4.79,3.76-3.85,3.12-9.43,5.74-13.68,1.24-3.9-2.46-9,2.71-11.49C134.79,85.38,134.14,97.08,126.6,105Z"/><path class="cls-55" d="M106,127.53c-.34-5.34,6.32-10.4,11.09-8.43C114.66,123.54,111.32,126.82,106,127.53Z"/><path class="cls-55" d="M117.17,119c0-3.65,6.09-12.42,9.14-13.18C125.13,111.54,121.06,115.23,117.17,119Z"/><path class="cls-56" d="M29,100.74c-20.64-15.26-1.71-28-8.88-39.57a2.63,2.63,0,0,1,.05-2.94c2.63-8.7,5.41-16,13.63-21.3,13.11.93,2.93,1.71,6,7.24,4.7-6.41,8.92-1.53,5.37,2.63-3.63,3-6.32,7.55-11.8,7.77C18.73,83.74,33.74,86.15,29,100.74Z"/><path class="cls-57" d="M44.94,41c-3.4,1.87-5.5,5.15-8.55,8.33-.51-2.9,6.09-11,8.83-9A2,2,0,0,0,44.94,41Z"/><path class="cls-58" d="M22.7,48.23c4.05,5.85.12,6.67-1.21,11.42,8.07,12-7.4,16.21,3.29,35.12a14.69,14.69,0,0,1,1.13,4.9c-3.85,5.63-4.34-3.3-7.22-4.69-1.22-2.81-.29-6.17-3.11-8.43,1-3.15-1.22-6-.84-9.09,1.47-1.94,2.79-3.3,1.36-6.52-.83-1.08.45-11.71,2.58-11.73A25.32,25.32,0,0,1,21.8,47.36Z"/><path class="cls-59" d="M19.75,94.53c6.62.52.44,7.24,6.11,5.26,1.28,2.27,2.42,4.59,1.93,7.33-2.68-.22-3.17-2.51-4.12-4.36C19.17,103,17.67,97.6,19.75,94.53Z"/><path class="cls-60" d="M17.1,60.72c.7,2.78,3.7,5.42.08,8.42-1.16,1.34,6.29,7.38-1.47,8-2.07-3.5-1.16-7-.1-10.55C15.93,64.61,14.55,62.17,17.1,60.72Z"/><path class="cls-61" d="M15.61,66.62c0,3.52.06,7,.1,10.55-.65,3.12,2.39,6.29-.13,9.38C13.93,79.91,11.6,73.26,15.61,66.62Z"/><path class="cls-62" d="M20.71,49.26c.53,3.56-.93,6.72-2,10C16.66,55.34,19,52.36,20.71,49.26Z"/><path class="cls-63" d="M19.75,94.53c0,1.4.26,2.87-.93,4-1.48-3.39-1.66-7-2.21-10.63C19.65,89.17,17.85,92.72,19.75,94.53Z"/><path class="cls-64" d="M29,100.74c1.31-4.75-4.29-9.88-2.06-13.35,3.82,1.83,5.31,5.54,7.18,8.92,15.32,26.54,44.42,31.05,70.05,19.86,4.08,3.13-.17,6-.78,8.62-.57,2.47-3-.11-4.47-.71-8.64-2-10.45,9.28-23,5.3-2-.41-3.94-1.19-5.89.1-4.3-1.25-8.29-3.43-13.12-3-2.3.22-3.18-3.22-5.52-4.15C41,118.68,33.39,110.28,29,100.73Z"/><path class="cls-65" d="M104.12,116.17c-12.13,4.88-26.52,11.11-39.4,5.2,1.65-3.37,3.56-1,5.39-.23,12.17,2.82,22.79-3.6,33.84-6Z"/><path class="cls-55" d="M94.66,130.49c-2.28,1.07-4.44,2.6-7.19,2C89.5,130.52,90.85,126.07,94.66,130.49Z"/><path class="cls-66" d="M103.87,115.14c1.51-2.6,4.14-3.8,6.59-5.24C109.72,113.49,106.81,114.32,103.87,115.14Z"/><path class="cls-67" d="M115.27,102.89c-.44-5.76,1.24-8,4.83-6.41Z"/><path class="cls-68" d="M70.11,121.14c-20,2.51-49.32-28.32-44.36-48.25A3.35,3.35,0,0,1,29,76c.23,19.61,17.88,33.89,33.91,42.11C64.79,120.4,68.75,117.67,70.11,121.14Z"/><path class="cls-69" d="M103.86,103.49c-9.69,7.56-20.68,10.1-32.75,8.46-.36-3.92,10.57-2.14,13.48-3.68,14.27-2.16,17.84-8.32,25.73-19.14C115,91.31,105.67,100.39,103.86,103.49Z"/><path class="cls-70" d="M83.43,41.17c13.51,2.49,32.16,19.23,29.21,32.11-1.87-.14-2.67-1.6-3.09-3C105.82,57.5,96.24,50.5,85,45.11,83.06,45.07,80.1,40.94,83.43,41.17Z"/><path class="cls-71" d="M83.43,41.17c-1.15.58-1.37,2.44-2.67,2.59-5.28-.3-14.87,5.3-18-.54,6.68-2.21,13.35-4.35,20.54-2.8Q83.36,40.8,83.43,41.17Z"/><path class="cls-72" d="M112.21,73l1.11-2.31A33.73,33.73,0,0,1,112,90.42C109.07,88.82,108.64,74.13,112.21,73Z"/><path class="cls-73" d="M50.07,100.7c-3.09-5.44-10.25-9-10.71-15.64,1-6.71-3.39-25.12,6.25-26.58,3.56,23.88-3.87,28.59,19.27,46.09C74.37,115.61,52.42,104.11,50.07,100.7Z"/><path class="cls-74" d="M38.14,99.71C31.28,91.5,23.86,79.76,27.89,68.88a1.07,1.07,0,0,1,1.27.22c3.42,22.7-1.27,9.76,10.11,30.6A.75.75,0,0,1,38.14,99.71Z"/><path class="cls-48" d="M38.14,99.71c8.42,4.87,16.25,12.78,24.73,18.35-7-2.24-13.33-5.6-18.48-11C42.72,104.35,36.42,103.64,38.14,99.71Z"/><path class="cls-75" d="M28.93,61.89c4.52-18.32,9.06,2.89.22,7.21A6.15,6.15,0,0,1,28.93,61.89Z"/><path class="cls-76" d="M45.33,58.59c-1.07-.19-2,.92-3,.07,3.41-6.45,8.36-11.1,15.45-13.28C59.24,48.59,48.27,58.24,45.33,58.59Z"/><path class="cls-77" d="M50.07,100.7c5.84,2.3,10.32,7.41,16.9,8.18,2.28-2.13,7.66.63,4.14,3.07C63.31,109.66,55.05,108.25,50.07,100.7Z"/><path class="cls-78" d="M40.72,65.74c-3,6.25,1.84,13.47-1.36,19.31C38.94,81.44,35,65.1,40.72,65.74Z"/><path class="cls-79" d="M40.72,65.74l-2.48,1.12c1.28-2.52,2.34-9.61,6.16-8.2C42.33,60.58,42.41,63.62,40.72,65.74Z"/><path class="cls-80" d="M41.05,90.46c4.67.83,5.35,5.44,7.89,8.29C44.43,97.78,43.76,93.15,41.05,90.46Z"/><path class="cls-81" d="M56.72,47.52c-1-2.56,4.41-3.1,6.05-4.3C65.43,46.91,60.89,50.27,56.72,47.52Z"/><path class="cls-82" d="M23.67,102.76c3.47,3.95,7.56,7.62,9.8,12.45C29.11,111.92,24.64,108.71,23.67,102.76Z"/><path class="cls-56" d="M35.11,110c4,.11,3.68,3.84,5.15,6.08C36.18,116,35.46,113.17,35.11,110Z"/><path class="cls-56" d="M29,100.73c2.62,2.19,4,5.13,5.12,8.24C29.45,110.1,30.16,103.52,29,100.73Z"/><path class="cls-83" d="M28.93,61.89c.2,4.27-.07,8.33-2,12.22-.41-.4-.82-.81-1.22-1.22C27.74,69.49,25.32,64.82,28.93,61.89Z"/><path class="cls-84" d="M72.25,110.84A5.89,5.89,0,0,1,72,110c10.86-8.75,25.32-2.8,33.6-20.8.94-2,2.45-5.16,5.58-1.83C106.71,105.79,88.92,111.27,72.25,110.84Z"/><path class="cls-85" d="M111.14,87.41c-2-.88-2.83.24-3.29,1.93-4.8,15.18-22.19,18-35.89,20.7-11.23-3.25-23-13.68-26.41-25-1.47-9.09-4.59-23,3-30.21,5.61-3.08,8.82,1.44,5.14,6.48-.65.83-1.21,1.79.51,2.12,5-1.63,6.94-8.51,12.94-9.28C79,53.72,69.8,64.58,68.4,70.63,58.17,90.17,89,88.73,85.7,98.42c-2.66,4.67-13,3.23-17.08,1.62,29.53,9.35,51.2-42.33,6.33-47.45-1.71-.41-3.87-.19-5-2.13.78-6.42,10-1.69,13.49-7.38C103.32,48.08,116.48,67.11,111.14,87.41Z"/><path class="cls-86" d="M54.72,64.88c-2.79,2.44-6.82,1.88-4.5-2.57,3.62-6,3.61-6-1.69-7.51,2.26-1,3.73-6.64,6.4-3.12a18.64,18.64,0,0,1-1.39-1.28c5.8-5.18,23-10.93,29.9-7.32,1,10.71-7.83,2.59-13.38,7.37-.92,2.13-4.17,1.15-5.15,3.5C61.05,57.3,57.28,60.76,54.72,64.88Z"/><path class="cls-87" d="M70,61.69c2.7-5.42,2.69-5.45-3-6.1,10.76-13.82,50.28,16.35,27.59,37l.06-.06c-3.26,2.36-5.71,6-10.22,6.4.71-4.84-3.61-4.82-6.23-6.44C103.43,86.44,91.48,59,70,61.69Z"/><path class="cls-88" d="M70.76,88.58c-7.38-4.65-10.34-12.49-2-22.91,6.74-7.1,15-1.44,19.58,4.45C98.85,84,85.4,97,70.76,88.58Z"/><path class="cls-89" d="M71,65.27l-2.27.4c.63-1.26-1-3.26,1.32-4C83.48,51.36,105,81.29,88.55,89.46c3-10.83,4.29-17.27-6.42-24.11C78.57,63,74.72,61.93,71,65.27Z"/><path class="cls-87" d="M58.6,58.62c8.42-17.56,45.79-3.35,43.32,15.24-1.19.81-1.36-.13-1.61-.93C96.62,60.42,84.59,52.84,72,53.54l.12,0c-5.55-.22-9.09,3.66-13.19,6.43A.92.92,0,0,1,58.6,58.62Z"/><path class="cls-90" d="M53.17,69.93C52.59,79.07,57,86.74,60.73,94.6,53.08,87,51.79,82.82,53.17,69.93Z"/><path class="cls-91" d="M80.29,53.52c10.92,2.06,24.27,13.79,20.32,24.83C99.25,65.81,91.24,59,80.27,54.67,79.59,54.28,79.59,53.9,80.29,53.52Z"/><path class="cls-92" d="M84.49,98.9c4-1.22,6-5.5,10.22-6.4-4.38,5.82-9.43,10.38-17.48,9.34C76.52,99.17,83.15,101.32,84.49,98.9Z"/><path class="cls-93" d="M77.27,100.84c0,.33,0,.66,0,1-5.89,2.29-9.5-2-13.7-4.74C68.12,98.35,72.29,101.08,77.27,100.84Z"/><path class="cls-94" d="M70.76,88.58c4.46-1.2,6.47,4.06,13.62.85.53.76,1.75.18,2.19,1.12C81.22,94.38,75.67,91.51,70.76,88.58Z"/><path class="cls-95" d="M58.69,59.53c3.87-3.39,7.31-7.72,13.45-6-1,2.37-3.73.58-5.08,2.1-2.16.79-8.47,8.48-9.68,5.36A1.65,1.65,0,0,1,58.69,59.53Z"/><path class="cls-96" d="M100.61,78.35l1.18-2.18C103.44,84.66,95.87,95.43,100.61,78.35Z"/><path class="cls-92" d="M98.64,86.23c2.79,2.17-1.85,5.38-4,6.33C94.92,89.78,97.28,88.32,98.64,86.23Z"/><path class="cls-77" d="M57.76,60.78l1.05,1c-.84,1-3.55,6.58-4.09,3.06h0C55.8,63.57,54.59,60.54,57.76,60.78Z"/><path class="cls-85" d="M53.54,50.4c10.31-.9.37,8.7,0,0Z"/><path class="cls-85" d="M57.76,60.78c-1,1.37-2,2.73-3.07,4.09-.08-3-.51-6.12,3.92-6.24C58.9,59.53,58.26,60.11,57.76,60.78Z"/><path class="cls-85" d="M70,50.47c-1.37,2.84-4.16,1.27-6.2,2C65.12,49.38,67.87,50.85,70,50.47Z"/><path class="cls-97" d="M86.57,90.55l-2.19-1.12C99,82.14,84.56,60.57,71,65.27,77.38,53.61,103.1,78,86.57,90.55Z"/><path class="cls-98" d="M80.29,53.52c0,.39,0,.77,0,1.15-2.78-.11-5.61.06-8.25-1.13C74.77,51.22,77.54,53.82,80.29,53.52Z"/><path class="cls-99" d="M76.14,87.55C62.07,77.94,75.66,62,79.88,72c-1.55,3.38-.14,10.78-6.35,6.87C74.33,81.89,79.12,84.6,76.14,87.55Z"/><path class="cls-100" d="M76.14,87.55a51.58,51.58,0,0,1,1.48-5.75c.75-1.12,2.07-1.71,2.67-3C85.78,67,89.45,94,76.14,87.55Z"/><path class="cls-101" d="M84.38,77.15C77,74.77,80.91,74,77.19,69,82.92,68.77,83.2,73.35,84.38,77.15Z"/><path class="cls-88" d="M78.28,82.23c2.56,10.52-10.5-2-5.34-10.09,1.67,2.6.51,5.79,3.17,7.08C77.8,79.54,78.94,80.24,78.28,82.23Z"/><path class="cls-102" d="M79.23,72.05c2.32,2.44,3.77,4.8,3.16,8.25a2.94,2.94,0,0,1-4-2.15C74.07,74.43,74.07,74.43,79.23,72.05Z"/><path class="cls-103" d="M78.38,78.15c1.85-.24,2.88,1.06,4,2.15-1.94,3.4-5,1.8-6.28-1.08Z"/></g></g></g></svg>