<svg xmlns="http://www.w3.org/2000/svg" width="438.979" height="641.167" viewBox="0 0 438.979 641.167">
  <g id="グループ_129" data-name="グループ 129" transform="translate(-938.488 -1160.393)">
    <g id="グループ_434" data-name="グループ 434">
      <path id="パス_780" data-name="パス 780" d="M2873.127,2461.186c-31.436-78.533-97.38-37.683-141.317,2.684,3.02-32.783,43.325-88.548-24.808-57.948-3.084,3.115-20.391,25.488-22.916,16.564-3.569-41.75-11.162-82.4-14.029-124.254-1.676-30.032-42.56-31.8-50.34-4.783-4.594,10.081,23.018-3.648,24.105,7.586,12.177,46.811,11.482,96.319,19.873,143.366-7.044,16.465-25.771,28.724-37.132,43.223-9.806,13.643-21.909,4.689-19.457,13.516,27.3,61.6,55.854-22.567,61.452,1.882,7.77,21.614-4.925,41.866-19.305,57.113-16.149,26.322-32.112,54.975-47.93,79.874-4.3,5.265-3.7,9.414,3.621,9.875,4.294.933,18.166,23.253,22.356,20.042,28.895,1.134,37.679-35.672,52.112-54.448,9.787,95.577,14.09,192.965,6.94,288.982-.094,7.437,9.974,8.926,15.24,11.077,43.234,1.863-15.219-306.1-1.054-356.523,10.063-27.539,102.739-143.5,126.98-110.942,16.313,45.142-24.187,68.186-55.371,89.277-3.6,2.889-18.85,3.36-13.78,10.558,5.651,46.994,65.632,35.375,92.946,7.984,11.006-11.879,20.009-24.085,25.2-38.842,14.917-9.158,48.521-7.756,54.148-26.468-13.4-39.664-60.531,21.25-57.534-29.394m-181.263,40.52c-1.156-10.079-8.535-41.3,5.517-39.268,3.845,11.888-.923,30.269-5.517,39.268m138.661,29.114c-4.706,6.452-11.875,7.791-18.848,9.576-3.384.877-6.744,1.787-10.109,2.74-2.246.62-4.467,1.314-6.7,1.979-.208-.46-.406-.932-.6-1.39a21.444,21.444,0,0,1,2.379-2.151c6.856-4.655,13.645-9.438,20.68-13.783,1.749-1.09,4.3-.942,6.5-1.071a25.485,25.485,0,0,1,5.287.449c.786.108,2.059.495,2.163.974a3.777,3.777,0,0,1-.747,2.676" transform="translate(-1606.668 -1113.983)" fill="#3f3b3a"/>
      <path id="パス_781" data-name="パス 781" d="M2812.948,2731.853c-121.03,0-219.489-101.827-219.489-226.993,0-125.183,98.459-227.012,219.489-227.012s219.489,101.829,219.489,227.012c0,125.166-98.457,226.993-219.489,226.993m0-441.261c-114.234,0-207.169,96.114-207.169,214.269,0,118.135,92.936,214.251,207.169,214.251s207.169-96.117,207.169-214.251c0-118.154-92.934-214.269-207.169-214.269" transform="translate(-1654.971 -1080.312)" fill="#3f3b3a"/>
      <path id="パス_795" data-name="パス 795" d="M2616.918,2314.861c0-1.041-.166-1.349-1.687-1.863a.565.565,0,0,1,.063-1.071,11.246,11.246,0,0,0,2.647-1.359,2.215,2.215,0,0,1,.869-.383c.3,0,.435.17.5.546a12.64,12.64,0,0,1,.164,2.4,24.482,24.482,0,0,1,2.753-2.052,5.046,5.046,0,0,1,2.793-.9c2.783,0,4.6,2.1,4.6,5.936v7.9c0,1.09.208,1.241,1.666,1.508,1.023.172.994,1.23-.1,1.23-1.067,0-1.955-.065-3.084-.065-.859,0-2.152.065-2.781.065-1.2,0-1.2-1.058-.177-1.23,1.768-.344,1.861-.686,1.89-1.787.044-.684.1-1.475.1-4.8v-2.3c0-2.538-1.229-4.186-3.754-4.186a5.28,5.28,0,0,0-3.746,2.1,1.17,1.17,0,0,0-.237.889v5.831a18.337,18.337,0,0,0,.1,2.751c.029.964.164,1.2,1.818,1.508.975.172.9,1.23-.154,1.23-.734,0-1.83-.065-3.02-.065-1.1,0-2.03.065-2.889.065-1.135,0-1.106-1.058-.1-1.23,1.489-.31,1.593-.544,1.655-1.551a23.483,23.483,0,0,0,.1-3.22Z" transform="translate(-1459.165 -766.655)" fill="#231916"/>
      <path id="パス_796" data-name="パス 796" d="M2624.458,2324.841a6.242,6.242,0,0,0,3.712-1.241c1.025-.652,1.323.323.5,1.168a8.505,8.505,0,0,1-5.8,2.375c-3.858,0-6.539-3.465-6.539-8.141a9.144,9.144,0,0,1,2.847-6.861,7.141,7.141,0,0,1,4.644-1.955,5.338,5.338,0,0,1,5.38,5.422.525.525,0,0,1,.372.514c0,.622-.664,1.071-1.273,1.241-1.325.376-3.011.75-9.354.75.064,4.568,2.29,6.728,5.517,6.728m-5.216-8.377a11.028,11.028,0,0,0,1.223.077,40.168,40.168,0,0,0,6.042-.312.382.382,0,0,0,.173-.374,3.926,3.926,0,0,0-3.96-3.949c-1.759,0-3.311,1.23-3.675,4.248,0,.2.033.28.2.31" transform="translate(-1441.266 -766.655)" fill="#231916"/>
      <path id="パス_797" data-name="パス 797" d="M2631.876,2312.974a6.271,6.271,0,0,1-1.832.279,7.853,7.853,0,0,1,.468,2.129,6.079,6.079,0,0,1-1.553,4.631,7.255,7.255,0,0,1-5.214,2.3h-.4a2.806,2.806,0,0,0-.828,1.445c0,.684.828.929,1.82,1.058.8.075,2.2.139,3.456.247,3.249.3,4.914,1.788,4.914,4.356a7.355,7.355,0,0,1-3.257,5.691,8.556,8.556,0,0,1-5.174,1.787c-4.479,0-6.476-2.955-6.476-5.147a2.2,2.2,0,0,1,.495-1.306,33.644,33.644,0,0,1,3.561-3.531,3.018,3.018,0,0,1-1.965-1.755,1.222,1.222,0,0,1-.064-.854c.468-.546,1.761-1.68,2.36-2.237a5.306,5.306,0,0,1-3.55-5.212,6.347,6.347,0,0,1,2.98-5.427,7.242,7.242,0,0,1,3.59-1.164,7.975,7.975,0,0,1,2.29.372,8.984,8.984,0,0,0,3.257.761,2.387,2.387,0,0,0,1.718-.964c.6-.579,1-.1.8.482a5.707,5.707,0,0,1-.8,1.553.985.985,0,0,1-.591.5m-8.834,14.221a24.725,24.725,0,0,0-1.926,2.052,2.862,2.862,0,0,0-.765,1.96c0,1.615,1.761,3.809,5.484,3.809a4.158,4.158,0,0,0,4.48-4.151c0-1.893-1.262-2.985-3.756-3.3-1.065-.106-1.791-.213-3.186-.342Zm5.018-10.649c0-2.736-1.3-4.631-3.756-4.631-2.225,0-3.155,1.508-3.155,4.151,0,2.17.963,4.569,3.756,4.569,2.025,0,3.155-1.305,3.155-4.089" transform="translate(-1427.498 -766.738)" fill="#231916"/>
      <path id="パス_798" data-name="パス 798" d="M2620.262,2334.285c-1.129,0-1.16-1.058-.094-1.262,1.416-.312,1.624-.587,1.624-2.033v-7.949a9.888,9.888,0,0,0-.064-1.551c-.029-.546-.144-.684-1.466-1.23-.591-.247-.622-1,.164-1.135a8.073,8.073,0,0,0,2.824-1.069,1.7,1.7,0,0,1,.828-.342c.341,0,.539.245.464.759a25.419,25.419,0,0,0-.266,4.385v7.96c0,1.617.144,1.893,1.664,2.2,1.025.172,1.025,1.262-.133,1.262-.83,0-1.624-.064-2.814-.064-.942,0-2.132.064-2.731.064m4.55-22.992a1.915,1.915,0,0,1-1.863,2.1,1.791,1.791,0,0,1-1.757-1.925,1.924,1.924,0,0,1,1.861-2.056,1.836,1.836,0,0,1,1.759,1.884" transform="translate(-1412.624 -774.182)" fill="#231916"/>
      <path id="パス_799" data-name="パス 799" d="M2632.449,2335.748a8.2,8.2,0,0,1-4.81,1.478,6.966,6.966,0,0,1-3.28-.824c-.268-.138-.963.28-1.335.31-.393.032-.464-.31-.393-.963.094-1.26.166-3.807.166-6.033v-13.247c0-2.888-.1-3.68-.237-3.884-.156-.278-.528-.48-1.687-.792-.869-.2-.9-1.026.063-1.166a16.412,16.412,0,0,0,3.454-1.166,1.916,1.916,0,0,1,.828-.31c.3,0,.424.277.364.716a8.889,8.889,0,0,0-.262,2.067v10.806c.892-.439,4.211-2.536,6-2.536,3.558,0,5.908,3.7,5.908,6.835a9.761,9.761,0,0,1-4.781,8.709m-2.855-13.213a5.471,5.471,0,0,0-4.012,1.583c-.229.2-.262.482-.262.921v6.078a11.33,11.33,0,0,0,.137,2.063c.06.516.031.75.287.955a5.293,5.293,0,0,0,3.456,1.164c3.084,0,5.172-2.331,5.172-6.784,0-3.71-1.789-5.979-4.779-5.979" transform="translate(-1404.876 -776.672)" fill="#231916"/>
      <path id="パス_800" data-name="パス 800" d="M2637.793,2317.879a9.216,9.216,0,0,1-1.955,6.141,8.82,8.82,0,0,1-6.672,3.282c-4.417,0-7.035-3.966-7.035-8.087a8.325,8.325,0,0,1,2.814-6.7,8.913,8.913,0,0,1,5.875-2.332c4.014,0,6.973,3.6,6.973,7.693m-8.4-5.938c-3.712,0-4.511,3.732-4.511,6.173,0,3.669,1.564,7.519,5.669,7.519,2.658,0,4.448-2.545,4.448-6.461,0-3.05-1.46-7.231-5.607-7.231" transform="translate(-1387.004 -766.655)" fill="#231916"/>
      <path id="パス_801" data-name="パス 801" d="M2628.443,2319.84a10.949,10.949,0,0,0,.2,2.676,2.946,2.946,0,0,0,3.051,2.3,5,5,0,0,0,3.985-2.192,1.151,1.151,0,0,0,.133-.727v-6.623a10.682,10.682,0,0,0-.073-1.479c-.094-.854-.331-1.134-2.09-1.476-.859-.127-.828-1.2.208-1.23a11.926,11.926,0,0,0,3.174-.374c.572-.138.9-.277,1.036-.277a.484.484,0,0,1,.435.684,21.316,21.316,0,0,0-.206,3.573v6.345a8.478,8.478,0,0,0,.271,3.082c.36.525.661.525,1.757.419.6-.034.734.652.2,1.133a6.656,6.656,0,0,1-3.683,1.443c-.828,0-.932-1.413-1-3.123-1.427,1.338-3.257,3.155-5.469,3.155a4.078,4.078,0,0,1-3.126-1.263c-.63-.662-1.325-1.893-1.325-4.364v-5.661c0-.622,0-1.338-.071-2.1-.033-.449-.231-.888-1.46-1.273-.765-.235-.6-1.06.166-1.2a12.155,12.155,0,0,0,2.824-.751,4.529,4.529,0,0,1,.9-.353c.291,0,.56.28.456.761a16.257,16.257,0,0,0-.289,3.915Z" transform="translate(-1370.567 -766.626)" fill="#231916"/>
      <rect id="長方形_167" data-name="長方形 167" width="118.828" height="1.814" transform="translate(1153.338 1574.464)" fill="#3f3b3a"/>
      <rect id="長方形_168" data-name="長方形 168" width="118.828" height="1.814" transform="translate(1153.338 1525.759)" fill="#3f3b3a"/>
    </g>
  </g>
</svg>
