<svg xmlns="http://www.w3.org/2000/svg" viewBox="0 0 80 161"><defs/><g data-name="レイヤー 2"><path d="M67 46c-6-18-22-10-33-2 2-7 12-19-4-13-1 0-5 5-6 3L23 6c1-7-9-8-11-2-1 2 5-1 5 2 2 11 1 22 2 32-2 4-6 6-9 9s-6 1-5 3c5 14 13-4 14 1s-2 10-6 13L1 81v2l5 5c7 1 10-7 13-11v84h5v-52c0-19-1-39 1-44 3-6 27-30 32-23 2 11-7 15-15 19-1 1-4 1-3 2 0 11 14 9 21 4a25 25 0 007-8c3-2 11-1 13-5-3-9-15 3-13-8zm-43 6c0-3-1-10 2-9 1 3 0 7-2 9zm32 9l-5 2h-4a6 6 0 011 0l5-3a3 3 0 011 0 6 6 0 011 0h1a1 1 0 010 1z" fill="#3f3b3a" data-name="レイヤー 1"/></g></svg>