<svg xmlns="http://www.w3.org/2000/svg" viewBox="0 0 79.51 161.27"><defs><style>.cls-1{fill:#3f3b3a;}</style></defs><g id="レイヤー_2" data-name="レイヤー 2"><g id="レイヤー_1-2" data-name="レイヤー 1"><path class="cls-1" d="M66.85,46.28C61.18,28.16,45.19,35.9,34.27,44,35.62,36.74,46,25.16,29.71,30.57c-.77.63-5.2,5.25-5.6,3.22,0-9.37-.93-18.57-.76-27.95.21-6.71-9.17-7.95-11.5-2.1-1.25,2.15,5.38-.33,5.4,2.19C19.13,16.6,18,27.6,19,38.24c-1.95,3.52-6.5,5.87-9.41,8.86-2.52,2.84-5.13.6-4.74,2.61,5.06,14.27,13.3-3.87,14.1,1.68,1.36,5-2,9.22-5.58,12.32C9.12,69.23,4.87,75.28.74,80.5c-1.1,1.08-1,2,.63,2.27,1,.29,3.72,5.55,4.75,4.92,6.63.84,9.38-7.17,13.08-11,.18,10.8,0,21.67-.62,32.51v52.12h5.3V109.15C23.83,90.41,23,70,25.18,64.51c2.87-5.92,26.5-29.83,31.43-22.08,2.86,10.38-6.92,14.68-14.51,18.73-.89.57-4.41.36-3.39,2.07C39.08,73.8,53.12,72.45,60,66.91a25.06,25.06,0,0,0,6.57-8.12c3.62-1.74,11.32-.73,13-4.78C77.21,44.9,65.16,57.49,66.85,46.28Zm-42.53,5.3c-.06-2.27-1.14-9.37,2.05-8.63C27,45.67,25.56,49.67,24.32,51.58Zm31.34,9.33c-1.21,1.34-2.89,1.49-4.53,1.74-.79.12-1.59.26-2.38.4-.53.09-1,.2-1.58.31L47.06,63a6.36,6.36,0,0,1,.59-.43c1.67-.89,3.33-1.82,5-2.64a3.34,3.34,0,0,1,1.52-.1,6.24,6.24,0,0,1,1.21.2c.18,0,.46.16.48.27A.84.84,0,0,1,55.66,60.91Z"/></g></g></svg>