<svg xmlns="http://www.w3.org/2000/svg" viewBox="0 0 412 323">
  <defs/>
  <defs>
    <style>
      .cls-1{fill:#f7f8f8}
    </style>
  </defs>
  <g id="レイヤー_2" data-name="レイヤー 2">
    <g id="レイヤー_1-2" data-name="レイヤー 1">
      <path id="アートワーク_9" d="M300 97c24-20 46-42 71-62 18-14 1-41-19-34-9 1 12 13 6 19-24 28-54 49-80 74-24 22-75 62-100 83-55 46-113 91-176 128-4 3-1 10 0 14 16 25 153-100 199-140l99-82z" class="cls-1" data-name="アートワーク 9"/>
      <path id="アートワーク_9-2" d="M111 97L41 35C23 21 40-6 60 1c8 1-13 13-6 19 23 28 53 49 80 74 24 22 74 62 99 83 56 46 113 91 176 128 5 3 1 10 0 14-15 25-152-100-198-140L111 97z" class="cls-1" data-name="アートワーク 9"/>
    </g>
  </g>
</svg>
