<svg xmlns="http://www.w3.org/2000/svg" viewBox="0 0 411.49 322.55"><defs><style>.cls-1{fill:#f7f8f8;}</style></defs><g id="レイヤー_2" data-name="レイヤー 2"><g id="レイヤー_1-2" data-name="レイヤー 1"><g id="アートワーク_9" data-name="アートワーク 9"><path class="cls-1" d="M300.13,97.43c24.3-20.14,46.14-42.38,70.82-62.1,17.88-13.91.91-40.87-19.28-34.32-8.28,1.37,12.44,13.2,5.95,18.7-23.63,27.8-53.54,49.67-80.08,74-23.85,21.87-74.3,62.44-99.12,83.19C122.91,223.33,65,268.41,2.35,304.86c-4.65,3.12-1.13,10.21-.14,14.51C17.71,344,154.83,219,200.87,179.36,225.25,158.36,300.13,97.43,300.13,97.43Z"/></g><g id="アートワーク_9-2" data-name="アートワーク 9"><path class="cls-1" d="M111.37,97.43C87.06,77.29,65.22,55.05,40.54,35.33,22.66,21.42,39.63-5.54,59.82,1c8.28,1.37-12.44,13.2-6,18.7,23.64,27.8,53.54,49.67,80.09,74,23.84,21.87,74.29,62.44,99.11,83.19,55.51,46.42,113.39,91.5,176.07,128,4.65,3.12,1.13,10.21.14,14.51C393.78,344,256.66,219,210.62,179.36,186.25,158.36,111.37,97.43,111.37,97.43Z"/></g></g></g></svg>