<svg xmlns="http://www.w3.org/2000/svg" viewBox="0 0 492 718">
  <defs/>
  <g fill="#f2f2f2" data-name="グループ 494">
    <path d="M367 209c-35-88-109-42-158 3 4-36 49-99-28-65-3 4-23 29-25 19-4-47-13-92-16-139-2-34-48-36-56-6-6 12 25-4 27 9 13 52 12 108 22 161-8 18-29 32-42 48-11 15-24 5-22 15 31 69 63-25 69 2 9 24-5 47-21 64-18 30-36 62-54 90-5 6-4 10 4 11 5 1 20 26 25 22 32 1 42-40 58-61 11 107 16 216 8 324 0 8 11 10 17 12 49 3-17-343-1-399 11-31 115-161 142-124 19 50-27 76-62 100-4 3-21 3-15 11 6 53 73 40 104 9 12-13 22-27 28-43 17-10 55-9 61-30-15-44-68 24-65-33m-203 46c-1-12-9-47 7-44 4 13-1 34-7 44m156 32c-6 8-14 9-21 11l-12 3-7 2-1-1a24 24 0 013-3l23-15 7-1a28 28 0 016 0l3 1a4 4 0 01-1 3" data-name="パス 780"/>
    <path d="M246 550A251 251 0 010 296C0 156 110 42 246 42s246 114 246 254-110 254-246 254m0-494A236 236 0 0014 296c0 132 104 240 232 240s232-108 232-240S374 56 246 56" data-name="パス 781"/>
    <path d="M246 435c0-2-1-2-2-3a1 1 0 010-1 13 13 0 003-1 2 2 0 011-1v1a14 14 0 011 3 27 27 0 013-3 6 6 0 013-1c3 0 5 3 5 7v9l2 1v2h-7v-2c2 0 2 0 2-2v-7c0-3-1-5-4-5a6 6 0 00-4 2 1 1 0 00-1 1v7a21 21 0 001 3l2 2c1 0 1 1-1 1h-6v-1l2-2a26 26 0 000-4z" data-name="パス 795"/>
    <path d="M274 446a7 7 0 004-2c1 0 2 1 1 2a10 10 0 01-7 2c-4 0-7-4-7-9a10 10 0 013-8 8 8 0 015-2 6 6 0 017 6 1 1 0 010 1l-2 1-10 1c0 5 3 8 6 8m-6-10a12 12 0 002 0 45 45 0 006 0h1a4 4 0 00-5-5c-2 0-3 2-4 5" data-name="パス 796"/>
    <path d="M298 432a7 7 0 01-2 1 9 9 0 010 2 7 7 0 01-1 5 8 8 0 01-6 3h-1a3 3 0 00-1 1l2 2h4c4 0 6 2 6 5a8 8 0 01-4 6 10 10 0 01-6 2c-5 0-7-3-7-6a2 2 0 011-1 38 38 0 014-4 3 3 0 01-3-2 1 1 0 010-1l3-2a6 6 0 01-4-6 7 7 0 013-6 8 8 0 014-2 9 9 0 013 1 10 10 0 004 1 3 3 0 002-2v1a6 6 0 010 2 1 1 0 01-1 0m-10 16a28 28 0 00-2 3 3 3 0 00-1 2c0 2 2 4 6 4 3 0 5-2 5-5 0-2-1-3-4-3l-4-1zm6-12c0-3-2-5-5-5-2 0-3 2-3 5 0 2 1 5 4 5 2 0 4-2 4-5" data-name="パス 797"/>
    <path d="M302 448c-2 0-2-1-1-2 2 0 2 0 2-2v-9a11 11 0 000-1l-1-2v-1a9 9 0 003-1 2 2 0 011-1v1a29 29 0 000 5v9c0 2 0 2 2 2v2h-6m5-26a2 2 0 01-2 2 2 2 0 01-2-2 2 2 0 012-2 2 2 0 012 2" data-name="パス 798"/>
    <path d="M324 447a9 9 0 01-5 1 8 8 0 01-4-1l-2 1v-1-22-4l-2-1v-1a18 18 0 004-2 2 2 0 011 0v1a10 10 0 000 2v12l7-3c4 0 6 4 6 8a11 11 0 01-5 10m-3-15a6 6 0 00-5 2v8a13 13 0 000 2v1a6 6 0 004 1c4 0 6-2 6-7s-2-7-5-7" data-name="パス 799"/>
    <path d="M350 438a10 10 0 01-2 7 10 10 0 01-8 3c-5 0-8-4-8-9a9 9 0 014-7 10 10 0 016-3c5 0 8 4 8 9m-9-7c-5 0-6 4-6 7 0 4 2 9 7 9 3 0 5-3 5-8 0-3-2-8-6-8" data-name="パス 800"/>
    <path d="M358 440a12 12 0 000 3 3 3 0 004 3 6 6 0 004-3 1 1 0 000-1v-7a12 12 0 000-2l-2-1v-2a13 13 0 003 0h2a24 24 0 000 4v11h2v2a7 7 0 01-4 1l-1-3c-1 1-3 3-6 3a5 5 0 01-3-1c-1-1-2-2-2-5v-6-3l-2-1 1-1a14 14 0 003-1 5 5 0 011-1v1a18 18 0 000 5z" data-name="パス 801"/>
    <path d="M241 464h133v2H241z" data-name="長方形 167"/>
    <path d="M241 409h133v2H241z" data-name="長方形 168"/>
  </g>
</svg>
