<svg xmlns="http://www.w3.org/2000/svg" width="491.875" height="718.428" viewBox="0 0 491.875 718.428">
  <g id="グループ_494" data-name="グループ 494" transform="translate(-18954.061 -1969.369)">
    <path id="パス_780" data-name="パス 780" d="M2906.206,2483.694c-35.224-88-109.115-42.222-158.346,3.01,3.383-36.735,48.547-99.219-27.8-64.932-3.457,3.49-22.849,28.56-25.676,18.559-4-46.778-12.506-92.324-15.721-139.225-1.877-33.65-47.687-35.632-56.4-5.359-5.148,11.3,25.79-4.088,27.01,8.5,13.643,52.451,12.865,107.925,22.267,160.642-7.893,18.449-28.876,32.186-41.608,48.432-10.987,15.286-24.548,5.254-21.8,15.144,30.59,69.017,62.582-25.287,68.856,2.107,8.706,24.219-5.517,46.912-21.632,64-18.095,29.494-35.981,61.6-53.706,89.5-4.824,5.9-4.15,10.55,4.057,11.065,4.812,1.047,20.354,26.056,25.051,22.457,32.376,1.27,42.219-39.969,58.392-61.008,10.965,107.093,15.788,216.216,7.776,323.806-.107,8.332,11.174,10,17.074,12.41,48.445,2.088-17.051-342.981-1.18-399.483,11.275-30.859,115.12-160.8,142.281-124.312,18.279,50.582-27.1,76.4-62.044,100.035-4.032,3.238-21.122,3.765-15.439,11.832,6.333,52.656,73.54,39.637,104.146,8.946,12.331-13.311,22.419-26.986,28.24-43.522,16.713-10.262,54.365-8.692,60.673-29.658-15.012-44.442-67.825,23.811-64.468-32.937M2703.1,2529.1c-1.3-11.292-9.564-46.278,6.183-44,4.308,13.32-1.036,33.917-6.183,44m155.369,32.622c-5.272,7.231-13.306,8.728-21.119,10.73-3.792.981-7.557,2-11.327,3.068-2.517.695-5.005,1.474-7.509,2.218-.234-.516-.457-1.042-.673-1.557a24.18,24.18,0,0,1,2.667-2.412c7.683-5.215,15.288-10.575,23.172-15.442,1.96-1.223,4.821-1.055,7.279-1.2a28.421,28.421,0,0,1,5.925.5c.879.121,2.3.556,2.421,1.092a4.219,4.219,0,0,1-.836,3" transform="translate(16415.348 -305.007)" fill="#f2f2f2"/>
    <path id="パス_781" data-name="パス 781" d="M2839.4,2786.56c-135.615,0-245.937-114.1-245.937-254.346,0-140.267,110.323-254.367,245.938-254.367s245.937,114.1,245.937,254.367c0,140.249-110.321,254.346-245.937,254.346m0-494.434c-128,0-232.134,107.7-232.134,240.088,0,132.37,104.134,240.068,232.134,240.068s232.133-107.7,232.133-240.068c0-132.391-104.134-240.088-232.133-240.088" transform="translate(16360.602 -266.86)" fill="#f2f2f2"/>
    <path id="パス_795" data-name="パス 795" d="M2617.22,2315.424c0-1.166-.187-1.51-1.89-2.086a.634.634,0,0,1,.071-1.2,12.6,12.6,0,0,0,2.966-1.522,2.462,2.462,0,0,1,.973-.428c.337,0,.488.188.559.613a14.259,14.259,0,0,1,.183,2.693,27.159,27.159,0,0,1,3.086-2.3,5.645,5.645,0,0,1,3.128-1.008c3.118,0,5.156,2.35,5.156,6.651v8.85c0,1.22.234,1.39,1.866,1.689,1.148.193,1.115,1.378-.114,1.378-1.2,0-2.189-.072-3.455-.072-.962,0-2.413.072-3.115.072-1.346,0-1.346-1.186-.2-1.378,1.98-.387,2.084-.77,2.116-2,.05-.767.118-1.653.118-5.384v-2.573c0-2.844-1.378-4.689-4.207-4.689a5.922,5.922,0,0,0-4.2,2.349,1.313,1.313,0,0,0-.265,1v6.534a20.533,20.533,0,0,0,.117,3.083c.033,1.079.184,1.342,2.037,1.689,1.093.193,1.012,1.378-.172,1.378-.823,0-2.051-.072-3.386-.072-1.227,0-2.272.072-3.235.072-1.273,0-1.24-1.186-.115-1.378,1.671-.347,1.784-.61,1.855-1.737a26.323,26.323,0,0,0,.116-3.608Z" transform="translate(16582.525 88.49)" fill="#f2f2f2"/>
    <path id="パス_796" data-name="パス 796" d="M2625.436,2326.606a6.992,6.992,0,0,0,4.16-1.389c1.151-.732,1.484.36.558,1.309a9.54,9.54,0,0,1-6.5,2.661c-4.322,0-7.327-3.885-7.327-9.122a10.246,10.246,0,0,1,3.192-7.688,8,8,0,0,1,5.2-2.191,5.982,5.982,0,0,1,6.029,6.076.584.584,0,0,1,.415.576c0,.7-.742,1.2-1.424,1.391-1.485.421-3.375.842-10.482.842.073,5.118,2.565,7.537,6.181,7.537m-5.843-9.387a12.091,12.091,0,0,0,1.371.087,45.236,45.236,0,0,0,6.769-.349.432.432,0,0,0,.193-.42,4.4,4.4,0,0,0-4.437-4.424c-1.97,0-3.71,1.378-4.118,4.761,0,.228.038.313.222.346" transform="translate(16602.814 88.49)" fill="#f2f2f2"/>
    <path id="パス_797" data-name="パス 797" d="M2633.572,2313.311a7.036,7.036,0,0,1-2.052.313,8.8,8.8,0,0,1,.523,2.386,6.815,6.815,0,0,1-1.74,5.188,8.129,8.129,0,0,1-5.843,2.579h-.451a3.139,3.139,0,0,0-.928,1.618c0,.767.928,1.042,2.038,1.187.895.085,2.461.155,3.873.277,3.641.333,5.506,2,5.506,4.881a8.244,8.244,0,0,1-3.648,6.377,9.594,9.594,0,0,1-5.8,2c-5.02,0-7.256-3.311-7.256-5.767a2.469,2.469,0,0,1,.553-1.464,37.642,37.642,0,0,1,3.991-3.956,3.385,3.385,0,0,1-2.2-1.968,1.366,1.366,0,0,1-.072-.957c.525-.613,1.974-1.882,2.646-2.506a5.947,5.947,0,0,1-3.978-5.84,7.109,7.109,0,0,1,3.339-6.08,8.113,8.113,0,0,1,4.022-1.3,8.968,8.968,0,0,1,2.565.417,10.05,10.05,0,0,0,3.649.854,2.674,2.674,0,0,0,1.924-1.08c.671-.649,1.123-.108.893.539a6.384,6.384,0,0,1-.893,1.74,1.1,1.1,0,0,1-.661.562m-9.9,15.936a27.892,27.892,0,0,0-2.156,2.3,3.211,3.211,0,0,0-.858,2.2c0,1.811,1.973,4.269,6.146,4.269,2.967,0,5.019-1.967,5.019-4.652,0-2.121-1.414-3.346-4.208-3.7-1.194-.118-2.006-.239-3.569-.383Zm5.624-11.933c0-3.066-1.461-5.19-4.208-5.19-2.493,0-3.534,1.69-3.534,4.653,0,2.432,1.077,5.119,4.207,5.119,2.271,0,3.536-1.463,3.536-4.583" transform="translate(16618.416 88.396)" fill="#f2f2f2"/>
    <path id="パス_798" data-name="パス 798" d="M2620.367,2337.282c-1.266,0-1.3-1.186-.105-1.414,1.587-.351,1.821-.66,1.821-2.278v-8.909a10.873,10.873,0,0,0-.073-1.736c-.032-.613-.16-.768-1.642-1.38-.663-.277-.7-1.115.183-1.271a9.053,9.053,0,0,0,3.166-1.2,1.9,1.9,0,0,1,.927-.384c.381,0,.6.276.519.851a28.516,28.516,0,0,0-.3,4.914v8.918c0,1.812.161,2.121,1.864,2.472,1.15.191,1.15,1.414-.148,1.414-.93,0-1.821-.072-3.153-.072-1.055,0-2.389.072-3.059.072m5.1-25.763a2.145,2.145,0,0,1-2.087,2.35,2.007,2.007,0,0,1-1.969-2.157,2.156,2.156,0,0,1,2.085-2.3,2.056,2.056,0,0,1,1.97,2.11" transform="translate(16635.277 79.962)" fill="#f2f2f2"/>
    <path id="パス_799" data-name="パス 799" d="M2633.925,2338.952a9.187,9.187,0,0,1-5.391,1.657,7.8,7.8,0,0,1-3.676-.923c-.3-.154-1.079.313-1.495.347-.441.036-.52-.347-.441-1.08.105-1.412.186-4.265.186-6.76v-14.843c0-3.236-.116-4.122-.265-4.351-.175-.312-.592-.54-1.89-.887-.975-.23-1.009-1.151.069-1.308a18.43,18.43,0,0,0,3.871-1.3,2.136,2.136,0,0,1,.926-.348c.337,0,.477.312.41.8a9.868,9.868,0,0,0-.3,2.315v12.107c1-.491,4.72-2.841,6.726-2.841,3.986,0,6.619,4.147,6.619,7.659a10.935,10.935,0,0,1-5.356,9.757m-3.2-14.8a6.127,6.127,0,0,0-4.494,1.772c-.258.229-.3.541-.3,1.031v6.813a12.685,12.685,0,0,0,.154,2.31c.068.578.035.841.322,1.072a5.939,5.939,0,0,0,3.873,1.3c3.457,0,5.8-2.614,5.8-7.6,0-4.158-2-6.7-5.355-6.7" transform="translate(16644.059 77.14)" fill="#f2f2f2"/>
    <path id="パス_800" data-name="パス 800" d="M2639.679,2318.806a10.321,10.321,0,0,1-2.191,6.881,9.886,9.886,0,0,1-7.475,3.677c-4.95,0-7.882-4.444-7.882-9.062a9.326,9.326,0,0,1,3.152-7.5,9.98,9.98,0,0,1,6.583-2.612c4.5,0,7.813,4.039,7.813,8.62m-9.412-6.654c-4.158,0-5.054,4.18-5.054,6.917,0,4.109,1.752,8.424,6.353,8.424,2.977,0,4.983-2.852,4.983-7.239,0-3.418-1.635-8.1-6.283-8.1" transform="translate(16664.313 88.49)" fill="#f2f2f2"/>
    <path id="パス_801" data-name="パス 801" d="M2628.99,2321a12.313,12.313,0,0,0,.222,3,3.3,3.3,0,0,0,3.419,2.573,5.6,5.6,0,0,0,4.465-2.454,1.306,1.306,0,0,0,.148-.815v-7.421a11.959,11.959,0,0,0-.082-1.658c-.1-.955-.369-1.27-2.34-1.653-.962-.141-.928-1.342.233-1.38a13.384,13.384,0,0,0,3.555-.417c.641-.155,1.012-.312,1.162-.312a.543.543,0,0,1,.487.767,23.814,23.814,0,0,0-.231,4v7.109c0,1.966.082,3.192.3,3.455.4.587.74.587,1.969.467.671-.037.822.732.222,1.271a7.472,7.472,0,0,1-4.127,1.617c-.928,0-1.043-1.583-1.116-3.5-1.6,1.5-3.649,3.536-6.129,3.536a4.576,4.576,0,0,1-3.5-1.416c-.707-.743-1.483-2.12-1.483-4.89v-6.344c0-.695,0-1.5-.079-2.349-.038-.5-.259-.994-1.636-1.427-.858-.262-.674-1.188.185-1.342a13.646,13.646,0,0,0,3.167-.842,5.107,5.107,0,0,1,1-.4c.326,0,.627.315.51.854a18.21,18.21,0,0,0-.324,4.385Z" transform="translate(16682.943 88.523)" fill="#f2f2f2"/>
    <rect id="長方形_167" data-name="長方形 167" width="133.147" height="2.032" transform="translate(19194.799 2433.336)" fill="#f2f2f2"/>
    <rect id="長方形_168" data-name="長方形 168" width="133.147" height="2.032" transform="translate(19194.799 2378.763)" fill="#f2f2f2"/>
  </g>
</svg>
