<svg xmlns="http://www.w3.org/2000/svg" viewBox="0 0 129.68 53.3"><defs><style>.cls-1{fill:#3e3a39;}</style></defs><g id="レイヤー_2" data-name="レイヤー 2"><g id="レイヤー_1-2" data-name="レイヤー 1"><path class="cls-1" d="M4.82,23.68c0-1.09-.18-1.42-1.85-2A.58.58,0,0,1,3,20.6a12.67,12.67,0,0,0,2.9-1.45,2.51,2.51,0,0,1,.94-.4c.33,0,.47.18.54.58a12.28,12.28,0,0,1,.18,2.53,29.13,29.13,0,0,1,3-2.17,5.7,5.7,0,0,1,3-.94c3,0,5,2.21,5,6.27v8.32c0,1.16.22,1.31,1.81,1.6,1.12.18,1.08,1.3-.11,1.3s-2.14-.07-3.37-.07c-.94,0-2.35.07-3,.07-1.3,0-1.3-1.12-.18-1.3,1.92-.36,2-.72,2.06-1.88,0-.73.11-1.56.11-5.07V25.56c0-2.68-1.34-4.42-4.09-4.42a5.83,5.83,0,0,0-4.09,2.21,1.19,1.19,0,0,0-.26.94v6.16a19,19,0,0,0,.11,2.89c0,1,.18,1.27,2,1.6,1,.18,1,1.3-.18,1.3-.8,0-2-.07-3.29-.07S4,36.24,3,36.24c-1.23,0-1.19-1.12-.1-1.3,1.63-.33,1.74-.58,1.81-1.63a24.91,24.91,0,0,0,.11-3.41Z"/><path class="cls-1" d="M32.57,34.22a7,7,0,0,0,4.06-1.31c1.12-.69,1.45.33.54,1.23a9.41,9.41,0,0,1-6.33,2.5c-4.21,0-7.14-3.66-7.14-8.58a9.55,9.55,0,0,1,3.11-7.25,8,8,0,0,1,5.08-2.06,5.72,5.72,0,0,1,5.86,5.72c.22.11.4.22.4.55,0,.65-.72,1.12-1.38,1.3-1.44.4-3.29.8-10.21.8C26.63,31.93,29.06,34.22,32.57,34.22Zm-5.68-8.84c.21,0,.9.07,1.34.07a45.6,45.6,0,0,0,6.59-.32.41.41,0,0,0,.18-.4,4.23,4.23,0,0,0-4.31-4.17c-1.92,0-3.62,1.3-4,4.49C26.67,25.27,26.7,25.34,26.89,25.38Z"/><path class="cls-1" d="M55.69,21.61a7.37,7.37,0,0,1-2,.29,8,8,0,0,1,.51,2.25A6.3,6.3,0,0,1,52.51,29a8,8,0,0,1-5.69,2.42h-.43A2.94,2.94,0,0,0,45.48,33c0,.73.91,1,2,1.13.87.07,2.39.14,3.77.25,3.55.33,5.36,1.88,5.36,4.6,0,2.93-2.21,5.11-3.55,6a9.52,9.52,0,0,1-5.65,1.89c-4.89,0-7.06-3.12-7.06-5.44a2.21,2.21,0,0,1,.54-1.37,35.5,35.5,0,0,1,3.88-3.73,3.2,3.2,0,0,1-2.14-1.85,1.19,1.19,0,0,1-.07-.91c.51-.58,1.92-1.77,2.57-2.35a5.62,5.62,0,0,1-3.87-5.51A6.67,6.67,0,0,1,44.5,20a8,8,0,0,1,3.91-1.23,8.81,8.81,0,0,1,2.5.4,10.31,10.31,0,0,0,3.55.8,2.67,2.67,0,0,0,1.89-1c.65-.62,1.08-.11.87.51a6,6,0,0,1-.87,1.63A1.14,1.14,0,0,1,55.69,21.61Zm-9.63,15A23.36,23.36,0,0,0,44,38.78a3,3,0,0,0-.83,2.06c0,1.71,1.92,4,6,4C52,44.86,54,43,54,40.48c0-2-1.37-3.15-4.09-3.48l-3.48-.36Zm5.47-11.23c0-2.9-1.41-4.89-4.09-4.89C45,20.49,44,22.08,44,24.87c0,2.28,1,4.82,4.09,4.82C50.3,29.69,51.53,28.31,51.53,25.38Z"/><path class="cls-1" d="M59.26,36.24c-1.23,0-1.27-1.12-.11-1.34,1.56-.32,1.78-.61,1.78-2.13V24.36a9.93,9.93,0,0,0-.07-1.62c0-.59-.15-.73-1.6-1.31-.65-.25-.69-1.05.18-1.19a9.18,9.18,0,0,0,3.08-1.13,1.93,1.93,0,0,1,.91-.36c.36,0,.58.26.5.8a25,25,0,0,0-.29,4.63v8.41c0,1.7.15,2,1.81,2.31,1.13.18,1.13,1.34-.14,1.34-.91,0-1.78-.07-3.08-.07C61.22,36.17,59.91,36.24,59.26,36.24Zm5-24.26a2,2,0,0,1-2,2.21,1.92,1.92,0,0,1-1.93-2,2.07,2.07,0,0,1,2-2.17A2,2,0,0,1,64.22,12Z"/><path class="cls-1" d="M81,35.16a9.3,9.3,0,0,1-5.25,1.56,7.87,7.87,0,0,1-3.59-.88c-.29-.14-1.05.29-1.45.33s-.51-.33-.44-1c.11-1.34.19-4,.19-6.38v-14c0-3-.11-3.87-.26-4.09s-.58-.51-1.84-.83c-.94-.22-1-1.09.07-1.23a19.34,19.34,0,0,0,3.77-1.23,2,2,0,0,1,.9-.33c.33,0,.47.29.4.76A8.69,8.69,0,0,0,73.23,10V21.43c1-.47,4.6-2.68,6.55-2.68,3.88,0,6.45,3.91,6.45,7.21A10.28,10.28,0,0,1,81,35.16ZM77.9,21.21a6.1,6.1,0,0,0-4.38,1.67c-.25.22-.29.51-.29,1v6.41a11.78,11.78,0,0,0,.15,2.17c.07.54,0,.8.32,1a5.88,5.88,0,0,0,3.77,1.24c3.36,0,5.65-2.47,5.65-7.18C83.12,23.6,81.16,21.21,77.9,21.21Z"/><path class="cls-1" d="M106.35,26.86a9.47,9.47,0,0,1-2.14,6.48,9.68,9.68,0,0,1-7.28,3.48c-4.82,0-7.68-4.2-7.68-8.54a8.67,8.67,0,0,1,3.08-7.07,9.86,9.86,0,0,1,6.41-2.46A7.86,7.86,0,0,1,106.35,26.86ZM97.18,20.6c-4.05,0-4.92,3.95-4.92,6.52,0,3.87,1.7,7.93,6.19,7.93,2.9,0,4.86-2.68,4.86-6.81C103.31,25,101.71,20.6,97.18,20.6Z"/><path class="cls-1" d="M114.08,29a11.32,11.32,0,0,0,.21,2.83,3.21,3.21,0,0,0,3.34,2.43A5.49,5.49,0,0,0,122,31.9c.15-.18.15-.4.15-.76v-7a11.59,11.59,0,0,0-.08-1.56c-.11-.9-.36-1.19-2.28-1.56-.94-.14-.91-1.27.22-1.3a13.33,13.33,0,0,0,3.47-.4c.62-.14,1-.29,1.13-.29a.51.51,0,0,1,.47.72,23.33,23.33,0,0,0-.22,3.77v6.7c0,1.85.07,3,.29,3.26.4.54.72.54,1.92.44.65,0,.8.68.22,1.19a7.41,7.41,0,0,1-4,1.52c-.91,0-1-1.48-1.09-3.3-1.56,1.42-3.55,3.34-6,3.34a4.54,4.54,0,0,1-3.41-1.34c-.69-.69-1.45-2-1.45-4.6v-6c0-.65,0-1.41-.07-2.21,0-.47-.25-.94-1.59-1.34-.84-.25-.65-1.12.18-1.26a13.89,13.89,0,0,0,3.08-.8,5.25,5.25,0,0,1,1-.36c.32,0,.61.29.5.79a16.59,16.59,0,0,0-.32,4.13Z"/><rect class="cls-1" y="51.39" width="129.68" height="1.92"/><rect class="cls-1" width="129.68" height="1.92"/></g></g></svg>