<svg xmlns="http://www.w3.org/2000/svg" viewBox="0 0 439 641.2">
  <defs/>
  <g data-name="グループ 129">
    <g data-name="グループ 434">
      <path fill="#3f3b3a" d="M328 186.8c-31.5-78.5-97.4-37.7-141.3 2.7 3-32.8 43.3-88.6-24.9-58-3 3.2-20.3 25.5-22.9 16.6-3.5-41.7-11.1-82.4-14-124.2C123.2-6.1 82.3-8 74.6 19c-4.6 10 23-3.7 24 7.6 12.2 46.8 11.5 96.3 20 143.3-7.1 16.5-25.8 28.7-37.2 43.2C71.6 227 59.5 218 62 226.8c27.3 61.6 55.8-22.6 61.4 1.8 7.8 21.7-5 42-19.3 57.2-16.2 26.3-32.1 55-48 79.8-4.2 5.3-3.6 9.4 3.7 10 4.3.8 18.2 23.2 22.3 20 29 1 37.7-35.7 52.2-54.5 9.7 95.6 14 193 6.9 289-.1 7.4 10 9 15.2 11 43.3 2-15.2-306-1-356.5 10-27.5 102.7-143.5 127-110.9 16.3 45.1-24.2 68.2-55.4 89.3-3.6 2.9-18.9 3.3-13.8 10.5 5.7 47 65.6 35.4 93 8 11-11.9 20-24 25.2-38.8 14.9-9.2 48.5-7.8 54.1-26.5-13.4-39.7-60.5 21.3-57.5-29.4m-181.3 40.5c-1.1-10-8.5-41.3 5.5-39.2 3.9 11.9-.9 30.2-5.5 39.2m138.7 29.1c-4.7 6.5-12 7.8-18.9 9.6l-10 2.8-6.8 2-.6-1.5a21.4 21.4 0 012.4-2.1c6.8-4.7 13.6-9.4 20.7-13.8 1.7-1 4.3-1 6.5-1a25.5 25.5 0 015.3.4c.7.1 2 .5 2.1 1a3.8 3.8 0 01-.7 2.6" data-name="パス 780"/>
      <path fill="#3f3b3a" d="M219.5 491.1C98.5 491.1 0 389.3 0 264.1c0-125.1 98.5-227 219.5-227S439 139 439 264.1c0 125.2-98.5 227-219.5 227m0-441.2C105.3 49.9 12.3 146 12.3 264.2c0 118 93 214.2 207.2 214.2s207.2-96.1 207.2-214.2c0-118.2-93-214.3-207.2-214.3" data-name="パス 781"/>
      <path fill="#231916" d="M219.3 387.8c0-1-.2-1.3-1.7-1.9a.6.6 0 010-1 11.2 11.2 0 002.7-1.4 2.2 2.2 0 01.9-.4c.3 0 .4.2.5.6a12.6 12.6 0 01.1 2.4 24.5 24.5 0 012.8-2 5 5 0 012.8-1c2.7 0 4.6 2.1 4.6 6v7.9c0 1 .2 1.2 1.6 1.5 1 .1 1 1.2 0 1.2h-5.9c-1.2 0-1.2-1-.2-1.2 1.8-.4 1.9-.7 1.9-1.8v-7.1c0-2.6-1.1-4.2-3.7-4.2a5.3 5.3 0 00-3.7 2.1 1.2 1.2 0 00-.3.9v5.8a18.3 18.3 0 00.1 2.8c0 1 .2 1.2 1.9 1.5 1 .2.9 1.2-.2 1.2h-5.9c-1.1 0-1.1-1-.1-1.2 1.5-.3 1.6-.6 1.7-1.6a23.5 23.5 0 000-3.2z" data-name="パス 795"/>
      <path fill="#231916" d="M244.7 397.8a6.2 6.2 0 003.7-1.2c1-.7 1.3.3.5 1.1a8.5 8.5 0 01-5.8 2.4c-3.8 0-6.5-3.5-6.5-8.1a9.1 9.1 0 012.8-7 7.1 7.1 0 014.7-1.9 5.3 5.3 0 015.3 5.5.5.5 0 01.4.5c0 .6-.6 1-1.3 1.2-1.3.4-3 .8-9.3.8 0 4.5 2.3 6.7 5.5 6.7m-5.2-8.4a11 11 0 001.2 0 40.2 40.2 0 006-.2.4.4 0 00.2-.4 4 4 0 00-4-4c-1.7 0-3.2 1.3-3.6 4.3 0 .2 0 .3.2.3" data-name="パス 796"/>
      <path fill="#231916" d="M265.9 385.8a6.3 6.3 0 01-1.8.3 7.9 7.9 0 01.4 2.2 6 6 0 01-1.5 4.6 7.3 7.3 0 01-5.2 2.3h-.4a2.8 2.8 0 00-.9 1.4c0 .7.9 1 1.9 1 .8.2 2.2.2 3.4.3 3.3.3 5 1.8 5 4.4a7.4 7.4 0 01-3.3 5.7 8.6 8.6 0 01-5.2 1.8c-4.5 0-6.5-3-6.5-5.2a2.2 2.2 0 01.5-1.3 33.6 33.6 0 013.6-3.5 3 3 0 01-2-1.8 1.2 1.2 0 010-.8c.4-.6 1.7-1.7 2.3-2.3a5.3 5.3 0 01-3.5-5.2 6.3 6.3 0 013-5.4 7.2 7.2 0 013.5-1.2 8 8 0 012.3.4 9 9 0 003.3.8 2.4 2.4 0 001.7-1c.6-.6 1-.1.8.5a5.7 5.7 0 01-.8 1.5 1 1 0 01-.6.5m-8.8 14.3a24.7 24.7 0 00-2 2 2.9 2.9 0 00-.7 2c0 1.6 1.7 3.8 5.5 3.8a4.2 4.2 0 004.4-4.2c0-1.9-1.2-3-3.7-3.3l-3.2-.3zm5-10.7c0-2.7-1.3-4.6-3.8-4.6-2.2 0-3.1 1.5-3.1 4.1 0 2.2 1 4.6 3.7 4.6 2 0 3.2-1.3 3.2-4" data-name="パス 797"/>
      <path fill="#231916" d="M269.2 399.7c-1.2 0-1.2-1-.1-1.3 1.4-.3 1.6-.5 1.6-2v-8a9.9 9.9 0 000-1.5c-.1-.5-.2-.7-1.5-1.2-.6-.3-.7-1 .1-1.2a8 8 0 002.8-1 1.7 1.7 0 01.9-.4c.3 0 .5.3.4.8a25.4 25.4 0 00-.2 4.4v8c0 1.6.1 1.8 1.6 2.1 1 .2 1 1.3-.1 1.3h-5.5m4.5-23a2 2 0 01-1.9 2.1 1.8 1.8 0 01-1.7-2 2 2 0 011.8-2 1.8 1.8 0 011.8 2" data-name="パス 798"/>
      <path fill="#231916" d="M289 398.7a8.2 8.2 0 01-4.7 1.5 7 7 0 01-3.3-.9c-.3-.1-1 .3-1.3.3-.4 0-.5-.3-.4-1l.1-6v-13.2c0-2.9 0-3.7-.2-3.9-.2-.3-.5-.5-1.7-.8-.9-.2-.9-1 0-1.1a16.4 16.4 0 003.5-1.2 2 2 0 01.9-.3c.3 0 .4.3.3.7a8.9 8.9 0 00-.2 2v10.9c.8-.5 4.2-2.6 6-2.6 3.5 0 5.9 3.7 5.9 6.9a9.8 9.8 0 01-4.8 8.7m-2.9-13.2a5.5 5.5 0 00-4 1.6c-.2.2-.2.4-.2.9v6a11.3 11.3 0 000 2.1c.2.5.1.8.4 1a5.3 5.3 0 003.4 1.1c3.1 0 5.2-2.3 5.2-6.8 0-3.7-1.8-6-4.8-6" data-name="パス 799"/>
      <path fill="#231916" d="M312.3 390.8a9.2 9.2 0 01-2 6.2 8.8 8.8 0 01-6.6 3.3c-4.4 0-7-4-7-8.1a8.3 8.3 0 012.8-6.7 9 9 0 015.8-2.4c4 0 7 3.6 7 7.7m-8.4-6c-3.7 0-4.5 3.8-4.5 6.3 0 3.6 1.6 7.5 5.7 7.5 2.6 0 4.4-2.6 4.4-6.5 0-3-1.5-7.2-5.6-7.2" data-name="パス 800"/>
      <path fill="#231916" d="M319.4 392.8a11 11 0 00.2 2.7 3 3 0 003 2.3 5 5 0 004-2.2 1.2 1.2 0 00.2-.7v-6.6a10.7 10.7 0 00-.1-1.5c-.1-.9-.3-1.2-2.1-1.5-.9-.1-.8-1.2.2-1.2a12 12 0 003.2-.4l1-.3a.5.5 0 01.4.7 21.3 21.3 0 00-.2 3.6v6.3a8.5 8.5 0 00.3 3.1c.4.5.7.5 1.8.4.6 0 .7.7.2 1.2a6.7 6.7 0 01-3.7 1.4c-.8 0-1-1.4-1-3.1-1.4 1.3-3.3 3.1-5.5 3.1a4 4 0 01-3.1-1.2c-.6-.7-1.3-2-1.3-4.4v-5.7l-.1-2c0-.5-.2-1-1.5-1.3-.7-.3-.6-1 .2-1.2a12.2 12.2 0 002.8-.8 4.5 4.5 0 011-.3c.2 0 .5.2.4.7a16.3 16.3 0 00-.3 4z" data-name="パス 801"/>
      <path fill="#3f3b3a" d="M214.8 414h118.8v1.9H214.8z" data-name="長方形 167"/>
      <path fill="#3f3b3a" d="M214.8 365.4h118.8v1.8H214.8z" data-name="長方形 168"/>
    </g>
  </g>
</svg>
