<svg xmlns="http://www.w3.org/2000/svg" width="210" height="112.926" viewBox="0 0 210 112.926">
  <g id="グループ_145" data-name="グループ 145" transform="translate(-1864.897 -1682.908)">
    <path id="パス_920" data-name="パス 920" d="M1932.82,1692.854c-18.962-4.655-20.668,13.528-19.368,27.429-5.646-5.034-10.306-20.334-14.218-3.125.144,1.013,1.854,7.369-.153,6.64-8.234-4.991-16.829-9.062-24.981-14.2-5.8-3.762-11.871,3.828-7.963,8.991,1.221,2.248,2.56-4.906,4.793-3.588,10.379,4.032,19.451,10.895,29.342,15.681,2.059,3.589,1.7,8.84,2.786,12.987,1.147,3.731-2.213,4.834-.236,5.565,15.245,3.141,3.675-13.765,8.989-11.514,5.094,1.45,7.06,6.633,7.862,11.46,2.6,6.67,5.667,13.624,8.054,20.035.371,1.54,1.221,1.992,2.335.649.776-.7,6.862-.32,6.856-1.556,4.27-5.381-1.311-12.067-2.757-17.382,19.073,11.115,37.712,23.529,54.487,37.95,1.363,1.028,3.054-.7,4.194-1.413,6.422-8.028-58.821-38.691-66.168-48.258-3.687-5.671-12.132-39.183-2.694-39.4,10.651,3.01,9.224,13.9,8.748,22.737.03,1.085-2.029,4.066.018,4.076,9.5,5.306,15.776-7.762,14.544-16.714a25.649,25.649,0,0,0-3.649-10.105c.4-4.1,5.384-10.349,2.71-13.972C1937.123,1683.006,1941.777,1700.31,1932.82,1692.854Zm-17.977,40.222c-2.028-1.148-8.846-3.98-6.5-6.393C1911.088,1727.562,1913.823,1730.973,1914.843,1733.077Zm24.885-22.6c.533,1.779-.227,3.335-.875,4.913q-.471,1.15-.915,2.309c-.2.515-.385,1.034-.575,1.553l-.344-.076a5.488,5.488,0,0,1-.062-.749c.1-1.946.171-3.9.354-5.832a3.524,3.524,0,0,1,.717-1.392,6.463,6.463,0,0,1,.823-.95c.134-.135.383-.325.488-.281A.859.859,0,0,1,1939.727,1710.476Z" transform="translate(0 0.986)" fill="#302d2c"/>
    <g id="グループ_144" data-name="グループ 144" transform="translate(1957.037 1682.908)">
      <path id="パス_921" data-name="パス 921" d="M2012.095,1692.787c7.959,4.851,18.8,37.937,17.649,49.849-1.864,19.337-12.621,33.617-28.757,42.728-4.719,2.666-11.393,7.673-15.529,7.631-1.591-.042-1.628-1-1.289-2.178,2.535-2.257,5.86-3,8.847-4.293a47.511,47.511,0,0,0,12.938-8.543,4.327,4.327,0,0,1,1.214-1.368c2.822-2.368,4.831-5.668,8.33-7.257,1.808.827,2.768.112,3.623-1.6,2.506-5.013,3.791-10.486,5.882-15.591,2.831-6.915,2.146-13.724.754-20.355-1.534-7.313-2.863-14.935-8.021-21.042-1.708-2.023-3.329-3.8-6.064-4.164a5.5,5.5,0,0,1-2.908-2.961c-1.3-1.873-2.219-4.049-4.267-5.325a6.1,6.1,0,0,1-.792-.849,22.028,22.028,0,0,0-8.119-4.332c-.4-.137-.79-.273-1.187-.408-2.933-1.4-6.435-1.708-8.644-4.5-.6-2.986.38-4.261,3.6-3.673,4.369.8,8.331,2.558,12.4,4.261C2005.132,1690.235,2008.569,1691.67,2012.095,1692.787Z" transform="translate(-1911.969 -1682.337)" fill="#39081c"/>
      <path id="パス_922" data-name="パス 922" d="M2020.488,1693.358c-.514.134-1.13.519-1.529.36-5.335-2.134-11.286-2.635-16.136-6.035a12.266,12.266,0,0,0-5.311-1.7c-1.954-.325-2.813.447-2.573,2.421-2.019,2.958-4.457.743-6.729.546-4.157-.482-8.312-1.013-12.506-1.125-3.29.451-6.608.358-9.912.495-1.453.06-2.961-.047-3.825-1.571a1.816,1.816,0,0,1,.583-2.211c14.68-2.3,29.357-2.466,43.743,1.516C2011.356,1687.454,2016.047,1690.349,2020.488,1693.358Z" transform="translate(-1920.361 -1682.908)" fill="#420d25"/>
      <path id="パス_923" data-name="パス 923" d="M1970.192,1772.323c-5.3-1.527-10.218-3.486-13.736-8.221-1.952-2.626-5.17-4.091-7.514-6.523-4.971-5.153-8.472-11.285-12.279-17.227a3.462,3.462,0,0,1-.464-3.413,2.142,2.142,0,0,1,1.035-2.239c2.255-.465,3.334,1.211,3.824,2.746,2.672,8.387,8.758,14.418,14.219,20.847,2.119,2.493,5.762,3.336,7.683,6.221,1.346,1.974,3.723,2.316,5.555,3.518,1.184.776,2.594,1.307,3.208,2.755C1971.937,1772.022,1971.207,1772.316,1970.192,1772.323Z" transform="translate(-1930.157 -1663.339)" fill="#5b153b"/>
      <path id="パス_924" data-name="パス 924" d="M1932.718,1723.831c.566-5.474,2.509-10.6,4.569-15.588a44.214,44.214,0,0,1,5.632-10.538c1.09-1.4,2.082-2.782,3.977-3.075.356.94,1.669,1.4,1.338,2.7a95.78,95.78,0,0,0-9.73,19.579c-.9,2.484.142,5.472-2.128,7.51C1934.989,1725.265,1933.727,1725.334,1932.718,1723.831Z" transform="translate(-1931.374 -1678.473)" fill="#611641"/>
      <path id="パス_925" data-name="パス 925" d="M1944.31,1700.372c-1.01-.174-2.542,0-1.155-1.755,6.2-9.767,15.882-13.164,26.667-14.529q-.06.991-.119,1.982a1.238,1.238,0,0,1-.426.984c-1.687.7-3.7.484-5.16,1.824-1.649.9-3.691.78-5.216,2.017-4.98,1.3-8.444,4.521-11.2,8.7C1946.886,1700.822,1945.721,1701.337,1944.31,1700.372Z" transform="translate(-1927.634 -1682.462)" fill="#4f1231"/>
      <path id="パス_926" data-name="パス 926" d="M1933.087,1715.847l3.125-.12c1.615,1.046.729,2.644.771,3.966a42.063,42.063,0,0,0,.707,8.163c-.749,2.407,1.483,4.911-.23,7.292a2.473,2.473,0,0,1-3.285-.164C1931,1728.764,1931.259,1722.35,1933.087,1715.847Z" transform="translate(-1931.743 -1670.489)" fill="#6c194e"/>
      <path id="パス_927" data-name="パス 927" d="M1960.787,1762.539l1.414-1c1.425-1.964,3.11-.655,4.667-.314,5.191,1.136,10.389,1.9,15.686.822a44.927,44.927,0,0,0,7.66-.89c1.228.106,2.768-.841,3.5.994a1.752,1.752,0,0,0,.524,2.066c-5.834.863-11.551,2.775-17.551,2.142C1971.232,1765.78,1965.772,1765.123,1960.787,1762.539Z" transform="translate(-1920.752 -1653.555)" fill="#46102b"/>
      <path id="パス_928" data-name="パス 928" d="M1933.506,1729.713l3.067-.056c2.552,1.862,2.74,4.376,1.975,7.153q-.715,1-1.432,2.008C1934.431,1736.371,1933.556,1733.2,1933.506,1729.713Z" transform="translate(-1931.075 -1665.219)" fill="#601746"/>
      <path id="パス_929" data-name="パス 929" d="M2005.048,1697.852q1.367,1.431,2.736,2.86c5.683,3.952,7.652,9.959,9.04,16.294a28.113,28.113,0,0,0-.125,7.012c.609,3.7-2.536,5.715-5.908,4.134-.366-.172-.088-.769-.455.077-2.1,4.848-2.818,5.016-6.6,1.986-2-4.349-3.05-9.1-5.624-13.211-.757-1.669-2.251-3.142-1.4-5.241,1.4-1.853,2.094-4.491,5.067-4.622a2.2,2.2,0,0,1,1.534.781,6.183,6.183,0,0,1,.73.85c-.139-.2-.284-.4-.456-.618-.567-.78-1.431-1.206-2.008-1.935a13.711,13.711,0,0,0-.846-2.2c-1.931-2.7-1.079-4.611,1.591-6.076C2003.21,1697.263,2004.1,1696.752,2005.048,1697.852Z" transform="translate(-1907.254 -1677.495)" fill="#c6b6c4"/>
      <path id="パス_930" data-name="パス 930" d="M2012.307,1716.178c-1.4-6.008-4.657-11.153-7.633-16.427,6.909,1.512,9.344,7.412,11.543,12.847,3.645,9.013,4.92,18.682,4.778,28.37-.047,3.259-2.655,6.179-3.667,9.474a67.447,67.447,0,0,1-5.969,14.425c-.582.994-1.4,2.4-2.721,1.858-1.228-.506.1-1.948-.3-2.927-1.169-3.836,2.225-6.131,3.117-9.268,1.6-2.613,2.758-5.339,2.054-8.513C2014.662,1736.011,2013.881,1726.079,2012.307,1716.178Z" transform="translate(-1904.144 -1676.535)" fill="#280917"/>
      <path id="パス_931" data-name="パス 931" d="M1985.638,1767.8a19.5,19.5,0,0,1-7.424,1.07c-1.41-.008-2.573-.892-3.926-1.1-1.614-1.9-.215-2.59,1.246-3.483,2.107-1.289,4.957-1.03,6.6-3.23,5.169-2.2,10.64-3.582,15.555-6.538a75.659,75.659,0,0,0,8.931-6.135c1.093-.546,1.868-1.707,3.257-1.685,3.392,2.44,3.671,3.533,1.96,7.669l-.91,1.094c-.861.34-2.062-.124-2.648.672-4.218,5.745-11.351,6.359-16.995,9.578C1989.668,1766.629,1987.219,1766.19,1985.638,1767.8Z" transform="translate(-1915.915 -1658.771)" fill="#b9a6b7"/>
      <path id="パス_932" data-name="パス 932" d="M2001.955,1759.59a18.1,18.1,0,0,0-1.942-7.209c-.791-1.475-.031-2.573.962-3.518a33.474,33.474,0,0,0,4.738-6.379c1.224-1.756,1.51-3.827,2.029-5.839.336-1.305.07-2.972,1.705-3.712a6.508,6.508,0,0,1,5.91,2.492c1.208,2.225-1.912,4.284-.254,6.536-.717,3.576-3.462,6.09-4.874,9.3C2008.108,1754.671,2004.864,1756.963,2001.955,1759.59Z" transform="translate(-1906.033 -1663.998)" fill="#b09cac"/>
      <path id="パス_933" data-name="パス 933" d="M1982.325,1765.791c1.461-3.992,5.522-3.842,8.56-4.927,2.71-.966,5.673-1.071,7.345-3.866.433-.722.868-.891,1.592-.4a1.826,1.826,0,0,0,2.949-1.44c.149-5.172,2.711-2.673,4.844-1.7-6.24,6.022-13.919,9.379-22.048,11.905C1984.391,1764.793,1983.447,1765.956,1982.325,1765.791Z" transform="translate(-1912.602 -1656.767)" fill="#a08398"/>
      <path id="パス_934" data-name="パス 934" d="M1981.111,1686.424l6.6.646,8.935,3.92c.522.816,1.15,1.607.625,2.667a2.108,2.108,0,0,1-.857.722c-2.791.732-5.776-1.359-8.492.58a4.061,4.061,0,0,1-3.77-1.01c-.961-2.2-3.342-3.691-3.238-6.43A2.489,2.489,0,0,1,1981.111,1686.424Z" transform="translate(-1913.136 -1681.578)" fill="#98708a"/>
      <path id="パス_935" data-name="パス 935" d="M1992.356,1692.529q-.015-1.4-.028-2.791a1.2,1.2,0,0,1,.626.242c3.161,1.088,5.469,3.751,8.7,4.709a1.026,1.026,0,0,1,.545.528c.871,1.624,2.057,3.249.011,4.879C1996.787,1700.364,1994.37,1696.709,1992.356,1692.529Z" transform="translate(-1908.816 -1680.324)" fill="#a7859d"/>
      <path id="パス_936" data-name="パス 936" d="M1999.4,1698.331q.093-2.31.186-4.619a15.1,15.1,0,0,1,4.408,5.464,3.161,3.161,0,0,0-2.233,1.484C2000.61,1700.254,1998.652,1700.666,1999.4,1698.331Z" transform="translate(-1906.203 -1678.82)" fill="#927186"/>
      <path id="パス_937" data-name="パス 937" d="M2001.484,1694.622c-1.578.58-2.9,1.531-4.141-.984-.788-1.6-2.992-2.507-4.561-3.725C1996.041,1690.819,1999.194,1691.924,2001.484,1694.622Z" transform="translate(-1908.645 -1680.257)" fill="#8b667d"/>
      <path id="パス_938" data-name="パス 938" d="M1962.385,1685.954a3.781,3.781,0,0,0,.438-.36c4.459,1.082,8.9-.791,13.357-.08,1.808.932,2.885,2.744,5.183,3.286,2.649.626,2.517,2.378-.041,5.017a11.544,11.544,0,0,1-8.91-.409c-.466-.364-.9-.776-1.367-1.133-2.328-1.928-5.323-2.091-8.036-2.99-.988-.328-2.206-.187-2.226-1.713C1960.947,1686.666,1961.642,1686.286,1962.385,1685.954Z" transform="translate(-1920.754 -1681.985)" fill="#a5819b"/>
      <path id="パス_939" data-name="パス 939" d="M1976.992,1692.76c-.449-1.016,1.814-1.144.78-2.294-.541-.6-1.432-1.176-2.128-.691-4.665,3.249-3.478-.236-3.266-2.739a4.6,4.6,0,0,0-.426-1.516,29.527,29.527,0,0,1,12.549,1.318c.03.149.058.3.087.448a18.044,18.044,0,0,1-.409,4.781,4.339,4.339,0,0,1-1.359,2.479C1980.5,1695.173,1978.34,1695.294,1976.992,1692.76Z" transform="translate(-1916.527 -1681.992)" fill="#96708a"/>
      <path id="パス_940" data-name="パス 940" d="M1937.949,1738.765q-.988-3.577-1.975-7.153c-.2-2.321-1.465-4.557-.558-6.966l.6-.159c1.966.295,2.586,1.737,2.82,3.423a29.658,29.658,0,0,0,1.664,5.339c.615,5.711,4.131,10.031,7.238,14.45a90.556,90.556,0,0,0,14.745,16.866c1.671,1.439,4.826,3.15,2.386,6.462a5.572,5.572,0,0,1-2.509-1.818c-8.4-5.839-14.5-13.692-20.073-22.141C1940.52,1744.393,1941.006,1740.659,1937.949,1738.765Z" transform="translate(-1930.475 -1667.174)" fill="#c79bbf"/>
      <path id="パス_941" data-name="パス 941" d="M1954.87,1756.931l2.931,1.435c1.9-1.247,4.014-1.906,5.955-.495,2.911,2.118,6.258,2.209,9.519,2.3a12.053,12.053,0,0,1,8.186,3.3c1.565-.221,2.652.757,3.827,1.519-7.133,1.118-13.965-.748-20.849-2.113C1961.285,1760.839,1957.5,1759.808,1954.87,1756.931Z" transform="translate(-1922.99 -1654.897)" fill="#b18ea9"/>
      <path id="パス_942" data-name="パス 942" d="M1935.6,1738.443c-1.642-4.021-.823-8.136-.472-12.234a59.308,59.308,0,0,1,9.154-23.612,41.979,41.979,0,0,1,3.052-3.716c2.267.033,2.592-2.033,3.588-3.348a18.732,18.732,0,0,1,10.956-7.505.917.917,0,0,1,.838.8c.085,2.213-1.461,3.39-3,4.449a48.025,48.025,0,0,0-13.771,14.887c-3.856,6.327-5.65,13.522-7.592,20.575-.516,1.87.265,4.167-.043,6.31-.23,1.609-.651,2.86-2.372,3.292Z" transform="translate(-1930.658 -1680.971)" fill="#cca0c3"/>
      <path id="パス_943" data-name="パス 943" d="M1954.949,1688.984c-.189-.149-.375-.3-.558-.456,1.122-1.793,3.053-1.367,4.7-1.713,1.547-.189,3.073-.27,4.341.9,4.329-1.952,7.245,1.207,10.56,2.926a1.885,1.885,0,0,1-2.087,1.934c-2.667-.058-5.194,1.083-7.867.784-1.953-.157-3.9-.415-5.825-.746S1954.714,1691.38,1954.949,1688.984Z" transform="translate(-1923.172 -1681.472)" fill="#b493ad"/>
      <path id="パス_944" data-name="パス 944" d="M1962.143,1688.083c-1.689.867-3-.09-4.341-.9a7.291,7.291,0,0,1,5.71-1.374Z" transform="translate(-1921.881 -1681.843)" fill="#8d587b"/>
      <path id="パス_945" data-name="パス 945" d="M2017.592,1744.211a17.656,17.656,0,0,1-5.821-2.85c-1.93-2.92,2.161-5.536.531-7.645-.776,4.474-1.344,9.771-2.558,14.953a3.509,3.509,0,0,1-2.262,2.629c-2.885-2.035-4.9-1.077-6.543,1.753a11.657,11.657,0,0,1-4.517,4.333c-1.09.6-2.4,1.534-3.237-.432.08-2.144,1.664-3.318,2.988-4.659,5.8-6.787,7.994-14.826,8.254-23.564.05-1.657-.382-3.505,1.239-4.782,1.14.442,1.809,2.341,3.436,1.232,1.238-.844,1.259-2.309,1.45-3.615.257-1.745-1.172-3.509-.228-5.415,1.66.71,1.233,2.159,1.716,3.17.548,1.148-.171,3.556,2.1,3.046a3.117,3.117,0,0,0,2.48-4.013c-.858-2.339-.1-4.466.031-6.685a55.574,55.574,0,0,1,3.536,22.665c-.086,2.385-.512,4.757-.782,7.135C2019.231,1742.666,2018.921,1743.776,2017.592,1744.211Z" transform="translate(-1908.492 -1672.025)" fill="#bdadbc"/>
      <path id="パス_946" data-name="パス 946" d="M2008.574,1709.641c-2.2.852-2.556,3.633-4.729,4.511-3.574-1.355-6.119-4.116-8.92-6.53-2.01-2.387-4.753-3.791-7.3-5.456-2.085-1.146-4.489-1.672-6.354-3.245-1.865-1.221-2.427-2.891-1.2-4.768,1.188-1.818,3.093-2.014,4.97-1.249,3.694,1.5,7.205,3.5,11.328,3.744a3,3,0,0,1,2.12,1.689,4.6,4.6,0,0,0,3.4,1.824,3.524,3.524,0,0,1,1.508,1.064,5.227,5.227,0,0,1,.769,2.8c.3,1.854,2.237,1.534,3.246,2.447C2008.183,1707.391,2009.027,1708.279,2008.574,1709.641Z" transform="translate(-1913.702 -1679.285)" fill="#cfc0ce"/>
      <path id="パス_947" data-name="パス 947" d="M1998.054,1704.705l.48-2.319a.808.808,0,0,1,1.065.033.81.81,0,0,0-.247-.2c-.973-.682-1.72-1.71-2.991-1.949a3.813,3.813,0,0,1-1.607-1.045,20.8,20.8,0,0,0-2.425-2.627c-2.178-1.847-2.136-3.548.606-4.842l.006,0c.388.1.957.063,1.14.312,2.247,3.066,5.311,5.115,8.519,7l2.361,2.33c-1.586.752-2.929,1.462-1.181,3.494.622.724.6,2,.878,3.019-1.5.54-1.948-1.734-3.418-1.274A3.134,3.134,0,0,1,1998.054,1704.705Z" transform="translate(-1909.402 -1679.558)" fill="#b79cb2"/>
      <path id="パス_948" data-name="パス 948" d="M2004.795,1724.135c.635,10.687-1,20.715-8.421,29.068-1.358-.646-.761-1.789-.722-2.792,4.1-8.215,7.041-16.678,5.566-26.1a33.6,33.6,0,0,0-2.258-7.631c-.638-1.552-1.694-3.114-.867-4.957a1.365,1.365,0,0,1,1.625-.471A40.845,40.845,0,0,1,2004.795,1724.135Z" transform="translate(-1907.621 -1672.213)" fill="#5b4255"/>
      <path id="パス_949" data-name="パス 949" d="M2001.834,1714.6l-1.165.2c-3.592-.205-4.128-3.869-6.36-5.618-1.7-1.927-4.832-2.863-4.368-6.29.906-1.006,1.563-.463,2.177.352,2.676,2.3,5.827,4.079,7.76,7.179Q2000.856,1712.51,2001.834,1714.6Z" transform="translate(-1909.737 -1675.554)" fill="#4e2f43"/>
      <path id="パス_950" data-name="パス 950" d="M2002.084,1705a6.129,6.129,0,0,1,2.092,5.554,13.74,13.74,0,0,1-2.549-4.844Q2001.266,1704.976,2002.084,1705Z" transform="translate(-1905.339 -1674.549)" fill="#9c8c9a"/>
      <path id="パス_951" data-name="パス 951" d="M2003.12,1706.077l-.456.71-1.417-.8-1.854-2.524c-.338-.3-.757-.56-.561-1.125,1.744-.828,1.65,1.465,2.8,1.647Z" transform="translate(-1906.374 -1675.626)" fill="#533b4a"/>
      <path id="パス_952" data-name="パス 952" d="M2011.334,1736.03q.908-1.371,1.815-2.743c.341,3.048-.849,5.762-1.844,8.52C2008.445,1739.866,2010.092,1737.949,2011.334,1736.03Z" transform="translate(-1902.234 -1663.844)" fill="#a18799"/>
      <path id="パス_953" data-name="パス 953" d="M1987.864,1773.531c-5.016-1.019-10.175-1.282-15.134-2.218-2.707-.51-5.346-2.772-8.527-2.886-2.639-3.838-6.141-6.791-9.5-9.976-3.995-3.789-6.9-8.713-10.411-13.029-2.637-3.235-3.781-7.2-5.7-10.779-.677-1.264-.98-2.489-.1-3.772a1.793,1.793,0,0,1,2.125-.309,2.624,2.624,0,0,1,1.409,1.8c.284,2.432,1.919,3.125,3.988,3.38a3.245,3.245,0,0,1,.883.747c2.048,3.913,4.855,7.4,6.543,11.517,6.185,5.939,11.583,12.815,19.692,16.443,3.532,2.58,7.749,2.307,11.779,2.928,3.757.579,7.591.178,11.31,1.057-.26,2.126-2.183,1.474-3.385,2.029C1991.055,1771.284,1988.492,1770.844,1987.864,1773.531Z" transform="translate(-1929.393 -1664.956)" fill="#cfb9cb"/>
      <path id="パス_954" data-name="パス 954" d="M1987.112,1762.089c-8.079,1.252-15.983,1.1-23.412-2.9-.275-.955-1.913-.919-1.649-2.267,1.508-1.427,2.648-.043,3.928.484,2.929,1.2,5.816,2.666,9.156,1.922a17.375,17.375,0,0,1,2.35.118,19.532,19.532,0,0,0,9.9-.481,8.677,8.677,0,0,1,1.085-.23c3.923-.937,7.9-1.74,10.914-4.769a3.032,3.032,0,0,1,1.006-.569c3.271-.514,5.544-2.8,8.082-4.592,1.148-.812,2.025-2.162,3.745-1.536.706.88.386,1.49-.513,1.948C2004.653,1755.7,1996.065,1759.241,1987.112,1762.089Z" transform="translate(-1920.284 -1658.614)" fill="#5e4153"/>
      <path id="パス_955" data-name="パス 955" d="M1998.065,1751.925l.269-1.717c-.17-3.173,2.922-4.506,3.95-7,1.7-1.217,2.968-3.132,5.335-3.252-1.8,3.631-4.749,6.44-6.994,9.752Z" transform="translate(-1906.645 -1661.322)" fill="#796574"/>
      <path id="パス_956" data-name="パス 956" d="M2006.241,1746.422c-2.054.6-2.163,3.34-4.269,3.884-.626-1.27-.055-2.214.834-3.073a2.778,2.778,0,0,1,1.292-.451c2.321-2.889,2.451-6.483,2.908-9.879.63-4.674,1.822-9.282,2.015-14.05,1.722,4.805.717,9.54-.476,14.274C2008.34,1740.365,2008.325,1743.65,2006.241,1746.422Z" transform="translate(-1905.267 -1667.792)" fill="#9c8a98"/>
      <path id="パス_957" data-name="パス 957" d="M1994.743,1692.139c-1.178,1.665-1.337,3.13.7,4.318a5.029,5.029,0,0,1,2.7,2.8c-1.425.524-2.336-.372-3.28-1.184-2.007-1.264-4.313-1.9-6.381-3.053-1.191-.665-2.31-1.268-2.48-2.786,1.17-2.383,3.355-1.129,5.052-1.234C1992.257,1690.924,1993.513,1691.726,1994.743,1692.139Z" transform="translate(-1911.209 -1679.937)" fill="#a7859d"/>
      <path id="パス_958" data-name="パス 958" d="M1980.284,1691.559c-1.448-2.139.371-3.358,1.356-4.811.6,2.415,4.409,3.29,3.166,6.59q-.242.124-.482.252C1982.754,1693.359,1981.028,1693.433,1980.284,1691.559Z" transform="translate(-1913.578 -1681.455)" fill="#ad86a1"/>
      <path id="パス_959" data-name="パス 959" d="M1987.123,1691.941c3.181,1.7,6.615,2.946,9.47,5.238-.605.915-1.369.456-2.083.218-3.9-1.3-8.071-1.939-11.378-4.678a.786.786,0,0,1,.425-1.105v-.084Z" transform="translate(-1912.328 -1679.646)" fill="#67485e"/>
      <path id="パス_960" data-name="パス 960" d="M1989.356,1692.692l13.445,4.951,2.668,1.784,1.177.732a2.012,2.012,0,0,1-.2,1.8c-.658.01-1.625.31-1.926-.013-4.064-4.369-10.4-3.766-14.99-6.942a2.627,2.627,0,0,0-3.336.221c-1.394,1.173-.7,2.343.316,3.4.251.869,1.156,1.616.5,2.655a2.073,2.073,0,0,1-2.617.342c-3.458-2.455-7.49-1.626-11.28-2.166-1.815-.961-4.041.207-5.795-1.1-.659-2.21.58-4.61-.678-6.764,1.016-1.6,2.66-1.177,4.142-1.282,2.691.9,5.47.558,8.222.575l6.094,1.173A3.2,3.2,0,0,1,1989.356,1692.692Z" transform="translate(-1918.538 -1680.111)" fill="#c1adbd"/>
      <path id="パス_961" data-name="パス 961" d="M1974.3,1690.584l-4.025,1.052c-3.6,3.1-7.838,3.744-12.385,3.2a1.614,1.614,0,0,1-.5-1.629c1.353-2.3,3.783-1.689,5.818-2.146a48.427,48.427,0,0,0,9.67-1.5Z" transform="translate(-1922.056 -1680.392)" fill="#886b80"/>
      <path id="パス_962" data-name="パス 962" d="M1984.443,1692.716l-4.26-.641c-.706-.674-.841-1.3.147-1.837,1.574.458,3.441.209,4.523,1.865l-.221.3Z" transform="translate(-1913.625 -1680.135)" fill="#805f75"/>
      <path id="パス_963" data-name="パス 963" d="M1971.447,1691.51l-5.289,2.338c-.817.287-.653,1.257-1.2,1.733a15.341,15.341,0,0,0-5,5.018,5.017,5.017,0,0,1-2.39,1.5c-1.625.389-1.986,2.222-3.329,2.931-4.615,2.527-5.967,7.088-7.277,11.671a5.061,5.061,0,0,1-.353,2.331c-1.224,2.608-2.408,5.238-3.464,7.925a3.676,3.676,0,0,1-.794.833c-1.274.569-1.472,1.447-1.361,2.866.371,4.716.352,9.463,1.385,14.119a1.628,1.628,0,0,1-1.147,2.191l-1.833-.2c-2.225-2.424-1.4-6.21-3.827-8.545,1.352-2.038,1.052-4.473.972-6.6-.212-5.6,1.526-10.593,3.577-15.63,1.5-3.676,2.724-7.392,5.04-10.742a53.27,53.27,0,0,1,14.632-14.706,9.484,9.484,0,0,0,2.284-2.181C1964.525,1691.409,1968.292,1690.549,1971.447,1691.51Z" transform="translate(-1930.295 -1680.846)" fill="#d3bbcf"/>
      <path id="パス_964" data-name="パス 964" d="M2021.789,1741.344a7.835,7.835,0,0,1-.408.675,4.1,4.1,0,0,0-2.695,2.219c-3.184,5.931-8.392,9.542-14.039,12.712-.569.32-.859,1.008-1.433,1.362a1.114,1.114,0,0,1-.558.438c-3.872,1.64-7.934,2.816-11.677,4.775l-.059.014a20.807,20.807,0,0,0-10.934.8l-1.65-.1c-2.572-.985-5.614.028-7.971-1.873-.844-3.063-3.49-1.944-5.482-2.356a28.263,28.263,0,0,0-4.643-2.605c-2.959-1.239-4.532-3.969-5.282-7.093,1.854-1.811,3.515-.75,4.884.571,3.227,3.111,6.838,4.888,11.463,4.55a7.807,7.807,0,0,1,5.973,1.9c2.653,2.438,4.188,1.03,5.456-1.482.094-.17.193-.334.287-.5a2.793,2.793,0,0,1,.9-.7c1.989-.266,4.065-.137,5.871-1.274a16,16,0,0,1,4.484-.685c3.61-.248,6.444-2.349,9.524-3.893,1.275-.638,2.372-2.463,4.2-1.042,4.472-1.46,5.967-6.061,9.191-8.895,3.155-2.775,3.647-1.794,4.174,1.373A5.82,5.82,0,0,0,2021.789,1741.344Z" transform="translate(-1922.958 -1662.352)" fill="#cbbdc9"/>
      <path id="パス_965" data-name="パス 965" d="M1997.423,1746.859c-4.568,2.741-8.932,5.915-14.367,6.838-.663-2.091.808-2.86,2.251-3.647,2.046-1.045,4.609-.886,6.316-2.725,2.166-2.379,4.864-4.183,7.006-6.591a2.5,2.5,0,0,1,3.2-.857l-.693,2.575Z" transform="translate(-1912.386 -1661.46)" fill="#6d5364"/>
      <path id="パス_966" data-name="パス 966" d="M1993.967,1704.572l-1.95-.251c-3.269.266-5.239-1.714-7.01-4.046a1.24,1.24,0,0,1,1.026-1.449C1988.965,1700.343,1991.966,1701.767,1993.967,1704.572Z" transform="translate(-1911.587 -1676.885)" fill="#604b5c"/>
      <path id="パス_967" data-name="パス 967" d="M1987.551,1699.77l-.695,1.042c-2.629,1.245-4.135-.177-5.366-2.258a2.564,2.564,0,0,1-.411-2.221Z" transform="translate(-1913.105 -1677.828)" fill="#7f687a"/>
      <path id="パス_968" data-name="パス 968" d="M1995.559,1699.248c-.138-.622-.316-1.247.2-1.8,1.165,1.691,3.217,2.638,4,4.778-1.643.2-1.814-1.65-2.977-2Z" transform="translate(-1907.648 -1677.404)" fill="#4f3648"/>
      <path id="パス_969" data-name="パス 969" d="M1999.862,1702.712l.561,1.125c-2.022.026-4.107.157-4.365-2.685Z" transform="translate(-1907.405 -1676.005)" fill="#c6b6c4"/>
      <path id="パス_970" data-name="パス 970" d="M2012.359,1752.377a90.535,90.535,0,0,1-9.821,9.133c-2.427-.514-4.246.645-5.936,2.157-.885.981-2.662.906-3.015,2.529l-3.162.031a17.217,17.217,0,0,1-6.594.626l.07.009c-8.195-.017-15.774-1.928-22.27-7.2-1.038-.842-2.261-1.435-3.227-2.375-.568-2.225-3.55-3.07-3.315-5.76,2.557-2.061,4.407-.227,6.383,1.128s3.416,3.234,5.406,4.652c5.063,3.606,10.958,2.914,16.471,4.108,2.193.475,3.389-1.157,4.493-2.722,3.646-2.352,8.162-3.049,11.463-6.051,3.656-3.03,7.005-6.288,8.435-11.016,3.43-8.417,1.821-16.475-1.8-24.366-1.226-2.673-2.981-5.052-4.426-7.609a2.811,2.811,0,0,1,.095-1.168c1.72-2.852,4.411-1.712,6.841-1.651,2.719,1.347,3.613,4.236,5.39,6.379C2021.117,1726.56,2019.9,1739.59,2012.359,1752.377Z" transform="translate(-1922.912 -1673.962)" fill="#c2b4c1"/>
      <path id="パス_971" data-name="パス 971" d="M1991.08,1763.236c-1.786,3.908-4.425,5.465-8.637,3.387a6.754,6.754,0,0,0-3.137-.179c-6,.324-10.5-2.761-14.639-6.519-2.076-1.884-3.963-3.963-6.855-4.593l-.489-.282c-3.777-5.238-5.339-11.4-7.124-17.441a21.526,21.526,0,0,1-1.079-5.041c-.121-4.374.627-8.7.733-13.051.019-.82-.11-1.81.517-2.273,3.1-2.3,3.351-6.243,5.428-9.113,4.519-.819,6.564-4.579,9.142-7.709,2.985-1.213,6.215.036,9.278-.962,1.666-.543,3.313-.848,4.263-2.5a1.867,1.867,0,0,1,1-.49c5.075-1.6,9.643-.059,14.08,2.284,2.01.225,3.562,1.54,5.365,2.258,2.436,1.169,4.859,2.358,6.679,4.452l5.112,5.428c-1.407,2.665-4.257.772-6.138,1.938-4.407-.82-7.958-3.821-12.3-4.831-.751-.175-1.457-.59-2.218-.791-1.483-.791-3.249-.04-4.73-.846-5.231-.924-10.324-.8-15.055,2.017a23.389,23.389,0,0,0-6.189,4.11c-2.458,3.394-4.988,6.745-5.7,11.031-.422,1.471-1.334,2.758-1.616,4.286.244,2.686-.575,5.5,1.025,8.018a5.829,5.829,0,0,1,.668,2.783c-.117,6.791,4.753,10.814,8.573,15.419,6.077,5.259,13.247,7.682,21.16,8.188C1989.244,1762.276,1990.367,1762.2,1991.08,1763.236Z" transform="translate(-1925.173 -1678.025)" fill="#d5c6d4"/>
      <path id="パス_972" data-name="パス 972" d="M1940.141,1736.385c-2.122-5.807-1.395-11.882-1.7-17.862-.085-1.686.433-2.6,2.3-2.057,1.7.857,2.147,2.5,2.63,4.134a21.8,21.8,0,0,0,1.394,11.713c.355,1.232-.042,2.544.408,3.766-.784,1.905,1.269,3.727.169,5.643C1939.53,1743.924,1941.1,1738.92,1940.141,1736.385Z" transform="translate(-1929.209 -1670.268)" fill="#dec8dc"/>
      <path id="パス_973" data-name="パス 973" d="M1967.156,1758.93l1.7,2.1c-8.794-3.47-14.636-10.42-20.476-17.371a1.248,1.248,0,0,1,1.2-1.414c2.3.2,3.265,2.226,4.564,3.617,3.588,3.843,6.226,8.633,11.427,10.816A3.47,3.47,0,0,1,1967.156,1758.93Z" transform="translate(-1925.446 -1660.454)" fill="#512944"/>
      <path id="パス_974" data-name="パス 974" d="M1950.96,1745.151l-.919,1.272c-1.849-3.854-5.4-6.8-6.036-11.3a2.122,2.122,0,0,1,1.225-.142A13.377,13.377,0,0,1,1950.96,1745.151Z" transform="translate(-1927.102 -1663.218)" fill="#4e2d45"/>
      <path id="パス_975" data-name="パス 975" d="M1945.4,1737.146l-.722-.436-.765-.448c-.233-1.873-2.784-3.265-1.147-5.526C1946.113,1732,1946.85,1733.792,1945.4,1737.146Z" transform="translate(-1927.777 -1664.809)" fill="#503047"/>
      <path id="パス_976" data-name="パス 976" d="M1945.676,1741.792c.313-2.624-.889-4.628-2.634-6.409a3.945,3.945,0,0,1-.523-3.173c-.265-2.666-1.359-5.237-.917-7.982.827-1.733.875-3.741,1.913-5.4a1.751,1.751,0,0,1,1.116-.363,2.53,2.53,0,0,1,1.821,1.487,3.256,3.256,0,0,1,.25,1.152c.156,2.3-2.382,4.5-.247,6.881a3.653,3.653,0,0,1,.3,1.676c-.562,1.923-1.516,3.911.888,5.347,1.733,1.752,2.5,4.1,3.547,6.215a40.544,40.544,0,0,0,8.094,11.73c1.176,1.123,1.948,2.578,1.2,4.339,2.346,2.439,3.239,6.474,7.708,6.59,1.418.037,1.326,2.193,2.513,2.878,1.815.754,4.361-.806,5.6,1.768.437,1.638,1.673,1.286,2.848,1.177a5.669,5.669,0,0,1,4.266,1.636c-5.175,1.345-9.2-1.9-13.667-3.409-7.314-4.044-12.382-10.511-17.853-16.544Z" transform="translate(-1928.052 -1669.454)" fill="#ba9ab3"/>
      <path id="パス_977" data-name="パス 977" d="M1989.965,1757c.177-1.347.278-2.977,1.8-3.319,4.125-.926,6.1-4.875,9.653-6.56,1.058-.5,1.271-1.629,1.712-2.615.958-2.137,2.179-4.055,5-3.8q-.86,1.423-1.717,2.848l-5.017,6.371C1997.93,1752.84,1994.745,1756.208,1989.965,1757Z" transform="translate(-1909.71 -1661.043)" fill="#bea8b9"/>
      <path id="パス_978" data-name="パス 978" d="M1973.114,1757.737c2.068-3.664,8.633-4.146,10.934-.8C1980.522,1758.807,1976.912,1759.543,1973.114,1757.737Z" transform="translate(-1916.087 -1655.747)" fill="#bea8b9"/>
      <path id="パス_979" data-name="パス 979" d="M1981.089,1757.652c1.57-2.4,9.338-5.579,11.677-4.775C1989.549,1756.117,1985.288,1756.807,1981.089,1757.652Z" transform="translate(-1913.069 -1656.479)" fill="#bea8b9"/>
      <path id="パス_980" data-name="パス 980" d="M1945,1731.091l-1.548-2.013c.282-6.856.044-13.554,6.618-18.6,2.591-1.989,6.44-4.632,6.043-9.289a2.073,2.073,0,0,1,1.29-1.917c2.673-1.122,4.345-3.281,5.995-5.487a55.521,55.521,0,0,1,12.13-2.717c1.381,1.147,2.762,2.294,4.115,3.414-.453,1.771-3.139,1.117-3.161,3.171.188.3-.642.726-.076.781,1.573.154,3.2-1.533,4.753.13.551,2.106-.476,3.7-2.337,3.909-3.673.407-7.41,2.27-11.115.069-2.143,1.081-3.443,3.368-5.835,4.1-2.826,1.108-4.2,3.811-6.29,5.725-3.291,2.309-3.749,6.149-5.136,9.488a24.91,24.91,0,0,0-2.409,6.222C1947.713,1729.744,1946.991,1731.071,1945,1731.091Z" transform="translate(-1927.311 -1679.822)" fill="#c8b6c6"/>
      <path id="パス_981" data-name="パス 981" d="M1973.337,1696.9c-3.048-.228-5.839,1.035-9.209,1.824,1.162-2.21,3.212-1.858,4.532-2.735,1.693.373,3.687-1.806,5.136.613A1.556,1.556,0,0,0,1973.337,1696.9Z" transform="translate(-1919.488 -1678.164)" fill="#634b60"/>
      <path id="パス_982" data-name="パス 982" d="M1964.182,1693.3c.039,2.794-.757,4.987-3.832,5.765-.711.181-1.9.9-1.862,1.253.8,6.676-5.107,8.649-8.563,12.271-3.333,3.492-3.234,8.091-4.328,12.294a11.587,11.587,0,0,1-1.36,3.713l-.081.061c-2.3,1.063-3.158-.245-2.615-2.1a6.709,6.709,0,0,0-.052-4.141c.007-2.021,2.255-3.367,1.668-5.565l-.108-1.33c2.024-1.639,1.771-4.477,3.347-6.351,1.8-.653,3.254-.98,3.693-3.722.386-2.411,3.551-3.987,5.045-6.3a1.6,1.6,0,0,1,1.686-.324c1.395-2.364,3.614-3.916,5.609-5.69l1.53-.786Q1964.07,1692.82,1964.182,1693.3Z" transform="translate(-1928.094 -1679.339)" fill="#b9a1b4"/>
      <path id="パス_983" data-name="パス 983" d="M1942.865,1714.272c1.167,1.21,2.205,2.3.575,4.063-1.313,1.421.19,1.7,1.2,2.021-.131,2.051-.378,4.062-1.869,5.662-1.682-1.292-1.019-3.013-.853-4.644a4.122,4.122,0,0,1-1.806-4.137q.215-.368.429-.736C1941.672,1716.128,1941.377,1714.272,1942.865,1714.272Z" transform="translate(-1928.581 -1671.04)" fill="#aa88a4"/>
      <path id="パス_984" data-name="パス 984" d="M1953.548,1697.275c-.728,2.13.118,5.157-3.562,5.58-.9.1-.3,1.658-.427,2.538-.363,2.556-1.468,3.64-3.985,2.128.134-3.194,2.251-5.124,4.459-7C1951.1,1699.334,1951.243,1697.134,1953.548,1697.275Z" transform="translate(-1926.509 -1677.474)" fill="#a4849c"/>
      <path id="パス_985" data-name="パス 985" d="M1951.161,1699.631l-4.459,6.994c-1.762,1.782-1.122,5.173-4.109,6.133C1944.358,1707.672,1945.67,1702.288,1951.161,1699.631Z" transform="translate(-1927.637 -1676.58)" fill="#7c5673"/>
      <path id="パス_986" data-name="パス 986" d="M1958.19,1692.911c-1.18,2.578-3.5,4.032-5.609,5.69C1952.907,1695.184,1955.712,1694.208,1958.19,1692.911Z" transform="translate(-1923.857 -1679.124)" fill="#806178"/>
      <path id="パス_987" data-name="パス 987" d="M1942.742,1715.844c-.621.9-1.058,2-2.321,2.23.476-2.869,1.926-5.358,3.1-7.955C1944.975,1712.262,1942.267,1713.836,1942.742,1715.844Z" transform="translate(-1928.458 -1672.612)" fill="#916f89"/>
      <path id="パス_988" data-name="パス 988" d="M1944.762,1722.761a13.991,13.991,0,0,0,2.561-6.531c.222-1.265.128-2.718,1.8-3.154,1.734,2.841,1.127,5.933.91,8.96-.684,9.478,2.3,17.917,7.4,25.694.845,1.29,1.526,2.86,3,3.7,5.129,7.591,13.132,9.956,21.407,11.944,1.971.473,4.265.087,5.872,1.8,1.344,3.81-2.681,3.868-4.211,5.345-1.438,1.388-1.9-1.339-2.647-2.386-1.806-2.531-4.7-2.159-6.976-1.9-4.537.524-7.565-1.622-10.44-4.458-1.146-1.129-2.094-2.471-3.93-2.455-2.3-2.671-3.995-5.82-7.372-7.6-1.6-.845-.713-3.486-1.858-5.11a37.13,37.13,0,0,1-4.64-8.895c-1.2-1.956-.335-4.172-.786-6.222l-.251-1.112c-1.429-2.575.589-5.075.16-7.628Z" transform="translate(-1927.072 -1671.492)" fill="#d5c4d4"/>
      <path id="パス_989" data-name="パス 989" d="M1983.484,1754.707c-7.054-1.356-14.088-2.637-20.5-6.266a20.635,20.635,0,0,1-7.718-7.208c2.535-1.508,2.782.86,3.657,2.161,6.065,5.766,13.784,7.715,21.628,9.381,1.138.241,2.454-.008,3.275,1.147Z" transform="translate(-1922.839 -1661.021)" fill="#735b6a"/>
      <path id="パス_990" data-name="パス 990" d="M1968.294,1755.539c-1.966-.276-4.044-.2-5.6-1.767C1964.88,1753.345,1967.677,1750.989,1968.294,1755.539Z" transform="translate(-1920.031 -1656.467)" fill="#bea8b9"/>
      <path id="パス_991" data-name="パス 991" d="M1975.938,1750.507c2.113-1.067,4.361-.726,6.59-.627C1980.508,1751.93,1978.224,1751.231,1975.938,1750.507Z" transform="translate(-1915.019 -1657.615)" fill="#654c5c"/>
      <path id="パス_992" data-name="パス 992" d="M1985.2,1748.994c2.179-3.99,4.25-4.745,5.936-2.157Z" transform="translate(-1911.512 -1659.288)" fill="#b498ac"/>
      <path id="パス_993" data-name="パス 993" d="M1961.931,1756.625c-1.256-.657-1.716-2.66-3.657-2.161-8.282-8.458-11.315-18.81-10.564-30.344.18-2.775-1.074-5.565.19-8.283,1.287-3.642,1.946-7.625,5.464-10.054a2.625,2.625,0,0,1,.814,3.469c-5.054,5.711-3.257,12.724-3.737,19.3a40.837,40.837,0,0,0,4.558,16.243c1.093,2.244,2.183,4.532,3.471,6.7l.012.069C1958.738,1753.857,1962.523,1753.753,1961.931,1756.625Z" transform="translate(-1925.845 -1674.252)" fill="#9c8494"/>
      <path id="パス_994" data-name="パス 994" d="M1986.481,1747.313c-9.634.825-17.97-2.21-25.224-8.472.2-.737.768-.918,1.434-.949,2.983,1.5,5.965,3.1,9.033,4.312,6.106,2.4,12.461,4.021,18.908.844,2.019-1,3.948-2.219,6.271-2.436.7.346.651.963.576,1.589A37.967,37.967,0,0,1,1986.481,1747.313Z" transform="translate(-1920.573 -1662.102)" fill="#745869"/>
      <path id="パス_995" data-name="パス 995" d="M1989.632,1708.667c7.948,7.507,11.4,23.288,7.059,32.271-.189.844-.482,1.572-1.567,1.434a2.813,2.813,0,0,1-.736-3.319c3.008-10.014-.31-18.734-5.413-27.115a13.616,13.616,0,0,1-.871-1.358,2.444,2.444,0,0,1,.065-1.8C1988.622,1708.28,1989.088,1707.933,1989.632,1708.667Z" transform="translate(-1910.469 -1673.321)" fill="#533a4c"/>
      <path id="パス_996" data-name="パス 996" d="M1993.217,1710.611l-1,.128a1.905,1.905,0,0,1-1.865.438c-3.839-2.007-8.233-2.937-11.555-5.949a2.257,2.257,0,0,1-.077-2.12c5.344,1.406,10.669,2.856,14.742,6.958C1993.37,1710.244,1993.288,1710.426,1993.217,1710.611Z" transform="translate(-1914.053 -1675.264)" fill="#755e71"/>
      <path id="パス_997" data-name="パス 997" d="M1995.2,1733.017l1.723-1.055a26.547,26.547,0,0,1-9.318,12.48l-.195-1.278a2.249,2.249,0,0,1,.462-2.012c1.381-1.934,2.323-4.143,3.808-6.016C1992.6,1733.98,1993.473,1732.8,1995.2,1733.017Z" transform="translate(-1910.704 -1664.345)" fill="#68495f"/>
      <path id="パス_998" data-name="パス 998" d="M1955.123,1735.027l.092-1.764c-1.45-2.785-.078-6.093-1.65-8.855a8.531,8.531,0,0,1,1.2-4.29c2.125-1.962,2.936-4.757,4.35-7.149a30.288,30.288,0,0,1,3.676-5.213c2.265-.937,3.851-3.264,6.592-3.229a1.523,1.523,0,0,1,.9.743c.258,1.516-.825,2.457-1.511,3.588-2.219,3.672-4.463,7.334-6.666,11.011-3.42,5.706-2.19,11.378-.978,17.13a61.358,61.358,0,0,0,2.091,6.935c.456,1.346,1.1,2.874-.62,3.945-3.2-2.069-4.782-5.279-5.984-8.7A32.754,32.754,0,0,0,1955.123,1735.027Z" transform="translate(-1923.485 -1674.728)" fill="#c1a8bc"/>
      <path id="パス_999" data-name="パス 999" d="M1949.423,1729.259c-.894-7.575-.973-15.012,3.611-21.672.1-1.811,1.667-2.259,2.856-3.057a.841.841,0,0,1,.739.688c-1.148,3.083-2.229,6.037-4.438,8.769-2.069,2.561-1.278,6.55-1.5,9.892-.128,1.954.157,3.937-.519,5.857a.584.584,0,0,1-.6-.161C1949.439,1729.416,1949.388,1729.31,1949.423,1729.259Z" transform="translate(-1925.235 -1674.726)" fill="#b79fb2"/>
      <path id="パス_1000" data-name="パス 1000" d="M1949.589,1722.471l.751.477c2.037,7.591,5.042,14.848,7.688,22.228a33.457,33.457,0,0,1-7.454-15.193,16.82,16.82,0,0,0-1.657-4.468C1948.242,1724.2,1948.339,1723.26,1949.589,1722.471Z" transform="translate(-1925.401 -1667.938)" fill="#c2b4c1"/>
      <path id="パス_1001" data-name="パス 1001" d="M1957.483,1702.43c1.937-1.15,2.812-4.487,6.058-2.931.194,3.368-5.4,8.195-9,7.774l-.077-.288A5.048,5.048,0,0,1,1957.483,1702.43Z" transform="translate(-1923.145 -1676.783)" fill="#b8a1b1"/>
      <path id="パス_1002" data-name="パス 1002" d="M1966.075,1706.169q-.325-.172-.645-.351c-.487-.244-1.224-.1-1.358-.885a20.146,20.146,0,0,1,15.882-2.127,2.791,2.791,0,0,1-1.352,1.657c-.885.667-2.025.547-3,.969a3.143,3.143,0,0,1-1.046.077c-1.6.106-3.111.7-4.71.816C1968.575,1706.628,1967.3,1707.077,1966.075,1706.169Z" transform="translate(-1919.508 -1675.674)" fill="#af95a8"/>
      <path id="パス_1003" data-name="パス 1003" d="M1954.694,1726.653c2.86,4.022,3.624,9.311,7.631,12.641a2.954,2.954,0,0,1,3.144,2.488,1.142,1.142,0,0,1-.5,1.07q-.612.12-1.226.241C1959.582,1738.242,1954.736,1733.769,1954.694,1726.653Z" transform="translate(-1923.057 -1666.355)" fill="#846e80"/>
      <path id="パス_1004" data-name="パス 1004" d="M1963.615,1707.2c-3.394,2.12-4.1,6.117-6.316,9.057-.854,1.132-1.091,2.82-2.864,3.1a40.774,40.774,0,0,1,7.064-12.476C1962.274,1706.532,1963.046,1706.2,1963.615,1707.2Z" transform="translate(-1923.156 -1673.967)" fill="#64445c"/>
      <path id="パス_1005" data-name="パス 1005" d="M1961.675,1708.111l-2.116-.321c1.937-1.451,3.784-3.053,6.221-3.656.538.164,1.255.052,1.358.885C1964.949,1705.4,1963.7,1707.44,1961.675,1708.111Z" transform="translate(-1921.216 -1674.876)" fill="#86687b"/>
      <path id="パス_1006" data-name="パス 1006" d="M1953.564,1718.949c2.717,2.55,1.194,5.885,1.647,8.855C1952.651,1725.227,1954.2,1721.887,1953.564,1718.949Z" transform="translate(-1923.485 -1669.27)" fill="#856a80"/>
      <path id="パス_1007" data-name="パス 1007" d="M1974.422,1703.541c-.106-1.416,1.1-.6,1.618-.95l4.216.713.243,1.3C1977.531,1706.913,1976.64,1706.757,1974.422,1703.541Z" transform="translate(-1915.595 -1675.46)" fill="#6c5769"/>
      <path id="パス_1008" data-name="パス 1008" d="M1941.663,1719.426q.426,2.322.853,4.644c-.219,2.6,1.05,5.152.271,7.774C1941.323,1727.8,1939.752,1723.772,1941.663,1719.426Z" transform="translate(-1928.322 -1669.09)" fill="#70526c"/>
      <path id="パス_1009" data-name="パス 1009" d="M1944.929,1726.443c2.583,1.782.782,4.116.786,6.222C1943.04,1730.895,1943.8,1728.692,1944.929,1726.443Z" transform="translate(-1927.144 -1666.434)" fill="#c8b6c6"/>
      <path id="パス_1010" data-name="パス 1010" d="M1945.058,1720.1a14.272,14.272,0,0,1-.158,7.626c-2.192-.528-1.583-2.131-1.242-3.5C1944.008,1722.826,1944.583,1721.477,1945.058,1720.1Z" transform="translate(-1927.364 -1668.834)" fill="#c8b6c6"/>
      <path id="パス_1011" data-name="パス 1011" d="M1958.524,1701.515l-3.019,4.557-3.519,2.656c-.093-.442-.186-.886-.278-1.329C1954.478,1706.014,1954.89,1701.9,1958.524,1701.515Z" transform="translate(-1924.187 -1675.868)" fill="#867081"/>
      <path id="パス_1012" data-name="パス 1012" d="M1962.146,1738.691a5.248,5.248,0,0,1,.154-.654c3.334-1.067,6.343.417,9.24,1.534,7.464,2.882,14.662,3.668,21.839-.834,1.482-.929,3.825-2.355,4.462,1.183l-.895,1.094c-10.845,7.941-21.524,5.514-32.133-.544C1963.887,1739.941,1963.034,1739.286,1962.146,1738.691Z" transform="translate(-1920.238 -1662.193)" fill="#c3acbd"/>
      <path id="パス_1013" data-name="パス 1013" d="M1999.919,1752.573c-.934-1.439-1.968-1.057-3-.136-2.658,2.383-6.133,3.239-9.348,3.957a17.912,17.912,0,0,1-9.659-1.058c-4.5-1.584-9.286-2.326-13.537-4.646a7.892,7.892,0,0,1-2.8-2.9,7.1,7.1,0,0,0-.82-3.008c-3.115-7.015-5.588-14.575-3.063-21.918a44.194,44.194,0,0,1,11.182-17.52,5.944,5.944,0,0,1,3.737-1.125c1.293.833,3.8-.088,3.857,2.485.048,2.148-1.308,3.334-3.245,4-.783.267-1.569.66-.579,1.617,1.339,1.037,2.509-.084,3.748-.27,2.918-.356,5.8-1.594,8.769-.3,4.2,3.078,4.134,4.776-.274,6.967a8.984,8.984,0,0,0-2.936,2.517,28.977,28.977,0,0,1-3.024,1.952c-5.635,3.418-6.57,5.945-4.442,12.25.272,2.444,2.174,4.062,3.135,6.157,1.356,2.331,3.723,4.553.794,7.34-2.735,1.636-4.5-.706-6.607-1.621-2.645-.59-3.737-2.9-5.354-4.636,1.587,1.664,2.593,3.956,5.157,4.563,4.526,3.836,9.475,1.224,14.269.929a3.4,3.4,0,0,1,1.028-.417,10.547,10.547,0,0,0,5.206-1.533,17.576,17.576,0,0,0,5.472-5.679l.951-1.462c5.248-6.437,2.509-11.692-3.114-20.351-1.15-1.768-2.972-3.075-4.441-4.625-.954-1.006-2.471-1.785-2.385-3.547,1.529-2.141,3.566-1.213,4.966-.271a8.5,8.5,0,0,0,7.095,1.19c8.118,9.523,10.763,20.094,6.147,32.055C2004.186,1746.286,2003.162,1750.275,1999.919,1752.573Z" transform="translate(-1922.314 -1674.845)" fill="#d3c5d2"/>
      <path id="パス_1014" data-name="パス 1014" d="M1969.023,1713.875c-1.167-.369-2.906.586-3.432-1.176-.342-1.14.534-1.952,1.573-2.452,4.938-2.378,4.936-2.379,2.1-5.679,1.814.265,3.321-1.574,5.215-.758a11.356,11.356,0,0,0,.344,1.45c-.168-.47-.249-.962-.369-1.445l3.334-.535c2.015.419,3.769,2.327,6.077,1.064a49.138,49.138,0,0,1,13.255,6.33l.192,1.143c-1.765,2.993-3.606,4.5-6.57,1.038-1.271-1.487-3.394-1.873-5.416-1.919-.15.088-.3.175-.449.266-1.5.251-2.926-1.129-4.451-.169-2.032.478-4.194.329-6.122,1.3-1.96-.607-3.245.824-4.753,1.58C1969.377,1713.9,1969.2,1713.887,1969.023,1713.875Z" transform="translate(-1918.963 -1675.2)" fill="#dcc9da"/>
      <path id="パス_1015" data-name="パス 1015" d="M1978.517,1715.96c4.109-2.414,4.113-2.442.649-5.3,1.24-2.333,2.817-.176,4.223-.318a3.939,3.939,0,0,1,1.112.52c1.209,1.675,3.071,2.666,4.415,4.2,6.029,7.744,8.976,15.87,3.126,25.086-.911,2.148-2.91,3.194-4.612,4.541-1.778,1.257-3.966,1.409-5.922,2.186l.069-.015c-3.168.156-6.355,1.519-9.492-.16,2.546-2.889-.313-4.727-1.348-6.92,2.193-.642,4.039,1.021,6.149.918a17.472,17.472,0,0,1,2.258.212c8-.031,10.349-9.523,7.671-16.408C1985.145,1720.206,1982.244,1717.868,1978.517,1715.96Z" transform="translate(-1916.986 -1672.82)" fill="#c7b3c6"/>
      <path id="パス_1016" data-name="パス 1016" d="M1968.724,1731.784c-2.873-6.226-1.465-12.672,8.477-15.977.892.117,1.678-.51,2.574-.367,6.644,1.129,7.618,6.432,8.43,11.695.75,4.864-1.239,8.6-5.321,11.295-1.724,1.138-3.583.842-5.443.7C1972.78,1738.765,1971.26,1734.672,1968.724,1731.784Z" transform="translate(-1918.246 -1670.606)" fill="#a6889f"/>
      <path id="パス_1017" data-name="パス 1017" d="M1976.18,1717l-1.667-.708c.954-.569.754-2.578,2.575-2.064,6.812.938,8.379,2.644,10.239,11.153,1.319,6.031-.522,11.364-5.063,14.074-1.428.852-2.98,2-4.875,1.024.028-.612.473-.874.918-1.18,7.064-4.845,8.541-9.612,5.188-17.473C1982.172,1718.72,1980.076,1716.395,1976.18,1717Z" transform="translate(-1915.557 -1671.087)" fill="#aa93a5"/>
      <path id="パス_1018" data-name="パス 1018" d="M1971.98,1709.694c1.629-1.95,4.182-.789,6.087-1.807,1.883-.423,3.128,1.523,4.948,1.332l.025,0a33.232,33.232,0,0,1,13.569,18.65c1.25,4.085-.422,7.293-2.6,10.447-1.13.028-.844-.664-.663-1.3,2.272-8.035.042-14.948-5.264-21.094-2.066-.777-2.787-3.339-5.074-3.822l.1.021c-3.564-2.527-7.569-1.484-11.455-1.413A.715.715,0,0,1,1971.98,1709.694Z" transform="translate(-1916.674 -1673.479)" fill="#c7b3c6"/>
      <path id="パス_1019" data-name="パス 1019" d="M1967.5,1712.9c-4.3,5.774-4.7,12.715-5.591,19.5C1960.132,1724.1,1961.059,1720.806,1967.5,1712.9Z" transform="translate(-1920.628 -1671.558)" fill="#ab98a9"/>
      <path id="パス_1020" data-name="パス 1020" d="M1984,1713.49c6.6,6.4,7.49,14.2,5.54,22.683l-1.077,1.468c-.713.054-.828,1.2-1.715.934,4.485-8.853,2.13-16.8-3.253-24.336Q1983.071,1713.406,1984,1713.49Z" transform="translate(-1912.208 -1671.339)" fill="#82697d"/>
      <path id="パス_1021" data-name="パス 1021" d="M1973.38,1737c3.15.9,6.346-1.044,9.492.16-5.386,1.96-10.675,2.8-15.535-1.337a.477.477,0,0,1,.455-.645C1969.738,1735.537,1971.157,1737.505,1973.38,1737Z" transform="translate(-1918.279 -1663.127)" fill="#806676"/>
      <path id="パス_1022" data-name="パス 1022" d="M1969.711,1737.476q-.225.322-.455.644c-4.867-1.014-5.4-5.419-7.006-9C1964.747,1731.91,1966.324,1735.505,1969.711,1737.476Z" transform="translate(-1920.199 -1665.421)" fill="#8b7589"/>
      <path id="パス_1023" data-name="パス 1023" d="M1968.362,1727.292c2.429.345,2.342,3.053,3.951,4.2a11.016,11.016,0,0,0,4.666,2.2c.021.732,1.074.875.963,1.683-2.405.062-4.375-1.066-6.3-2.3Z" transform="translate(-1917.885 -1666.113)" fill="#836a7f"/>
      <path id="パス_1024" data-name="パス 1024" d="M1972.057,1709.838c4-.571,8.129-1.952,11.459,1.789-1.679,1.132-2.707-1.22-4.254-.8l-8.108.568c-.765-.117-.743-.615-.572-1.184A1.308,1.308,0,0,1,1972.057,1709.838Z" transform="translate(-1917.082 -1672.993)" fill="#67455c"/>
      <path id="パス_1025" data-name="パス 1025" d="M1987.223,1731.943l1.715-.934a12.629,12.629,0,0,1-6.129,6.516c-.73-.273-.974-.649-.262-1.228A18.609,18.609,0,0,0,1987.223,1731.943Z" transform="translate(-1912.679 -1664.706)" fill="#644b5c"/>
      <path id="パス_1026" data-name="パス 1026" d="M1983.9,1734.844l.262,1.228a6.846,6.846,0,0,1-5.607,1.235C1979.921,1735.59,1982.1,1735.638,1983.9,1734.844Z" transform="translate(-1914.029 -1663.255)" fill="#806676"/>
      <path id="パス_1027" data-name="パス 1027" d="M1971.9,1710.082q.126.567.251,1.133a24.134,24.134,0,0,1-3.5,1.384c-1.092.255-.813-.516-.51-1.115l-.011-.019C1969.408,1711.077,1969.912,1708.564,1971.9,1710.082Z" transform="translate(-1918.074 -1672.808)" fill="#846f81"/>
      <path id="パス_1028" data-name="パス 1028" d="M1972.2,1703.67a10.219,10.219,0,0,1,.99.693c.747.659,2.106,1.052,1.358,2.466-.362.688-1.155.642-1.805.46-1.384-.386-1.469-1.388-1.053-2.543a10.124,10.124,0,0,1,.536-1.082Z" transform="translate(-1916.709 -1675.054)" fill="#d3c5d2"/>
      <path id="パス_1029" data-name="パス 1029" d="M1971.824,1710.422l-3.773,1.382c1.212-1.979,2.285-4.255,5.259-2.441q-.161.318-.332.63Z" transform="translate(-1918.003 -1673.148)" fill="#d3c5d2"/>
      <path id="パス_1030" data-name="パス 1030" d="M1981.23,1709.344c-2.115,1.286-3.285-.941-4.948-1.332C1978.453,1706.517,1979.644,1708.665,1981.23,1709.344Z" transform="translate(-1914.889 -1673.605)" fill="#d3c5d2"/>
      <path id="パス_1031" data-name="パス 1031" d="M1975.577,1739.732l-.963-1.683c4.291,1.184,6.629-1.807,8.438-4.622,3.714-5.78-.3-15.209-6.908-17.047,3.815-1.788,5.941.746,7.268,3.467,3.719,7.627,4.093,15.068-6.061,20.013Z" transform="translate(-1915.52 -1670.469)" fill="#684f61"/>
      <path id="パス_1032" data-name="パス 1032" d="M1985.328,1714.466l-.5.75c-1.789-1.269-3.727-2.368-4.957-4.287C1982.676,1710.582,1983.383,1713.479,1985.328,1714.466Z" transform="translate(-1913.532 -1672.316)" fill="#644c60"/>
      <path id="パス_1033" data-name="パス 1033" d="M1971.519,1732.023c-1.217-3.24-1.478-6.4.436-9.529,2.265-3.7,4.017-4.223,8.225-2.281.78.959,1.305,1.955.472,3.153-1.719.754-2.247,2.653-3.6,3.774a2.577,2.577,0,0,1-2.194-.1,3.923,3.923,0,0,1-1.344-1.863c-.7,2.292.807,4.677-.964,6.466A1.766,1.766,0,0,1,1971.519,1732.023Z" transform="translate(-1917.053 -1669.21)" fill="#7c5e76"/>
      <path id="パス_1034" data-name="パス 1034" d="M1971.257,1729.892l.721-.911c1.3-.273,1.56-1.807,2.722-2.25.97-.418,2.1-.243,3.031-.813.8-.43,1.429-1.208,2.449-1.177.987.253.973,1.039.972,1.821a6.121,6.121,0,0,1-5.062,5.948C1973.823,1733.081,1972.24,1731.929,1971.257,1729.892Z" transform="translate(-1916.791 -1667.079)" fill="#7b5e75"/>
      <path id="パス_1035" data-name="パス 1035" d="M1979.04,1728.389l-.846-1.548c-1.615-1.2-1.847-2.532-.365-4.016q-.011-1.458-.024-2.915C1981.667,1722.234,1979.891,1725.379,1979.04,1728.389Z" transform="translate(-1914.678 -1668.906)" fill="#8d7487"/>
      <path id="パス_1036" data-name="パス 1036" d="M1974.87,1729.049c-.335,1.715-.684,3.406-2.969,1.686-1.077-4.13-.352-7.639,3.773-10.628-.011,2.432-2.142,4.039-.94,6.032C1975.708,1727.066,1976.162,1728.017,1974.87,1729.049Z" transform="translate(-1916.715 -1668.832)" fill="#a6889f"/>
      <path id="パス_1037" data-name="パス 1037" d="M1978.624,1722.11q.182,2.007.365,4.016l-1.82,2.776a2.316,2.316,0,0,1-1.722-3.141C1974.2,1721.461,1974.2,1721.461,1978.624,1722.11Z" transform="translate(-1915.474 -1668.192)" fill="#4f3748"/>
      <path id="パス_1038" data-name="パス 1038" d="M1975.789,1724.745c1.321.638,1.441,1.934,1.722,3.141a2.956,2.956,0,0,1-3.541-.493q-.068-1.453-.135-2.91Z" transform="translate(-1915.815 -1667.175)" fill="#604758"/>
    </g>
  </g>
</svg>
