<svg xmlns="http://www.w3.org/2000/svg" width="79.072" height="115.492" viewBox="0 0 79.072 115.492">
  <g id="グループ_135" data-name="グループ 135" transform="translate(-11391.022 -926)">
    <path id="パス_780" data-name="パス 780" d="M2648.072,2308.026c-5.663-14.146-17.541-6.788-25.455.483.544-5.905,7.8-15.95-4.469-10.438-.556.561-3.673,4.591-4.128,2.984-.643-7.521-2.011-14.842-2.527-22.382-.3-5.41-7.666-5.728-9.068-.862-.828,1.816,4.146-.657,4.342,1.366,2.194,8.432,2.068,17.35,3.58,25.824-1.269,2.966-4.642,5.174-6.688,7.786-1.767,2.457-3.946.845-3.5,2.435,4.917,11.1,10.061-4.065,11.069.339,1.4,3.893-.887,7.541-3.478,10.288-2.909,4.741-5.784,9.9-8.633,14.387-.775.948-.667,1.7.652,1.779.773.168,3.272,4.189,4.027,3.61,5.2.2,6.787-6.426,9.386-9.808,1.763,17.216,2.538,34.758,1.25,52.054-.017,1.34,1.8,1.608,2.745,2,7.788.335-2.741-55.137-.19-64.22,1.813-4.961,18.506-25.849,22.873-19.984,2.938,8.131-4.357,12.282-9.974,16.081-.648.52-3.4.605-2.482,1.9,1.018,8.465,11.822,6.372,16.742,1.438a20.191,20.191,0,0,0,4.54-7c2.687-1.65,8.74-1.4,9.753-4.768-2.413-7.145-10.9,3.828-10.363-5.294m-32.651,7.3c-.208-1.816-1.537-7.44.994-7.073.693,2.142-.166,5.452-.994,7.073m24.977,5.244c-.848,1.162-2.139,1.4-3.4,1.725-.61.158-1.215.322-1.821.493-.4.112-.8.237-1.207.356-.037-.083-.073-.168-.108-.25a3.857,3.857,0,0,1,.429-.387c1.235-.839,2.458-1.7,3.725-2.483a2.584,2.584,0,0,1,1.17-.193,4.568,4.568,0,0,1,.952.081c.142.019.371.089.39.176a.682.682,0,0,1-.134.482" transform="translate(8802.026 -1348.376)" fill="#3f3b3a"/>
    <path id="パス_781" data-name="パス 781" d="M2633,2359.627c-21.8,0-39.536-18.342-39.536-40.888s17.735-40.891,39.536-40.891,39.536,18.342,39.536,40.891-17.735,40.888-39.536,40.888m0-79.484c-20.577,0-37.317,17.313-37.317,38.6s16.74,38.593,37.317,38.593,37.317-17.313,37.317-38.593-16.74-38.6-37.317-38.6" transform="translate(8797.563 -1345.157)" fill="#3f3b3a"/>
  </g>
</svg>
