<svg xmlns="http://www.w3.org/2000/svg" viewBox="0 0 129.7 53.3">
  <defs/>
  <defs>
    <style>
      .cls-1{fill:#3e3a39}
    </style>
  </defs>
  <g id="レイヤー_2" data-name="レイヤー 2">
    <g id="レイヤー_1-2" data-name="レイヤー 1">
      <path d="M4.8 23.7c0-1.1-.2-1.4-1.8-2a.6.6 0 010-1.1 12.7 12.7 0 002.9-1.4 2.5 2.5 0 011-.4c.3 0 .4.1.5.5a12.3 12.3 0 01.2 2.6 29.1 29.1 0 013-2.2 5.7 5.7 0 013-1c3 0 5 2.3 5 6.3v8.3c0 1.2.2 1.4 1.8 1.6 1 .2 1 1.3-.1 1.3h-6.4c-1.3 0-1.3-1-.2-1.3 2-.3 2-.7 2-1.8 0-.8.2-1.6.2-5.1v-2.4c0-2.7-1.4-4.5-4.1-4.5a5.8 5.8 0 00-4.1 2.2 1.2 1.2 0 00-.3 1v6.2a19 19 0 00.1 2.8c0 1 .2 1.3 2 1.6 1 .2 1 1.3-.1 1.3H3c-1.2 0-1.2-1-.1-1.3 1.6-.3 1.7-.5 1.8-1.6a25 25 0 00.1-3.4zM32.6 34.2a7 7 0 004-1.3c1.2-.7 1.5.3.6 1.2a9.4 9.4 0 01-6.4 2.5c-4.2 0-7.1-3.6-7.1-8.5a9.6 9.6 0 013.1-7.3 8 8 0 015-2 5.7 5.7 0 016 5.7c.2 0 .4.2.4.5 0 .7-.8 1.1-1.4 1.3-1.5.4-3.3.8-10.2.8 0 4.8 2.5 7.1 6 7.1zm-5.7-8.8h1.3a45.6 45.6 0 006.6-.3.4.4 0 00.2-.4 4.2 4.2 0 00-4.3-4.1c-2 0-3.6 1.3-4 4.5 0 .2 0 .2.2.3zM55.7 21.6a7.4 7.4 0 01-2 .3 8 8 0 01.5 2.3 6.3 6.3 0 01-1.7 4.8 8 8 0 01-5.7 2.4h-.4a3 3 0 00-1 1.6c0 .7 1 1 2 1.1l3.8.3c3.6.3 5.4 1.9 5.4 4.6 0 3-2.2 5-3.5 6a9.5 9.5 0 01-5.7 1.9c-4.9 0-7-3.1-7-5.5a2.2 2.2 0 01.5-1.3 35.5 35.5 0 013.9-3.8 3.2 3.2 0 01-2.2-1.8 1.2 1.2 0 010-1l2.5-2.3a5.6 5.6 0 01-3.8-5.5 6.7 6.7 0 013.2-5.7 8 8 0 014-1.2 8.8 8.8 0 012.4.4 10.3 10.3 0 003.6.8 2.7 2.7 0 001.8-1c.7-.7 1.1-.1 1 .5a6 6 0 01-1 1.6 1.1 1.1 0 01-.6.5zm-9.6 15a23.4 23.4 0 00-2.1 2.2 3 3 0 00-.8 2c0 1.8 1.9 4 6 4 2.8 0 4.8-1.8 4.8-4.3 0-2-1.4-3.2-4-3.5l-3.6-.4zm5.4-11.2c0-3-1.4-5-4-5-2.5 0-3.5 1.7-3.5 4.5 0 2.3 1 4.8 4 4.8 2.3 0 3.5-1.4 3.5-4.3zM59.3 36.2c-1.3 0-1.3-1-.1-1.3 1.5-.3 1.7-.6 1.7-2.1v-8.4a10 10 0 000-1.7c0-.6-.2-.7-1.6-1.3-.7-.2-.7-1 .1-1.2a9.2 9.2 0 003.1-1 2 2 0 011-.4c.3 0 .5.2.4.7a25 25 0 00-.3 4.7v8.4c0 1.7.2 2 1.8 2.3 1.2.2 1.2 1.3 0 1.3h-6.2zm5-24.2a2 2 0 01-2 2.2 2 2 0 01-2-2 2 2 0 012-2.2 2 2 0 012 2zM81 35.2a9.3 9.3 0 01-5.3 1.5 7.9 7.9 0 01-3.5-.9c-.3-.1-1 .3-1.5.4s-.5-.4-.4-1l.2-6.4v-14c0-3-.2-3.9-.3-4.1s-.6-.5-1.8-.8c-1-.3-1-1.1 0-1.3a19.3 19.3 0 003.8-1.2 2 2 0 01.9-.3c.3 0 .5.3.4.7a8.7 8.7 0 00-.3 2.2v11.4c1-.4 4.6-2.6 6.6-2.6 3.9 0 6.4 3.9 6.4 7.2a10.3 10.3 0 01-5.2 9.2zm-3.1-14a6.1 6.1 0 00-4.4 1.7c-.2.2-.3.5-.3 1v6.4a11.8 11.8 0 00.2 2.2c0 .5 0 .8.3 1a5.9 5.9 0 003.8 1.2c3.3 0 5.6-2.5 5.6-7.2 0-3.9-2-6.3-5.2-6.3zM106.3 26.9a9.5 9.5 0 01-2 6.4 9.7 9.7 0 01-7.4 3.5c-4.8 0-7.7-4.2-7.7-8.5a8.7 8.7 0 013.1-7 9.9 9.9 0 016.4-2.5 7.9 7.9 0 017.6 8zm-9.1-6.3c-4 0-5 4-5 6.5 0 3.9 1.8 8 6.3 8 2.9 0 4.8-2.7 4.8-6.9 0-3.2-1.6-7.6-6.1-7.6zM114 29a11.3 11.3 0 00.3 2.8 3.2 3.2 0 003.3 2.5 5.5 5.5 0 004.4-2.4l.1-.8v-7a11.6 11.6 0 000-1.5c-.1-1-.4-1.2-2.3-1.6-1-.1-1-1.3.2-1.3a13.3 13.3 0 003.5-.4l1.1-.3a.5.5 0 01.5.8 23.3 23.3 0 00-.2 3.7v6.7c0 1.9 0 3 .2 3.3.5.5.8.5 2 .4.6 0 .8.7.2 1.2a7.4 7.4 0 01-4 1.5c-1 0-1-1.5-1.1-3.3-1.6 1.5-3.5 3.4-6 3.4a4.5 4.5 0 01-3.4-1.4c-.7-.7-1.5-2-1.5-4.6v-6-2.2c0-.5-.3-1-1.6-1.3-.9-.3-.7-1.1.2-1.3a13.9 13.9 0 003-.8 5.3 5.3 0 011-.3c.4 0 .7.2.5.7a16.6 16.6 0 00-.3 4.2zM0 51.4h129.7v1.9H0zM0 0h129.7v1.9H0z" class="cls-1"/>
    </g>
  </g>
</svg>
