<svg xmlns="http://www.w3.org/2000/svg" viewBox="0 0 79 116">
  <defs/>
  <g fill="#3f3b3a" data-name="グループ 135">
    <path d="M59 34c-6-14-17-7-25 0 0-6 7-16-5-10l-4 3-3-23c0-5-7-5-9-1 0 2 5 0 5 2 2 8 2 17 3 26-1 3-4 5-6 7-2 3-4 1-4 3 5 11 10-4 11 0 2 4-1 8-3 10l-9 15c-1 1-1 2 1 2 1 0 3 4 4 3 5 0 7-6 9-10 2 18 3 35 1 52 0 2 2 2 3 2 8 1-3-55 0-64 2-5 18-26 23-20 3 8-4 13-10 16-1 1-4 1-3 2 1 9 12 7 17 2a20 20 0 005-7c2-2 8-2 9-5-2-7-10 4-10-5m-33 7c0-2-1-7 1-7 1 2 0 5-1 7m25 5l-3 2h-2l-1 1a4 4 0 010-1l4-2a3 3 0 011-1 5 5 0 011 1h1a1 1 0 01-1 0" data-name="パス 780"/>
    <path d="M40 88C18 88 0 70 0 48S18 7 40 7s39 18 39 41-18 40-39 40m0-79C19 9 2 26 2 48s17 38 38 38 37-17 37-38S60 9 40 9" data-name="パス 781"/>
  </g>
</svg>
